/* XPM */
static const char * A_xpm[] = {
"10 20 2 1",
" 	c None",
".	c #000000",
"          ",
"          ",
"          ",
"    ..    ",
"   ...    ",
"   ....   ",
"   . ..   ",
"   .  .   ",
"  ..  .   ",
"  ..  ..  ",
"  .   ..  ",
" .......  ",
" ..    .. ",
" .     .. ",
"..      . ",
"          ",
"          ",
"          ",
"          ",
"          "};
