/* XPM */
static const char * apagador_xpm[] = {
"70 70 77 1",
" 	c None",
".	c #FFFFFF",
"+	c #FFFFFF",
"@	c #FFFFFF",
"#	c #FFFFFF",
"$	c #FFFFFF",
"%	c #FFFFFF",
"&	c #FFFFFF",
"*	c #FFFFFF",
"=	c #FFFFFF",
"-	c #FFFFFF",
";	c #FFFFFF",
">	c #FFFFFF",
",	c #FFFFFF",
"'	c #FFFFFF",
")	c #FFFFFF",
"!	c #FFFFFF",
"~	c #FFFFFF",
"{	c #FFFFFF",
"]	c #FFFFFF",
"^	c #FFFFFF",
"/	c #FFFFFF",
"(	c #FFFFFF",
"_	c #FFFFFF",
":	c #FFFFFF",
"<	c #FFFFFF",
"[	c #FFFFFF",
"}	c #FFFFFF",
"|	c #FFFFFF",
"1	c #FFFFFF",
"2	c #FFFFFF",
"3	c #FFFFFF",
"4	c #FFFFFF",
"5	c #FFFFFF",
"6	c #FFFFFF",
"7	c #FFFFFF",
"8	c #FFFFFF",
"9	c #FFFFFF",
"0	c #FFFFFF",
"a	c #FFFFFF",
"b	c #FFFFFF",
"c	c #FFFFFF",
"d	c #FFFFFF",
"e	c #FFFFFF",
"f	c #FFFFFF",
"g	c #FFFFFF",
"h	c #FFFFFF",
"i	c #FFFFFF",
"j	c #FFFFFF",
"k	c #FFFFFF",
"l	c #FFFFFF",
"m	c #FFFFFF",
"n	c #FFFFFF",
"o	c #FFFFFF",
"p	c #FFFFFF",
"q	c #FFFFFF",
"r	c #FFFFFF",
"s	c #FFFFFF",
"t	c #FFFFFF",
"u	c #FFFFFF",
"v	c #FFFFFF",
"w	c #FFFFFF",
"x	c #FFFFFF",
"y	c #FFFFFF",
"z	c #FFFFFF",
"A	c #FFFFFF",
"B	c #FFFFFF",
"C	c #FFFFFF",
"D	c #FFFFFF",
"E	c #FFFFFF",
"F	c #FFFFFF",
"G	c #FFFFFF",
"H	c #FFFFFF",
"I	c #FFFFFF",
"J	c #FFFFFF",
"K	c #FFFFFF",
"L	c #FFFFFF",
"                          .+@#$$$$$$$$$$%&*=                          ",
"                      .+@#$$$$$$$$$$$$$$$$$$%&*=                      ",
"                    .-;$$$$$$$$$$$$$$$$$$$$$$$$>,=                    ",
"                  .-;$$$$$$$$$$$$$$$$$$$$$$$$$$$$>,=                  ",
"                .-;$$$$$$$$$$$$$$$$$$$$$$$$$$$$$$$$>,=                ",
"               ')$$$$$$$$$$$$$$$$$$$$$$$$$$$$$$$$$$$$!~               ",
"             .-{$$$$$$$$$$$$$$$$$$$$$$$$$$$$$$$$$$$$$$>,=             ",
"            ')$$$$$$$$$$$$$$$$$$$$$$$$$$$$$$$$$$$$$$$$$$!~            ",
"           ']$$$$$$$$$$$$$$$$$$$$$$$$$$$$$$$$$$$$$$$$$$$$^~           ",
"          ']$$$$$$$$$$$$$$$$$$$$$$$$$$$$$$$$$$$$$$$$$$$$$$^~          ",
"         ']$$$$$$$$$$$$$$$$$$$$$$$$$$$$$$$$$$$$$$$$$$$$$$$$^~         ",
"        ']$$$$$$$$$$$$$$$$$$$$$$$$$$$$$$$$$$$$$$$$$$$$$$$$$$^~        ",
"       ']$$$$$$$$$$$$$$$$$$$$$$$$$$$$$$$$$$$$$$$$$$$$$$$$$$$$^~       ",
"      ./$$$$$$$$$$$$$$$$$$$$$$$$$$$$$$$$$$$$$$$$$$$$$$$$$$$$$$(=      ",
"      _:$$$$$$$$$$$$$$$$$$$$$$$$$$$$$$$$$$$$$$$$$$$$$$$$$$$$$$<[      ",
"     '#$$$$$$$$$$$$$$$$$$$$$$$$$$$$$$$$$$$$$$$$$$$$$$$$$$$$$$$$}~     ",
"    ./$$$$$$$$$$$$$$$$$$$$$$$$$$$$$$$$$$$$$$$$$$$$$$$$$$$$$$$$$$(=    ",
"    _:$$$$$$$$$$$$$$$$$$$$$$$$$$$$$$$$$$$$$$$$$$$$$$$$$$$$$$$$$$<[    ",
"   .|$$$$$$$$$$$$$$$$$$$$$$$$$$$$$$$$$$$$$$$$$$$$$$$$$$$$$$$$$$$$1=   ",
"   _:$$$$$$$$$$$$$$$$$$$$$$$$$$$$$$$$$$$$$$$$$$$$$$$$$$$$$$$$$$$$<[   ",
"  .|$$$$$$$$$$$$$$$$$$$$$$$$$$$$$$$$$$$$$$$$$$$$$$$$$$$$$$$$$$$$$$1=  ",
"  _:$$$$$$$$$$$$$$$$$$$$$$$$$$$$$$$$$$$$$$$$$$$$$$$$$$$$$$$$$$$$$$<[  ",
" .|$$$$$$$$$$$$$$$$$$$$$$$$$$$$$$$$$$$$$$$$$$$$$$$$$$$$$$$$$$$$$$$$1= ",
" 23$$$$$$$$$$$$$$$$$$$$$$$$$$$$$$$$$$$$$$$$$$$$$$$$$$$$$$$$$$$$$$$$45 ",
" 67$$$$$$$$$$$$$$$$$$$$$$$$$$$$$$$$$$$$$$$$$$$$$$$$$$$$$$$$$$$$$$$${8 ",
" 9$$$$$$$$$$$$$$$$$$$$$$$$$$$$$$$$$$$$$$$$$$$$$$$$$$$$$$$$$$$$$$$$$$, ",
".0$$$$$$$$$$$$$$$$$$$$$$$$$$$$$$$$$$$$$$$$$$$$$$$$$$$$$$$$$$$$$$$$$$a=",
"23$$$$$$$$$$$$$$$$$$$$$$$$$$$$$$$$$$$$$$$$$$$$$$$$$$$$$$$$$$$$$$$$$$45",
"67$$$$$$$$$$$$$$$$$$$$$$$$$$$$$$$$$$$$$$$$$$$$$$$$$$$$$$$$$$$$$$$$$${8",
"9$$$$$$$$$$$$$$$$$$$$$$$$$$$$$$$$$$$$$$$$$$$$$$$$$$$$$$$$$$$$$$$$$$$$,",
"b$$$$$$$$$$$$$$$$$$$$$$$$$$$$$$$$$$$$$$$$$$$$$$$$$$$$$$$$$$$$$$$$$$$$c",
"b$$$$$$$$$$$$$$$$$$$$$$$$$$$$$$$$$$$$$$$$$$$$$$$$$$$$$$$$$$$$$$$$$$$$c",
"0$$$$$$$$$$$$$$$$$$$$$$$$$$$$$$$$$$$$$$$$$$$$$$$$$$$$$$$$$$$$$$$$$$$$a",
")$$$$$$$$$$$$$$$$$$$$$$$$$$$$$$$$$$$$$$$$$$$$$$$$$$$$$$$$$$$$$$$$$$$$d",
")$$$$$$$$$$$$$$$$$$$$$$$$$$$$$$$$$$$$$$$$$$$$$$$$$$$$$$$$$$$$$$$$$$$$d",
")$$$$$$$$$$$$$$$$$$$$$$$$$$$$$$$$$$$$$$$$$$$$$$$$$$$$$$$$$$$$$$$$$$$$d",
")$$$$$$$$$$$$$$$$$$$$$$$$$$$$$$$$$$$$$$$$$$$$$$$$$$$$$$$$$$$$$$$$$$$$d",
"!$$$$$$$$$$$$$$$$$$$$$$$$$$$$$$$$$$$$$$$$$$$$$$$$$$$$$$$$$$$$$$$$$$$$e",
"b$$$$$$$$$$$$$$$$$$$$$$$$$$$$$$$$$$$$$$$$$$$$$$$$$$$$$$$$$$$$$$$$$$$$c",
"b$$$$$$$$$$$$$$$$$$$$$$$$$$$$$$$$$$$$$$$$$$$$$$$$$$$$$$$$$$$$$$$$$$$$c",
"f$$$$$$$$$$$$$$$$$$$$$$$$$$$$$$$$$$$$$$$$$$$$$$$$$$$$$$$$$$$$$$$$$$$:g",
"_:$$$$$$$$$$$$$$$$$$$$$$$$$$$$$$$$$$$$$$$$$$$$$$$$$$$$$$$$$$$$$$$$$$%h",
"i<$$$$$$$$$$$$$$$$$$$$$$$$$$$$$$$$$$$$$$$$$$$$$$$$$$$$$$$$$$$$$$$$$$jk",
"l!$$$$$$$$$$$$$$$$$$$$$$$$$$$$$$$$$$$$$$$$$$$$$$$$$$$$$$$$$$$$$$$$$$em",
" f$$$$$$$$$$$$$$$$$$$$$$$$$$$$$$$$$$$$$$$$$$$$$$$$$$$$$$$$$$$$$$$$$:g ",
" _:$$$$$$$$$$$$$$$$$$$$$$$$$$$$$$$$$$$$$$$$$$$$$$$$$$$$$$$$$$$$$$$$%h ",
" i<$$$$$$$$$$$$$$$$$$$$$$$$$$$$$$$$$$$$$$$$$$$$$$$$$$$$$$$$$$$$$$$$jk ",
" ln$$$$$$$$$$$$$$$$$$$$$$$$$$$$$$$$$$$$$$$$$$$$$$$$$$$$$$$$$$$$$$$:om ",
"  2{$$$$$$$$$$$$$$$$$$$$$$$$$$$$$$$$$$$$$$$$$$$$$$$$$$$$$$$$$$$$$$pq  ",
"  ln$$$$$$$$$$$$$$$$$$$$$$$$$$$$$$$$$$$$$$$$$$$$$$$$$$$$$$$$$$$$$7om  ",
"   2{$$$$$$$$$$$$$$$$$$$$$$$$$$$$$$$$$$$$$$$$$$$$$$$$$$$$$$$$$$$$pq   ",
"   ln$$$$$$$$$$$$$$$$$$$$$$$$$$$$$$$$$$$$$$$$$$$$$$$$$$$$$$$$$$$7om   ",
"    2{$$$$$$$$$$$$$$$$$$$$$$$$$$$$$$$$$$$$$$$$$$$$$$$$$$$$$$$$$$pq    ",
"    lr:$$$$$$$$$$$$$$$$$$$$$$$$$$$$$$$$$$$$$$$$$$$$$$$$$$$$$$$$<[m    ",
"     s}$$$$$$$$$$$$$$$$$$$$$$$$$$$$$$$$$$$$$$$$$$$$$$$$$$$$$$$7tu     ",
"      2{$$$$$$$$$$$$$$$$$$$$$$$$$$$$$$$$$$$$$$$$$$$$$$$$$$$$$$pq      ",
"      lr:$$$$$$$$$$$$$$$$$$$$$$$$$$$$$$$$$$$$$$$$$$$$$$$$$$$$<[m      ",
"       sv:$$$$$$$$$$$$$$$$$$$$$$$$$$$$$$$$$$$$$$$$$$$$$$$$$$<wu       ",
"        sv:$$$$$$$$$$$$$$$$$$$$$$$$$$$$$$$$$$$$$$$$$$$$$$$$<wu        ",
"         sv:$$$$$$$$$$$$$$$$$$$$$$$$$$$$$$$$$$$$$$$$$$$$$$<wu         ",
"          sv:$$$$$$$$$$$$$$$$$$$$$$$$$$$$$$$$$$$$$$$$$$$$<wu          ",
"           sv:$$$$$$$$$$$$$$$$$$$$$$$$$$$$$$$$$$$$$$$$$$<wu           ",
"            sx]$$$$$$$$$$$$$$$$$$$$$$$$$$$$$$$$$$$$$$$7^yu            ",
"             lz@:$$$$$$$$$$$$$$$$$$$$$$$$$$$$$$$$$$$$<ABm             ",
"               sx]$$$$$$$$$$$$$$$$$$$$$$$$$$$$$$$$$:^yu               ",
"                lzC]$$$$$$$$$$$$$$$$$$$$$$$$$$$$$:^DBm                ",
"                  lzC]$$$$$$$$$$$$$$$$$$$$$$$$$:^DBm                  ",
"                    lzC!;$$$$$$$$$$$$$$$$$$$:]EDBm                    ",
"                      lFGHI!;$$$$$$$$$$$:]E,'JKm                      ",
"                          lFGHLLIrrrr,LL'JKm                          "};
