/* XPM */
static const char * Big0_xpm[] = {
"70 70 226 2",
"  	c None",
". 	c #FFFFFF",
"+ 	c #FBFBFB",
"@ 	c #F7F7F7",
"# 	c #FEFEFE",
"$ 	c #FDFDFD",
"% 	c #F6F6F6",
"& 	c #FCFCFC",
"* 	c #F9F9F9",
"= 	c #FAFAFA",
"- 	c #F8F8F8",
"; 	c #F5F5F5",
"> 	c #F3F3F3",
", 	c #F4F4F4",
"' 	c #E4E4E4",
") 	c #E0E0E0",
"! 	c #DCDCDC",
"~ 	c #D7D7D7",
"{ 	c #D4D4D4",
"] 	c #D8D8D8",
"^ 	c #DFDFDF",
"/ 	c #E8E8E8",
"( 	c #B4B4B4",
"_ 	c #838383",
": 	c #676767",
"< 	c #565656",
"[ 	c #474747",
"} 	c #3F3F3F",
"| 	c #404040",
"1 	c #4B4B4B",
"2 	c #636363",
"3 	c #868686",
"4 	c #B0B0B0",
"5 	c #EFEFEF",
"6 	c #D2D2D2",
"7 	c #959595",
"8 	c #616161",
"9 	c #272727",
"0 	c #0B0B0B",
"a 	c #000000",
"b 	c #0A0A0A",
"c 	c #212121",
"d 	c #575757",
"e 	c #888888",
"f 	c #BCBCBC",
"g 	c #EBEBEB",
"h 	c #EAEAEA",
"i 	c #ADADAD",
"j 	c #626262",
"k 	c #1D1D1D",
"l 	c #020202",
"m 	c #010101",
"n 	c #050505",
"o 	c #090909",
"p 	c #060606",
"q 	c #191919",
"r 	c #464646",
"s 	c #8C8C8C",
"t 	c #E5E5E5",
"u 	c #8A8A8A",
"v 	c #2C2C2C",
"w 	c #030303",
"x 	c #040404",
"y 	c #1E1E1E",
"z 	c #C5C5C5",
"A 	c #F1F1F1",
"B 	c #6D6D6D",
"C 	c #202020",
"D 	c #181818",
"E 	c #5A5A5A",
"F 	c #BABABA",
"G 	c #777777",
"H 	c #080808",
"I 	c #0D0D0D",
"J 	c #131313",
"K 	c #C4C4C4",
"L 	c #F2F2F2",
"M 	c #979797",
"N 	c #111111",
"O 	c #151515",
"P 	c #373737",
"Q 	c #5E5E5E",
"R 	c #929292",
"S 	c #9D9D9D",
"T 	c #969696",
"U 	c #828282",
"V 	c #070707",
"W 	c #0C0C0C",
"X 	c #5D5D5D",
"Y 	c #D5D5D5",
"Z 	c #EEEEEE",
"` 	c #B1B1B1",
" .	c #343434",
"..	c #0F0F0F",
"+.	c #232323",
"@.	c #CACACA",
"#.	c #7A7A7A",
"$.	c #333333",
"%.	c #101010",
"&.	c #6B6B6B",
"*.	c #282828",
"=.	c #E2E2E2",
"-.	c #CECECE",
";.	c #505050",
">.	c #161616",
",.	c #BDBDBD",
"'.	c #8F8F8F",
").	c #ECECEC",
"!.	c #C6C6C6",
"~.	c #4F4F4F",
"{.	c #D3D3D3",
"].	c #D6D6D6",
"^.	c #1C1C1C",
"/.	c #BBBBBB",
"(.	c #0E0E0E",
"_.	c #A5A5A5",
":.	c #222222",
"<.	c #606060",
"[.	c #9F9F9F",
"}.	c #6C6C6C",
"|.	c #DADADA",
"1.	c #454545",
"2.	c #3E3E3E",
"3.	c #AFAFAF",
"4.	c #F0F0F0",
"5.	c #6F6F6F",
"6.	c #2B2B2B",
"7.	c #A7A7A7",
"8.	c #252525",
"9.	c #747474",
"0.	c #B5B5B5",
"a.	c #7C7C7C",
"b.	c #E6E6E6",
"c.	c #808080",
"d.	c #A9A9A9",
"e.	c #646464",
"f.	c #5C5C5C",
"g.	c #4A4A4A",
"h.	c #717171",
"i.	c #DDDDDD",
"j.	c #E7E7E7",
"k.	c #909090",
"l.	c #292929",
"m.	c #3D3D3D",
"n.	c #ACACAC",
"o.	c #1A1A1A",
"p.	c #AAAAAA",
"q.	c #C3C3C3",
"r.	c #595959",
"s.	c #7E7E7E",
"t.	c #9E9E9E",
"u.	c #2A2A2A",
"v.	c #7F7F7F",
"w.	c #D9D9D9",
"x.	c #9B9B9B",
"y.	c #C7C7C7",
"z.	c #1F1F1F",
"A.	c #EDEDED",
"B.	c #424242",
"C.	c #CBCBCB",
"D.	c #B3B3B3",
"E.	c #323232",
"F.	c #2D2D2D",
"G.	c #A1A1A1",
"H.	c #414141",
"I.	c #DEDEDE",
"J.	c #878787",
"K.	c #949494",
"L.	c #E9E9E9",
"M.	c #797979",
"N.	c #171717",
"O.	c #121212",
"P.	c #767676",
"Q.	c #848484",
"R.	c #B7B7B7",
"S.	c #696969",
"T.	c #BEBEBE",
"U.	c #6A6A6A",
"V.	c #858585",
"W.	c #141414",
"X.	c #666666",
"Y.	c #656565",
"Z.	c #1B1B1B",
"`.	c #B8B8B8",
" +	c #787878",
".+	c #8B8B8B",
"++	c #E3E3E3",
"@+	c #919191",
"#+	c #A4A4A4",
"$+	c #262626",
"%+	c #8D8D8D",
"&+	c #989898",
"*+	c #2F2F2F",
"=+	c #A3A3A3",
"-+	c #CFCFCF",
";+	c #353535",
">+	c #545454",
",+	c #C1C1C1",
"'+	c #C0C0C0",
")+	c #B2B2B2",
"!+	c #242424",
"~+	c #A6A6A6",
"{+	c #515151",
"]+	c #CCCCCC",
"^+	c #3C3C3C",
"/+	c #A2A2A2",
"(+	c #383838",
"_+	c #8E8E8E",
":+	c #737373",
"<+	c #494949",
"[+	c #434343",
"}+	c #363636",
"|+	c #B6B6B6",
"1+	c #A8A8A8",
"2+	c #AEAEAE",
"3+	c #BFBFBF",
"4+	c #313131",
"5+	c #C2C2C2",
"6+	c #A0A0A0",
"7+	c #7B7B7B",
"8+	c #DBDBDB",
"9+	c #2E2E2E",
"0+	c #9C9C9C",
"a+	c #E1E1E1",
"b+	c #898989",
"c+	c #C9C9C9",
". . . . . . . . . . . . . . . + @ # . . # $ $ . + % . . . # $ $ & + * * & # # $ & & # . . . . . . . . . . . . . . . . . . . . . . . . . . . ",
". . . . . . . . . . . . . . . . . # + & . $ = * + + $ + + & $ & + * + & * = $ . . . $ @ @ & . . . . . . . . . . . . . . . . . . . . . . . . ",
". . . . . . . . . . . . . . . & * $ + + $ & - = . . . . . . . . . . . . * - = + & # $ ; ; & . . . . . . . . . . . . . . . . . . . . . . . . ",
". . . . . . . . . . . . . . . - > # . & & # . . , ' ) ! ~ { { ] ^ / > $ . . + @ - $ . $ $ # # . . . . . . . . . . . . . . . . . . . . . . . ",
". . . . . . . . . . . . . . . & = # . + $ + % ) ( _ : < [ } | 1 2 3 4 { 5 * # # + $ # . . & & . . . . . . . . . . . . . . . . . . . . . . . ",
". . . . . . . . . . . . . . . . # = $ . = 6 7 8 | 9 0 a a a a a b c } d e f g . . & = $ . # # . . . . . . . . . . . . . . . . . . . . . . . ",
". . . . . . . # & $ . . $ + $ . $ - . h i j k a l m a a a n o p a m l l q r s 6 & . - = # # . . . . . . . . . . . . . . . . . . . . . $ # # ",
". . . . . . # + * $ . & = @ = # . $ t u v 0 m a a m w m a l x w m m a w m x y : z $ . - # & & . . . . . . . . . . . . . . . . . . . . + # $ ",
". . . . . . = - & # * ; & # * * . A B C 0 a a n x m o x a a a a m w a l m a a D E F . * # + & . . . . . . . . . . . . . . . . . . . . # . & ",
". . . . . . + = . # ; A # . & . h G q a x l m x l a a H y 9 k o a a a n I p a a J < K . A @ . . . . . . . . . . . . . . . . . . . . . . * L ",
". . . . . & + $ . & @ @ + $ . , M N m b p m a l O P Q G R S T U : [ y a V W H a a N X Y Z + . . . . . . . . . . . . . . . . . . . . . $ - ; ",
". . . . . @ * . $ - = $ @ & . `  .p m W ..x m +.: ` @ . . . . . * @.#.$.H o W V m a %.&.Z . & . . . . . . . . . . . . . . . . . . . . & $ . ",
". . . . . * = # & - + + % . ~ 2 l H x x H o *._ =.+ . . . # * @ * , ) -.;.W l H p a a >.,., & . . . . . . . . . . . . . . . . . . . . . $ # ",
". . . . . # - - $ # # # . . '.k m m m l a +.R ).. . + # . # $ & # . # + !.;.b a l w x n ~.{.. . . . . . . . . . . . . . . . . . . . . . . . ",
". . . . . . * @ $ . . . . ].;.a w p w a ^.e ' . $ % + # $ & & & + & $ & . /.;.b a n V m (._.* . . . . . . . . . . . . . . . . . . . . $ $ $ ",
". . . . . . & = + & # . > u :.a l p m H <.~ . & , @ # # $ & & & & & & $ . # [.v a x x a a }.].. . . . . . . . . . . . . . . . . . . . $ # + ",
". . . . . # # $ = = # . |.1.n n m l m 2.3.; . % 4.$ . . . # # # # # # . - . ].5.D a m m a 6.7.+ . . . # . . . . . . . . . . . . . . . # . + ",
". . . . . # # # $ & # @ ` 8.a p m l n 9.' . . = @ + . . . . . . . . . . + . & 0.} a a m m a a.A . . # $ . . . # $ . . . . . . . . . . . . # ",
". . . . . . $ $ . . # b.c.D a w a p 6.d.- . $ $ # + # . . . . . . . . . . . . |.e.w a l l a f.].. . # # . . . # $ . . . . . . . . . . . . . ",
". . . . . . & + # . $ 6 g.H a l a W h.i.$ # - = . . . . . . . . . . . . $ # . j.k.l.a n m a m.n.; . # . . # # # . . . . . . . . . . . . . . ",
". . . . . . & = $ . $ /.o.a a l a >.p.# . + % * . . . . . . . . . . . . + $ . - q.r.a p m a q s.g . & . . . & & . . . . . . . . . . . . . . ",
". . . . . . + = # . - t.J a m p H u.K $ & & & # . $ . . . . . . . . . . + $ . . b.v.m n m a a f.=.. + . . . + + . . . . . . . . . . . . . . ",
". . . . . . & + . $ ) #.(.a l m J Q w.# @ & . # $ & . . . . . . . . . . # . $ . 4.x.%.x a m a 1 |.. & . . . & & . . . . . . . . . . . . . . ",
". . . . . . # # . = y.r.0 a w a z.7 A.# & # . & + # . . . . . . . . . . . # + . ; 3.v l a w a B.C.. . . # . # # . . . . . . . . . . . . . . ",
". . . . . . . . . @ D.m.b a w a u.,.& . . . . $ $ . . . . . . . . . . . . $ + . - q.~.w l w a P 0.& . # + # . # $ # . . . . . . . . . . . . ",
". . . . . # . $ # % d.6.n a l a E.{.. . $ $ # . # $ . . . . . . . . . . . & & . + 6 B x x w a F.t.A . & @ + . # & # . . . . . . . . . . . . ",
". . . . . $ # + + % G.^.a a a a H.! . # = * $ . $ = . . . . . . . . . . . & $ . + I.J.n x l a +.u j.. & ; * $ # $ . . . . . . . . . . . . . ",
". . . . . $ # & $ , K.I a m a o r.=.. # = - & . $ * # . . . . . . . . . # $ # # + L.[.p a l a ^.M.^ . $ * = $ # . . . . . . . . . . . . . . ",
". . . . . # . . . A 3 x w l a N &./ . . . & & # # & . . . . . . . . . . $ . . $ $ ; 4 V a w a N.5.w.. . . . # # . . . . . . . . . . . . . . ",
". . . . . # . . . L e n m m a O.B h . . $ & $ . # & . . . . . . . . . . $ # . # . % 3.V a l a N.5.w.. . . . # # . . . . . . . . . . . . . . ",
". . . . . . . . . A 3 n a m a >.P.Z . $ & $ . . # + . . . . . . . . . . # . . . . - D.V a l a >.}.w.. . # . # # . . . . . . . . . . . . . . ",
". . . . . . . . . A Q.n a a a o.s.A . & & $ . . # + . . . . . . . . . . . # . . . * R.V a m a O &.] . # $ . # # . . . . . . . . . . . . . . ",
". . . . . . . # . A Q.n a a a k _ L . & & # . . # & . . . . . . . . . . . # # . . = /.V a m a O S.~ . # $ . # # . . . . . . . . . . . . . . ",
". . . . . . . # . A Q.n a a a y 3 L . $ $ . . . # $ . . . . . . . . . . . # $ # . = T.V a m a O S.~ . # $ . # # . . . . . . . . . . . . . . ",
". . . . . . . # . A Q.n a a a z.3 L . # # . # # . # . . . . . . . . . . . $ & $ . = T.V a m a O U.~ . # $ . # # . . . . . . . . . . . . . . ",
". . . . . . . . . A V.n a a a y V.L . # . # & $ . # . . . . . . . . . . . $ + & . = T.V a m a O &.] . # # . # # . . . . . . . . . . . . . . ",
". . . . . . . . . A 3 n a a a k _ A . . . # = + . # . . . . . . . . . . . $ = + . = T.V a l a O }.w.. . # . # # . . . . . . . . . . . . . . ",
". . . . . . . . . A 3 n a m a y V.L . . . # = + . . . . . . . . . . . . $ + + & . = T.V a w a O &.] . # $ # $ $ # . . . . . . . . . . . . . ",
". . . . . . # $ . A V.n m x a :.s L . . . # & & . . . . . . . . . . . . - + # . . = ,.V H x a W.X.{ . $ = = # $ + # . . . . . . . . . . . . ",
". . . . . . # $ . A V.n a w a z.3 5 . . . # & $ . $ . . . . . . . . . . + $ # # . = f V H x a W.Y.6 . # = + # # & # . . . . . . . . . . . . ",
". . . . . . $ $ . A V.n a m a Z.s.A.. # . . # . $ = # . . . . . . . . . # # $ $ . = /.V p x a >.}.Y . . & $ . # $ . . . . . . . . . . . . . ",
". . . . . # $ $ . A J.n a a a q M.Z . # # . . . $ * # . . . . . . . . . . & & $ . * `.V n w a ^. +i.. . # . . # # . . . . . . . . . . . . . ",
". . . . . . $ $ . L .+n a a a N.9.5 . $ $ # . . # + . . . . . . . . . . . + = $ . - ` V w l a c Q.++. . . . . . . . . . . . . . . . . . . . ",
". . . . . . $ & . > @+V a a a J }.Z . & + # . # # # . . . . . . . . . . . + + # . , #+p a m a $+%+t . . . . # # . . . . . . . . . . . . . . ",
". . . . . . & & . , &+N a a a I <.A.. + + # . # # . . . . . . . . . . . . $ $ . . h @+n a a a u.T / . # # . $ $ . . . . . . . . . . . . . . ",
". . . . . . & + . ; [.^.l a a w ~.j.. + + # . $ $ . . . . . . . . . . . . # # . $ ! #.n a m a *+G.Z # & & . + + . . . . . . . . . . . . . . ",
". . . . . . + = . ; =++.p a a a m.) . & & # # + + . . . . . . . . . . . $ . # . = -+X.x a x a ;+4 @ . $ $ # * * . . . . . . . . . . . . . . ",
". . . . . . + = . % d.v H a a a $.].. & = # . & & . . . . . . . . . . . & # & # - K >+w a x a m.,+. . . . . @ @ . . . . . . . . . . . . . . ",
". . . . . . & = . - `.1.b a l a 6.'+& = % $ . . # # . . . . . . . . . . $ . + # % )+$.p a a a 1 ].. . . . . ; ; . . . . . . . . . . . . . . ",
". . . . . # $ $ . = @.f.0 a w a !+~+g = + $ & $ # + # . . . . . . . . . . - % . L S W.w x l w Q ^ . . . $ . - - . . . . . . . . . . . . . . ",
". . . . . $ $ . . $ ^ #.I p n a o._ |.& . + - & # + # . . . . . . . . . . - * . j.c.l a x a k s.b.. # # + # $ & . . . . . . . . . . . . . . ",
". . . . . & $ . . . > S N o o a 0 {+-+# # @ * # . # . . . . . . . . . . $ . . $ ]+X a m a a ^+d.> . & $ * $ . # # . . . . . . . . . . . . . ",
". . . . . # # . # . $ R.o.n V a a !+,.& & % + . . # . . . . . . . . . . # # . 5 /+;+a p w a E {.# . & & @ $ . $ + # . . . . . . . . . . . . ",
". . . . . . # # . . $ C.(+x a m a N _+A.. $ $ . # + . . . . . . . . . . . * . i.:+W a w ..a 9.4.. $ $ & % & . & = # . . . . . . . . . . . . ",
". . . . . . . . . . # i.U.O.a a a V <+,+* . $ # # & . . . . . . . . . . + . * ( [+a a a p u./++ . & $ $ * $ . # & # . . . . . . . . . . . . ",
". . . . . . . . . . . 5 t.+.a a w 0 J 3 Z . $ $ . . . . . . . . . . . . , . ! G q a m m a : Y . . & # # & # . . . . . . . . . . . . . . . . ",
". . . . . # # . # $ # $ @.| m a x o l H.` % . $ & . . . . . . . . . . . # @ /+}+a a a n 0 G.- . & & . . # . # # . . . . . . . . . . . . . . ",
". . . . . = & # & + # . h S.J l p w m W Q -+. # = . . . . . . . . . . . . |+<+o a x a V f.6 . # + $ . . . . & & . . . . . . . . . . . . . . ",
". . . . . - = $ + & & # + 4 P a n p o a D U.T.L . . . . . $ # . . . . . ,+~.b a w w l ^.4 > . . $ # . . . . $ $ . . . . . . . . . . . & # . ",
". . . . . = & $ + $ $ & . L 9.b a H W p a 0 ;.1+^ A . . . . . . . * Y 2+} V a w x a I Q ) . . . . . . . . . . . . . . . . . . . . . . + = = ",
". . . . . # . & - & . # . $ 3+{+m m a n o p H $+j _.].' L./ t ++! `.j p a w l w n V 4+5+% # # . . . . . . . . . . . . . . . . . . . . . @ Z ",
". . . . . . . + % + . . . . - 6+F.O.w a m w m m V N D ;+{+r.g.*+N.0 H H l m m a l c _ & . 4.; # . . . . . . . . . . . . . . . . . . . . @ @ ",
". . . . . # . & - & . & @ $ . ).S *.a V ..x a b ..a m x 0 (.%.I p a a l x m a a Z.7+; $ =.A # . . . . . . . . . . . . . . . . . . . . - = # ",
". . . . . & # $ = $ . + , - # . L.[.[+H a a V I H a a x p w l w w m l a a a p ^+k.8+. ; A.% # . . . . . . . . . . . . . . . . . . . . - - & ",
". . . . . & # # + = $ $ * * & . . ).n.e.9+o a a a a a x V x a a a a a a a z.>+t.++& ; = & % * . . . . . . . . . . . . . . . . . . . . & = = ",
". . . . . # # # + * + . # $ # . # = A ~ 0+< l.q %.x a a a a a a a H W.y | U 3+L.. . ; = $ % * . . . . . . . . . . . . . . . . . . . . # # & ",
". . . . . . # $ $ + & . . . . . & ; . . 5 !.G.U f.$.*.D N %.W.^.*.2.j V.0.a++ . . $ * , @ * $ . . . . . . . . . . . . . . . . . . . . + # & ",
". . . . . . + = # . # # # $ # . # = $ . . . . Z z t.T 3 #.M.c.b+K.1+c+g . . . # * % @ , @ # . . . . . . . . . . . . . . . . . . . . . * $ + ",
". . . . . . = * # . # $ $ & $ . . . . # # $ # . . . . . . . . . . . . . . . . & ; 5 % . . . . . . . . . . . . . . . . . . . . . . . . & # & ",
". . . . . . . . . . . . . . . . . . . . . . . . . . . . . . . . . . . . . . . . . . . . . . . . . . . . . . . . . . . . . . . . . . . . . . "};
