/* XPM */
static const char * Big1_xpm[] = {
"70 70 155 2",
"  	c None",
". 	c #FFFFFF",
"+ 	c #F9F9F9",
"@ 	c #FDFDFD",
"# 	c #FCFCFC",
"$ 	c #FEFEFE",
"% 	c #FBFBFB",
"& 	c #F7F7F7",
"* 	c #FAFAFA",
"= 	c #F6F6F6",
"- 	c #F3F3F3",
"; 	c #E9E9E9",
"> 	c #F8F8F8",
", 	c #EFEFEF",
"' 	c #D8D8D8",
") 	c #ABABAB",
"! 	c #9A9A9A",
"~ 	c #E4E4E4",
"{ 	c #F0F0F0",
"] 	c #CECECE",
"^ 	c #A5A5A5",
"/ 	c #818181",
"( 	c #5F5F5F",
"_ 	c #363636",
": 	c #3F3F3F",
"< 	c #D0D0D0",
"[ 	c #E5E5E5",
"} 	c #ADADAD",
"| 	c #929292",
"1 	c #676767",
"2 	c #2F2F2F",
"3 	c #0D0D0D",
"4 	c #030303",
"5 	c #010101",
"6 	c #161616",
"7 	c #C6C6C6",
"8 	c #F2F2F2",
"9 	c #E8E8E8",
"0 	c #E1E1E1",
"a 	c #C7C7C7",
"b 	c #858585",
"c 	c #585858",
"d 	c #262626",
"e 	c #111111",
"f 	c #0C0C0C",
"g 	c #040404",
"h 	c #000000",
"i 	c #1A1A1A",
"j 	c #C8C8C8",
"k 	c #EDEDED",
"l 	c #BABABA",
"m 	c #797979",
"n 	c #474747",
"o 	c #2C2C2C",
"p 	c #0F0F0F",
"q 	c #1C1C1C",
"r 	c #9D9D9D",
"s 	c #727272",
"t 	c #565656",
"u 	c #3D3D3D",
"v 	c #1F1F1F",
"w 	c #060606",
"x 	c #020202",
"y 	c #F5F5F5",
"z 	c #CFCFCF",
"A 	c #A3A3A3",
"B 	c #8F8F8F",
"C 	c #525252",
"D 	c #323232",
"E 	c #080808",
"F 	c #D9D9D9",
"G 	c #777777",
"H 	c #0A0A0A",
"I 	c #6B6B6B",
"J 	c #090909",
"K 	c #0B0B0B",
"L 	c #0E0E0E",
"M 	c #1B1B1B",
"N 	c #EEEEEE",
"O 	c #8A8A8A",
"P 	c #050505",
"Q 	c #464646",
"R 	c #A8A8A8",
"S 	c #9B9B9B",
"T 	c #AAAAAA",
"U 	c #252525",
"V 	c #5D5D5D",
"W 	c #808080",
"X 	c #9C9C9C",
"Y 	c #C0C0C0",
"Z 	c #DDDDDD",
"` 	c #5A5A5A",
" .	c #1D1D1D",
"..	c #353535",
"+.	c #515151",
"@.	c #737373",
"#.	c #9F9F9F",
"$.	c #CDCDCD",
"%.	c #BFBFBF",
"&.	c #4D4D4D",
"*.	c #E3E3E3",
"=.	c #999999",
"-.	c #444444",
";.	c #D2D2D2",
">.	c #E6E6E6",
",.	c #BEBEBE",
"'.	c #4F4F4F",
").	c #C2C2C2",
"!.	c #C9C9C9",
"~.	c #595959",
"{.	c #EBEBEB",
"].	c #B7B7B7",
"^.	c #C5C5C5",
"/.	c #CBCBCB",
"(.	c #C4C4C4",
"_.	c #B9B9B9",
":.	c #CACACA",
"<.	c #969696",
"[.	c #454545",
"}.	c #A2A2A2",
"|.	c #D1D1D1",
"1.	c #BDBDBD",
"2.	c #C3C3C3",
"3.	c #F1F1F1",
"4.	c #434343",
"5.	c #373737",
"6.	c #303030",
"7.	c #3C3C3C",
"8.	c #414141",
"9.	c #282828",
"0.	c #070707",
"a.	c #333333",
"b.	c #383838",
"c.	c #393939",
"d.	c #343434",
"e.	c #313131",
"f.	c #2B2B2B",
"g.	c #535353",
"h.	c #242424",
"i.	c #BCBCBC",
"j.	c #202020",
"k.	c #ECECEC",
"l.	c #191919",
"m.	c #F4F4F4",
"n.	c #C1C1C1",
"o.	c #272727",
"p.	c #2D2D2D",
"q.	c #2E2E2E",
"r.	c #A6A6A6",
"s.	c #AEAEAE",
"t.	c #B0B0B0",
"u.	c #A9A9A9",
"v.	c #B2B2B2",
"w.	c #ACACAC",
"x.	c #B3B3B3",
". . . . . . . . . . . . . . . . . . . . . . + + @ . . @ # @ $ @ @ $ . % + $ & * @ * # $ . . . . . . . . . . . . . . . . . . . . . . . . . . ",
". . . . . . . . . . . . . . . . . . . . . . . . . . # + + + * % # @ @ $ . $ & + $ . . . . . . . . . . . . . . . . . . . . . . . . . . . . . ",
". . . . . . . . . . . . . . . . . . . . . . . . @ % * # $ @ $ . # = - + . . . # @ $ # $ . . . . . . . . . . . . . . . . . . . . . . . . . . ",
". . . . . . . . . . . . . . . . . . . . . . $ # * * # . . . . . . @ # @ $ # * * @ $ % @ . . . . . . . . . . . . . . . . . . . . . . . . . . ",
". . . . . . . . . . . . . . . . . . . . . . $ # % @ . . $ % * $ @ * @ . @ @ % # @ @ @ $ . . . . . . . . . . . . . . . . . . . . . . . . . . ",
". . . . . . . . . . . . . . . . . . . . . . . $ $ . . @ # * * $ # & # . . . . . # + $ . . . . . . . . . . . . . . . . . . . . . . . . . . . ",
". . . . . . . . . . . . . . . . . . . . . . . . . . @ * # $ . $ $ . . $ - ; + . > = $ . . . . . . . . . . . . . . . . . . . . . . . . . . . ",
". . . . . . . . . . . . . . . . . . . . . . @ @ . $ % > $ . . % & = , ' ) ! ~ @ = % . . . . . . . . . . . . . . . . . . . . . . . . . . . . ",
". . . . . . . . . . . . . . . . . . . . . . @ @ . $ % * $ @ $ { ] ^ / ( _ : < . * @ > # . . . . . . . . . . . . . . . . . . . . . . . . . . ",
". . . . . . . . . . . . @ $ $ $ . . @ . . # # @ $ . . . [ < } | 1 2 3 4 5 6 7 . . # = # . . . . . . . . . . . . . . . . . . . . . . . . . . ",
". . . . . . . . . . . . % $ @ # # % > . . . . @ 8 9 0 a b c d e f g h h h i j . . . $ . . . . . . . . . . . . . . . . . . . . . . . . . . . ",
". . . . . . . . . . . . $ . # + > > > @ $ @ . k l m n o i p 5 h h h h 5 h q j . $ . . . . . . . . . . . . . . . . . . . . . . . . . . . . . ",
". . . . . . . . . . . . . + 8 - % . . . a r s t u v w h h h x x 5 h h 5 h q j . $ . . . . . . . . . . . . . . . . . . . . . . . . . . . . . ",
". . . . . . . . . . . . @ > y & , z A B C D E h h h w w h 4 5 5 5 h h 5 h q j . $ . . . . . . . . . . . . . . . . . . . . . . . . . . . . . ",
". . . . . . . . . . . . # @ . . F G H h h w H w x h 5 x h h h h h h h 5 h q j . $ . . . . . . . . . . . . . . . . . . . . . . . . . . . . . ",
". . . . . . . . . . . . . @ $ . ' I h h x 5 h 5 x 5 g J K L M i 3 5 h 5 h q j . $ . . . . . . . . . . . . . . . . . . . . . . . . . . . . . ",
". . . . . . . . . . . . . . . . N O h 5 p P h h x 4 P e Q m R S C 3 h 5 h q j . $ . . . . . . . . . . . . . . . . . . . . . . . . . . . . . ",
". . . . . . . . . . . . @ @ @ . & T U h h h h H 2 V W X Y Z @ j ` f h 5 h q j . $ . . . . . . . . . . . . . . . . . . . . . . . . . . . . . ",
". . . . . . . . . . . . @ $ % . # 7 C h  ...+.@.#.$.k y + @ . %.&.E h 5 h q j . $ . . . . . . . . . . . . . . . . . . . . . . . . . . . . . ",
". . . . . . . . . . . . $ . % @ @ *.=.-./ T ;.>., * . . . . . ,.&.E h 5 h q j . $ . . . . . . . . . . . . . . . . . . . . . . . . . . . . . ",
"$ @ . . . . . . . . . . . . $ $ . + ~ a 0 - . . . . $ . $ $ . Y '.J h 5 h q j . $ . . . . . . . . . . . . . . . . . . . . . . . . . . . . . ",
"$ @ . . . . . . . . . . . . . . . . . . . . . . . $ @ . . . . Y '.J h 5 h q j . $ . . . . . . . . . . . . . . . . . . . . . . . . . . . . . ",
"$ . . . . . . . . . . . . . . . . . . . . . . . . $ $ . . . . Y '.J h 5 h q j . $ . . . . . . . . . . . . . . . . . . . . . . . . . . . . . ",
"# . . . . . . . . . . . . . . . . . . . . . . . . $ $ . . . . Y '.J h 5 h q j . $ . . . . . . . . . . . . . . . . . . . . . . . . . . . . . ",
"% . . . . . . . . . . . . . . . . . . . . . . . . $ $ . . . . Y '.J h 5 h q j . $ . . . . . . . . . . . . . . . . . . . . . . . . . . . . . ",
"# . . . . . . . . . . . . . . . . . . . . . . . . $ $ . . . . Y '.J h 5 h q j . $ . . . . . . . . . . . . . . . . . . . . . . . . . . . . . ",
"$ . . . . . . . . . . . . . . . . . . . . . . . . $ $ . . . . Y '.J h 5 h q j . $ . . . . . . . . . . . . . . . . . . . . . . . . . . . . . ",
"$ @ $ . . . . . . . . . . . . . . . . . . . . . . $ $ . . . . Y '.J h 5 h q j . $ . . . . . . . . . . . . . . . . . . . . . . . . . . . . . ",
"$ # $ . . . . . . . . . . . . . . . . . . . . . . $ $ . . . . Y '.J h 5 h q j . $ . . . . . . . . . . . . . . . . . . . . . . . . . . . . . ",
"$ @ . . . . . . . . . . . . . . . . . . . . . . . $ $ . . . . Y '.J h 5 h q j . $ . . . . . . . . . . . . . . . . . . . . . . . . . . . . . ",
"$ . . . . . . . . . . . . . . . . . . . . . . . . $ $ . . . . Y '.J h 5 h q j . $ . . . . . . . . . . . . . . . . . . . . . . . . . . . . . ",
"$ . . . . . . . . . . . . . . . . . . . . . . . . $ $ . . . . Y '.J h 5 h q j . $ . . . . . . . . . . . . . . . . . . . . . . . . . . . . . ",
"$ . . . . . . . . . . . . . . . . . . . . . . . . $ $ . . . . Y '.J h 5 h q j . $ . . . . . . . . . . . . . . . . . . . . . . . . . . . . . ",
"$ . . . . . . . . . . . . . . . . . . . . . . . . $ $ . . . . Y '.J h 5 h q j . $ . . . . . . . . . . . . . . . . . . . . . . . . . . . . . ",
"$ . . . . . . . . . . . . . . . . . . . . . . . . $ $ . . . . Y '.J h 5 h q j . $ . . . . . . . . . . . . . . . . . . . . . . . . . . . . . ",
"$ . . . . . . . . . . . . . . . . . . . . . . . . $ $ . . . . Y '.J h 5 h q j . $ . . . . . . . . . . . . . . . . . . . . . . . . . . . . . ",
"$ . . . . . . . . . . . . . . . . . . . . . . . . $ $ . . . . Y '.J h 5 h q j . $ . . . . . . . . . . . . . . . . . . . . . . . . . . . . . ",
"$ . . . . . . . . . . . . . . . . . . . . . . . . $ $ . . . . Y '.J h 5 h q j . $ . . . . . . . . . . . . . . . . . . . . . . . . . . . . . ",
"$ . . . . . . . . . . . . . . . . . . . . . . . . $ $ . . . . Y '.J h 5 h q j . $ . . . . . . . . . . . . . . . . . . . . . . . . . . . . . ",
"$ . . . . . . . . . . . . . . . . . . . . . . . . $ $ . . . . Y '.J h 5 h q j . $ . . . . . . . . . . . . . . . . . . . . . . . . . . . . . ",
"@ $ . . . . . . . . . . . . . . . . . . . . . . . $ $ . . . . Y '.J h 5 h q j . $ . . . . . . . . . . . . . . . . . . . . . . . . . . . . . ",
"@ % $ . . . . . . . . . . . . . . . . . . . . . . $ $ . . . . Y '.J h 5 h q j . $ . . . . . . . . . . . . . . . . . . . . . . . . . . . . . ",
"$ # $ . . . . . . . . . . . . . . . . . . . . . . $ $ . . . . Y '.J h 5 h q j . $ . . . . . . . . . . . . . . . . . . . . . . . . . . . . . ",
"$ @ . . . . . . . . . . . . . . . . . . . . . . . $ $ . . . . Y '.J h 5 h q j . $ . . . . . . . . . . . . . . . . . . . . . . . . . . . . . ",
"$ $ . . . . . . . . . . . . . . . . . . . . . . . $ $ . . . . Y '.J h 5 h q j . $ . . . . . . . . . . . . . . . . . . . . . . . . . . . . . ",
". . . . . . . . . . . . . . . . . . . . . . . . . $ $ . . . . Y '.J h 5 h q j . $ . . . . . . . . . . . . . . . . . . . . . . . . . . . . . ",
"$ . . . . . . . . . . . . . . . . . . . . . . . . $ $ . . . . Y '.J h 5 h q j . $ . . . . . . . . . . . . . . . . . . . . . . . . . . . . . ",
"@ . . . . . . . . . . . . . . . . . . . . . . . . $ $ . . . . Y '.J h 5 h q j . $ . . . . . . . . . . . . . . . . . . . . . . . . . . . . . ",
"% . . . . . . . . . . . . . . . . . . . . . . . . $ $ . . . . Y '.J h 5 h q j . $ . . . . . . . . . . . . . . . . . . . . . . . . . . . . . ",
"+ . . . . . . . . . . . . . . . . . . . . . . . . $ $ . . . . Y '.J h 5 h q j . $ . . . . . . . . . . . . . . . . . . . . . . . . . . . . . ",
"& . . . . . . . . . . . . . . . . . . . . . . . . $ $ . . . . Y '.J h 5 h q j . $ . . . . . . . . . . . . . . . . . . . . . . . . . . . . . ",
"y . . . . . . . . . . . . . . . . . . . . . . . . $ $ . . . . Y '.J h 5 h q j . $ . . . . . . . . . . . . . . . . . . . . . . . . . $ $ @ . ",
"> . . . . . . . . . . . . . . . . . . . . . . . . $ $ . . . . Y '.J h 5 h q j . $ . . . . . . . . . . . . . . . . . . . . . . . $ $ @ @ $ . ",
"# . . . . . . . . . . . . . . . . . . . . . . . . $ $ . . . . Y '.J h 5 h q j . $ . . . . . . . . . . . . . . . . . . . . . . $ # @ @ $ . . ",
"$ $ . . . . . . . . . . . . . . . . . . . . . . . $ $ . . . . Y '.J h 5 h q j . $ . . . . . . . . . . . . . . . . . . . . . . $ # @ . . . . ",
"@ % $ . . . . . . . . . . . . . . . . . . . . . . $ $ . . . . Y '.J h 5 h q j . $ . . . . . . . . . . . . . . . . . . . . . . . . $ . . . $ ",
"# * $ . . . . . . . . . . . . . . . . . . . . . . $ $ . . . . Y '.J h 5 h q j . $ . . . . . . . . . . . . . . . . . . . . . . . . . . . $ @ ",
"$ # $ . . . . . . . . . . . . . . . . . . . . . . $ $ . . . . Y '.J h 5 h q j . $ . . . . . . . . . . . . . . . . . . . . . . . . . $ @ @ $ ",
". . . . . . . . . . . . . . . . . . . . . . . . . $ $ . . . . Y '.J h 5 h q j . $ . . . . . . . . . . . . . . . . . . . . . . . . @ % * @ . ",
"$ . . . . . . . . . . . . . . . . . . . . . . . . $ @ . . . . %.'.J h 5 h M j . $ . . . . . . . . . . . . . . . . . . . . . . . . @ * * @ . ",
"# . . . . . . . . . . . . . . . . . . . . . . . . . . . . . . ).+.J h 5 h q !.. . . . . . . . . . . . . $ . . . . . . . . . . . . $ # % . . ",
"@ . . . . . . . . . . . # $ . . @ @ $ % . . . . . . . . @ . . 7 ~.f h h h v $.. . . . . . . . . . . . . + % $ . . . . . . . . . $ % % $ $ # ",
". . . . . . . . . . . . % * * + * % {.].a ^.j ^.).^./.(._.:.:.<.[.K h h h i }.|.7 a ^.).a (.1.2.7 )./.= = * $ . . . . . . . . . # = & $ @ % ",
". . . . . . . . . . . . . & N 3.# $ a 2 _ -.4.5.6...7.5.6.8.n 9.H g x 5 h 0.a.7._ b.a.9.a.c.a.d.e.f.g.~ . . . . . . . . . . . . @ & y * @ . ",
". . . . . . . . . . . . . & & # . $ %.h x 4 J J g x g g x P K 0.5 h h x P E P 4 P E w x E H w E E h h.9 $ . . . . . . . . . . . # + * . . . ",
". . . . . . . . . . . . > * $ # % * i.h K x x g x h h 5 5 h h 4 w P 5 h E 3 g h x g h h h h h h 5 h j.k.@ # $ . . . . . . . . . . $ @ # $ = ",
". . . . . . . . . . . . > > # # $ @ ,.h 0.x 5 5 5 h h 5 5 h h 5 P w x h g 0.4 h 5 x h h h 4 J K 0.h j., @ % $ . . . . . . . . . . $ + - . * ",
". . . . . . . . . . . . # * * # . @ ].h h h h h h h h h h h h h h h h h h h h h h h h h h h h h h h l.>.$ $ . . . . . . . . . @ @ @ + m.. . ",
". . . . . . . . . . . . $ $ # % . # n.o.o p.p.6.D e.p.o q.e.6.p.f.o p.q.p.p.d.6.f.2 D 6.p.o o o o o.-.>.$ . . . . . . . . . . # % @ @ * @ % ",
". . . . . . . . . . . . % $ # * @ $ [ r.T ) ) s.t.s.) u.) s.} T u.T ) ) T ) v.s.u.w.t.} T u.T T ) R x.m.@ $ . . . . . . . . . $ @ $ . $ + 8 "};
