/* XPM */
static const char * Big2_xpm[] = {
"70 70 225 2",
"  	c None",
". 	c #FFFFFF",
"+ 	c #FEFEFE",
"@ 	c #FDFDFD",
"# 	c #FBFBFB",
"$ 	c #F9F9F9",
"% 	c #FAFAFA",
"& 	c #FCFCFC",
"* 	c #F4F4F4",
"= 	c #F3F3F3",
"- 	c #F6F6F6",
"; 	c #F8F8F8",
"> 	c #F7F7F7",
", 	c #ECECEC",
"' 	c #E5E5E5",
") 	c #DEDEDE",
"! 	c #D8D8D8",
"~ 	c #D5D5D5",
"{ 	c #D7D7D7",
"] 	c #DADADA",
"^ 	c #DDDDDD",
"/ 	c #E3E3E3",
"( 	c #EDEDED",
"_ 	c #F5F5F5",
": 	c #B8B8B8",
"< 	c #949494",
"[ 	c #797979",
"} 	c #616161",
"| 	c #4C4C4C",
"1 	c #444444",
"2 	c #434343",
"3 	c #474747",
"4 	c #4E4E4E",
"5 	c #5C5C5C",
"6 	c #747474",
"7 	c #979797",
"8 	c #C0C0C0",
"9 	c #E8E8E8",
"0 	c #CFCFCF",
"a 	c #959595",
"b 	c #6C6C6C",
"c 	c #454545",
"d 	c #282828",
"e 	c #181818",
"f 	c #090909",
"g 	c #000000",
"h 	c #020202",
"i 	c #141414",
"j 	c #2D2D2D",
"k 	c #494949",
"l 	c #696969",
"m 	c #C6C6C6",
"n 	c #EFEFEF",
"o 	c #B0B0B0",
"p 	c #5E5E5E",
"q 	c #1F1F1F",
"r 	c #070707",
"s 	c #010101",
"t 	c #030303",
"u 	c #050505",
"v 	c #929292",
"w 	c #D3D3D3",
"x 	c #CACACA",
"y 	c #858585",
"z 	c #252525",
"A 	c #0A0A0A",
"B 	c #0B0B0B",
"C 	c #040404",
"D 	c #212121",
"E 	c #666666",
"F 	c #B9B9B9",
"G 	c #B7B7B7",
"H 	c #565656",
"I 	c #060606",
"J 	c #0E0E0E",
"K 	c #080808",
"L 	c #121212",
"M 	c #464646",
"N 	c #E1E1E1",
"O 	c #F2F2F2",
"P 	c #ADADAD",
"Q 	c #4A4A4A",
"R 	c #111111",
"S 	c #1C1C1C",
"T 	c #242424",
"U 	c #222222",
"V 	c #7A7A7A",
"W 	c #A7A7A7",
"X 	c #131313",
"Y 	c #343434",
"Z 	c #515151",
"` 	c #676767",
" .	c #777777",
"..	c #848484",
"+.	c #8F8F8F",
"@.	c #8C8C8C",
"#.	c #7C7C7C",
"$.	c #646464",
"%.	c #202020",
"&.	c #999999",
"*.	c #3B3B3B",
"=.	c #313131",
"-.	c #636363",
";.	c #A4A4A4",
">.	c #C9C9C9",
",.	c #868686",
"'.	c #0F0F0F",
").	c #B2B2B2",
"!.	c #CECECE",
"~.	c #535353",
"{.	c #0D0D0D",
"].	c #1B1B1B",
"^.	c #6F6F6F",
"/.	c #BEBEBE",
"(.	c #A5A5A5",
"_.	c #404040",
":.	c #272727",
"<.	c #C1C1C1",
"[.	c #DFDFDF",
"}.	c #808080",
"|.	c #888888",
"1.	c #DCDCDC",
"2.	c #6E6E6E",
"3.	c #171717",
"4.	c #0C0C0C",
"5.	c #ACACAC",
"6.	c #232323",
"7.	c #D1D1D1",
"8.	c #757575",
"9.	c #9D9D9D",
"0.	c #767676",
"a.	c #656565",
"b.	c #E7E7E7",
"c.	c #5D5D5D",
"d.	c #6D6D6D",
"e.	c #E6E6E6",
"f.	c #B6B6B6",
"g.	c #484848",
"h.	c #3C3C3C",
"i.	c #BBBBBB",
"j.	c #EEEEEE",
"k.	c #9F9F9F",
"l.	c #E9E9E9",
"m.	c #8A8A8A",
"n.	c #E2E2E2",
"o.	c #7E7E7E",
"p.	c #E0E0E0",
"q.	c #373737",
"r.	c #939393",
"s.	c #A9A9A9",
"t.	c #555555",
"u.	c #919191",
"v.	c #626262",
"w.	c #707070",
"x.	c #BABABA",
"y.	c #414141",
"z.	c #F1F1F1",
"A.	c #262626",
"B.	c #505050",
"C.	c #9B9B9B",
"D.	c #5A5A5A",
"E.	c #7F7F7F",
"F.	c #727272",
"G.	c #E4E4E4",
"H.	c #C7C7C7",
"I.	c #575757",
"J.	c #2B2B2B",
"K.	c #191919",
"L.	c #BDBDBD",
"M.	c #101010",
"N.	c #EBEBEB",
"O.	c #1D1D1D",
"P.	c #D0D0D0",
"Q.	c #1E1E1E",
"R.	c #3D3D3D",
"S.	c #C4C4C4",
"T.	c #2F2F2F",
"U.	c #969696",
"V.	c #323232",
"W.	c #6A6A6A",
"X.	c #DBDBDB",
"Y.	c #D6D6D6",
"Z.	c #BFBFBF",
"`.	c #828282",
" +	c #585858",
".+	c #161616",
"++	c #787878",
"@+	c #4B4B4B",
"#+	c #ABABAB",
"$+	c #424242",
"%+	c #2C2C2C",
"&+	c #8B8B8B",
"*+	c #363636",
"=+	c #878787",
"-+	c #333333",
";+	c #737373",
">+	c #2E2E2E",
",+	c #A0A0A0",
"'+	c #A8A8A8",
")+	c #EAEAEA",
"!+	c #C2C2C2",
"~+	c #AFAFAF",
"{+	c #4F4F4F",
"]+	c #2A2A2A",
"^+	c #C3C3C3",
"/+	c #BCBCBC",
"(+	c #F0F0F0",
"_+	c #818181",
":+	c #838383",
"<+	c #353535",
"[+	c #3E3E3E",
"}+	c #D4D4D4",
"|+	c #1A1A1A",
"1+	c #C8C8C8",
"2+	c #CCCCCC",
"3+	c #393939",
"4+	c #D9D9D9",
"5+	c #3A3A3A",
"6+	c #383838",
"7+	c #292929",
"8+	c #303030",
"9+	c #B5B5B5",
"0+	c #C5C5C5",
"a+	c #AAAAAA",
"b+	c #B1B1B1",
". . . . . . . . . . . . . . . . . . . . . . . + + + + . @ # # @ . . @ $ # + + @ @ + . @ # % & @ @ + . . . . . . . . . . . . . . . . . . . . ",
". . . . . . . . . . . . . . . . . . + + . . . . . + @ & @ + . . . . @ & & @ @ @ + . @ $ * = - # + . . . . . . . . . . . . . . . . . . . . . ",
". . . . . . . . . . . . . . . . . . + + . . . . . + @ # ; ; & . . . . . . % $ @ . . . . + + + @ & + . . . . . . . . . . . . . . . . . . . . ",
". . . . . . . . . . . . . . . . . . . . . + . . . . + & & @ + + ; = * # + @ + . + % - - > % + . + . . . . . . . . . . . . . . . . . . . . . ",
". . . . . . . . . . . . . . . . . . . . + @ @ + . . . + + + . + % - > @ + . # > $ & $ $ % ; # + . . . . . . . . . . . . . . . . . . . . . . ",
". . . . . . . . . . . . . . . . . . . . + & # + . . . . & & . . . . . . . . . . . . . . . & # # & + . . . . . . . . . . . . . . . . . . . . ",
". . . . . . . . . . . . . . . . . . . . + # & + . . + @ + . + - , ' ) ! ~ ~ { ] ^ / ( ; . . . & % & . . . . . . . . . . . . . . . . . . . . ",
". . . . . . . . . . . . . . . . . . . . @ & @ + . . @ % # _ ) : < [ } | 1 2 3 4 5 6 7 8 9 = % . . + . . . . . . . . . . . . . . . . . . . . ",
". . . . . . . . . . . . . . . . . . . + & + . . . + @ # 0 a b c d e f g g g g g h i j k l < m n . . . . . . . . . . . . . . . . . . . . . . ",
". . . . . . . . . . . . . . . . . + & & & $ @ . . % ) o p q r h s s g g g s s g g s s t u q 4 v w $ . . + % @ . . + + . . . . . . . . . . . ",
". . . . . . . . . . . . . . . . . + # & & - @ . * x y z A s g h h g g g g g g s h t t s B t C D E F n . . _ % . @ $ & . . . . . . . . . . . ",
". . . . . . . . . . . . . . . . . . + + + @ . _ G H e u C g g s g g g C t g g g g I J K t t I C L M 7 N . @ % + % O $ . . . . . . . . . . . ",
". . . . . . . . . . . . . . . . . + & $ $ & > P Q A g r K h g g g g h R S T U i t g g g u u I s g I j V . * $ % - > & + . . . . . . . . . . ",
". . . . . . . . . . . . . . . . . + & % & - W 2 f g g t g g X Y Z `  ...+.a a @.#.$.c %.r g g t t g g %.&.( + - > + @ & . . . . . . . . . . ",
". . . . . . . . . . . . . . . . . . . . % m *.g t r h g X =.-.;.] $ . . . . . . . > >.,.4 z I h I u C t '.).- @ % % % & . . . . . . . . . . ",
". . . . . . . . . . . . . . . . . . . # !.~.X s g C {.].^./.^ * . . . . . . % ; & + _ = O (._.B t r K s C :.<.. % = $ . . . . . . . . . . . ",
". . . . . . . . . . . . . . . . . . @ [.}.J g g t A z |.1.# . . . + & & & % % % # @ . . # = 0 2.3.g K 4.g g  .[.. . @ . . . . . . . . . . . ",
". . . . . . . . . . . . . . . . . . > 5.=.C g h g 6.&.' @ . . @ & @ + + + # % ; ; # . . ; + . 7.8.%.g K I s e 9.. . @ . . . . . . . . . . . ",
". . . . . . . . . . . . . . . . . . / 0.f s C g '.a.b.+ . + + @ @ @ @ + . . & $ $ % % . + % . . x c.r s u u g d.e.. . . . . . . . . . . . . ",
". . . . . . . . . . . . . . . . . * f.g.s g u g h.i.$ . @ + . . . + & @ . . + + @ # $ . . @ + . j.k.Y g C h g c : ; . + . . . . . . . . . . ",
". . . . . . . . . . . . . . . . . l.m.U s g g g E ; @ @ @ + . . . . + + . . . . . + @ . . . . . . ! 2.g A s g T @.( . @ . . . . . . . . . . ",
". . . . . . . . . . . . . . . . . n.b I g g h B o.. . @ + . . . . . . . . . . . . . . . . . . . . O a u K s g J b n.. @ . . . . . . . . . . ",
". . . . . . . . . . . . . . . . . p.E r 4.L %.q.r.% . . . . . . . . . . . . . . . . . . . . . . . * s.6.g g g g t.! . . . . . . . . . . . . ",
". . . . . . . . . . . . . . . . . 9 u.~.c.v.w.|.<.% . & & . . . . . . . . . . . . . . . . . . . . - x.y.h t s g g.{ . . . . . . . . . . . . ",
". . . . . . . . . . . . . . . . . + % ; > z.( O # . + > % + . . . . . . . . . . . . . . . . . . . _ f._.h g g g | ^ . @ . . . . . . . . . . ",
". . . . . . . . . . . . . . . . . + % @ . . + + . . . + + . . . . . . . . . . . . . . . . . . . . = s.A.I g g g B.p.. # . . . . . . . . . . ",
". . . . . . . . . . . . . . . . . + @ @ . . . . # * ; # + . . . . . . . . . . . . . . . . . . . . O C.t f t g g D.p.. + . . . . . . . . . . ",
". . . . . . . . . . . . . . . . . + & # # @ + . % - $ # + . . . . . . . . . . . . . . . . . . . . l.E.g u I g R F.G.. . . . . . . . . . . . ",
". . . . . . . . . . . . . . . . . + # ; $ # . # % & & @ . . . . . . . . . . . . . . . . . . . . # H.I.g s I g J.< ( . . . . . . . . . . . . ",
". . . . . . . . . . . . . . . . . . @ % % @ . ; $ . # @ . . . . . . . . . . . . . . . + + . @ . , 7 d g g I g M x.; . @ . . . . . . . . . . ",
". . . . . . . . . . . . . . . . . . . . + . . % # + % @ . . . . . . . . . . . . . . . & # . % . 7.v.C h g u g ` [.. @ # . . . . . . . . . . ",
". . . . . . . . . . . . . . . . . . . . . . . . . . . . . . . . . . . . . . . + & & . % % @ & 9 &.j g K u h K.7 $ . & + . . . . . . . . . . ",
". . . . . . . . . . . . . . . . . . . . . . . . . . . . . . . . . . . . . . . # * _ . + . % . L.k t g I M.g v.0 # ; % . . . . . . . . . . . ",
". . . . . . . . . . . . . . . . . . . . . . . . . . . . . . . . . . . . . . & $ # @ # . ; . !.v.R g t g u R : % = % # # . . . . . . . . . . ",
". . . . . . . . . . . . . . . . . . . . . . . . . . . . . . . . . . . . . . + + . . # = . G.2.3.g C C g g o./ . + & - > . . . . . . . . . . ",
". . . . . . . . . . . . . . . . . . . . . . . . . . . . . . . . . . . . . . . + $ - # @ N. .O.g C I g f I.P.- + . & $ # . . . . . . . . . . ",
". . . . . . . . . . . . . . . . . . . . . . . . . . . . . . . . . . . . . . . + % ; # j.,.Q.g h I g t R.S._ @ # % & + . . . . . . . . . . . ",
". . . . . . . . . . . . . . . . . . . . . . . . . . . . . . . . . . . . . . . . . @ b.C.D g g C g h T.U.$ + & ; > & . . . . . . . . . . . . ",
". . . . . . . . . . . . . . . . . . . . . . . . . . . . . . . . . . . . . . . . # G.;.j g s C g g A.,.e.- @ - - $ & + . . . . . . . . . . . ",
". . . . . . . . . . . . . . . . . . . . . . . . . . . . . . . . . . . . . . . + ) U.h.g K r g g q 0.1.. j.> - > # @ @ . . . . . . . . . . . ",
". . . . . . . . . . . . . . . . . . . . . . . . . . . . . . . + @ + . . @ . . N r.V.g u R h g e W.7.. . & * & @ # + + + . . . . . . . . . . ",
". . . . . . . . . . . . . . . . . . . . . . . . . . . . @ @ + $ ; & . + % . X.E.T g C '.C g M.2.Y.. . . . . . . . . . . . . . . . . . . . . ",
". . . . . . . . . . . . . . . . . . . . . . . . . . . . > - & % ; @ + $ . 0 l S g g u h g X ..[.. . . . . . . . . . . . . . . . . . . . . . ",
". . . . . . . . . . . . . . . . . . . . . . . . . . . . & & + & & @ @ . Z.v.S g g r A g h `.! % . . . . . . . . . . . . . . . . . . . . . . ",
". . . . . . . . . . . . . . . . . . . . . . . . . . . . . . . . . . @ :  +3.C I u s C .+8.^ # $ ; & . . . . . . . . . . . . . . . . . . . . ",
". . . . . . . . . . . . . . . . . . . . . . . . . . . . @ @ . . . % L.Q L s u K s g S ++' . . & > % . . . . . . . . . . . . . . . . . . . . ",
". . . . . . . . . . . . . . . . . . . . . . . . . . . . & % . . = : @+{.g h C g s 6.6 b.. + & & @ + . . . . . . . . . . . . . . . . . . . . ",
". . . . . . . . . . . . . . . . . . . . . . . . . . . . + # & z.#+$+r h g s g h j ,.n.. . - z.- @ . . . . . . . . . . . . . . . . . . . . . ",
". . . . . . . . . . . . . . . . . . . . . . . . . . . . + & ' (.1 g g u h g g %+&+' . + . * O ; @ . . . . . . . . . . . . . . . . . . . . . ",
". . . . . . . . . . . . . . . . . . . . . . . . . . . . . ) v *+t g h t g t =.@.N . _ @ . $ @ @ & @ . . . . . . . . . . . . . . . . . . . . ",
". . . . . . . . . . . . . . . . . . + + . . . . . . . . G.=+A.g g u I g g -+C.e.. . @ % . + . & % & . . . @ + . . . . + . . . . . . . . . . ",
". . . . . . . . . . + + @ . . . . @ > ; + . . . . . . ] ;+D h g g h h s >+,+l.. . . . + . . . + + + . . . * # . . . @ @ . . . . . . . . . . ",
". . . . . . . . + + @ @ + . . . . @ # & $ ( % . . . P.E e g g r u g g _.'+)+& + . . . . . . . . . @ % # . - & . @ % # + . . . . . . . . . . ",
". . . . . . . + & @ @ + . . . + + + . & * j.% . $ !+W.J g g I K g I 2 ~+; . # @ . . . . . . . . . @ # % . # + . # > # . . . . . . . . . . . ",
". . . . . . . + & @ . . . . + @ & + + $ * & . > ).{+'.g s C I g A @+x.@ & & + . . . . . . . . . . + @ @ . @ . . % * % . . . . . . . . . . . ",
". . . . . . . . . + . . . + & & @ + . + > * ; W *.t g h C h g B H !+@ @ & $ # + . . . . . . . . . @ # # . . + . $ z.; . . . . . . . . . . . ",
". . . . . . . . . . . . + @ @ + . . + + . O +.*+A g s I t g '.-.H.# . + + @ + . . . . . . . . . . . + . . . % & @ # + . . . . . . . . . . . ",
". . . . . . . . . . + @ @ + . . . + # . = &.]+g u A s h g U 8.0 & . @ # . . . . . . . . . . . . . . . . . . . . . . & # . . . . . . . . . . ",
". . . . . . . . . @ # % @ . . . + + + [.|.j u g I B s g z }.! @ . @ % # & % # + . . . . . . . . . & b.^+f.F /+o S.(+& $ . . . . . . . . . . ",
". . . . . . . . . @ % % @ . . & @ + n._+S h g s h s C 6.:+] ; + . & - @ & - > @ . . . . . . . . . > m l <+T.-+U -.X.. & . . . . . . . . . . ",
". . . . . . . . . + & # . . . # # X.[ q t g g u C u j U.p.. @ $ @ . # + . & & . . . . . . . . . . > x.[+s g g g 2 }+. + . . . . . . . . . . ",
". . . . . . . . + # # + + & @ . 1.#.e g K t g g R y.U._ . . . . . . . . . . . . . . . . . . . . . . 8 $+s g g g g.{ . . . . . . . . . . . . ",
". . . . . . . . & - > + @ # & . i.>+g h g u C g |+d.8 0 >.m H.1+H.m m H.m m m m m m m m m m m m 2+m r.3+C I r g k 4+. . . . . . . . . . . . ",
". . . . . . . . @ > _ % @ . + . 8 5+g g s u K h J V.Q 2 6+<+*+*+*+*+*+*+*+*+*+*+*+*+*+*+*+*+*+*+q.-+6.{.I L M.g Q ] . + . . . . . . . . . . ",
". . . . . . . . & $ % . . . = . : 7+g g g s h s t A f C t t t t t t t t t t t t t t t t t t t t u K r s s s s g @+X.. > . . . . . . . . . . ",
". . . . . . . . . + @ & + - O . !+*.g g s g g g g g s t t s s s s s s s s s s s s s s s s s s s s g g g g g I g Q X.. % . . . . . . . . . . ",
". . . . . . . . . + $ = . % % . /+8+g s C h h C t g s f r s s s s s s s s s s s s s s s s s s s h t t h t g h g @+X.. @ . . . . . . . . . . ",
". . . . . . . @ @ @ $ * . . . . 9+A.g g g g g g g g g g g g g g g g g g g g g g g g g g g g g g g g g g g g g g _.P.. . . . . . . . . . . . ",
". . . . . . . & # @ @ % @ # . . 0+D.j %+%+J.]+>+T.>+j j j j j j j j j j j j j j j j j j j j j j j j %+j >+%+Y d } 7.. . . . . . . . . . . . ",
". . . . . . . + @ + . + $ O # . l.!+P a+a+'+'+#+P #+a+#+#+a+a+a+a+a+a+a+a+a+a+a+a+a+a+a+a+a+a+a+a+a+a+a+#+a+b+a+/+)+. . . . . . . . . . . . "};
