/* XPM */
static const char * Big3_xpm[] = {
"70 70 236 2",
"  	c None",
". 	c #FFFFFF",
"+ 	c #FEFEFE",
"@ 	c #FDFDFD",
"# 	c #FCFCFC",
"$ 	c #FAFAFA",
"% 	c #F7F7F7",
"& 	c #F5F5F5",
"* 	c #FBFBFB",
"= 	c #F9F9F9",
"- 	c #F0F0F0",
"; 	c #F1F1F1",
"> 	c #F8F8F8",
", 	c #E9E9E9",
"' 	c #E2E2E2",
") 	c #DCDCDC",
"! 	c #D7D7D7",
"~ 	c #D4D4D4",
"{ 	c #DBDBDB",
"] 	c #E4E4E4",
"^ 	c #DFDFDF",
"/ 	c #C0C0C0",
"( 	c #A3A3A3",
"_ 	c #898989",
": 	c #707070",
"< 	c #5A5A5A",
"[ 	c #494949",
"} 	c #404040",
"| 	c #474747",
"1 	c #595959",
"2 	c #555555",
"3 	c #5B5B5B",
"4 	c #787878",
"5 	c #CCCCCC",
"6 	c #E6E6E6",
"7 	c #F3F3F3",
"8 	c #C5C5C5",
"9 	c #8C8C8C",
"0 	c #6D6D6D",
"a 	c #343434",
"b 	c #222222",
"c 	c #111111",
"d 	c #030303",
"e 	c #000000",
"f 	c #010101",
"g 	c #040404",
"h 	c #181818",
"i 	c #333333",
"j 	c #4E4E4E",
"k 	c #696969",
"l 	c #979797",
"m 	c #D3D3D3",
"n 	c #F6F6F6",
"o 	c #BEBEBE",
"p 	c #919191",
"q 	c #575757",
"r 	c #151515",
"s 	c #090909",
"t 	c #020202",
"u 	c #050505",
"v 	c #262626",
"w 	c #636363",
"x 	c #A6A6A6",
"y 	c #E3E3E3",
"z 	c #999999",
"A 	c #3F3F3F",
"B 	c #0D0D0D",
"C 	c #080808",
"D 	c #232323",
"E 	c #7C7C7C",
"F 	c #D1D1D1",
"G 	c #BBBBBB",
"H 	c #666666",
"I 	c #292929",
"J 	c #060606",
"K 	c #0C0C0C",
"L 	c #121212",
"M 	c #AFAFAF",
"N 	c #B4B4B4",
"O 	c #4A4A4A",
"P 	c #0F0F0F",
"Q 	c #070707",
"R 	c #171717",
"S 	c #252525",
"T 	c #161616",
"U 	c #0A0A0A",
"V 	c #4D4D4D",
"W 	c #F4F4F4",
"X 	c #EEEEEE",
"Y 	c #ECECEC",
"Z 	c #C4C4C4",
"` 	c #424242",
" .	c #101010",
"..	c #2D2D2D",
"+.	c #484848",
"@.	c #5E5E5E",
"#.	c #6F6F6F",
"$.	c #808080",
"%.	c #8E8E8E",
"&.	c #969696",
"*.	c #8B8B8B",
"=.	c #7D7D7D",
"-.	c #6B6B6B",
";.	c #545454",
">.	c #373737",
",.	c #0B0B0B",
"'.	c #515151",
").	c #C9C9C9",
"!.	c #DEDEDE",
"~.	c #353535",
"{.	c #CDCDCD",
"].	c #ABABAB",
"^.	c #616161",
"/.	c #131313",
"(.	c #6C6C6C",
"_.	c #D9D9D9",
":.	c #B1B1B1",
"<.	c #282828",
"[.	c #7A7A7A",
"}.	c #D2D2D2",
"|.	c #B0B0B0",
"1.	c #525252",
"2.	c #1F1F1F",
"3.	c #505050",
"4.	c #0E0E0E",
"5.	c #4F4F4F",
"6.	c #6E6E6E",
"7.	c #C8C8C8",
"8.	c #959595",
"9.	c #5C5C5C",
"0.	c #BDBDBD",
"a.	c #727272",
"b.	c #1D1D1D",
"c.	c #191919",
"d.	c #A4A4A4",
"e.	c #B9B9B9",
"f.	c #777777",
"g.	c #BABABA",
"h.	c #7E7E7E",
"i.	c #E8E8E8",
"j.	c #E7E7E7",
"k.	c #8D8D8D",
"l.	c #F2F2F2",
"m.	c #EBEBEB",
"n.	c #828282",
"o.	c #E1E1E1",
"p.	c #656565",
"q.	c #AEAEAE",
"r.	c #383838",
"s.	c #A5A5A5",
"t.	c #EFEFEF",
"u.	c #797979",
"v.	c #989898",
"w.	c #EDEDED",
"x.	c #EAEAEA",
"y.	c #C6C6C6",
"z.	c #B3B3B3",
"A.	c #909090",
"B.	c #2C2C2C",
"C.	c #686868",
"D.	c #CFCFCF",
"E.	c #535353",
"F.	c #888888",
"G.	c #D5D5D5",
"H.	c #212121",
"I.	c #848484",
"J.	c #D8D8D8",
"K.	c #E5E5E5",
"L.	c #2E2E2E",
"M.	c #323232",
"N.	c #B8B8B8",
"O.	c #DDDDDD",
"P.	c #C3C3C3",
"Q.	c #1A1A1A",
"R.	c #A0A0A0",
"S.	c #626262",
"T.	c #2A2A2A",
"U.	c #B2B2B2",
"V.	c #5D5D5D",
"W.	c #3A3A3A",
"X.	c #939393",
"Y.	c #E0E0E0",
"Z.	c #838383",
"`.	c #1E1E1E",
" +	c #7B7B7B",
".+	c #878787",
"++	c #272727",
"@+	c #757575",
"#+	c #D0D0D0",
"$+	c #9A9A9A",
"%+	c #141414",
"&+	c #CACACA",
"*+	c #6A6A6A",
"=+	c #464646",
"-+	c #CBCBCB",
";+	c #747474",
">+	c #4C4C4C",
",+	c #CECECE",
"'+	c #8F8F8F",
")+	c #ACACAC",
"!+	c #414141",
"~+	c #BFBFBF",
"{+	c #242424",
"]+	c #606060",
"^+	c #313131",
"/+	c #A9A9A9",
"(+	c #393939",
"_+	c #B6B6B6",
":+	c #434343",
"<+	c #ADADAD",
"[+	c #A8A8A8",
"}+	c #858585",
"|+	c #949494",
"1+	c #9E9E9E",
"2+	c #3B3B3B",
"3+	c #C2C2C2",
"4+	c #C7C7C7",
"5+	c #3D3D3D",
"6+	c #2B2B2B",
"7+	c #717171",
"8+	c #9C9C9C",
"9+	c #1C1C1C",
"0+	c #7F7F7F",
"a+	c #9B9B9B",
"b+	c #5F5F5F",
"c+	c #DADADA",
"d+	c #1B1B1B",
"e+	c #3C3C3C",
"f+	c #303030",
"g+	c #202020",
"h+	c #3E3E3E",
"i+	c #585858",
"j+	c #D6D6D6",
"k+	c #929292",
"l+	c #2F2F2F",
"m+	c #737373",
". . . . . . . . . . . . . . . . . + @ @ . . . . . . . . . . + @ @ + . # $ + . . . + # @ # % & * . . . . . . . . . . . . . . . . . . . . . . ",
". . . . . . . . . . . . . . . . . + @ # . . . . . + # @ + + @ + . . . . # = @ . @ % - ; $ @ + . . . . . . . . . . . . . . . . . . . . . . . ",
". . . . . . . . . . . . . . . . + + + + + + . . + # * # + . + . . . + @ @ # + . + @ * * + @ $ @ . . . . . . . . . . . . . . . . . . . . . . ",
". . . . . . . . . . . . . . . + @ @ . . @ * @ . . @ # # + . . . . . + + @ * + . . + @ @ @ * = # . . . . . . . . . . . . . . . . . . . . . . ",
". . . . . . . . . . . . . . . + * * . . + * # + . . + @ . . . . . . . . . . . . . . + @ @ @ # + . . . . . . . . . . . . . . . . . . . . . . ",
". . . . . . . . . . . . . . . + $ * . . + @ + . + + . . . > - , ' ) ! ~ ! ) { ) ] - # . . . . . . . . . . . . . . . . . . . . . . . . . . . ",
". . . . . . . . . . . . . . . + # # . . + + . . + * = ; ^ / ( _ : < [ } | 1 2 3 4 ( 5 6 7 * . . . . . . . . . . . . . . . . . . . . . . . . ",
". . . . . . . . . . . . . . . + + + . . # . . + + ; 8 9 0 [ a b c d e e e f e g h i j k l m n . . . . . . . . . . . . . . . . . . . . . . . ",
". . . . . . . . . . . . . . . . . . + * # . . , o p q r s d t f e e f d e e e e f t t u v w x y . . . + . + + + + . . . . . . . . . . . . . ",
". . . . . . . . . . . . . . . . + + @ > . $ y z A B s e e f f e f d t e e e e f t g g f t C D E F & . * + + @ + . . . . . . . . . . . . . . ",
". . . . . . . . . . . . . . . + $ > # @ . G H I s e f e d d f e e e e e f d f d d f t J K C t L j M . > @ . + + + . . . . . . . . . . . . . ",
". . . . . . . . . . . . . . . . # & n . N O P e e g t e f e e e e Q R S v T U e e e U Q Q C g e g V / > . . W X % . . . . . . . . . . . . . ",
". . . . . . . . . . . . . . . + @ = Y Z ` Q e g u f e e  ...+.@.#.$.%.l &.*.=.-.;.>.R e e u u d e ,.'.).n . n - n . . . . . . . . . . . . . ",
". . . . . . . . . . . . . . . # $ @ !.2 f g J C u g r ~.@.z {.; . . . . . . . @ ] ].^.../.Q f d u e u (._.$ . . * $ . . . . . . . . . . . . ",
". . . . . . . . . . . . . . . # > X :.C e e f e u <.[.}.{ ; # . . . . . + $ + . + + W |.1.L e e e e d 2.M , = * n & . . . . . . . . . . . . ",
". . . . . . . . . . . . . . . . = / 3.e e e e 4.5.|.7 + + . . @ * $ $ $ * @ . @ n W . % 5 0 R e e g ,.d 6.7.; > > # . . . . . . . . . . . . ",
". . . . . . . . . . . . . . . . @ !.8.| C e B 9.0.& + = # + + # # # # @ $ % @ + > & # . W 8 a.b.e s 4.e c.d.7 . @ . . . . . . . . . . . . . ",
". . . . . . . . . . . . . . . . . * , e.f.D 1 g.W # W > * + @ # @ + . + * n # . + @ # # % = 7.| e Q Q g e h.i.. . . . . . . . . . . . . . . ",
". . . . . . . . . . . . . . . . . @ * n j.k.0.l.# > # @ + . + # @ . . @ # @ # # + . * $ * . m.n.b.e d U e 9.7.$ . + . . . . . . . . . . . . ",
". . . . . . . . . . . . . . . . . @ @ . . 6 & . @ # . . . . . + + . . + + . + = $ + @ @ $ @ $ o [ e f s e O N 7 . . . . . . . . . . . . . . ",
". . . . . . . . . . . . . . . . . . . . . . . . . . . . . . . . . . . . . . . * * . . @ > * . o.p.e e g e ` q.l.. . . . . . . . . . . . . . ",
". . . . . . . . . . . . . . . . . . . . . . . . . . . . . . . . . . . . + # + . . . + # * @ . X : e e e e r.s.t.. . . . . . . . . . . . . . ",
". . . . . . . . . . . . . . . . . . . . . . . . . . . . . . . . . . . . # = @ . . . + . . . . % u.e d e e ..v.m.. + . . . . . . . . . . . . ",
". . . . . . . . . . . . . . . . . . . . . . . . . . . . . . . . . . . . . . # # + . . . . @ . w.: e C e J a z x.. . . . . . . . . . . . . . ",
". . . . . . . . . . . . . . . . . . . . . . . . . . . . . . . . . . . . . + $ $ + + $ $ @ . * y.3.e d d e [ z.7 . . . . . . . . . . . . . . ",
". . . . . . . . . . . . . . . . . . . . . . . . . . . . . . . . . . . . . . = * . @ > * . . 7 A.B.J e f e C.! . . + . . . . . . . . . . . . ",
". . . . . . . . . . . . . . . . . . . . . . . . . . . . . . . . . . . . . @ = # . + * + . . D.E.K 4.e e e F.Y . # + . . . . . . . . . . . . ",
". . . . . . . . . . . . . . . . . . . . . . . . . . . . . . . . . . . . + # = # . @ . . . G.h.H.e U t e I |.n . * . . . . . . . . . . . . . ",
". . . . . . . . . . . . . . . . . . . . . . . . . . . . . . + + . + + . + @ * + . . . = ) I...g e g u Q a.J.@ @ # . . . . . . . . . . . . . ",
". . . . . . . . . . . . . . . . . . . . . . . . . . + @ . . = # . + @ . . . # @ . $ K.G [.L.d e t f C M.N.& . @ $ * . . . . . . . . . . . . ",
". . . . . . . . . . . . . . . . . . . . . . . . . . + # . + & = . + @ + . . n x.O.P.k.` Q e e g g f Q.A.x.. . * % = . . . . . . . . . . . . ",
". . . . . . . . . . . . . . . . . . . . . . . . . . + # @ # . W m.w.x.y ' K.D.R.S.T.u e e e J K Q L w i.+ . = % * . . . . . . . . . . . . . ",
". . . . . . . . . . . . . . . . . . . . . . . . . . . . . + . U.V.V +.W.v B B 4.Q t f g u d e e u S.. @ K.] l.* * $ . . . . . . . . . . . . ",
". . . . . . . . . . . . . . . . . . . . . . . . . . + * * + . k./.u U J g f e e e e e f t t B r.X.Y.i.. $ W % @ + + . . . . . . . . . . . . ",
". . . . . . . . . . . . . . . . . . . . . . . . . . . @ * . . Z.g e d g g Q t e g K U d e e b X.; . t.7 . # * + . . . . . . . . . . . . . . ",
". . . . . . . . . . . . . . . . . . . . . . . . . . + @ @ . . I.J e d u g J t e g K s t e e `. +{ . . & > $ $ $ @ . . . . . . . . . . . . . ",
". . . . . . . . . . . . . . . . . . . . . . . . . . + # + . . .+Q e e e e e e e e d d e f g ,.++@+#+= . n = $ = * . . . . . . . . . . . . . ",
". . . . . . . . . . . . . . . . . . . . . . . . . . + @ . . . $+L.T R r %+ .4.U d e e e f g e e r S.8 = @ @ @ # # + . . . . . . . . . . . . ",
". . . . . . . . . . . . . . . . . . . . . . . . . . . + . # @ &+z *.Z.h.u.*+V.=+I  .u f e e e f e ,.^.-+* @ @ + # * . . . . . . . . . . . . ",
". . . . . . . . . . . . . . . . . . . . . . . . . . + @ . * + . . . . . . 7 J.U.*.H A h t e d u d e U (.J.n * * > > . . . . . . . . . . . + ",
". . . . . . . . . . . . . . . . . . . . . . . . . . . . . . . . . . . . . . + # @ W -+;+I u e d d d C s F.K.. @ % > . . . . . . . . . . . * ",
". . . . . . . . . . . . . . . . . . . . . . . . . . . . . . . . . . . . + @ . @ $ # # Y N >+J e f f d e v q.% . @ + . . . . . . . . . . + * ",
". . . . . . . . . . . . . . . . . . . . . . . . . . . . . . . . . . . . . + . . > W . . - g.k R e t t U e H ,+* . . . . . . . . . . . . . $ ",
". . . . . . . . . . . . . . . . . . . . . . . . . . . . . . . . . . . . . . @ # $ = + + $ > 7.q U f f ,.f 2.'+x.. * . . . . . . . . . + @ $ ",
". . . . . . . . . . . . . . . . . . . . . . . . . . . . . . . . . . . . + @ # * @ . . + # . n )+!+e g u J e 1 F . # . . . . . . . . . @ = # ",
". . . . . . . . . . . . . . . . . . . . . . . . . . . . . . . . . . . . @ = @ . + @ * @ . . . X .+L Q f g e W.M $ . . . . . . . . . . @ > + ",
". . . . . . . . . . . . . . . . . . . . . . . . . . . . . . . . . . . . @ # @ + # n l.% @ + . . ~++.e d f e {+I.Y.. . . . . . . . . . + * . ",
". . . . . . . . . . . . . . . . . . . . . . . . . . . . . . . . . . . . . . $ n % > & = # * * # m.*.e U J e c ]+&+. . . . . . . . . . . + . ",
". . . . . . . . . . . . . . . . . . . . . . . . . . . . . . . . . . . . . @ > 7 > . . . + $ & $ . G /.K K t e !+g.. . . . . . . . . . . . . ",
". . . . . . . . . . . . . . . . . . . . . @ @ + . . . . . . . . . . . . + # @ @ + . + . . + # + . {.} g ,.Q e ^+q.. . . . . . . . . . . + . ",
". . . . . . . . . . . . . . . . . . . . . n % # . + + . . . . . . . . . . @ > % * . . . . @ = % . G.;.u d d e B./+. . . . . . . . . . + # . ",
". . . . . . . . . . . . . . . . + # = % . * * # @ @ . . . . . . . . . . . + * $ @ @ > = + @ $ $ . #+V U e e e ^+M . . . . . . . . . . + + . ",
". . . . . . . . . . . . . . . . + @ > t.= $ + $ % $ . . . . . . . . . . . @ + . . # W > @ . + . . 8 i P f e e (+_+. . . . . . . . . . . . . ",
". . . . . . . . . . . . . . . + @ @ @ 7 n 7 $ = & = . . . . . . . . . . + # + . . @ = @ . . # + . G L 4.t e e :+g.. . . . . . . . . . + # . ",
". . . . . . . . . . . . . . . # % > . @ + > # + # $ @ . . . . . . . . . . + @ + . . . . . # > * . ].e Q t e ,.q y.. . . . . . . . . . # W # ",
". . . . . . . . . . . . . . . + * > = * . n $ . @ = = . . . . . . . . . . + # $ @ . + * * * @ . ] =.e t Q e `.E ) . . . . . . . . . . + $ 7 ",
". . . . . . . . . . . . . . . . + $ n @ . = W > # @ # . . . . . . . . . . . = $ + . * n = + . @ <+i e e C e a [+n . . . . . . . . . . . @ w.",
". . . . . . . . . . . . . . . . @ * # . . . > % # . . . . . . . . . . . + # = # . + = > @ . . { *+e d e t e '.{.. . . . . . . . . . . . + W ",
". . . . . . . . . . . . . . . + # + + m.y.Y + . + + + . . . . . . . . . + $ * + . @ # + . . Y.k.T.e C f e c.}+K.. + . . . . . . . . . + # @ ",
". . . . . . . . . . . . . . . + . + ' |+| 1+] . . @ # . . . . . . . . . + @ + . # $ . . * Y.$+2+d t s e e 1.3+= . . . . . . . . . . . @ = . ",
". . . . . . . . . . . . . . . . . ] |+..e ~.$.4+% . * > + . . . . . + * * . . + $ = . . ) k.5+s e Q g e T X.Y . + + . . . . . . . . . + * . ",
". . . . . . . . . . . . . . . . x.d.r.e d e /.1 d.}., + . . . # * @ @ $ = + @ . . . X 7.$.6+g t C u e U 7+m $ . @ @ . . . . . . . . . . . . ",
". . . . . . . . . . . . . . . 7 z.5.Q e K C e t c.>+8+] i.t.; l.% + . . . + l.t.t.J.z 5+u e K c C e J :+G.# * # + @ . . . . . . . . . . . . ",
". . . . . . . . . . . . . . . j.F.`.e e f e t e u  .T 9++.0+:._.; = > % W w.,+a+b+6+K t e f d t e d M.D.X = @ + + . . . . . . . . . . . . . ",
". . . . . . . . . . . . . . . + c+Z.`.e e g J t e e f f K d+++^+r.2+2+2+e+W.f+g+L U J f e e e e e h+m x.7 # . + + . . . . . . . . . . . . . ",
". . . . . . . . . . . . . . . . * J.k.!+U e e Q ,.u e e f f t d g g g g g d d t e f u J u e e K i+g.l.> # * @ . . @ . . . . . . . . . . . . ",
". . . . . . . . . . . . . . . . . * ' [+k a g e e e e f t t f f e e e e f J f e d u e e e ,.T.H 0.> - % + . = n $ . . . . . . . . . . . . . ",
". . . . . . . . . . . . . . . + + . . t.j+1+3.D /.C e e e e e e e e e e f C f e e e f  .v ;.p {.& . > W * . & t.% . . . . . . . . . . . . . ",
". . . . . . . . . . . . . . . @ $ $ . . . X 8 l 0 | {+4.U Q u u u d t f t J J C C  .f+S.8.3+j.. + > . = $ $ & W $ . . . . . . . . . . . . . ",
". . . . . . . . . . . . . . . @ $ = @ * $ . . $ J.N k+;+]+>+e+~.l+I {+b {+T.(+V @.m+8+D.% . . # % > # . @ > $ @ @ # . . . . . . . . . . . . "};
