/* XPM */
static const char * Big4_xpm[] = {
"70 70 217 2",
"  	c None",
". 	c #FFFFFF",
"+ 	c #FEFEFE",
"@ 	c #FBFBFB",
"# 	c #FAFAFA",
"$ 	c #FDFDFD",
"% 	c #FCFCFC",
"& 	c #F6F6F6",
"* 	c #F9F9F9",
"= 	c #F8F8F8",
"- 	c #F7F7F7",
"; 	c #F5F5F5",
"> 	c #F4F4F4",
", 	c #E6E6E6",
"' 	c #BEBEBE",
") 	c #BDBDBD",
"! 	c #B8B8B8",
"~ 	c #BABABA",
"{ 	c #BBBBBB",
"] 	c #B4B4B4",
"^ 	c #C4C4C4",
"/ 	c #E1E1E1",
"( 	c #EAEAEA",
"_ 	c #B5B5B5",
": 	c #424242",
"< 	c #444444",
"[ 	c #434343",
"} 	c #464646",
"| 	c #494949",
"1 	c #454545",
"2 	c #404040",
"3 	c #606060",
"4 	c #929292",
"5 	c #F1F1F1",
"6 	c #585858",
"7 	c #000000",
"8 	c #020202",
"9 	c #030303",
"0 	c #040404",
"a 	c #171717",
"b 	c #666666",
"c 	c #ECECEC",
"d 	c #F3F3F3",
"e 	c #898989",
"f 	c #070707",
"g 	c #060606",
"h 	c #010101",
"i 	c #151515",
"j 	c #797979",
"k 	c #EFEFEF",
"l 	c #F0F0F0",
"m 	c #ACACAC",
"n 	c #050505",
"o 	c #0E0E0E",
"p 	c #161616",
"q 	c #777777",
"r 	c #DFDFDF",
"s 	c #6C6C6C",
"t 	c #0B0B0B",
"u 	c #1D1D1D",
"v 	c #6F6F6F",
"w 	c #EDEDED",
"x 	c #A9A9A9",
"y 	c #363636",
"z 	c #232323",
"A 	c #C3C3C3",
"B 	c #575757",
"C 	c #0F0F0F",
"D 	c #090909",
"E 	c #252525",
"F 	c #1C1C1C",
"G 	c #0A0A0A",
"H 	c #1F1F1F",
"I 	c #808080",
"J 	c #1A1A1A",
"K 	c #555555",
"L 	c #737373",
"M 	c #EEEEEE",
"N 	c #2F2F2F",
"O 	c #DEDEDE",
"P 	c #7A7A7A",
"Q 	c #121212",
"R 	c #181818",
"S 	c #747474",
"T 	c #717171",
"U 	c #909090",
"V 	c #858585",
"W 	c #212121",
"X 	c #A2A2A2",
"Y 	c #313131",
"Z 	c #323232",
"` 	c #D9D9D9",
" .	c #141414",
"..	c #1E1E1E",
"+.	c #0C0C0C",
"@.	c #787878",
"#.	c #101010",
"$.	c #242424",
"%.	c #3F3F3F",
"&.	c #767676",
"*.	c #757575",
"=.	c #383838",
"-.	c #080808",
";.	c #969696",
">.	c #191919",
",.	c #A6A6A6",
"'.	c #131313",
").	c #6B6B6B",
"!.	c #3A3A3A",
"~.	c #AAAAAA",
"{.	c #E2E2E2",
"].	c #7C7C7C",
"^.	c #8D8D8D",
"/.	c #2A2A2A",
"(.	c #D5D5D5",
"_.	c #636363",
":.	c #2D2D2D",
"<.	c #9D9D9D",
"[.	c #959595",
"}.	c #5F5F5F",
"|.	c #D1D1D1",
"1.	c #535353",
"2.	c #373737",
"3.	c #A8A8A8",
"4.	c #F2F2F2",
"5.	c #727272",
"6.	c #E5E5E5",
"7.	c #8A8A8A",
"8.	c #828282",
"9.	c #E3E3E3",
"0.	c #4C4C4C",
"a.	c #393939",
"b.	c #C1C1C1",
"c.	c #9C9C9C",
"d.	c #505050",
"e.	c #DDDDDD",
"f.	c #545454",
"g.	c #ABABAB",
"h.	c #696969",
"i.	c #E8E8E8",
"j.	c #343434",
"k.	c #6E6E6E",
"l.	c #BCBCBC",
"m.	c #4B4B4B",
"n.	c #DBDBDB",
"o.	c #8E8E8E",
"p.	c #A4A4A4",
"q.	c #5A5A5A",
"r.	c #CBCBCB",
"s.	c #D6D6D6",
"t.	c #5D5D5D",
"u.	c #282828",
"v.	c #A5A5A5",
"w.	c #0D0D0D",
"x.	c #414141",
"y.	c #7F7F7F",
"z.	c #E9E9E9",
"A.	c #1B1B1B",
"B.	c #AFAFAF",
"C.	c #D8D8D8",
"D.	c #838383",
"E.	c #616161",
"F.	c #CDCDCD",
"G.	c #CCCCCC",
"H.	c #D2D2D2",
"I.	c #C9C9C9",
"J.	c #CECECE",
"K.	c #676767",
"L.	c #111111",
"M.	c #5B5B5B",
"N.	c #CFCFCF",
"O.	c #C6C6C6",
"P.	c #272727",
"Q.	c #484848",
"R.	c #4A4A4A",
"S.	c #565656",
"T.	c #4D4D4D",
"U.	c #5C5C5C",
"V.	c #595959",
"W.	c #303030",
"X.	c #4F4F4F",
"Y.	c #525252",
"Z.	c #B3B3B3",
"`.	c #202020",
" +	c #B1B1B1",
".+	c #B7B7B7",
"++	c #ADADAD",
"@+	c #AEAEAE",
"#+	c #979797",
"$+	c #9F9F9F",
"%+	c #9E9E9E",
"&+	c #999999",
"*+	c #949494",
"=+	c #A1A1A1",
"-+	c #888888",
";+	c #222222",
">+	c #7E7E7E",
",+	c #7B7B7B",
"'+	c #EBEBEB",
")+	c #707070",
"!+	c #C8C8C8",
"~+	c #C5C5C5",
"{+	c #C7C7C7",
"]+	c #C0C0C0",
"^+	c #CACACA",
"/+	c #515151",
"(+	c #3B3B3B",
"_+	c #3C3C3C",
":+	c #BFBFBF",
"<+	c #A7A7A7",
"[+	c #2B2B2B",
"}+	c #2C2C2C",
"|+	c #262626",
"1+	c #B0B0B0",
"2+	c #2E2E2E",
"3+	c #333333",
"4+	c #E0E0E0",
". . . . . . . . . . . . . . . . . . . . . . . . . . . + @ # @ $ . . . + % . . $ % + . + $ . . . . . . . . . . . . . . . . . . . . . . . . . ",
". . . . . . . . . . . . . . . . . . . . . . . . . . . + % + + . . . . $ & . . # * % + $ @ + . . . . . . . . . . . . . . . . . . . . . . . . ",
". . . . . . . . . . . . . . . . . . . . . . . . . . . . + . . . . $ $ $ & . . @ # $ . + $ $ . . . . . . . . . . . . . . . . . . . . . . . . ",
". . . . . . . . . . . . . . . . . . . . . . . . . + $ $ . . . $ @ @ $ + @ . . % % + . + $ @ + . . . . . . . . . . . . . . . . . . . . . . . ",
". . . . . . . . . . . . . . . . . . . . . . . . . + % $ . + + % @ % . . . . . . . . . . + $ . . . . . . . . . . . . . . . . . . . . . . . . ",
". . . . . . . . . . . . . . . . . . . . . . . . . + + . . $ @ % + . . % = - & & - - ; > & $ . . . . . . . . . . . . . . . . . . . . . . . . ",
". . . . . . . . . . . . . . . . . . . . . . . . . . . . . % @ $ . . @ , ' ) ! ~ ' { ] ] ^ / % . . . . . . . . . . . . . . . . . . . . . . . ",
". . . . . . . . . . . . . . . . . . . . . . . . . % % . . @ $ . . # ( _ : < [ } | 1 2 } 3 4 5 . . . . . . . . . . . . . . . . . . . . . . . ",
". . . . . . . . . . . . . . . . . . . . . . . . . % @ . # @ . @ @ & ^ 6 7 8 8 8 9 9 8 0 a b c . . . . . . . . . . . . . . . . . . . . . . . ",
". . . . . . . . . . . . . . . . . . . . . . . . . . . $ d @ . & & , e 7 7 f g 0 h 7 7 7 i j k . . . . . . . . . . . . . . . . . . . . . . . ",
". . . . . . . . . . . . . . . . . . . . . . . . . + + + & $ # $ l m : 7 n 8 a o 8 h 8 h p q k . . . . . . . . . . . . . . . . . . . . . . . ",
". . . . . . . . . . . . . . . . . . . . . . . . . + $ . % $ @ . r s g 7 9 7 t f h h h 9 u v w . . . . . . . . . . . . . . . . . . . . . . . ",
". . . . . . . . . . . . . . . . . . . . . . . . . . + + . # . - x y 7 h 9 7 7 h 0 h 7 n z s w . . . . . . . . . . . . . . . . . . . . . . . ",
". . . . . . . . . . . . . . . . . . . . . . . . . . + @ . @ . A B C 7 h D 7 E F G 8 h 0 H v w . . . . . . . . . . . . . . . . . . . . . . . ",
". . . . . . . . . . . . . . . . . . . . . . . . . . $ - + . c I J 7 G h t h 4 K C 9 n 7 p L M . . . . . . . . . . . . . . . . . . . . . . . ",
". . . . . . . . . . . . . . . . . . . . . . . . . . $ = % . ] : f 7 n 8 n N O P Q 7 8 h R S M . . . . . . . . . . . . . . . . . . . . . . . ",
". . . . . . . . . . . . . . . . . . . . . . . . . . + $ @ w T a 7 8 8 8 g U $ V p 7 7 0 W T w . . . . . . . . . . . . . . . . . . . . . . . ",
". . . . . . . . . . . . . . . . . . . . . . . . . + $ . $ X Y 0 9 0 7 G Z ` . I  .7 7 8 ..T w . . . . . . . . . . . . . . . . . . . . . . . ",
". . . . . . . . . . . . . . . . . $ $ . . . + + . + + . , K +.7 9 9 7 J 4 = . @.#.7 h h R L M . . . . . . . . . . . . . . . . . . . . . . . ",
". . . . . . . . . . . . . . . . + # = + . . @ * $ . . > 4 $.0 h n f G %.( . . &.C 7 7 h R *.M . . . . . . . . . . . . . . . . . . . . . . . ",
". . . . . . . . . . . . . . + % % % # % + . $ # @ % . O =.G 8 f -.t Z ;.. + . &.C 7 7 8 >.&.M . . . . . . . . . . . . . . . . . . . . . . . ",
". . . . . . . . . . . . . . $ = % . . @ @ $ . . % % M ,.+.7 7 -.n '.).5 $ + . &.C 7 7 h >.*.M . . . . . . . . . . . . . . . . . . . . . . . ",
". . . . . . . . . . . . . . + * @ . . + * * $ . . $ A } 0 h 8 7 8 !.~.. @ . . &.C 7 7 h R *.M . . . . . . . . . . . . . . . . . . . . . . . ",
". . . . . . . . . . . . . . . . # * $ . + = = + . {.].7 h 0 G 7 H ^.d # % . . q #.7 7 h R *.M . . . . . . . . . . . . . . . . . . . . . . . ",
". . . . . . . . . . . . . . . . = & @ . + $ + . = X /.7 7 g 7 D K ^ . = $ . . q #.7 7 h a *.M . . . . . . . . . . . . . . . . . . . . . . . ",
". . . . . . . . . . . . . . . . % % $ @ # $ . + (._.7 h 7 9 7 :.<.5 . $ $ . . q #.7 7 h a S M . . . . . . . . . . . . . . . . . . . . . . . ",
". . . . . . . . . . . . . . . + + . $ = - + . / [.Z 7 8 f 7 8 }.|.. $ % + . . q #.7 7 h p L M . . . . . . . . . . . . . . . . . . . . . . . ",
". . . . . . . . . . . . . . . + $ + + # # . - { 1.+.7 8 D 7 2.3.4.. @ @ + . . q #.7 7 h p 5.M . . . . . . . . . . . . . . . . . . . . . . . ",
". . . . . . . . . . . . . . . + @ @ + + + . 6.7.E 7 9 8 0 0 8.9.. + % $ + . . q #.7 7 h p L M . . . . . . . . . . . . . . . . . . . . . . . ",
". . . . . . . . . . . . . . . % @ * * . . $ { 0.G 7 8 h 7 a.b.@ . $ + . $ . . q #.7 7 h p S M . . . . . . . . . . . . . . . . . . . . . . . ",
". . . . . . . . . . . . . . . # - > & $ . O S Q 7 7 7 h #.c.( + . . + $ % . . q #.7 7 h a S M . . . . . . . . . . . . . . . . . . . . . . . ",
". . . . . . . . . . . . . . . . ( ( . % # ;.E 0 7 7 7 -.d.e.+ $ % $ % @ % . . q #.7 7 h a S M . . . . . . . . . . . . . . . . . . . . . . . ",
". . . . . . . . . . . . . . . . = = . @ |.f.D 7 7 h 7 >.g.d . & M ; . + % . . q #.7 7 h a S M . . . . . . . . . . . . . . . . . . . . . . . ",
". . . . . . . . . . . . . . + - # + . d ].u h 7 8 7 '.h.i.c - > w ; . . % . . q #.7 7 h a S M . . . . . . . . . . . . . . . . . . . . . . . ",
". . . . . . . . . . . . . . + * @ . - ) < g 8 g 8 7 j.A + & # @ - - # % % . . q #.7 7 h a S M . . . . . . . . . . . . . . . . . . . . . . . ",
". . . . . . . . . . . . . . . $ # . 6.k.F 7 0 f 7 '.L - . + $ + + @ = * % . . q #.7 7 h a S M . . . . . . . . . . . . . . . . . . . . . . . ",
". . . . . . . . . . . . . . . . $ @ l.:.0 h 0 8 9 m.A . . + + % @ % % # % . . q #.7 7 h a S M . . . . . . . . . . . . . . . . . . . . . . . ",
". . . . . . . . . . . . . . . . . n.L +.7 8 8 7 ..o.$ . . $ + = ; * . $ % . . q #.7 7 h a S M . . . . . . . . . . . . . . . . . . . . . . . ",
". . . . . . . . . . . . . . . . + p.z 9 7 9 7 D q.r.. + $ $ + # & - $ . % . . q #.7 7 h a S M . . . . . . . . . . . . . . . . . . . . . . . ",
". . . . . . + . . . . . . + . . s.t.7 h 8 7 7 u.v.% . + @ + $ . + # * . $ . . *.C 7 7 h a *.M . . . + + + $ + + . . . . . . . . . . . . . . ",
". . . . . . @ $ . + % % + $ . $ V i 7 7 8 7 '.h.(.. . . . . . . . . . . + . . T w.7 8 h R *.M . . $ @ $ % * @ # $ . . . . . . . . . . . . . ",
". . . . . + @ % + $ * # $ . @ b.x.7 7 8 w.7 %.^ . . + + + + + + + + + % * + . q C 7 0 h p T M . * @ $ $ $ + + @ $ . . . . . . . . . . . . . ",
". . . . . . # * $ $ * = $ . i.5. .7 0 7 n R y.z.@ > . . . . . . . . . $ = & . q C 7 h 8 A.@.M + # + % d d % . + . . . . . . . . . . . . . . ",
". . . . + $ # # % + % @ + ; B.Y 7 0 f n n b C.. . . . . . . . . . . . . . . . D.i 7 7 8 u &.& . . . . @ ; # $ + . . . . . . . . . . . . . . ",
". . . . $ * % % $ . . . + s.E.o 7 0 0 g o y.F.G.F.H.F.F.F.F.F.F.F.F.F.G.I.J.(.K.L.7 7 8 R M.' N.r.O.N.k + % $ + . . . . . . . . . . . . . . ",
". . . . $ = + $ % $ . . % ~ P.8 8 h 7 h Q Q.q.R.K }.S.B B B B B B B B f.T.U.V.P.g 7 7 h w.W.X.K Y.: }.I.. + $ + . . . . . . . . . . . . . . ",
". . . . + @ . % * # + . % Z.i 7 8 7 7 9 o Q D 9 +.#.+.w.w.w.w.w.w.w.+.G g R w.n 9 9 h h 8 G D w.+.7 `. +. % & * + . . . . . . . . . . . . . ",
". . . . . + . @ = # + . % .+a 7 n 0 8 -.f 7 7 7 7 7 7 7 7 7 7 7 7 7 7 7 7 n 7 h 0 n n 0 8 h 7 h 7 7 E ++. $ * @ + . . . . . . . . . . . . . ",
". . . . . . . # # + $ @ $ ~ R 7 -.-.n D 8 n D g 9 h 7 h h h h h h 7 7 h h 7 0 8 h 9 f -.0 g 8 8 h 7 E ++. . + $ + . . . . . . . . . . . . . ",
". . . . . + . * @ . % & $ ! a 7 7 h h 7 7 9 0 7 7 7 7 7 7 7 7 7 7 7 7 7 7 7 g 9 7 h 0 0 7 7 7 7 7 7 z 3.. . % = % . . . . . . . . . . . . . ",
". . . . + % . ; * % & # $ Z.+.7 7 7 7 7 7 h h 7 7 7 7 7 7 7 7 7 7 7 7 7 7 +.0 7 7 h 9 8 7 7 7 7 9 7 J @+. @ + + + . . . . . . . . . . . . . ",
". . . . + + . 5 & $ # % % O #+#+$+%+%+$+$+%+%+%+%+%+$+$+$+$+$+$+$+$+%+%+$+p.&+Y.i 7 7 n >.m.*+=+=+[.<.O . # = % . . . . . . . . . . . . . . ",
". . . . . . . d & . $ ; & . . . . . . . . . . . . . . . . . . . . . . . . . . -+F 7 7 0 ;+].# . . . . @ @ $ = % . . . . . . . . . . . . . . ",
". . . . + % . % * % @ d 5 # $ $ % % % % % % % % % % % % % % % % % % $ + . # . @.C 7 0 9 p T ( . + . + & - . . % $ . . . . . . . . . . . . . ",
". . . . % > % . * & $ . * > > % . + + + + + + + + + + + + + + + + + + . + & . &.o 8 w.D A.q M . % + $ % # $ $ d * . . . . . . . . . . . . . ",
". . . . + # d % $ % + . + # @ $ + + + + + + + + + + + + + + + + + + + + $ % . &.C 7 9 8 >.@.( * @ @ - # # = + % $ . . . . . . . . . . . . . ",
". . . . . $ w = . + # - - # + + + + + + + + + + + + + + + + + + + + + % - . . >+ .7 h h a ,+'+$ $ $ * % $ # $ . . . . . . . . . . . . . . . ",
". . . . . + > * . $ = & - * * $ . . . . . . . . . . . . . . . . . . . $ = . . >+'.7 8 h R P M . $ @ @ + . + * % . . . . . . . . . . . . . . ",
". . . . + % $ @ % $ $ % $ @ - $ . . . . . . . . . . . . . . . . . . . + % + . &.C 7 h h a *.M . # = % + . $ * # $ . . . . . . . . . . . . . ",
". . . . $ * . # * $ + @ # $ % + + + + + + + + + + + + + + + + . . . . . % $ . @.#.7 h h a )+k . @ $ . . @ * % $ + . . . . . . . . . . . . . ",
". . . . + @ . % @ + + @ @ + . . + + + + + + + + + % % . . @ + % $ . . + . % . >+L.7 h 8 F 5.k . . . $ $ # - + . . . . . . . . . . . + $ . + ",
". . . . . . . . . . . . . . . . . . . . . . . . . % # # * = . , ^ ' !+~+{+]+O _.+.7 7 8 >.U.{ ^+!+b.~+i.+ @ + % $ . . . . . . . . . + $ . - ",
". . . . . . . . . . . . . . . . . . . . . . . . . . # M k * . { /+/.2 < j.(+0.;+0 h 9 7 n F %._+y N Y.:+. . + & # . . . . . . . . . . + + l ",
". . . . . . . . . . . . . . . . . . . . . . . . . + # ; $ . . g.:.7 0 0 9 -.g h 0 -.g 8 8 9 0 9 9 7 $.@+. . . + . . . . . . . . . . @ ; + + ",
". . . . . . . . . . . . . . . . . . . . . . . . . # = . . d . <+[+7 -.7 n t h 0 f 0 h 8 9 7 7 h h 7 E @+. - = + . . . . . . . . . . % - + $ ",
". . . . . . . . . . . . . . . . . . . . . . . . . # & @ $ * . <+}+7 n 7 0 g n f n h 7 8 9 7 9 9 8 7 |+1+. # @ $ . . . . . . . . . . + + . = ",
". . . . . . . . . . . . . . . . . . . . . . . . . $ # # % + . X E 7 7 7 7 7 7 7 7 7 7 7 7 7 7 7 7 7 u p.. + + $ + . . . . . . . . . + % . # ",
". . . . . . . . . . . . . . . . . . . . . . . . . + $ $ # . . ] m.;+2+2+2+}+3+2+[+2+Y Y N }+:.:.}+E }  +. . + % $ . . . . . . . . . $ - $ $ ",
". . . . . . . . . . . . . . . . . . . . . . . . . $ % + - $ . 4+] p.g.m g.~. +m 3.g.@+B.m x ~.g.~.,.] 4+% + . % $ . . . . . . . . . $ = * $ ",
". . . . . . . . . . . . . . . . . . . . . . . . . @ # + & $ . . . . . . . . . . . . . . . . . . . . . . - % . $ + . . . . . . . . . . $ - @ "};
