/* XPM */
static const char * Big5_xpm[] = {
"70 70 223 2",
"  	c None",
". 	c #FFFFFF",
"+ 	c #F9F9F9",
"@ 	c #FAFAFA",
"# 	c #FBFBFB",
"$ 	c #FEFEFE",
"% 	c #FDFDFD",
"& 	c #F6F6F6",
"* 	c #FCFCFC",
"= 	c #F7F7F7",
"- 	c #F2F2F2",
"; 	c #F5F5F5",
"> 	c #F8F8F8",
", 	c #F4F4F4",
"' 	c #ECECEC",
") 	c #F3F3F3",
"! 	c #EFEFEF",
"~ 	c #EDEDED",
"{ 	c #EEEEEE",
"] 	c #F0F0F0",
"^ 	c #8D8D8D",
"/ 	c #6A6A6A",
"( 	c #727272",
"_ 	c #747474",
": 	c #6E6E6E",
"< 	c #707070",
"[ 	c #7B7B7B",
"} 	c #737373",
"| 	c #7D7D7D",
"1 	c #C8C8C8",
"2 	c #E7E7E7",
"3 	c #3C3C3C",
"4 	c #020202",
"5 	c #030303",
"6 	c #040404",
"7 	c #050505",
"8 	c #000000",
"9 	c #181818",
"0 	c #9D9D9D",
"a 	c #DFDFDF",
"b 	c #404040",
"c 	c #010101",
"d 	c #070707",
"e 	c #101010",
"f 	c #919191",
"g 	c #EAEAEA",
"h 	c #474747",
"i 	c #121212",
"j 	c #444444",
"k 	c #060606",
"l 	c #080808",
"m 	c #979797",
"n 	c #E9E9E9",
"o 	c #434343",
"p 	c #0E0E0E",
"q 	c #1E1E1E",
"r 	c #131313",
"s 	c #141414",
"t 	c #171717",
"u 	c #161616",
"v 	c #272727",
"w 	c #A8A8A8",
"x 	c #464646",
"y 	c #6B6B6B",
"z 	c #C9C9C9",
"A 	c #090909",
"B 	c #373737",
"C 	c #939393",
"D 	c #454545",
"E 	c #303030",
"F 	c #969696",
"G 	c #414141",
"H 	c #2B2B2B",
"I 	c #2C2C2C",
"J 	c #949494",
"K 	c #2D2D2D",
"L 	c #959595",
"M 	c #2F2F2F",
"N 	c #9A9A9A",
"O 	c #2E2E2E",
"P 	c #2A2A2A",
"Q 	c #909090",
"R 	c #424242",
"S 	c #929292",
"T 	c #E0E0E0",
"U 	c #D3D3D3",
"V 	c #CACACA",
"W 	c #C4C4C4",
"X 	c #C5C5C5",
"Y 	c #CECECE",
"Z 	c #E5E5E5",
"` 	c #313131",
" .	c #DCDCDC",
"..	c #D0D0D0",
"+.	c #BBBBBB",
"@.	c #9E9E9E",
"#.	c #868686",
"$.	c #656565",
"%.	c #5B5B5B",
"&.	c #565656",
"*.	c #545454",
"=.	c #5A5A5A",
"-.	c #888888",
";.	c #A7A7A7",
">.	c #C0C0C0",
",.	c #D5D5D5",
"'.	c #323232",
").	c #8E8E8E",
"!.	c #D8D8D8",
"~.	c #ACACAC",
"{.	c #535353",
"].	c #252525",
"^.	c #1C1C1C",
"/.	c #0C0C0C",
"(.	c #0A0A0A",
"_.	c #0F0F0F",
":.	c #353535",
"<.	c #646464",
"[.	c #D4D4D4",
"}.	c #202020",
"|.	c #4F4F4F",
"1.	c #666666",
"2.	c #696969",
"3.	c #A1A1A1",
"4.	c #232323",
"5.	c #777777",
"6.	c #D1D1D1",
"7.	c #F1F1F1",
"8.	c #0D0D0D",
"9.	c #B1B1B1",
"0.	c #E6E6E6",
"a.	c #4A4A4A",
"b.	c #3F3F3F",
"c.	c #848484",
"d.	c #A2A2A2",
"e.	c #B8B8B8",
"f.	c #BDBDBD",
"g.	c #B0B0B0",
"h.	c #585858",
"i.	c #A4A4A4",
"j.	c #898989",
"k.	c #222222",
"l.	c #999999",
"m.	c #BABABA",
"n.	c #E2E2E2",
"o.	c #B3B3B3",
"p.	c #8B8B8B",
"q.	c #494949",
"r.	c #4E4E4E",
"s.	c #1F1F1F",
"t.	c #575757",
"u.	c #8C8C8C",
"v.	c #BFBFBF",
"w.	c #E8E8E8",
"x.	c #6D6D6D",
"y.	c #333333",
"z.	c #D7D7D7",
"A.	c #343434",
"B.	c #212121",
"C.	c #E4E4E4",
"D.	c #B6B6B6",
"E.	c #DDDDDD",
"F.	c #878787",
"G.	c #DBDBDB",
"H.	c #808080",
"I.	c #0B0B0B",
"J.	c #B5B5B5",
"K.	c #C1C1C1",
"L.	c #191919",
"M.	c #D9D9D9",
"N.	c #606060",
"O.	c #292929",
"P.	c #CCCCCC",
"Q.	c #383838",
"R.	c #A6A6A6",
"S.	c #9C9C9C",
"T.	c #9B9B9B",
"U.	c #DEDEDE",
"V.	c #393939",
"W.	c #DADADA",
"X.	c #717171",
"Y.	c #151515",
"Z.	c #686868",
"`.	c #787878",
" +	c #BEBEBE",
".+	c #111111",
"++	c #636363",
"@+	c #505050",
"#+	c #D6D6D6",
"$+	c #989898",
"%+	c #7C7C7C",
"&+	c #AEAEAE",
"*+	c #3D3D3D",
"=+	c #797979",
"-+	c #CBCBCB",
";+	c #BCBCBC",
">+	c #626262",
",+	c #1A1A1A",
"'+	c #ADADAD",
")+	c #B2B2B2",
"!+	c #555555",
"~+	c #C3C3C3",
"{+	c #3E3E3E",
"]+	c #4C4C4C",
"^+	c #E3E3E3",
"/+	c #6F6F6F",
"(+	c #242424",
"_+	c #CDCDCD",
":+	c #676767",
"<+	c #282828",
"[+	c #818181",
"}+	c #CFCFCF",
"|+	c #4B4B4B",
"1+	c #757575",
"2+	c #858585",
"3+	c #595959",
"4+	c #1D1D1D",
"5+	c #515151",
"6+	c #A3A3A3",
"7+	c #E1E1E1",
"8+	c #1B1B1B",
"9+	c #B9B9B9",
"0+	c #C2C2C2",
". . . . . . . . . . . . . . . . + @ # @ # $ . % & $ . $ $ $ $ $ $ $ $ $ $ $ $ $ $ $ $ $ $ $ $ $ $ $ * @ * $ . . = % . . . . . . . . . . . . ",
". . . . . . . . . . . . . . . . . = - ; # % $ . . * $ . . . . . . . . . . . . . . . . . . . . % * @ + = > # . . . . . . . . . . . . . . . . ",
". . . . . . . . . . . . . . . . * $ % $ * ; , % $ ' > . . . . . . . . . . . . . . . . . . . . . . $ % % # + @ $ . . . . . . . . . . . . . . ",
". . . . . . . . . . . . . . . . , * . . $ @ @ . . + * $ % % % % % % % % % % % % % % % % % % $ . . . . . $ * @ @ % . . . . . . . . . . . . . ",
". . . . . . . . . . . . . . . . @ $ > , = * * = = . . $ $ $ $ $ $ $ $ $ $ $ $ $ $ $ $ $ $ $ $ . % # * $ . $ * @ % . . . . . . . . . . . . . ",
". . . . . . . . . . . . . . . . @ . = - & % * ) ! % . $ $ $ $ $ $ $ $ $ $ $ $ $ $ $ $ $ $ $ $ . * @ # % $ $ $ % $ . . . . . . . . . . . . . ",
". . . . . . . . . . . . . . . . , . . . . . . . + . . . . . . . . . . . . . . . . . . . . . . . . $ $ % * % . . $ . . . . . . . . . . . . . ",
". . . . . . . . . . . . . . . . * ' ' ! ! ~ { ] ! ! { { { { { { { { { { { { { { { { { { { { ! , * $ . $ # * . . * $ . . . . . . . . . . . . ",
". . . . . . . . . . . . . . . . . ^ / ( _ : < [ _ _ } } } } } } } } } } } } } } } } } } } < | 1 2 + . $ # # . . # % . . . . . . . . . . . . ",
". . . . . . . . . . . . . . . . . 3 4 5 6 6 6 7 6 6 6 6 6 6 6 6 6 6 6 6 6 6 6 6 6 6 6 6 6 8 9 0 a > $ % # # $ . = % . . . . . . . . . . . . ",
". . . . . . . . . . . . . . . . . b 8 8 8 8 c 8 8 d 4 8 8 8 8 8 8 8 8 8 8 8 8 8 8 8 8 8 8 8 e f g $ * # % % @ . , * . . . . . . . . . . . . ",
". . . . . . . . . . . . . . . . . h 5 8 8 8 c 8 8 4 c 8 8 8 8 8 8 8 8 8 8 8 8 8 8 8 8 8 8 8 i f g $ $ % $ * + . > % . . . . . . . . . . . . ",
". . . . . . . . . . . . . . . . . j 4 8 5 6 7 k l c 8 8 8 8 8 8 8 8 8 8 8 8 8 8 8 8 8 8 8 8 e m n $ . . $ # + . % $ . . . . . . . . . . . . ",
". . . . . . . . . . . . . . . . . o 4 8 5 5 7 p q r s t u u u u u u u u u u u u u u u u u e v w { $ . . . # + . . . . . . . . . . . . . . . ",
". . . . . . . . . . . . . . . . . x 5 8 8 4 r 3 < y < _ } } } } } } } } } } } } } } } } } < | z & . . . $ * @ . . . . . . . . . . . . . . . ",
". . . . . . . . . . . . . . . . . o 4 8 8 A B C ) = ; ; ; & & & & & & & & & & & & & & & & & , ~ @ . $ % % % % . % . . . . . . . . . . . . . ",
". . . . . . . . . . . . . . . . . D 4 8 8 7 E F * . . . . . . . . . . . . . . . . . . . . . . $ $ . $ % * % $ . * . . . . . . . . . . . . . ",
". . . . . . . . . . . . . . . . . G c c 4 5 H C # * % $ $ $ $ $ $ $ $ $ $ $ $ $ $ $ $ $ $ $ $ . $ $ . $ * * $ $ $ . . . . . . . . . . . . . ",
". . . . . . . . . . . . . . . . . G c c c 5 I J # @ * . . $ $ . . $ $ $ $ . . $ . . . $ $ $ $ . > # $ . % * % % . . . . . . . . . . . . . . ",
". . . . . . . . . . . . . . . . . j 4 8 8 6 K L # * % . . . . $ $ . . . $ % $ . $ $ $ $ . . . . & @ $ . $ % $ $ . . . . . . . . . . . . . $ ",
". . . . . . . . . . . . . . . . . D 4 8 8 6 M N # % % . . . $ % % . . . * @ $ . $ # @ % . . . . * % . . . . . . . . . . . . . . . . . . $ % ",
". . . . . . . . . . . . . . . . . o c 4 4 6 O m # * @ * $ . $ % % . . % # * . . % * * $ . . % . . . . . . . . . . . . . . . . . . . . . . $ ",
". . . . . . . . . . . . . . . . . G c 6 7 5 P Q # % + # $ $ % % $ . . * % . . $ % % % * % $ % . . . . . . . . . . . . . . . . . . . . $ $ . ",
". . . . . . . . . . . . . . . . . R c c c 5 P f # . . . . * + + * . . . . $ $ $ $ # > & > * . . . . . . . . . . . . . . . . . . . . . % * $ ",
". . . . . . . . . . . . . . . . . G c 8 8 6 H J # . % % % # @ @ % . . . # ; > % . . $ $ # @ % . . . . . . . . . . . . . . . . . . . . % % . ",
". . . . . . . . . . . . . . . . . b c c 4 7 K f # > + % . . . . . . . . $ $ % = ) ; @ % $ $ $ . . . . . . . . . . . . . . . . . . . . . . . ",
". . . . . . . . . . . . . . . . . R c 5 5 6 I S # % % $ . . . . . . . . . . . . * # @ @ % . . . . . . . . . . . . . . . . . . . . . . . . . ",
". . . . . . . . . . . . . . . . . x 5 8 c 5 I F # . . . . ] T U V W W W X Y Z @ . . . $ $ $ @ $ . . . . . . . . . . . . . . . . . . . . $ % ",
". . . . . . . . . . . . . . . . . x 5 8 8 7 ` 0 . !  ...+.@.#.} $.%.&.*.=.y -.;.>.,.~ . . % & $ . . . . . . . . . . . . . . . . . . . . * = ",
". . . . . . . . . . . . . . . . . o 4 8 8 k '.).!.~.( {.R '.].^.u e /.(._.9 ].:.o <.0 [.) # * . $ . . . . . $ . $ . . . . . . . . . . . @ ; ",
". . . . . . . . . . . . . . . . . G c 4 5 k }.|.1.D _.8 8 8 8 8 8 8 8 8 8 8 8 8 8 k '.2.3.!.. . * % $ . $ % # . @ $ . . . . . . . . . . # + ",
". . . . . . . . . . . . . . . . . R c 6 A 7 6 4 8 8 8 4 4 4 k d 6 8 c 5 5 6 7 4 c 8 8 8 4.5.6.7.> % $ % + = > # = % . . . . . . . . . * % . ",
". . . . . . . . . . . . . . . . . j 4 8 5 l d 8 8 6 /./.k c 8 8 8 8 5 l k 8 c c 6 8._.k 8 k R 9.! $ . # 7.- . , . . . . . . . . . . . $ $ . ",
". . . . . . . . . . . . . . . . . b 8 4 (.8.A 8 7 c 8 8 8 8 8 8 8 8 8 8 8 6 5 8 8 8 c 8 8 8 A b ~.0.# . $ # % . + % . . . . . . . . . . $ % ",
". . . . . . . . . . . . . . . . $ a.5 8 5 6 c c k 4 8 8 u b.<.c.d.e.>.f.g.).h.H /.8 8 (.t i 8 A 4.i.; . + + # { % . . . . . . . . . . . % * ",
". . . . . . . . . . . . . . . . . j.].8 c 7 8 8 8 k.h.[ l.m.6.n.) * . * & 0.z o.p.q.8.8 l p k 8 8 r.m.= . > $ = . . . . . . . . . . . . * @ ",
". . . . . . . . . . . . . . . . % ,.[ s.8 4 4.b t.u.v.T 7.@ $ . . . . . . . * # w.o.x.K d 8 d 7 4 8.$.V # $ . # . . . . . . . . . . . . * @ ",
". . . . . . . . . . . . . . . . + $ 6.} y.b [ g.,.g , $ . . . % @ $ $ $ $ . . . . ; z.^ A.8 c l k 8 B.-.C.. + + * $ . . . . . . . . . . % * ",
". . . . . . . . . . . . . . . . @ . + ,.D.m.!.7.. . . . . $ $ * # % % % % * * > * . . E.F.P 8 6 7 4 c a.v.. - # = % . . . . . . . . . . $ $ ",
". . . . . . . . . . . . . . . . + @ * . . . . @ . # $ . * # % . $ % % % % * + @ % # > + G.H.r 4 4 A 8 B.u.' > $ + % . . . . . . . . . . . . ",
". . . . . . . . . . . . . . . . ) % + @ * # # . . % . $ @ + * $ . . . . . % + % . & ! + . ..&.I.8 8.d (.h J.. # . . . . . . . . . . . . $ $ ",
". . . . . . . . . . . . . . . . . . . . . . . . . . . . . . . . . . . . . . . $ # * $ . > ] K.L.c 8 d 6 q #.. . * . . . . . . . . . . . $ % ",
". . . . . . . . . . . . . . . . . . . . . . . . . . . . . . . . . . . . $ % $ . % $ . . $ % M.a.I.8 4 8 i 5.. . . . . . . . . . . . . . $ % ",
". . . . . . . . . . . . . . . . . . . . . . . . . . . . . . . . . . . . * @ $ . . $ $ . . . ~ c.^.4 8 8 I.N.2 . . . . . . . . . . . . . $ % ",
". . . . . . . . . . . . . . . . . . . . . . . . . . . . . . . . . . . . % # $ . . * # % . . + o.O.5 8 8 l r.P.. . . . . . . . . . . . . $ $ ",
". . . . . . . . . . . . . . . . . . . . . . . . . . . . . . . . . . . . $ * . . $ * @ * $ . * ,.` 5 8 8 k R D.. $ . . . . . . . . . . . . . ",
". . . . . . . . . . . . . . . . . . . . . . . . . . . . . . . . . . . . $ $ . . $ $ % $ $ % % ' Q.6 8 8 7 Q.R.. % . . . . . . . . . . . . . ",
". . . . . . . . . . . . . . . . . . . . . . . . . . . . . . . . . . . . . . $ $ . . . . . % . + b.7 8 8 5 '.S.. $ . . . . . . . . . . . . . ",
". . . . . . . . . . . . . . . . . . . . . . . . . . . . . . . . . . . . . . . $ $ . . . . . . = R 7 8 8 5 M l.. $ . . . . . . . . . . . . $ ",
". . . . . . . . . . . . . . . . . . . . . . . . . . . . . . . . . . . . . . . . . . $ % % . . ~ b 7 8 8 6 '.T.. % . . . . . . . . . . . . $ ",
". . . . . . . . . . . . . . . . . . . . . $ $ $ . $ . . . . . . . . . . $ $ . . $ % % * # $ $ U.V.6 c c d V.d.. * . . . . . . . . . . . . $ ",
". . . . . . . . . . . . . . . . . $ $ . $ # @ % . + % . . . . . . . . . * @ . $ ; ; % . * $ * P.y.6 8 8 A h e.# $ . . . . . . . . . . % % $ ",
". . . . . . . . . . . . . . . . . . + + % $ # @ # % . . . . . . . . . . $ @ = > > + # * $ . ! w v 4 8 8 (.h.W.% % $ . . . . . . . . . $ $ . ",
". . . . . . . . . . . . . . . . @ $ @ + # % % * # > * . . . . . . . . . . # ! & . $ @ # % . w.X.Y.8 6 8 I.Z.* . > % . . . . . . . . . . $ $ ",
". . . . . . . . . . . . . . . . & @ $ . * # # % % 7.@ . . . . . . . . . . # ) * % + + % @ % C.B k c 7 8 _.`.. $ & % . . . . . . . . . . $ % ",
". . . . . . . . . . . . . . . . $ + * $ $ % @ & @ % . . . . . . . . . . . $ % $ = 7.& % # -  +.+8 d 7 8 B.Q . * * . . . . . . . . . . . $ * ",
". . . . . . . . . . . . . . . . . $ . > , > * , & % . . . . . . . . . . % # $ , ; > = * .  .++7 8 l 8 (.@+ +. @ . . . . . . . . . . . . . $ ",
". . . . . . . . . . . . . . . . % #+w.+ @ # . % @ ; # . . . . . . . . . $ # > ; # . . . ! $+L.7 c 4 8 q #.~ . @ . . . . . . . . . . . $ $ . ",
". . . . . . . . . . . . . . . $ ] %+^ [.$ . * > $ ) @ . . . . . . . . . . # ) * % * . > &+*+8 d 4 8 4 D e.. . @ * . . . . . . . . . . $ $ . ",
". . . . . . . . . . . . . . . $ f.O.v =+-+= . & . * $ . . . . . . . . . . * , @ % * { ;+t.4 8 7 4 8 B.c.n.. % # # $ . . . . . . . . . $ $ $ ",
". . . . . . . . . . . . . . . - >+l 8 ,+t.'+- * . . . . . . . . . . . . . $ # & * ! )+!+.+8 8 4 8 c {.~+$ $ # $ % $ . . . . . . . . . . . $ ",
". . . . . $ % . $ . * + * . ) )+L.c 4 8 d {+j.-+& . $ % . . . * * $ . . . . . ; ,.$+]+I.8 7 8 4 8 O S.{ . > % . . . . . . . . . . . . . . $ ",
". . . . . $ % . = # @ > * # Y &.7 8 k k 8 8 _.t.0 X ^+& . . . . . . . . > g G.D./+(+8 8 4 c 8 c t F.^+. @ > . $ % . . . . . . . . . . . . . ",
". . . . . . $ $ ] & % . . - e.a.e 4 8 8 4 k 5 8 8 A.).+._+T 2 w.w.2 U.U ;+F :+<+c 8 7 d 6 c c _.[+T . . $ . % @ @ % . . . . . . . . . . . . ",
". . . . . # ; $ $ . * & = * > }+B A 8 c 5 4 8 8 6 6 (.I.u K G |+]+R y.4.s (.k 4 c 8 c 7 8.(._./  .% $ # * # & @ $ . . . . . . . . . . . . . ",
". . . . . * = $ % * * * * $ . * M.1+^.8 8 8 c 7 8.c k d 6 6 l I.I.l 7 4 c 4 c 8 6 (.l 8 5 I 2+ .% , 7.@ . = ! $ . . . . . . . . . . . . . . ",
". . . . . $ $ . > = # $ . # ) 7.+ #+S.3+4+8 8 8 k 8 7 k 4 8 8 8 c c 8 8 c 4 4 7 4 8 8 _.5+6+7+$ . = > * # ; = . # $ . . . . . . . . . . . . ",
". . . . . $ * . @ + * % * + , ] , # 7.X #.r.<+(.8 8 8 8 8 8 8 5 7 5 c 8 8 8 8 8 8 8+j =+9+~ $ % # % . % + + % % @ % . . . . . . . . . . . . ",
". . . . . % = % % $ $ * + + # + @ * . @ Z 0+^ 3+y.}.i (.5 8 8 8 8 8 8 8 4 (.s }.*+=+;+n., $ $ + + % % # # $ % = % . . . . . . . . . . . . . ",
". . . . . % > + % $ $ % * * # + . , + . . % Z 1 9.j.++|+B (+t i e r ,+4.y.|+x.L D.G.@ . . * @ # # # + > * . * , $ . . . . . . . . . . . . . "};
