/* XPM */
static const char * Big6_xpm[] = {
"70 70 234 2",
"  	c None",
". 	c #FFFFFF",
"+ 	c #FDFDFD",
"@ 	c #FEFEFE",
"# 	c #FBFBFB",
"$ 	c #FCFCFC",
"% 	c #F8F8F8",
"& 	c #F9F9F9",
"* 	c #FAFAFA",
"= 	c #F4F4F4",
"- 	c #F5F5F5",
"; 	c #F7F7F7",
"> 	c #F1F1F1",
", 	c #E8E8E8",
"' 	c #E1E1E1",
") 	c #DCDCDC",
"! 	c #D8D8D8",
"~ 	c #D6D6D6",
"{ 	c #D7D7D7",
"] 	c #DADADA",
"^ 	c #E0E0E0",
"/ 	c #E4E4E4",
"( 	c #EEEEEE",
"_ 	c #ECECEC",
": 	c #C5C5C5",
"< 	c #A5A5A5",
"[ 	c #868686",
"} 	c #6D6D6D",
"| 	c #5B5B5B",
"1 	c #4D4D4D",
"2 	c #454545",
"3 	c #464646",
"4 	c #4A4A4A",
"5 	c #535353",
"6 	c #666666",
"7 	c #757575",
"8 	c #999999",
"9 	c #CACACA",
"0 	c #F0F0F0",
"a 	c #F6F6F6",
"b 	c #EFEFEF",
"c 	c #C7C7C7",
"d 	c #969696",
"e 	c #6B6B6B",
"f 	c #363636",
"g 	c #222222",
"h 	c #121212",
"i 	c #040404",
"j 	c #000000",
"k 	c #090909",
"l 	c #171717",
"m 	c #303030",
"n 	c #4F4F4F",
"o 	c #727272",
"p 	c #B6B6B6",
"q 	c #F3F3F3",
"r 	c #8B8B8B",
"s 	c #505050",
"t 	c #212121",
"u 	c #030303",
"v 	c #020202",
"w 	c #010101",
"x 	c #060606",
"y 	c #9F9F9F",
"z 	c #F2F2F2",
"A 	c #9C9C9C",
"B 	c #494949",
"C 	c #141414",
"D 	c #101010",
"E 	c #676767",
"F 	c #D0D0D0",
"G 	c #BFBFBF",
"H 	c #5A5A5A",
"I 	c #0D0D0D",
"J 	c #0B0B0B",
"K 	c #080808",
"L 	c #050505",
"M 	c #989898",
"N 	c #A4A4A4",
"O 	c #474747",
"P 	c #111111",
"Q 	c #070707",
"R 	c #0F0F0F",
"S 	c #272727",
"T 	c #1F1F1F",
"U 	c #6E6E6E",
"V 	c #CECECE",
"W 	c #EAEAEA",
"X 	c #323232",
"Y 	c #0C0C0C",
"Z 	c #131313",
"` 	c #2E2E2E",
" .	c #515151",
"..	c #6C6C6C",
"+.	c #7F7F7F",
"@.	c #8D8D8D",
"#.	c #949494",
"$.	c #919191",
"%.	c #878787",
"&.	c #7B7B7B",
"*.	c #606060",
"=.	c #555555",
"-.	c #909090",
";.	c #191919",
">.	c #424242",
",.	c #696969",
"'.	c #DBDBDB",
").	c #B7B7B7",
"!.	c #EBEBEB",
"~.	c #151515",
"{.	c #2C2C2C",
"].	c #D1D1D1",
"^.	c #858585",
"/.	c #1E1E1E",
"(.	c #979797",
"_.	c #313131",
":.	c #242424",
"<.	c #CCCCCC",
"[.	c #B1B1B1",
"}.	c #0A0A0A",
"|.	c #292929",
"1.	c #8A8A8A",
"2.	c #DDDDDD",
"3.	c #5E5E5E",
"4.	c #1A1A1A",
"5.	c #353535",
"6.	c #959595",
"7.	c #1B1B1B",
"8.	c #A3A3A3",
"9.	c #E9E9E9",
"0.	c #3E3E3E",
"a.	c #7A7A7A",
"b.	c #E7E7E7",
"c.	c #BABABA",
"d.	c #3B3B3B",
"e.	c #B9B9B9",
"f.	c #5C5C5C",
"g.	c #0E0E0E",
"h.	c #1C1C1C",
"i.	c #A9A9A9",
"j.	c #8C8C8C",
"k.	c #404040",
"l.	c #C2C2C2",
"m.	c #C1C1C1",
"n.	c #252525",
"o.	c #929292",
"p.	c #DFDFDF",
"q.	c #CDCDCD",
"r.	c #C0C0C0",
"s.	c #B2B2B2",
"t.	c #414141",
"u.	c #434343",
"v.	c #CBCBCB",
"w.	c #D9D9D9",
"x.	c #AEAEAE",
"y.	c #7C7C7C",
"z.	c #1D1D1D",
"A.	c #E3E3E3",
"B.	c #CFCFCF",
"C.	c #626262",
"D.	c #9E9E9E",
"E.	c #818181",
"F.	c #898989",
"G.	c #161616",
"H.	c #2B2B2B",
"I.	c #595959",
"J.	c #BCBCBC",
"K.	c #E5E5E5",
"L.	c #282828",
"M.	c #4B4B4B",
"N.	c #B5B5B5",
"O.	c #6A6A6A",
"P.	c #4E4E4E",
"Q.	c #ACACAC",
"R.	c #686868",
"S.	c #262626",
"T.	c #BEBEBE",
"U.	c #717171",
"V.	c #232323",
"W.	c #3F3F3F",
"X.	c #525252",
"Y.	c #393939",
"Z.	c #2A2A2A",
"`.	c #8F8F8F",
" +	c #ABABAB",
".+	c #C4C4C4",
"++	c #C6C6C6",
"@+	c #B4B4B4",
"#+	c #9A9A9A",
"$+	c #797979",
"%+	c #D5D5D5",
"&+	c #3C3C3C",
"*+	c #484848",
"=+	c #828282",
"-+	c #C9C9C9",
";+	c #545454",
">+	c #767676",
",+	c #3D3D3D",
"'+	c #838383",
")+	c #EDEDED",
"!+	c #4C4C4C",
"~+	c #777777",
"{+	c #202020",
"]+	c #7D7D7D",
"^+	c #3A3A3A",
"/+	c #343434",
"(+	c #A7A7A7",
"_+	c #8E8E8E",
":+	c #D3D3D3",
"<+	c #D2D2D2",
"[+	c #646464",
"}+	c #888888",
"|+	c #A6A6A6",
"1+	c #444444",
"2+	c #A0A0A0",
"3+	c #DEDEDE",
"4+	c #747474",
"5+	c #9D9D9D",
"6+	c #C3C3C3",
"7+	c #A2A2A2",
"8+	c #636363",
"9+	c #C8C8C8",
"0+	c #2D2D2D",
"a+	c #A8A8A8",
"b+	c #383838",
"c+	c #6F6F6F",
"d+	c #656565",
"e+	c #7E7E7E",
"f+	c #AAAAAA",
"g+	c #AFAFAF",
"h+	c #575757",
"i+	c #181818",
"j+	c #373737",
"k+	c #808080",
". . . . . . . . . . . . . . . . . . . . . . . . . . + @ . . @ + # $ . % & # # & * # # $ @ . $ * + + * @ . = - . + @ . . . . . . . . . $ * # ",
". . . . . . . . . . . . . . . . . . . . . . . . . . . . . . @ @ + + + & $ @ @ $ $ $ $ # # $ # % $ . @ . . ; ; @ & + . . . . . . . . . + + @ ",
". . . . . . . . . . . . . . . . . . . . . . . . . . @ @ . . @ + $ + . . . . . . . . . . . . . $ + . $ # + $ + @ & + . . . . . . . . . . $ & ",
". . . . . . . . . . . . . . . . . . . . . . . . . . @ $ + @ . . . . * > , ' ) ! ~ ~ { ] ^ / ( # . . + % & + @ + + @ . . . . . . . . . . ; > ",
". . . . . . . . . . . . . . . . . . . . . . . . . . . $ * + @ * = _ : < [ } | 1 2 3 4 5 6 7 8 9 ' 0 @ $ # @ # a @ . . . . . . . . . . . # % ",
". . . . . . . . . . . . . . . . . . . . . . . . . . + + @ . b c d e 4 f g h i j j j j j k l m n o p % . + . a ( $ . . . . . . . . . . # # @ ",
". . . . . . . . . . . . . . . . . + @ @ + @ . @ * @ . . q c r s t u u v v w j j j j j j j v v x m y = . . @ ; z + . . . . . . . . . . * # @ ",
". . . . . . . . . . . . . . . . + * * * * + @ * ; . # ^ A B C x v j j j i i w j j j j j w j j D E F $ . @ $ $ @ @ @ . . . . . . . . . @ . @ ",
". . . . . . . . . . . . . . . $ - * = q # + * * . + G H g I J K j L u i v j j j j j v v v j v m M _ . $ * $ . @ * + . . . . . . . . . . . . ",
". . . . . . . . . . . . . . . @ ; ( 0 & + # * . q N O P v u Q Q j v v j j j R t S T P L j j C U V # . * % + . @ * + . . . . . . . . . . . . ",
". . . . . . . . . . . . . . . . @ > q # + + . W r X j u Y k v j j j Z `  ...+.@.#.$.%.&.*.f =.p a . . $ $ $ + @ + @ . . . . . . . . . . . . ",
". . . . . . . . . . . . . . . . . . & a @ . W -.D j j j Q J v j ;.>.,.y '.# + & # . . . _ ).).!.. + $ . . & % + . . . . . . . . . . . . . . ",
". . . . . . . . . . . . . . . @ $ . + * . W %.~.j j w v i w L {.+.].!.; * + . . . @ . . . % - + . % - + . # * @ @ . . . . . . . . . . . . . ",
". . . . . . . . . . . . . . . . . $ + . _ ^./.j i L k i j Y  .p b % . . . . + % q = # @ . @ # $ . * a * @ @ @ + % $ . . . . . . . . . . . . ",
". . . . . . . . . . . . . . . @ $ $ . ( (._.w v v u w j :.&.<.q # . . + * # + $ & & * a % $ # & + @ * $ $ @ . $ - # . . . . . . . . . . . . ",
". . . . . . . . . . . . . . . @ $ @ ; [.O }.j x L j j |.1.2.@ * - . . $ * * # * # + $ ; % + @ # $ $ $ @ + * $ @ * + . . . . . . . . . . . . ",
". . . . . . . @ @ . . . . @ @ @ + @ : 3.4.w j i Q j 5.6.' . . # $ . . @ @ + * ; % + @ + + . . @ + $ $ . . % % . @ . . . . . . . . . . . . . ",
". . . . . . @ + @ . . . . # $ @ + % %./.u u v j i 7.8.9.@ . + + . . . . . . + # $ @ . . . . . . . @ @ . . $ $ . . . . . . . . . . . . . . @ ",
". . . . . . . @ . . . . . * * . % ).0.i v x L j J a._ . $ # @ . . . . . . . . . . . . . . . . . . . . . . . . . . . . . . . . . . . . . . @ ",
". . . . . @ @ . . . . . @ # $ . b.H x w K i v R O ' & * # + @ . . . . @ @ . . . . . . . . . . . . . . . . . . . . . . . . . . . . . . . . . ",
". . . . . + $ @ . + $ . + + . & c.{.w w j j v d.e.# @ $ + @ . . . . @ + @ . . . . . . . . . . . . . . . . . . . . . . . . . . . . . . @ @ @ ",
". . . . . + + . . # & @ $ + . '.| I L J u j /.^.. z * @ @ . . . . @ + $ + . . . . . . . . . . . . . . . . . . . . . . . . . . . . . . . . . ",
". . . . . . . . @ * % @ $ . . ).t j L }.w j f.^ . # + . . . . . . @ + + @ . . . . . . . . . . . . . . . . . . . . . . . . . . . . . . . . . ",
". . . . . . . . @ * % @ + . !.r g.j j v w h.#.. a @ . . . . . . . . @ @ . . . . . . . . . . . . . . . . . . . . . . . . . . . . . . . . . . ",
". . . . . . @ + @ # * . $ . 9 =.Q v u j J =.: . a # @ . . . . . . . . . . . . . . . . . . . . . . . . . . . . . . . . . . . . . . . . @ + @ ",
". . . . . . $ ; # @ + . # . i.g w L u j t (.0 + $ * @ . . . . . . . . . . . . . . . . . . . . . . . . . . . . . . . . . . . . . . . . + + + ",
". . . . . . * - * . . @ # % j.v j L w j k.l.. # $ $ @ . . . . . . . . . . . . . . @ . . . . . . @ @ . . . . . . @ . . . . . . . . . . @ @ @ ",
". . . . . . # & $ . . . + ' U j w }.j R 6 ~ . + & @ . . . @ $ # # # # # # $ $ $ # + . + . + $ + # $ . . . . . @ * + . . . . . . . . . . . . ",
". . . . . $ + . . . @ . . m.s j v D v n.o.9.. # * @ . + > p.q.r.e.p p p e.r.q.p.z $ . + $ & * # * # @ . + @ . + % + . . . . . . . . . . . . ",
". . . . . @ @ . . . @ . @ s.t.j j j j u.v.. & a @ & q w.x.y.1 n.Q j j j J z.2 r <.A.q . - ; @ . . . . @ $ # + . . . . . . . . . . . . . . . ",
". . . . . . @ + @ @ @ . + M S j Q w j 4 v.. + + @ B.C.:.Y L u i L v j w j J C R k ` D.= . % - + . @ . . @ # + . . . . . . . . . . . . . . . ",
". . . . . . + $ + $ # . @ E.P j u J j n { . . ] F.0.l Q w v L L w j j L v v v j i G.H.I.J.- . + + + $ $ @ . @ @ . . . . . . . . . . . . . . ",
". . . . . . $ * $ # & . . o j j j i }.U K.. 9 } L.u j j w v u v j v j j j j j u Q Q u Y M.N.$ . @ @ $ & + . @ $ $ @ . . . . . . . . . . . . ",
". . . . . . $ * + # & . . O.j w v j ;.[ , V ,.7.u x Q i j j j j j J Q j j j j w x w j j I P.Q.q . . $ ; + . + # $ @ . . . . . . . . . . . . ",
". . . . . . + $ @ + # . . R.j v u w S.[ T.U.G.j j J i x C V.` 5.W. .X.B Y.|.~.u j w i j w x n m.& @ + % + . + # + @ . . . . . . . . . . . . ",
". . . . . . @ @ @ @ @ . . ,.j j w w Z.E O.:.j j j x Y S f.`. +p T..+++: @+#+O.` Q w }.v w j h.$+V ; @ # + . + # @ . . . . . . . . . . . . . ",
". . . . . . . . . . @ . . e j j j w /.m z.x i k Q n.*.`.m.z . . . . . . . & %+#.3 C Q i w j L m r ' @ @ @ . + # @ . . . . . . . . . . . . . ",
". . . . . . @ @ . . + . . ,.j j j w K L j v }.;.&+1.0 . . . . . . + @ . . . . % T.f.g.i w j j k *+J.+ . . . + # + . . . . . . . . . . . . . ",
". . . . . . @ + + + + . . 6 j j j j L L v u J u.c.+ . . . . . . . . . . & & # # & { =.}.j j j j P =+$ . @ . . @ * + . . . . . . . . . . . . ",
". . . . . . @ + @ . @ . . ..j j j i u u j j  .-+& @ @ . . . . . . . . . @ # * + + b c.X x v w j K ;+<.# $ $ + # @ . . . . . . . . . . . . . ",
". . . . . . @ + @ . . . . >+v j u u j j L ,+Q.. . @ . . . . . . . . . . . . + $ $ $ b '+h.j j j u L.o.q + + * - @ . . . . . . . . . . . . . ",
". . . . . . @ @ . . . . . E.I j x v i j z.6.> # * . . . . . . . . . . . $ + $ a ; . # w.u.j j v j }.C.)+. . % z + . . . . . . . . . . . . . ",
". . . . . . . . . . . . . j.;.j u w u J !+q.. 0 & # @ . . . . . . . . . # $ $ a = # + . ~+C j v j w 2 p.. . & = + . . . . . . . . . . . . . ",
". . . . . . . . . . . . @ M S.j j w j {+]+p.. % + ; + . . . . . . . . . @ @ @ + % - . .  +^+w j w v /+: # . * % @ . . . . . . . . . . . . . ",
". . . . . . . . @ @ . . @ (+f j w x j :._+b.. $ @ $ @ . . . . . . . . . . # & # $ ; . . :+I.u j j w |.i.q . # + + . . . . . . . . . . . . . ",
". . . . . . . @ + + . . . p 2 j w }.j z.'+A.. ; % . . . . . . . . . . . . $ & & # + . # )+..L j j w g d ( . # . @ . . . . . . . . . . . . . ",
". . . . . . . @ $ $ . . . m.5 L w L j z.&.p.. - - + . . . . . . . . . . @ . + * & . . # . y.x j j w /.j.W . $ @ @ . . . . . . . . . . . . . ",
". . . . . . . @ # # @ . . <+[+Q j j j S.=+w.. . + + @ . . . . . . . . . $ + + $ * $ + # . ^.K j j w z.[ 9.. $ + + @ . . . . . . . . . . . . ",
". . . . . + + @ @ # * . @ & }+j Q i j /.>+w.. $ . . . . . . . . . . . . & & + @ + $ a + . [ Y j w w h.'+, . $ . @ . . . . . . . . . . . . . ",
". . . . . @ @ . . $ * @ @ . M i v v j I H F . a . + @ . . . . . . . . . # $ + # # + ; . . E.k j j w h.'+, . @ . . . . . . . . . . . . . . . ",
". . . . . . @ @ . @ $ . . . |+7.j v u j &+l.. - . + @ . . . . . . . . . @ . $ & * . $ . . $+L j j w t r W . . . @ . . . . . . . . . . . . . ",
". . . . . . @ + @ . . . @ . m.1+L i Q j |.p . % . . . . . . . . . . . . . @ $ # $ @ + . )+e L j w w |.2+0 . . @ + @ . . . . . . . . . . . . ",
". . . . . . @ $ + . . @ # . 3+4+Y j u j z.5+# . # . . . . . . . . . . . . + + @ @ # + . 6+n x j x v _.G * . . @ $ @ . . . . . . . . . . . . ",
". . . . . . . @ @ . . @ * . a 7+G.j j j g.8+B.. $ # @ . . . . . . . . . $ # $ @ $ * . . `.|.u v Q v ^+3+. . @ . + @ . . . . . . . . . . . . ",
". . . . . @ @ . . . . @ & $ . 9+0+j w j j |.N . @ * @ . . . . . . . . . + $ + # # @ . . C.k j w u i X.9.. @ @ . . . . . . . . . . . . . . . ",
". . . . . @ @ . + @ . @ * + . 2.*.D w L j }.o 0 . $ . . . . . . . . . . @ . + * * . * <.&+j j j u T '+0 . @ + + . . . . . . . . . . . . . . ",
". . . . . @ @ @ # # @ . + + . q a+H.w u j w b+< . . . . . . . . . . . . @ . @ # $ . , >+4.j j j Q 2 .+* . . * a + . . . . . . . . . . . . . ",
". . . . . . . @ & % + . . $ $ . 2.n v j v u K s ^ @ . . . . . . . . . . + + @ @ @ = e.H.i w w j Q c+0 + + . % z + . . . . . . . . . . . . . ",
". . . . . . . @ $ # @ . . + $ . - `.:.w u i j C >+2.& . . . . . . . . . @ + @ . - r.I.L j i j u 5.Q.@ + $ . # % @ . . . . . . . . . . . . . ",
". . . . . . . . . . . . . . . . $ ] d+Y w v x u k e+<.> . . . # * @ . @ + . . )+@+H i u k i j t E.A.@ + + @ . . . . . . . . . . . . . . . . ",
". . . . . . . . . . . . . . . @ . . f+X v j k }.j J e g+! b a = a . . $ b b p.5+Y.j j I Y j P h+[.b @ $ $ @ . @ @ . . . . . . . . . . . . . ",
". . . . . . . . . . . . . . . . . . a M g j j w j j i C t.=+T.b.* ; z 9.9+$.n i+j j i v j j X 8.( . + & $ @ . @ @ . . . . . . . . . . . . . ",
". . . . . . . . . . . . . . . $ = * . ' %.:.j j i I C J J ;.Z.f d.d.b+j+0+T R v j i R v j /.>+'.. . $ a * . . . . . . . . . . . . . . . . . ",
". . . . . . . . . . . . . . . + & @ . & <+F.{.j j x Y Q L u v i i i u i v i x u w v L j z.a.:+# . . * a $ . . @ @ . . . . . . . . . . . . . ",
". . . . . . . . . . . . . . . . + * $ @ = :+1./+Q j w w i i w j j j v j w i L u j j j |.y.V * . @ + # * @ . @ + + @ . . . . . . . . . . . . ",
". . . . . . . . . . . . . . . . @ = ; @ @ z '.<  .g Q j j j j j w j w j j j j j L ;.b+_+! a # + + $ @ @ . . @ + + @ . . . . . . . . . . . . ",
". . . . . . . . . . . . . . . . + - - $ @ $ + 0 G a.t.h.I Q x k k j w i L Q Y 4.d.U.[.K.. . * + + $ . . @ @ @ @ $ @ . . . . . . . . . . . . ",
". . . . . . . . . . . . . . . . + # * & & @ @ . . ! Q.F.E P.,+/+H.{+:.Z.5.3 *.E.|+{ . . . + + @ + + . . $ # @ . + @ . . . . . . . . . . . . ",
". . . . . . . . . . . . . . . @ $ . . # - * . . @ . . . 0 <.f+-.=+k+[ 1.D.J.' . . . . @ . # & + @ @ . @ # # @ . @ @ . . . . . . . . . . . . ",
". . . . . . . . . . . . . . . . . . . . . . . . . . . . . . . . . . . . . . . . . . . . . . . . . . . . . . . . . . . . . . . . . . . . . . "};
