/* XPM */
static const char * Big7_xpm[] = {
"70 70 200 2",
"  	c None",
". 	c #FFFFFF",
"+ 	c #FCFCFC",
"@ 	c #FAFAFA",
"# 	c #FBFBFB",
"$ 	c #F9F9F9",
"% 	c #F5F5F5",
"& 	c #FEFEFE",
"* 	c #FDFDFD",
"= 	c #F4F4F4",
"- 	c #F8F8F8",
"; 	c #F7F7F7",
"> 	c #F6F6F6",
", 	c #F3F3F3",
"' 	c #F1F1F1",
") 	c #F2F2F2",
"! 	c #E1E1E1",
"~ 	c #919191",
"{ 	c #9C9C9C",
"] 	c #9B9B9B",
"^ 	c #9D9D9D",
"/ 	c #979797",
"( 	c #969696",
"_ 	c #B5B5B5",
": 	c #C5C5C5",
"< 	c #1F1F1F",
"[ 	c #252525",
"} 	c #222222",
"| 	c #272727",
"1 	c #2B2B2B",
"2 	c #2A2A2A",
"3 	c #292929",
"4 	c #262626",
"5 	c #282828",
"6 	c #313131",
"7 	c #6E6E6E",
"8 	c #BEBEBE",
"9 	c #000000",
"0 	c #020202",
"a 	c #030303",
"b 	c #040404",
"c 	c #080808",
"d 	c #070707",
"e 	c #050505",
"f 	c #1C1C1C",
"g 	c #656565",
"h 	c #010101",
"i 	c #0D0D0D",
"j 	c #333333",
"k 	c #9E9E9E",
"l 	c #060606",
"m 	c #0F0F0F",
"n 	c #595959",
"o 	c #E2E2E2",
"p 	c #121212",
"q 	c #787878",
"r 	c #1E1E1E",
"s 	c #3C3C3C",
"t 	c #3B3B3B",
"u 	c #3A3A3A",
"v 	c #393939",
"w 	c #353535",
"x 	c #2C2C2C",
"y 	c #959595",
"z 	c #202020",
"A 	c #757575",
"B 	c #CCCCCC",
"C 	c #F0F0F0",
"D 	c #ECECEC",
"E 	c #EFEFEF",
"F 	c #EEEEEE",
"G 	c #EDEDED",
"H 	c #7F7F7F",
"I 	c #1B1B1B",
"J 	c #0B0B0B",
"K 	c #515151",
"L 	c #181818",
"M 	c #6F6F6F",
"N 	c #D5D5D5",
"O 	c #D9D9D9",
"P 	c #0E0E0E",
"Q 	c #7C7C7C",
"R 	c #E7E7E7",
"S 	c #161616",
"T 	c #6B6B6B",
"U 	c #D3D3D3",
"V 	c #1D1D1D",
"W 	c #A4A4A4",
"X 	c #BCBCBC",
"Y 	c #0C0C0C",
"Z 	c #626262",
"` 	c #464646",
" .	c #C7C7C7",
"..	c #242424",
"+.	c #848484",
"@.	c #DCDCDC",
"#.	c #DDDDDD",
"$.	c #737373",
"%.	c #6D6D6D",
"&.	c #D4D4D4",
"*.	c #E9E9E9",
"=.	c #B6B6B6",
"-.	c #B9B9B9",
";.	c #B8B8B8",
">.	c #B4B4B4",
",.	c #BDBDBD",
"'.	c #D7D7D7",
").	c #404040",
"!.	c #A1A1A1",
"~.	c #EBEBEB",
"{.	c #939393",
"].	c #4B4B4B",
"^.	c #C6C6C6",
"/.	c #E8E8E8",
"(.	c #5F5F5F",
"_.	c #D6D6D6",
":.	c #4E4E4E",
"<.	c #212121",
"[.	c #898989",
"}.	c #E5E5E5",
"|.	c #090909",
"1.	c #E6E6E6",
"2.	c #676767",
"3.	c #747474",
"4.	c #E4E4E4",
"5.	c #4A4A4A",
"6.	c #8F8F8F",
"7.	c #AEAEAE",
"8.	c #343434",
"9.	c #2D2D2D",
"0.	c #7B7B7B",
"a.	c #D1D1D1",
"b.	c #C8C8C8",
"c.	c #494949",
"d.	c #989898",
"e.	c #B0B0B0",
"f.	c #141414",
"g.	c #BBBBBB",
"h.	c #909090",
"i.	c #454545",
"j.	c #D0D0D0",
"k.	c #111111",
"l.	c #797979",
"m.	c #B7B7B7",
"n.	c #303030",
"o.	c #E0E0E0",
"p.	c #616161",
"q.	c #101010",
"r.	c #444444",
"s.	c #8B8B8B",
"t.	c #3E3E3E",
"u.	c #EAEAEA",
"v.	c #5C5C5C",
"w.	c #424242",
"x.	c #7A7A7A",
"y.	c #2F2F2F",
"z.	c #A2A2A2",
"A.	c #6A6A6A",
"B.	c #151515",
"C.	c #E3E3E3",
"D.	c #484848",
"E.	c #7D7D7D",
"F.	c #232323",
"G.	c #2E2E2E",
"H.	c #565656",
"I.	c #D2D2D2",
"J.	c #606060",
"K.	c #828282",
"L.	c #A9A9A9",
"M.	c #414141",
"N.	c #191919",
"O.	c #727272",
"P.	c #DADADA",
"Q.	c #434343",
"R.	c #8C8C8C",
"S.	c #1A1A1A",
"T.	c #696969",
"U.	c #DFDFDF",
"V.	c #4C4C4C",
"W.	c #A3A3A3",
"X.	c #C1C1C1",
"Y.	c #B2B2B2",
"Z.	c #666666",
"`.	c #555555",
" +	c #929292",
".+	c #ADADAD",
"++	c #CACACA",
"@+	c #131313",
"#+	c #707070",
"$+	c #0A0A0A",
"%+	c #DBDBDB",
"&+	c #535353",
"*+	c #4F4F4F",
"=+	c #CFCFCF",
"-+	c #878787",
";+	c #CECECE",
">+	c #7E7E7E",
",+	c #383838",
"'+	c #AAAAAA",
")+	c #C4C4C4",
". . . . . . . . . + @ # $ % % . . & * * & & & & & & & & & & & & & & & & & & & & & & & & & & & & & & . . * * & # . = - & . . . . . . . . . . ",
". . . . . . . . . * * & + $ - . ; * . . & * * * * * * * * * * * * * * * * * * * * * * * * * * * * & + - > $ . * . , - & . . . . . . . . . . ",
". . . . . . . . . . + $ @ @ $ . , + * * * & & & & & & & & & & & & & & & & & & & & & & & & & & & & . + ; % $ & @ # - + . . . . . . . . . . . ",
". . . . . . . . . . ; ' = $ - . * . . . . . . . . . . . . . . . . . . . . . . . . . . . . . . . . . . . . . . # ; + . & * & . . . . . . . . ",
". . . . . . . . . . # - # * - ' = = = = = = = = = = = = = = = = = = = = = = = = = = = = = = = = = = = = = ) , & # . # $ # & . . . . . . . . ",
". . . . . . . . . # # & . & ! ~ { ] { ^ ^ ^ ^ { ^ ^ ^ { { ^ ^ ^ ^ ^ ^ ^ ^ ^ ^ ^ ^ ^ ^ { { ^ ^ ^ ^ { ^ ^ / ( _ $ & . , ) @ . . . . . . . . . ",
". . . . . . . . . @ # & . * : < [ } | 1 2 | 3 1 | | 4 5 3 | | | | | | | | | | | 5 | | 1 2 [ | | | 3 2 5 4 6 7 - . . % % + . . . . . . . . . ",
". . . . . . . . . & . & . & 8 9 0 0 a a a a b c 0 0 0 b b a a a a a a a a a a a a a 0 d d 0 a e a a a 0 d f g . . . & & . . . . . . . . . . ",
". . . . . . . . . . . . . & 8 9 9 9 9 9 9 9 9 h e h h h 9 9 9 9 9 9 9 9 9 9 9 9 9 9 h h 0 h h i a 9 9 9 a j k . . # * . . . . . . . . . . . ",
". . . . . . . . . . . . . & 8 9 0 9 9 a l b 9 9 b h h h 9 9 9 9 9 9 9 9 9 9 9 9 9 a d a h 0 0 m c c l 9 c n o . . $ + & * & . . . . . . . . ",
". . . . . . . . . . . . . & 8 9 0 9 9 h 9 9 9 9 9 9 9 9 9 9 9 9 9 9 9 9 9 9 9 9 9 9 9 9 9 9 h e b d d 9 p q . * & + & * + * . . . . . . . . ",
". . . . . . . . . . . . . & 8 9 0 9 9 c r j s t t u t t u u u t t t t t t t t t t u t t v w x c a h 0 0 3 y . $ . . . * * & . . . . . . . . ",
". . . . . . . . . . . . . & 8 9 0 9 9 z A B ' C C D E F D G F E E E E E E E E E E F C ' D B H I J d 9 J K 8 . $ . . + * . . . . . . . . . . ",
". . . . . . . . . . . . . & 8 9 0 9 9 L M N . . . . . . . . . . . . . . . . . . . . . . . O n P 0 0 9 L Q R . * . + ; $ & . . . . . . . . . ",
". . . . . . . . . . . . . & 8 9 0 9 9 S T U . . & % # & & & . . . . . . . . . . * * . . . _ V d 9 b 9 2 W . . . . @ ; # & . . . . . . . . . ",
". . . . . . . . . . . . . * X 9 9 9 9 Y Z U . - . - * # $ * . . . . . . . . . . . * * . % / 9 b a a b ` X . . + * + * * * & . . . . . . . . ",
". . . . . . . . . . . . . &  .[ x 1 ..v +.@.. % . & . @ - * . . . . . . . . . . . + + . #.$.9 h b 9 S %.&.. & $ # & . + @ + . . . . . . . . ",
". . . . . . . . . . . & * # *.=.-.;.>.,.'.= . # & . . * + & . . . . . . . . . . . + . * =.).9 9 0 9 w !.~.* . + $ & . * # * . . . . . . . . ",
". . . . . . . . . . . & * + . . . . . . . . & . & & & . . & . . . . . . . . . . & * . - {.S 9 9 b 9 ].^.. @ . * - * . . & & . . . . . . . . ",
". . . . . . . . . . . . . . . . . & & & & & & & & & & & & & . . . . . . . . . . + + . /.A 9 9 9 c 9 (._.. . & @ ; * . . . . . . . . . . . . ",
". . . . . . . . . & & & & . . . . . . & & & & & & & & & & & . . . . . . . . . . # . + : :.9 h 9 l <.[.}.. . * # # & . . . . . . . . . . . . ",
". . . . . . . . . . . . . & & & * * * & & & & & & & & & & & . . . . . . . . . . & . C {.5 9 |.h 9 :.X ; . * + . . . & & & & . . . . . . . . ",
". . . . . . . . . . . . . . . . . . . & & & & & & & & & & & . . . . . . . . . . * . 1.2.l 9 l h 9 3.4.. + @ + . . . & & & . . . . . . . . . ",
". . . . . . . . . . . . . . . . . . . & & & & & & & & & & & . . . . . . . . . . @ . N 5.9 9 a d 9 6.F . * * & . . & & & . . . . . . . . . . ",
". . . . . . . . . & * & & & & & . . . & & & & & & & & & & & . . . . . . . . . . & ) 7.8.9 h 9 d 9.7.= . . . . & & & & . . . . . . . . . . . ",
". . . . . . . . . * * * * * & & . . . & & & & & & & & & & & . . . . . . . . . . . #.0.V 9 b 9 e 2.a.# . . . . * & & . & * & . . . . . . . . ",
". . . . . . . . . & & & & & & & . . . . & & & & & & & & & & . . . . . . . . & . . b.c.e h c 0 a d.G . & & . . * & . . # $ + . . . . . . . . ",
". . . . . . . . . . . . . . . . . . . . . & & & & & & & & & . . . . * & . & # & . e.| 9 b l c f.g.# . * & . . & . . . + $ + . . . . . . . . ",
". . . . . . . . . . . . . . . . . . . . . . . . . . . . . . . . . & # * . * $ & @ h.I 9 b 9 i i.U + . & . . . . . . . . . . . . . . . . . . ",
". . . . . . . . . . . . . . . . . . . . . . . . . . . . . . & & . . & * & . . * j.Z k.9 0 9 P l.o * . . . . . . . . . . . . . . . . . . . . ",
". . . . . . . . . . . . . . . . . . . . . . . . . . . . . . & * & . . * # + . + W 6 b 9 e 9 S m.> . . . . . . . . . . . . . . . . . . . . . ",
". . . . . . . . . . . . . . . . . . . . . . . . . . . . . . & + + . . * # + . + H k.0 a 9 h n.o.* . . . . . . . . . . . . . . . . . . . . . ",
". . . . . . . . . . . . . . . . . . . . . . . . . . . . . . & @ $ * & & & & & }.p.|.h 0 9 q.Z , . & & . . . . . . . . . . . . . . . . . . . ",
". . . . . . . . . . . . . . . . . . . . . . . . . . . . . . & @ ; & * & . . $ X r.d 9 h 9 ..k ; . & & . . . . . . . . . . . . . . . . . . . ",
". . . . . . . . . . . . . . . . . . . . . . . . . . . . . . & @ ; & + * . . ' s.4 a 9 9 9 t.&.; & . & . . . . . . . . . . . . . . . . . . . ",
". . . . . . . . . . . . . . . . . . . . . . . . . . . . . . & @ ; & + * & . u.(.i 9 h 9 e v.@ @ * . . . . . . . . . . . . . . . . . . . . . ",
". . . . . . . . . . . . . . . . . . . . . . . . . . . . . . & @ - & * & * + @.w.h h b 9 f.x.. & * . . . . . . . . . . . . . . . . . . . . . ",
". . . . . . . . . . . . . . . . . . . . . . . . . . . . . . * @ @ & # * . , -.y.0 b e 0 6 z.. . * & . . . . . . . . . . . . . . . . . . . . ",
". . . . . . . . . . . . . . . . . . . . . . . . . . . . . & * & . + % @ . o.A.B.h h 9 e g C.. + & . . . . . . . . . . . . . . . . . . . . . ",
". . . . . . . . . . . . . . . . . . . . . . . . . . . . . & # + . . * . . '.D.d 9 h 9 k.E.% . @ & & * & . . . . . . . . . . . . . . . . . . ",
". . . . . . . . . . . . . . . . . . . . . . . . . . . . . & @ # . . . + . 8 F.9 9 9 0 G.z.. . $ & + + & . . . . . . . . . . . . . . . . . . ",
". . . . . . . . . . . . . . . . . . . . . . . . . . . . . & # * . + . . D ( q.9 a 9 J H.^.. & # . & & . . . . . . . . . . . . . . . . . . . ",
". . . . . . . . . . . . . . . . . . . . . . . . . . . . . . & & * @ * . I.J.c h b 9 f.K./.. & * & . . . . . . . . . . . . . . . . . . . . . ",
". . . . . . . . . . . . . . . . . . . . . . . . . . . . . . . * # # * . =.3 h 0 a 9 F.L.. . . . * & . . . . . . . . . . . . . . . . . . . . ",
". . . . . . . . . . . . . . . . . . . . . . . . . . . . . . . + @ & . . ( b 9 h 9 9 M.: . # . . + & . . . . . . . . . . . . . . . . . . . . ",
". . . . . . . . . . . . . . . . . . . . . . . . . . . . . . . * # . . 4.7 9 9 h 9 N.O.P.. + . . & & . . . . . . . . . . . . . . . . . . . . ",
". . . . . . . . . . . . . . . . . . . . . . . . . . . . . . . & * . . _ Q.9 0 h 9 6 !.E . . . * . + + & . . . . . . . . . . . . . . . . . . ",
". . . . . . . . . . . . . . . . . . . . . . . . . . . . . . . . * * . R.S.h a 9 9 D.b.+ * . & # . - - * . . . . . . . . . . . . . . . . . . ",
". . . . . . . . . . . . . . . . . . . . . . . . . . . . . . . . # ; + T.9 h h 9 e 2.U.. & * + * . - - * . . . . . . . . . . . . . . . . . . ",
". . . . . . . . . . . . . . . . . . . . . . . . . . . . . & # + * - @.V.9 e e h r s.u.. . & + * . + + & . . . . . . . . . . . . . . . . . . ",
". . . . . . . . . . . . . . . . . . . . . . . . . . . . . * $ # . > W.G.9 l l 0 r.m.> . * . & + * & . . . . . . . . . . . . . . . . . . . . ",
". . . . . . . . . . . . . . . . . . . . . . . . . . . . . & + * . E T.m 9 0 9 a %.! . & * . . * @ * . . . . . . . . . . . . . . . . . . . . ",
". . . . . . . . . . . . . . . . . . . . . . . . . . . . . . . . . 1.w.9 9 9 9 J ~ = . & . . . . $ # & . . . . . . . . . . . . . . . . . . . ",
". . . . . . . . . . . . . . . . . . . . . . . . . . . . . . . . @ X.x 9 h 9 b 8.Y.; . & . & . . # * & . . . . . . . . . . . . . . . . . . . ",
". . . . . . . . . . . . . . . . . . . . . . . . . . . . . . . & R R.f 9 9 9 Y Z.a.# & * + # . . & * & . . . . . . . . . . . . . . . . . . . ",
". . . . . . . . . . . . . . . . . . . . . . . . . . . . . . . * I.`.Y 9 h 9 k. +~.& . & # - . & . * * & . . . . . . . . . . . . . . . . . . ",
". . . . . . . . . . . . . . . . . . . . . . . . . . . . . . . & X.[ 9 b b 9 <.>.@ & . & - > . # & & & & . . . . . . . . . . . . . . . . . . ",
". . . . . . . . . . . . . . . . . . . . . . . . . . . . . * # - .+f.9 c l a u ++& . . * ; > . - * . . . . . . . . . . . . . . . . . . . . . ",
". . . . . . . . . . . . . . . . . . . . . . & & . . . . . . $ o.+.q.9 e 9 @+#+o.& . . & @ @ . # & . . . . . . . . . . . . . . . . . . . . . ",
". . . . . . . . . . . . . . . . . . . . . . & * & . . . . . - -.r.l 9 h 9 5 >.; . . . . . . . . . . . . . . . . . . . . . . . . . . . . . . ",
". . . . . . . . . . . . . . . . . . . . . . & * & . . . . . =  +$+h h e 9 w %+. . . . . . . . . . . . . . . . . . . . . . . . . . . . . . . ",
". . . . . . . . . . . . . . . . . . . . . . & * & . . . . . F q b q.l h 0 5.*.. . . . . . . . . . . . . . . . . . . . . . . . . . . . . . . ",
". . . . . . . . . . . . . . . . . . . . . . . & & . . . . $ : &+a a h 9 1 y > . & . . . . . . . . . . . . . . . . . . . . . . . . . . . . . ",
". . . . . . . . . . . . . . . . . . . . . . & & . . . & . ~. +6 $+h 9 9 *+=+- & . . . . . . . . . . . . . . . . . . . . . . . . . . . . . . ",
". . . . . . . . . . . . . . . . . . . . . & & & . . . * . o.T.i |.h 9 0 Z./.- . . . . . . . . . . . . . . . . . . . . . . . . . . . . . . . ",
". . . . . . . . . . . . . . . . . . . . . & & & . . . * . U.p.9 9 9 9 L +., + + * . . . . . . . . . . . . . . . . . . . . . . . . . . . . . ",
". . . . . . . . . . . . . . . . . . . . . . & & . . . + . /.-+1 f.J 9 M.Y.* . > $ & . . . . . . . . . . . . . . . . . . . . . . . . . . . . ",
". . . . . . . . . . . . . . . . . . . . . . & & . . . + * = ;+^ >+J.,+E.U.. # > $ & . . . . . . . . . . . . . . . . . . . . . . . . . . . . ",
". . . . . . . . . . . . . . . . . . . . . . & & . . . * $ @ . . . R '+)+% * ; * . . . . . . . . . . . . . . . . . . . . . . . . . . . . . . ",
". . . . . . . . . . . . . . . . . . . . . . . . . . . . . . . . . . . . . . . . . . . . . . . . . . . . . . . . . . . . . . . . . . . . . . "};
