/* XPM */
static const char * Big8_xpm[] = {
"70 70 239 2",
"  	c None",
". 	c #FFFFFF",
"+ 	c #FCFCFC",
"@ 	c #FBFBFB",
"# 	c #FDFDFD",
"$ 	c #FAFAFA",
"% 	c #FEFEFE",
"& 	c #F7F7F7",
"* 	c #F6F6F6",
"= 	c #F2F2F2",
"- 	c #E9E9E9",
"; 	c #E1E1E1",
"> 	c #DBDBDB",
", 	c #D9D9D9",
"' 	c #D7D7D7",
") 	c #DADADA",
"! 	c #DDDDDD",
"~ 	c #E5E5E5",
"{ 	c #EDEDED",
"] 	c #F5F5F5",
"^ 	c #F8F8F8",
"/ 	c #F0F0F0",
"( 	c #CECECE",
"_ 	c #AAAAAA",
": 	c #898989",
"< 	c #6A6A6A",
"[ 	c #555555",
"} 	c #4E4E4E",
"| 	c #484848",
"1 	c #4A4A4A",
"2 	c #515151",
"3 	c #5F5F5F",
"4 	c #797979",
"5 	c #989898",
"6 	c #B7B7B7",
"7 	c #D8D8D8",
"8 	c #F9F9F9",
"9 	c #E2E2E2",
"0 	c #B0B0B0",
"a 	c #7B7B7B",
"b 	c #525252",
"c 	c #373737",
"d 	c #212121",
"e 	c #0C0C0C",
"f 	c #000000",
"g 	c #070707",
"h 	c #181818",
"i 	c #2C2C2C",
"j 	c #424242",
"k 	c #8A8A8A",
"l 	c #C6C6C6",
"m 	c #B3B3B3",
"n 	c #767676",
"o 	c #3A3A3A",
"p 	c #090909",
"q 	c #020202",
"r 	c #010101",
"s 	c #030303",
"t 	c #040404",
"u 	c #151515",
"v 	c #5C5C5C",
"w 	c #929292",
"x 	c #D4D4D4",
"y 	c #959595",
"z 	c #333333",
"A 	c #0A0A0A",
"B 	c #050505",
"C 	c #080808",
"D 	c #0D0D0D",
"E 	c #686868",
"F 	c #BDBDBD",
"G 	c #ECECEC",
"H 	c #F4F4F4",
"I 	c #D6D6D6",
"J 	c #6F6F6F",
"K 	c #1D1D1D",
"L 	c #060606",
"M 	c #161616",
"N 	c #404040",
"O 	c #969696",
"P 	c #1C1C1C",
"Q 	c #1E1E1E",
"R 	c #282828",
"S 	c #1F1F1F",
"T 	c #3C3C3C",
"U 	c #A0A0A0",
"V 	c #7C7C7C",
"W 	c #1B1B1B",
"X 	c #727272",
"Y 	c #848484",
"Z 	c #949494",
"` 	c #828282",
" .	c #777777",
"..	c #626262",
"+.	c #414141",
"@.	c #202020",
"#.	c #9B9B9B",
"$.	c #2B2B2B",
"%.	c #2F2F2F",
"&.	c #B1B1B1",
"*.	c #BEBEBE",
"=.	c #7E7E7E",
"-.	c #474747",
";.	c #1A1A1A",
">.	c #4D4D4D",
",.	c #BFBFBF",
"'.	c #CCCCCC",
").	c #505050",
"!.	c #121212",
"~.	c #BBBBBB",
"{.	c #EEEEEE",
"].	c #222222",
"^.	c #0B0B0B",
"/.	c #717171",
"(.	c #171717",
"_.	c #D5D5D5",
":.	c #E4E4E4",
"<.	c #A4A4A4",
"[.	c #313131",
"}.	c #444444",
"|.	c #A9A9A9",
"1.	c #0E0E0E",
"2.	c #595959",
"3.	c #F1F1F1",
"4.	c #E7E7E7",
"5.	c #8D8D8D",
"6.	c #272727",
"7.	c #9D9D9D",
"8.	c #262626",
"9.	c #A6A6A6",
"0.	c #DEDEDE",
"a.	c #636363",
"b.	c #666666",
"c.	c #353535",
"d.	c #D3D3D3",
"e.	c #3F3F3F",
"f.	c #919191",
"g.	c #9E9E9E",
"h.	c #CFCFCF",
"i.	c #303030",
"j.	c #343434",
"k.	c #ADADAD",
"l.	c #757575",
"m.	c #868686",
"n.	c #CDCDCD",
"o.	c #292929",
"p.	c #BCBCBC",
"q.	c #E6E6E6",
"r.	c #CACACA",
"s.	c #232323",
"t.	c #535353",
"u.	c #C3C3C3",
"v.	c #878787",
"w.	c #CBCBCB",
"x.	c #242424",
"y.	c #434343",
"z.	c #B6B6B6",
"A.	c #7D7D7D",
"B.	c #7A7A7A",
"C.	c #8F8F8F",
"D.	c #EBEBEB",
"E.	c #101010",
"F.	c #8B8B8B",
"G.	c #AEAEAE",
"H.	c #E0E0E0",
"I.	c #707070",
"J.	c #656565",
"K.	c #E3E3E3",
"L.	c #808080",
"M.	c #9C9C9C",
"N.	c #9A9A9A",
"O.	c #C1C1C1",
"P.	c #3D3D3D",
"Q.	c #4C4C4C",
"R.	c #606060",
"S.	c #DCDCDC",
"T.	c #2A2A2A",
"U.	c #EAEAEA",
"V.	c #363636",
"W.	c #191919",
"X.	c #EFEFEF",
"Y.	c #0F0F0F",
"Z.	c #D0D0D0",
"`.	c #E8E8E8",
" +	c #141414",
".+	c #D2D2D2",
"++	c #4F4F4F",
"@+	c #383838",
"#+	c #838383",
"$+	c #2E2E2E",
"%+	c #464646",
"&+	c #3B3B3B",
"*+	c #696969",
"=+	c #646464",
"-+	c #F3F3F3",
";+	c #131313",
">+	c #7F7F7F",
",+	c #2D2D2D",
"'+	c #565656",
")+	c #111111",
"!+	c #979797",
"~+	c #C0C0C0",
"{+	c #B5B5B5",
"]+	c #A5A5A5",
"^+	c #323232",
"/+	c #737373",
"(+	c #D1D1D1",
"_+	c #C7C7C7",
":+	c #393939",
"<+	c #C2C2C2",
"[+	c #B8B8B8",
"}+	c #4B4B4B",
"|+	c #B4B4B4",
"1+	c #939393",
"2+	c #5D5D5D",
"3+	c #ABABAB",
"4+	c #A3A3A3",
"5+	c #545454",
"6+	c #5A5A5A",
"7+	c #A2A2A2",
"8+	c #5E5E5E",
"9+	c #C5C5C5",
"0+	c #6E6E6E",
"a+	c #252525",
"b+	c #AFAFAF",
"c+	c #909090",
"d+	c #B9B9B9",
"e+	c #C9C9C9",
"f+	c #B2B2B2",
"g+	c #BABABA",
"h+	c #A1A1A1",
"i+	c #C8C8C8",
"j+	c #818181",
"k+	c #494949",
"l+	c #ACACAC",
"m+	c #616161",
"n+	c #3E3E3E",
"o+	c #6B6B6B",
"p+	c #8E8E8E",
". . . . . . . . . . . . . . . . . . . . . . + @ # # . . + $ $ @ # . . % # @ @ + @ & @ . . . % + + % . . . . . . . . . . . . . . . . . . . . ",
". . . . . . . . . . . . . . . . . . . . % . . # + + % . . . . . . . . . . . . . + * $ # + + + @ + % . . . . . . . . . . . . . . . . . . . . ",
". . . . . . . . . . . . . . . . . . . % % . . . . . . + = - ; > , ' ' ) ! ~ { ] % . . # ^ ^ + % . % # . . . . . . . . . . . . . . . . . . . ",
". . . . . . . . . . . . . . . . . . . . % % % . # & / ( _ : < [ } | 1 2 3 4 5 6 7 = $ . % # % % % $ ^ % . . . . . . . . . . . . . . . . . . ",
". . . . . . . . . . . . . . . . . . . # $ # . 8 9 0 a b c d e f f f f f g h i j 3 k l ] . % @ 8 + + $ % . . . . . . . . . . . . . . . . . . ",
". . . . . . . . . % % . % . . % + . + & # . { m n o p q q r f f f f s f f r q q t u v w x ^ + 8 # . . . % # # % . . . . . . . . . . . . . . ",
". . . . . . . . . # # % $ + . # ^ + * & . - y z A B f C C q r q f f f r r f f f r s D A E F G . . % % . # @ + % . . . . . . . . . . . . . . ",
". . . . . . . . . % % # H 8 . . + & $ . I J K B f f p g q f f f f f q B t r f r L A f r M N O { . 8 @ . . % % . . % % . . . . . . . . . . . ",
". . . . . . . . . . . % ] 8 . . % @ . x J P f f s t g f f r r C Q R S D f f f r L B f g f r T U G . # # . . . . . % % % . . . . . . . . . . ",
". . . . . . . . . % # # @ + . # 8 . 9 V W r B r q f f M T v X Y w 5 Z `  ...+.@.B f r f B r C +._ ] . @ # . . % . % % % . . . . . . . . . . ",
". . . . . . . . . # 8 $ . . . @ * * #.$.r f r r q A %. .&.> + . . % . . . * *.=.-.;.q B e g f p >.,.. # # % # + % . . . % % . . . . . . . . ",
". . . . . . . . . # $ 8 # . # % + '.).L f s s q !.2 ~.{.# # @ # . . $ & # . . ^ x ` ].h C f B t ^././ . . % @ 8 # . . # + # . . . . . . . . ",
". . . . . . . . . . % # % @ $ . {. .!.f r r f (.X _.# * ] + + $ . . # $ # . . . + :.<.[.t q B q D }.|.] . . # @ # . . # $ # . . . . . . . . ",
". . . . . . . . . . . % @ & $ . , N s s r f 1.2._.. ] 3.] @ % % . @ $ # . . % # . # 4.5.6.f s L C M E G . . % % % . . # @ # . . . . . . . . ",
". . . . . . . . . # # % @ ^ . / 7.8.r L r f c 9.. % = H $ + + # # @ $ % # + + % . % 8 :.v D t L r t -.9 # + . % + . . % # % . . . . . . . . ",
". . . . . . . . . @ 8 % % + . 0.a.M r s f p b.9 . # + 8 8 @ @ @ # % % . + 8 @ % % + % . Z %.L f r r c.l H + . % @ @ # . . . . . . . . . . . ",
". . . . . . . . % @ ^ % . % . d.e.A q f f P f.. . $ % % $ ^ $ # % . . . # + # % % + % . ( [ B f r r 8.g.{ . # . @ * $ % % % . . . . . . . . ",
". . . . . . . . . + $ % # # . h.i.r r f r j.k.. % $ # . # $ + . . . . . . . . . . % # ^ * l.g f r r ].m.- . + . # & $ % # % . . . . . . . . ",
". . . . . . . . . % # % $ @ . n.o.f f f g 1 p.. . # # % % % % . . . . . . . . . . . % H . m.e f s r @.=.q.. + . . @ # . % % . . . . . . . . ",
". . . . . . . . . . . % ^ @ . r.s.f f f A t.u.. % # + + # . . . . . . . . . . . . . . % . v.D f L r u l.:.. # . . % % . % . . . . . . . . . ",
". . . . . . . . . % % % 8 + . w.x.f s f g y.z.. & $ % % % % % . . . . . . . . . . . . . . A.g f q r (.B.~ . % . . . # # % . . . . . . . . . ",
". . . . . . . . . # + % @ # . h.%.f q s r 8.U . + @ # . % # % . . . . . . . . . . % # * ^ l.B f t r R C.D.. . . . . + + % . . . . . . . . . ",
". . . . . . . . . % # . . . . I | L f r f E.F.. . % $ # . % % . . . . . . . . . # @ . . l } t q q q i.G.H . . . % . # # % . . . . . . . . . ",
". . . . . . . . . . % . . . . H.I.u r f f B J.K.. . $ + % . . . . . . . . . . % @ $ . . L.K q t g f z ( % . % % @ % % % . . . . . . . . . . ",
". . . . . . . . . . . % + % . {.M.6.r f f f i.N.$ . + + % . . . . . . . . . . . # # . ! }.f f s C C 1 :.. + + % 8 + . . . . . . . . . . . . ",
". . . . . . . . . . % + $ # . 8 O.P.q f r f B Q._.# . % % . . . . . . . . . . % . . - ` K f r f B d ` 3.. $ $ % 8 + . . . . . . . . . . . . ",
". . . . . . . . . . # $ @ % . . > R.1.f t q f u A.S.@ . . % . . . # # % . . . . . / 7.T.g C C f B Q.'.@ . @ + % + % . . . . . . . . . . . . ",
". . . . . . . . . . # $ % % @ # {.g.z t q s q q (.L.I $ . # @ % . @ + + % . . . U.<.V.q f A ^.f W.k . . . . . . . . . . . . . . . . . . . . ",
". . . . . . . . . . # $ % @ / 3.. X.X Y.f r A D f f /.Z.= = = $ . . . ^ $ 8 @ `.Z ;.t f q f f  +< .+# . . . . . . . . . . . . . . . . . . . ",
". . . . . . . . . . @ ] @ . H G % # ,.++A f q f r C q @+=.,.3.. . . . . . 7 #+$+q r q A  +g t %+u.. . . . . . . . . . . . . . . . . . . . . ",
". . . . . . . . . # @ @ # . . & / 8 $ ~.Q.g f s C q A Y.(.8.&+t.*+X =+} N i.;.L f q f r q f &+k.& . ^ % . . . . . . . . . . . . . . . . . . ",
". . . . . . . . . + $ % . 8 @ % * -+. & p.a. +f A f t s q f r C ;+W. +^.s f f q q r L C f +.&.{ @ $ + . . . . . . . . . . . . . . . . . . . ",
". . . . . . . . . # $ + . * * . # -+8 . * w.>+,+f t p t q q q f f f f r r f r L C B L !.t.&.3.. $ 8 # . . . . . . . . . . . . . . . . . . . ",
". . . . . . . . . . + & # $ ^ # + * 8 % . ^ *.'+f L 1.p s s t s f r q s q r q L A g r )+!+{.. . % @ @ % . . . . . . . . . . . . . . . . . . ",
". . . . . . . . . . + ] + % + $ 8 8 # . ] ( #+z A B g p t f f f f f s q f f f q t s f ^.3 ~+* . . # @ % . . . . . . . . . . . . . . . . . . ",
". . . . . . . . . # $ 8 @ @ + @ 8 + . 3.{+J.W f D A f q q s t B L L B t s q r r f f f C g >.m = . # % . . . . . . . . . . . . . . . . . . . ",
". . . . . . . . % 8 & . 8 & @ . . . 3.]+j C f r g 1.r L (.R c j | 1 y.P.^+s.!.t f r t C r f T 0 ] . % . . . % % . . % % . . . . . . . . . . ",
". . . . . . . . % 8 * % @ + % % . % 7.$.t s t C (.L A &+/+]+(+{.& ^ 8 `._+w [ d B t C q B r r :+{+. . . . . # + % . # + % . . . . . . . . . ",
". . . . . . . . . % % % 8 + % . ^ ]+y.A f f B s t &+9.x `.H 8 @ . . % # $ {.H.<+4 M f L ^.B f C %+[+% . # % + $ % . . % . . . . . . . . . . ",
". . . . . . . . . . % $ 8 # . + h.}+e L e B f 1.'+|+3.. . . . % . % 8 $ . . . # 0.1+@+L f s e D E.J U.. . # + + # % . . . . . . . . . . . . ",
". . . . . . . . . % # + # + . U.#+h f t C f )+2+r.^ 8 % $ H * % . . + + % % @ @ + { 3+Q f s ^.A L V.4+* . # # % + % . % + % . . . . . . . . ",
". . . . . . . . . % % . . $ % r.&+C t q f g 5+_+. # * # 8 / = # . . . . . # $ & $ . H Y W f s q B E.6+~ . % % % + % . # @ # . . . . . . . . ",
". . . . . . . . . . % # . @ { 7.;+L p f r %.7+. . ] 8 + + $ @ % . . . % % % # # + + @ * 8+p r t s f z 9+@ . % % + % . # + % . . . . . . . . ",
". . . . . . . . . . + * # . d.b.g s L f ;+0+' . 8 $ ] = & # . . . . # @ @ @ + % % + % . 3+&+L B C r S Z { . + % @ % % # % . . . . . . . . . ",
". . . . . . . . . . 8 / @ . p.o p r r f a+|.. ^ H . 8 * ^ + + @ + % # + @ + + # % . . @ 3./.L f B s u ..0.. + # @ % @ @ % . . . . . . . . . ",
". . . . . . . . . . @ ] + . b+@.g r f f @+~+. * & % . . % + $ $ $ @ % . . % % % % % # & . c+!.f s L p P..+. # # # . ^ ^ # . . . . . . . . . ",
". . . . . . . . . # # % # . |.!.f f f e '+n.. % % . # @ @ % . % # + + # # # # + # % % # . 3+z B g C f T.n.. % % . . & * # . . . . . . . . . ",
". . . . . . . . . % # % ^ . 9.e f f f W.*+_.. + . . . % + + % . . % % % % % % % # + . . . m j e q q f d r.. . . % . 8 ^ # . . . . . . . . . ",
". . . . . . . . . . # + @ . U e f f f W.0+7 . % + G $ % # # % . . . . . . . . . % @ ] + . d+| A f r f @.e+. . . . . $ 8 % . . . . . . . . . ",
". . . . . . . . . . # 8 . . M.E.q q f E.a.d.. . @ :.^ $ $ # . . . . . . . . . . . + = @ . z.+.B f q f x.w.. . . . . @ @ % . . . . . . . . . ",
". . . . . . . . . . # & % . 7+(.^.t f s 1 e+. # # 3.+ & & + . . . . . . . . . . % + 8 % . 9.i f f f f ^+h.. . . . . # + % . . . . . . . . . ",
". . . . . . . . . . % # % . f+R D q q f %.g+. ] # % . ^ ^ # . . . . . . . . . . + $ % . . f.M f f f p ++' . % % % . % # % . . . . . . . . . ",
". . . . . . . . . . . % + . _+1 p f t f W N.] $ @ . $ & $ % . . . . . . . . . . # @ . . - /.D f f r (.n :.. % + # . . . . . . . . . . . . . ",
". . . . . . . . . . % # # . 0.a A f t f A '+9+. # $ $ $ + % . . . . . . . . . . % % . . _ P.t f B r x.7+3.. % + # . . . . . . . . . . . . . ",
". . . . . . . . . . . % . $ -+k.;.r t f f W F.+ . 8 % # + # . . . . . . . . . . . . # `.a.1.f q L q :+r.+ . % + . # # . . . . . . . . . . . ",
". . . . . . . . . % . . . $ . ( o g r f f r }.0 / . . # @ + % . . . . . . . . . . . K.O 8.f f q q !.J.4.. . % % . + @ # . . . . . . . . . . ",
". . . . . . . . . # + % + + . K.0+;+f f f f A | 6 8 . . % % . . . . . . . . . . . { h+j.s r p t q :+3+& . # # . . + @ + % . . . . . . . . . ",
". . . . . . . . . @ ^ # # % . ^ d+i f r q t f g ++_ q.. . . # # . . . . . . . . ; w T f f t L t (.B.`.% . % % . . # # % . . . . . . . . . . ",
". . . . . . . . . @ 8 # # + + . H /+M s q g L f f V.v.~+:.$ . . . . . . . = > [+ .].f f s t f g ).i+. . . . . . . . . . . . . . . . . . . . ",
". . . . . . . . . % . . 8 * $ % + H.E E.f f f f f f B c j+O.H.q.4.:.`.:.' 9.2+W f r ;+s C p B i.]++ . . . . . . . . . . . . . . . . . . . . ",
". . . . . . . . . . . % $ + . @ H % ~.k+^.f f r r f f s g Y.Q c.Q.2.1 $.u A g C A g r s r f :+l+U.8 . . . . . . . . . . . . . . . . . . . . ",
". . . . . . . . . % $ & # . . ^ - @ $ |+2  +r f s q f f f r s B ^.1.A L B t q q L A L f f T k.-+% @ % . . . . . . . . . . . . . . . . . . . ",
". . . . . . . . . # @ @ . * & % ] & . ] ~.a.W.f f f f r q s t t q q f f q s q f r f f s m+~.4.H $ . . . . . . . . . . . . . . . . . . . . . ",
". . . . . . . . . % # % # ] ] # % @ $ . & O.4 n+!.f f f f f q t t s q q f f f f f 1.c.o+e+^ ^ H @ % @ % . . . . . . . . . . . . . . . . . . ",
". . . . . . . . . . . % 8 8 $ $ # . $ @ . & > l+E j.S )+p q f f f f f f f p !.K z =+]+, {.$ # @ $ 8 8 % . . . . . . . . . . . . . . . . . . ",
". . . . . . . . . . . % 8 + # 8 8 # % 8 ^ . . H .+f+F...| j.@. + +)+!.M 8.y...` |.Z.-+. & & % + H H + . . . . . . . . . . . . . . . . . . . ",
". . . . . . . . . # # % + ^ 8 + 8 ^ # @ H ^ . . . . -+'.m h+p+L.=.B.a ` f.l+w.- . . . # . % # $ ] & % . . . . . . . . . . . . . . . . . . . ",
". . . . . . . . . + @ . . * * . % & 8 + @ # . $ = % . . . . . . . . . . . . . . . . . . % @ @ % . % @ % . . . . . . . . . . . . . . . . . . ",
". . . . . . . . . . . . . . . . . . . . . . . . . . . . . . . . . . . . . . . . . . . . . . . . . . . . . . . . . . . . . . . . . . . . . . ",
"                                                                                                                                            "};
