/* XPM */
static const char * Big9_xpm[] = {
"70 70 233 2",
"  	c None",
". 	c #FFFFFF",
"+ 	c #FDFDFD",
"@ 	c #F8F8F8",
"# 	c #F7F7F7",
"$ 	c #FBFBFB",
"% 	c #FEFEFE",
"& 	c #FCFCFC",
"* 	c #FAFAFA",
"= 	c #F6F6F6",
"- 	c #F9F9F9",
"; 	c #F4F4F4",
"> 	c #E9E9E9",
", 	c #E0E0E0",
"' 	c #DBDBDB",
") 	c #D8D8D8",
"! 	c #D5D5D5",
"~ 	c #D4D4D4",
"{ 	c #D6D6D6",
"] 	c #E2E2E2",
"^ 	c #EAEAEA",
"/ 	c #F0F0F0",
"( 	c #F5F5F5",
"_ 	c #DDDDDD",
": 	c #B2B2B2",
"< 	c #8A8A8A",
"[ 	c #696969",
"} 	c #525252",
"| 	c #474747",
"1 	c #404040",
"2 	c #3F3F3F",
"3 	c #464646",
"4 	c #575757",
"5 	c #727272",
"6 	c #8C8C8C",
"7 	c #A4A4A4",
"8 	c #C1C1C1",
"9 	c #E4E4E4",
"0 	c #F1F1F1",
"a 	c #C9C9C9",
"b 	c #959595",
"c 	c #656565",
"d 	c #232323",
"e 	c #0E0E0E",
"f 	c #000000",
"g 	c #020202",
"h 	c #141414",
"i 	c #252525",
"j 	c #343434",
"k 	c #4D4D4D",
"l 	c #717171",
"m 	c #9D9D9D",
"n 	c #E8E8E8",
"o 	c #989898",
"p 	c #565656",
"q 	c #212121",
"r 	c #050505",
"s 	c #010101",
"t 	c #030303",
"u 	c #060606",
"v 	c #0C0C0C",
"w 	c #282828",
"x 	c #6D6D6D",
"y 	c #B9B9B9",
"z 	c #DCDCDC",
"A 	c #8D8D8D",
"B 	c #202020",
"C 	c #040404",
"D 	c #070707",
"E 	c #080808",
"F 	c #2A2A2A",
"G 	c #818181",
"H 	c #DEDEDE",
"I 	c #F2F2F2",
"J 	c #CECECE",
"K 	c #6B6B6B",
"L 	c #1F1F1F",
"M 	c #777777",
"N 	c #D9D9D9",
"O 	c #7F7F7F",
"P 	c #121212",
"Q 	c #090909",
"R 	c #1D1D1D",
"S 	c #1B1B1B",
"T 	c #0D0D0D",
"U 	c #CCCCCC",
"V 	c #E6E6E6",
"W 	c #909090",
"X 	c #272727",
"Y 	c #0F0F0F",
"Z 	c #3D3D3D",
"` 	c #636363",
" .	c #737373",
"..	c #838383",
"+.	c #939393",
"@.	c #8B8B8B",
"#.	c #5F5F5F",
"$.	c #3C3C3C",
"%.	c #181818",
"&.	c #7D7D7D",
"*.	c #ACACAC",
"=.	c #3B3B3B",
"-.	c #151515",
";.	c #606060",
">.	c #B7B7B7",
",.	c #ECECEC",
"'.	c #AEAEAE",
").	c #292929",
"!.	c #949494",
"~.	c #131313",
"{.	c #B5B5B5",
"].	c #F3F3F3",
"^.	c #C8C8C8",
"/.	c #494949",
"(.	c #C2C2C2",
"_.	c #242424",
":.	c #585858",
"<.	c #8E8E8E",
"[.	c #BEBEBE",
"}.	c #4E4E4E",
"|.	c #B1B1B1",
"1.	c #848484",
"2.	c #B8B8B8",
"3.	c #222222",
"4.	c #A6A6A6",
"5.	c #868686",
"6.	c #EEEEEE",
"7.	c #666666",
"8.	c #101010",
"9.	c #E3E3E3",
"0.	c #0B0B0B",
"a.	c #4B4B4B",
"b.	c #B6B6B6",
"c.	c #4C4C4C",
"d.	c #262626",
"e.	c #333333",
"f.	c #A8A8A8",
"g.	c #393939",
"h.	c #353535",
"i.	c #DFDFDF",
"j.	c #EDEDED",
"k.	c #707070",
"l.	c #484848",
"m.	c #929292",
"n.	c #0A0A0A",
"o.	c #6C6C6C",
"p.	c #171717",
"q.	c #686868",
"r.	c #323232",
"s.	c #A7A7A7",
"t.	c #545454",
"u.	c #444444",
"v.	c #191919",
"w.	c #646464",
"x.	c #919191",
"y.	c #898989",
"z.	c #5A5A5A",
"A.	c #7C7C7C",
"B.	c #373737",
"C.	c #161616",
"D.	c #616161",
"E.	c #6E6E6E",
"F.	c #505050",
"G.	c #2B2B2B",
"H.	c #858585",
"I.	c #363636",
"J.	c #D2D2D2",
"K.	c #A1A1A1",
"L.	c #ADADAD",
"M.	c #969696",
"N.	c #7E7E7E",
"O.	c #1A1A1A",
"P.	c #303030",
"Q.	c #9C9C9C",
"R.	c #313131",
"S.	c #E7E7E7",
"T.	c #EFEFEF",
"U.	c #B3B3B3",
"V.	c #7B7B7B",
"W.	c #AFAFAF",
"X.	c #454545",
"Y.	c #1C1C1C",
"Z.	c #434343",
"`.	c #9B9B9B",
" +	c #BABABA",
".+	c #CBCBCB",
"++	c #D7D7D7",
"@+	c #ABABAB",
"#+	c #676767",
"$+	c #828282",
"%+	c #555555",
"&+	c #B4B4B4",
"*+	c #7A7A7A",
"=+	c #515151",
"-+	c #797979",
";+	c #111111",
">+	c #E1E1E1",
",+	c #888888",
"'+	c #C5C5C5",
")+	c #6F6F6F",
"!+	c #8F8F8F",
"~+	c #D1D1D1",
"{+	c #5E5E5E",
"]+	c #A0A0A0",
"^+	c #CFCFCF",
"/+	c #535353",
"(+	c #2F2F2F",
"_+	c #BCBCBC",
":+	c #DADADA",
"<+	c #414141",
"[+	c #A2A2A2",
"}+	c #3A3A3A",
"|+	c #1E1E1E",
"1+	c #9A9A9A",
"2+	c #5B5B5B",
"3+	c #C7C7C7",
"4+	c #E5E5E5",
"5+	c #747474",
"6+	c #626262",
"7+	c #AAAAAA",
"8+	c #595959",
"9+	c #3E3E3E",
"0+	c #BDBDBD",
"a+	c #A5A5A5",
"b+	c #D3D3D3",
"c+	c #5D5D5D",
"d+	c #C6C6C6",
"e+	c #757575",
"f+	c #EBEBEB",
"g+	c #2C2C2C",
"h+	c #4F4F4F",
"i+	c #979797",
"j+	c #878787",
". . . . . . . . . . . . . . . . . . . . . . . . + + @ # $ . . % . % & * * $ + . . . . . . . + & & % . . . . % . . . . . . . . . . . . . . . ",
". . . . . . . . . . . . . . . . . . . . . . . + = * + % . % $ - * % . % % % . + % . . . % % + $ & + . . . . . . . . . . . . . . . . . . . . ",
". . . . . . . . . . . . . . . . . . . . . . . % & % . . % & $ & % . + % . . % % . . . . . . % + + + . . . . . . . . . . . . . . . . . . . . ",
". . . . . . . . . . . . . . . . . . . . . . . % + $ * $ + % + + @ ; * . . . . . . . . % % . . . % . % % . . . . . . . . . . . . . . . . . . ",
". . . . . . . . . . . . . . . . . . . . . . . % * * - $ . . . . . & . . . . . . . . . + % . . . . . % % % . . . . . . . . . . . . . . . . . ",
". . . . . . . . . . . . . . . . . . . . . . . + @ + . . . ; > , ' ) ! ~ { ' ] ^ / @ . . . + % . . . % % % % . . . . . . . . . . . . . . . . ",
". . . . . . . . . . . . . . . . . . . . . . . + # % $ ( _ : < [ } | 1 2 3 4 5 6 7 8 9 ( - $ + . . . % % % % % . . . . . . . . . . . . . . . ",
". . . . . . . . . . . . . . . . . . . . . . . . % 0 a b c 2 d e f f f f f g h i j k l m ) . & + . . . % % % . . . . . . . . . . . . . . . . ",
". . . . . . . . . . . . . . . . + $ + . % + . . n o p q r g s f s t u g f f s s g g v w x y ' % . . % + % . . . . . . . . . . . . . . . . . ",
". . . . . . . . . . . . . . % + * ; * % . + # z A B u s s C t f t D t f f f f f f f f g E F G H . . $ * % . + . . . . . . . . . . . . . . . ",
"% . . . . . . . . . . . . . + * % I # + . & J K L f f s s g r C t D s f g g f f f f t u t g q M N # & % % * # . . . . . . . . . . . . . . . ",
"% % . . . . . . . . . . . . & * . $ ; $ . z O P f f s E Q f f f f P R B S T f f f r u r C f f d [ U & . ; I & . . . . . . . . . . . . . . . ",
"% % . . . . . . . . . . . . + $ . . - . V W X f f T t f s Y Z `  ...+.+.@...M #.$.%.t s s f t D e &.' $ = = . . . . . . . . . . . . . . . . ",
". . % % . . . . . . . . . . + - . $ . # *.=.f s C -.D Y F ;.>.* . . . . . . . ,.'.K $.R D f u E f ).!.^ . % & . . . . . . . . . . . . . . . ",
". + & + . . . . . . . . . . + # . ; . U #.T f C Q f ~.#.{.V ].@ . . @ $ . + # & % ].^. .d f f f C f /.(.. + = . . . . . . . . . . . . . . . ",
". + * + . . . . . . . . . + & + % . = !._.f s g u r :.y ].. + @ + . $ + . + # = & . . 9 <.X f f s f L O _ . + . . . . . . . . . . . . . . . ",
". + $ + . . . . . . . . . + & . # . [.}.E f u f t 3 |.0 . . % % $ # + . . . + $ * + . . n 1.r u D s f $.2.. . . . . . . . . . . . . . . . . ",
". % + % . . . . . . . . . % $ # @ . @.3.s r t f -.4./ . . % + % + @ + + * & % . % % + . . J /.Q u C f R 5.6.. . . . . . . . . . . . . . . . ",
"+ . . . . . . . . . . . . . * 0 % ,.7.e s D s 8.} 9.. . % & * & . + . $ # - % . . % $ $ . I 7 P s t f 0.a.b.. . . . % % . . . . % . . . . . ",
"* % % % . . . . . . . . . % $ - . ^.c.D g D C d.4.^ + . + $ $ % % + . + & + . . . % + + % . z e.C g t f L @.. & . . $ $ % . . . + . . . . . ",
"* % + % . . . . . . . . . + $ . . f.g.C f t r h.i.6.* . & - + . % + % . . . . . . . . . . . j.;.8.C C f e k.+ * . . $ $ % . % + % . . . . . ",
"+ . % % . . . . . . . . . + $ % . @.w g f f D l.I . . . $ - + . . . . . . . . . . . . . % . ].m.q r C f n.p ~ $ . . % % . % & * . . . . . . ",
"% . % . . . . . . . . . . . . . . o.p.s f f P q.* . . % & & % . . . . . . . . . . . . . . . $ ^.r.t s f r g.s.. . . . . . + - - . . . . . . ",
"+ + % . . . . . . . . . . . . . . t.0.t t s B G * . + . . . . % & + % . . . . . . . . . . . % 6.g.C f f C w 1.. . . . . % & - @ . . . . . . ",
"& & % . . . . . . . . . . + & . . u.g s s t ).<.$ * * % . . + $ & . . . . . . . . . . . . + & # $.C f s r v.w.. . + + % . % * - . . . . . . ",
"+ + % . . . . . . . . . . $ @ . . u.g f f t F x.$ % + . . + * * + . . . . . . . . . . . . + + @ 3 u f t t D a.. . . + + . % & & . . . . . . ",
"% % . . . . . . . . . . % $ - . . }.r f f t X y.$ . . . % & * & . . . . . . . . . . . . . % . - t.E f g s f $.@ & . + & % . + + . . . . . . ",
". . . . . . . . . . . . % + & . . z.n.f f g q A.* . . % + & + % . + . . . . . . . . . . . . . - ;.T f f f f B.] ; % % + % . % % % . . . . . ",
". . . . . . . . . . . . . % % . . ` Y f f s C.K * . . . % + . . % $ % . . . % % . . . . . . . - D.Y f f f s e.U 6.& . % + % . . % . . . . . ",
". . . . . . . . . . . . . . % . . E.v.s f f n.} @ . % . % & + . % $ % . . + $ $ + . . . . + $ I F.Q f s s g G.{.I + . . % % . . % . . . . . ",
". . . . . . . . . . . . . % & $ . H.G.D f f t I.9.+ $ + + - * % . + + % . + - - & . . % % + ( J.e.t f C u u X K.* . % . . . . % . . . . . . ",
". . . . . . . . . . . . . . $ I . L./.Y f f g 3.M./ = ; $ % - @ & * * + . % . . . % % % & % 6.N.O.s C D g C P.Q.# . % . . . . % . . . . . . ",
". . . . . . . . . . . . . . . % & ^ ;.n.f g f t R.S.. I T.& + / ,.& . + # I ( * % % % . . @ U.~.v Q g s g g B !.( . . . . . . . . . . . . . ",
". . . . . . . . . . . . . + & . @ . V.h f t f s -.y.n . # ].* + $ % $ + % + % $ @ $ % . * |.R.r D t r n.D f R @.0 . . . . . . . . . . . . . ",
". . . . . . . . . . . . . + * * & . W.X.Q f r E C d K.- . * @ $ + . & + % - = * + . . @ '.l.8.t f f s E v D v.1.T.. . . . . . . . . . . . . ",
". . . . . . . . . . . . . % * I . % n 1.Y.f C Q t f Z.`.] . . % $ * + . % & & . . ( J M.u.Q 0.s u D C C D E L G T.. . % % . . . . . . . . . ",
". . . . . . . . . . . . . . $ 0 & . .  +l.t f t u g D e.1..+V @ . . . . . . ( S.++@+#+F u f g f e.X 0.f s u _.$+/ . . % % % . . . . . . . . ",
". . . . . . . . . . . . . . % * @ + . ] A R.f f C C f D d.%+y.[.] S.n S.9.~ &+<.c $.h f f g f S < %+8.f C r L 1.I . . + + % . . + . . . . . ",
". . . . . . . . . . . . . % % . - @ % + ~ *+L s C f n.E f f B =+5 A.A.-+l D.X._.D f f s r t ;+ .>+5 P s n.r O.,+; . . + & % . % $ % . . . . ",
"% % . . . . . . . . . . % $ - . . ; @ . @ '+#+Y.C f E u f s g f f f f f f f f f f f f f s 8.} H . )+8.f u t L !+; . . + + % . % $ % . . . . ",
"+ & % . . . . . . . . . % $ - . . = - . % ].~+5.T r g f f s g s s s C g f g r D g f f g ~.` S.% N {+Y f f g w ]+6.% % + % % + . + . . . . . ",
". % . . . . . . . . . . . . % . + @ $ . . . ( U N.h.D f C n.C f t Q t s u Q C f f s ;+I.<.^ . - ^+/+0.g C f G.y # . + + % % + . . . . . . . ",
". . . . . . . . . . . . . . . + * $ + + + . . = 9 8 &.(+f f f u C f f f f f f f P Z.G _+j.. % ^ L.2 D s g s B.) & . & & % % + . . . . . . . ",
". % & % . . . . . . . . . . . & $ % . $ = # & . . - :+L.H.7.u.G.3.d Y.S _.h.k [ A b.i.& . $ . I < X t f f g <+= . . & & % % % % . . . . . . ",
". + $ + . . . . . . . . . % & & % . . & # = $ . . @ $ . $ >+U.A 1.@.1.G 6 [+8 i.].+ . . * - . $ ` ;+f f f Q } . . % & & % . % + . . . . . . ",
". + & % . . . . . . . . % & - + . % % % + + % + + + % % . + = / j.6.6.,.j.0 - . . . % % + . % H }+C f f s |+M . % + & + . . + & . . . . . . ",
"% + % . . . . . . . . . . + $ % . & & % . . + $ % + * # @ + . . . . . . . . . . & * - * + . ].1+B s s f r $.'.. * + % % % . + $ . . . . . . ",
"$ $ % . . . . . . . . . . . % . . * - & . % $ - % + $ * + % & * * + & & + + . . + $ * * & . 9 {+v.g f f n.2+>+. = + % + + % % & . . . . . . ",
"@ @ + . . . . . . . . . . . . % % $ * + . . & * + . . % % + * @ @ $ $ & & + % + + . . % % * 3+e.8.C f f h &.. . ; & . $ - & . + . . . . . . ",
"# = + . . . . . . . . . . . . & + % % . . . . % % . . + * - & % % % . + + . + @ @ & . . . 4+6 e g s f r =.s.. . = + . $ @ $ . % . . . . . . ",
"- @ + . . . . . . . . . . . . % % . . . . . . . . . . % + + % . . . . 0 0 . % - @ $ % . . _+X n.s r f C.5+, . . + % . % + % . . . . . . . . ",
"* - % . . . . . . . . . . . . . . . . . . . . . . . . . . . . . . % # ; ; # % % + % . . i.M f r C C f (+s.. * . . . . . . . . . . . . . . . ",
"$ $ % . . . . . . . . . . . . . . . . . . . . . . . . . . . . . . % # * $ = - @ + % + T.1+X f f n.f 0.6+~+. ; . . . . . . . . . . . . . . . ",
"+ & % . . . . . . . . . . . . . . . . . . . . . . . . . . . . . . . . $ $ + = I - % j.|.l.f g g n.f =.7+( . @ . . . . . . . . . . . . . . . ",
"% + % . . . . . . . . . . . . . . . . . . . . . . . . . . . . . . . . . $ # * & % @ 8 p Q f 0.E f C.G 4+. + . . . . . . . . . . . . . . . . ",
". . . . . . . . . . . . . . . . . . . . . . . . . . . . . . . . . . . . ].,.& . . J 2+e f g Q D f z.U + % & . . . . . . . . . . . . . . . . ",
". . . . . . . . . . . . . . . . . . . . . . . . . . . . . . . . . . . . - ; & . a ` C.f f f f s i 7 0 . $ % . . . . . . . . . . . . . . . . ",
"+ . . . . . . . . . . . . . . . . . . . . . . . . . . . . . . . . . . . . . # 3+#.P C D C s t n.H.] + $ $ . % . . . . . . . . . . . . . . . ",
"$ + . . . . . . . . . . . . . . . . . . . . . . . . . . . . . . . . . . + ^ 2./+P f t 0.u f C.8+++& + & % % + . . . . . . . . . . . . . . . ",
"$ & % . . . . . . . . . . . % % . . . . . . . . . . . . . . . . . . + % 4+Q.1 0.f g r r s D <+.+& . & % . + $ . . . . . . . . . . . . . . . ",
"+ % . . . . . . . . . . . + - - % . . . % . . % . . . % + + . . . . ,._+*+R.f s g s g g v 9+[+. % & + % + & + . . . . . . . . . . . . . . . ",
". . . . . . . . . . . . . & # @ % . & & & @ ; - . . . . . . . / ++0+W /.T f s D r t f n.<+a++ % = - % + - - . . . . . . . . . . . . . . . . ",
". . . . . . . . . . . . . . . . + % = * ( ! {.8 >+] ] S.n 9.b+[+c+_.f s 8.v s f s D C.}+m + . - I @ % + # # . . . . . . . . . . . . . . . . ",
". . . . . . . . . . . . . . % - ].# & . 4+< q v 3.Z t.4 Z.d.P 0.8.-.Y r f s f f s T :.d+. . % - & . . & # @ . . . . . . . . . . . . . . . . ",
". . . . . . . . . . . . % * # . + % & I 2.} g f g D T e Q C s f f C D g r Y n.f d...++& $ # . % . % & + + + . . . . . . . . . . . . . . . . ",
". . . . . . . . . . . . . & @ = ( % . { e+L f g s f f f f f s s s t g f f f C.c+4.z - . & * . . & = # + . + $ . . . . . . . . . . . . . . . ",
". . . . . . . . . . . . . . & = ; @ - K.R.f f s s f f s g s f f f f f D d./.V.d+I $ - * % % . % & = - % . & - . . . . . . . . . . . . . . . ",
". . . . . . . . . . . . . + & & & ( f++.r.0.v s f f f f f f s Q P S g+h+,+(.>+- % + $ - $ % + % % & + % + & $ . . . . . . . . . . . . . . . ",
". . . . . . . . . . . . % * # . . - I ^.x.K F.G.R v.C.~.~.O.g+3 D.&.4.(.] . . . * + % * @ * $ % . . % $ * & % . . . . . . . . . . . . . . . ",
". . . . . . . . . . . . % $ @ $ $ % . . ( z  +i+6 j+G &.N.5.i+|..+4+. . . . + & % % & $ * * & % $ + + $ $ + . . . . . . . . . . . . . . . . "};
