/* XPM */
static const char * BigA_xpm[] = {
"70 70 219 2",
"  	c None",
". 	c #FFFFFF",
"+ 	c #FAFAFA",
"@ 	c #F6F6F6",
"# 	c #FEFEFE",
"$ 	c #F8F8F8",
"% 	c #FCFCFC",
"& 	c #F7F7F7",
"* 	c #F5F5F5",
"= 	c #FBFBFB",
"- 	c #FDFDFD",
"; 	c #F9F9F9",
"> 	c #F4F4F4",
", 	c #EDEDED",
"' 	c #DADADA",
") 	c #9B9B9B",
"! 	c #898989",
"~ 	c #919191",
"{ 	c #979797",
"] 	c #9C9C9C",
"^ 	c #999999",
"/ 	c #989898",
"( 	c #878787",
"_ 	c #A6A6A6",
": 	c #D9D9D9",
"< 	c #373737",
"[ 	c #1A1A1A",
"} 	c #212121",
"| 	c #242424",
"1 	c #282828",
"2 	c #232323",
"3 	c #1D1D1D",
"4 	c #424242",
"5 	c #E5E5E5",
"6 	c #D8D8D8",
"7 	c #656565",
"8 	c #0D0D0D",
"9 	c #000000",
"0 	c #070707",
"a 	c #5B5B5B",
"b 	c #CCCCCC",
"c 	c #B0B0B0",
"d 	c #3B3B3B",
"e 	c #060606",
"f 	c #020202",
"g 	c #050505",
"h 	c #010101",
"i 	c #B2B2B2",
"j 	c #848484",
"k 	c #141414",
"l 	c #040404",
"m 	c #1F1F1F",
"n 	c #8D8D8D",
"o 	c #5A5A5A",
"p 	c #0A0A0A",
"q 	c #111111",
"r 	c #5F5F5F",
"s 	c #CACACA",
"t 	c #A8A8A8",
"u 	c #363636",
"v 	c #030303",
"w 	c #2F2F2F",
"x 	c #9D9D9D",
"y 	c #EFEFEF",
"z 	c #6D6D6D",
"A 	c #0E0E0E",
"B 	c #555555",
"C 	c #121212",
"D 	c #727272",
"E 	c #DFDFDF",
"F 	c #474747",
"G 	c #444444",
"H 	c #ABABAB",
"I 	c #515151",
"J 	c #D4D4D4",
"K 	c #F2F2F2",
"L 	c #B1B1B1",
"M 	c #2E2E2E",
"N 	c #6A6A6A",
"O 	c #DEDEDE",
"P 	c #101010",
"Q 	c #303030",
"R 	c #E3E3E3",
"S 	c #6F6F6F",
"T 	c #272727",
"U 	c #949494",
"V 	c #A0A0A0",
"W 	c #222222",
"X 	c #616161",
"Y 	c #D1D1D1",
"Z 	c #3A3A3A",
"` 	c #C1C1C1",
" .	c #3D3D3D",
"..	c #393939",
"+.	c #E2E2E2",
"@.	c #B6B6B6",
"#.	c #0B0B0B",
"$.	c #717171",
"%.	c #606060",
"&.	c #202020",
"*.	c #9E9E9E",
"=.	c #E1E1E1",
"-.	c #797979",
";.	c #8C8C8C",
">.	c #262626",
",.	c #0F0F0F",
"'.	c #585858",
").	c #BCBCBC",
"!.	c #090909",
"~.	c #4C4C4C",
"{.	c #BFBFBF",
"].	c #BDBDBD",
"^.	c #292929",
"/.	c #E4E4E4",
"(.	c #0C0C0C",
"_.	c #131313",
":.	c #7E7E7E",
"<.	c #767676",
"[.	c #AAAAAA",
"}.	c #F1F1F1",
"|.	c #7C7C7C",
"1.	c #2D2D2D",
"2.	c #B5B5B5",
"3.	c #4A4A4A",
"4.	c #4D4D4D",
"5.	c #C4C4C4",
"6.	c #565656",
"7.	c #CFCFCF",
"8.	c #828282",
"9.	c #E0E0E0",
"0.	c #F3F3F3",
"a.	c #8A8A8A",
"b.	c #333333",
"c.	c #ACACAC",
"d.	c #313131",
"e.	c #747474",
"f.	c #AEAEAE",
"g.	c #D7D7D7",
"h.	c #C8C8C8",
"i.	c #787878",
"j.	c #171717",
"k.	c #181818",
"l.	c #808080",
"m.	c #E7E7E7",
"n.	c #E8E8E8",
"o.	c #8F8F8F",
"p.	c #8E8E8E",
"q.	c #434343",
"r.	c #B7B7B7",
"s.	c #DBDBDB",
"t.	c #6C6C6C",
"u.	c #414141",
"v.	c #AFAFAF",
"w.	c #858585",
"x.	c #191919",
"y.	c #080808",
"z.	c #E9E9E9",
"A.	c #151515",
"B.	c #464646",
"C.	c #505050",
"D.	c #C6C6C6",
"E.	c #B3B3B3",
"F.	c #1C1C1C",
"G.	c #7A7A7A",
"H.	c #A4A4A4",
"I.	c #8B8B8B",
"J.	c #161616",
"K.	c #EAEAEA",
"L.	c #EBEBEB",
"M.	c #7F7F7F",
"N.	c #BEBEBE",
"O.	c #484848",
"P.	c #3F3F3F",
"Q.	c #626262",
"R.	c #5D5D5D",
"S.	c #5C5C5C",
"T.	c #5E5E5E",
"U.	c #575757",
"V.	c #3C3C3C",
"W.	c #B4B4B4",
"X.	c #A2A2A2",
"Y.	c #737373",
"Z.	c #454545",
"`.	c #ECECEC",
" +	c #888888",
".+	c #686868",
"++	c #C2C2C2",
"@+	c #343434",
"#+	c #707070",
"$+	c #777777",
"%+	c #6E6E6E",
"&+	c #9A9A9A",
"*+	c #1B1B1B",
"=+	c #2C2C2C",
"-+	c #7D7D7D",
";+	c #C3C3C3",
">+	c #545454",
",+	c #353535",
"'+	c #BABABA",
")+	c #676767",
"!+	c #CDCDCD",
"~+	c #1E1E1E",
"{+	c #CECECE",
"]+	c #535353",
"^+	c #D3D3D3",
"/+	c #2B2B2B",
"(+	c #C0C0C0",
"_+	c #939393",
":+	c #868686",
"<+	c #252525",
"[+	c #EEEEEE",
"}+	c #636363",
"|+	c #F0F0F0",
"1+	c #D2D2D2",
"2+	c #909090",
"3+	c #696969",
"4+	c #E6E6E6",
"5+	c #929292",
"6+	c #959595",
"                                                                                                                                            ",
"    . . . . . . . . . . . . . . . . . . . . + @ # . + $ % # & * . & = . % + % . . . - . . . . . . . . . . . . . . . . . . . . . # ; $ % . . ",
"    . . . . . . . . . . . . . . . . . . . . # - - + + # . . . - % . . % + + & & # . . . . . . . . . . . . . . . . . . . . . . . # - - . - & ",
"    . . . . . . . . . . . . . . . . . . . . - ; ; ; # . $ > $ % = . . , > # % $ # % $ - . . . . . . . . . . . . . . . . . . . # - # - - - $ ",
"    . . . . . . . . . . . . . . . . . . . . % $ + - . ' ) ! ~ { ] ^ / ( _ : $ # . % $ - . . . . . . . . . . . . . . . . . . . # = # + ; - # ",
"    . . . . . . . . . . . . . . . . . . . . - = - . * ] < [ } | 1 | 2 3 4 { 5 . # # % # . . . . . . . . . . . . . . . . . . . - + # ; $ - . ",
"    . . . . . . . . . . . . . . . . . . . . . - = # 6 7 8 9 9 9 9 9 9 9 0 a b . - . # . . . . . . . . . . . . . . . . . . . . # = # = = # % ",
"    . . . . . . . . . . . . . . . . . . . . . % $ - c d e f g h 9 9 9 9 9 < i . - . - . . . . . . . . . . . . . . . . . . . . # - # - - # ; ",
"    . . . . . . . . . . . . . . . . . . . . . - + ; j k 9 h l g 9 9 9 9 9 m n * . . # . . . . . . . . . . . . . . . . . . . . . . - = - # % ",
"    . . . . . . . . . . . . . . . . . . . . # . % 6 o p 9 h 0 p 9 9 f h 9 q r s . - - . . . . . . . . . . . . . . . . . . . . . - ; % . # # ",
"    . . . . . . . . . . . . . . . . . . . . = = @ t u g 9 h 0 e 9 9 l v 9 9 w x . + . . . . . . . . . . . . . . . . . . . . . % * ; - # = $ ",
"    . . . . . . . . . . = % . . . . . . . # % . y z A f 0 l 9 } B l h 9 g 9 C D = # - . . . . . . . . . . . . . . . . . . . . # = - . # % % ",
"    . . . . . . . . . . % - # - % % - . . # % . E F 9 f 0 l h G H | l 9 l 9 0 I J . % # . . . . . . . . . . . . . . . . . . . . . # . # - # ",
"    . . . . . . . . . . . # - = ; + % . . . . K L M f v f f q N O r P 9 h 9 f Q ) . + - . . . . . . . . . . . . . . . . . . . . . # . # - # ",
"    . . . . . . . . . . . . - = = - # . # # . R S k h l 9 9 T U = V W f 9 h 9 P X . ; - . . . . . . . . . . . . . . . . . . . . . # . # - # ",
"    . . . . . . . . . . . # - % # . . # % % . Y Z v 9 f 9 h F ` . 6  .g 9 f 9 f ..+.= . . . . . . . . . . . . . . . . . . . . . . # . # - # ",
"    . . . . . . . . . . # % = - . . . % + - . @.[ 9 h h 9 #.$., . + %.A 9 v l 9 &.*.; . . . . . . . . . . . . . . . . . . . . . . # . # - # ",
"    . . . . . . . . . . - = % - # # # % % . =.-.#.9 l l h 2 ] . . = ;.>.f h v 9 ,.'.> . . . . . . . . . . . . . . . . . . . . . . # . # - # ",
"    . . . . . . . . . . . # . # % = # . . . ).< v 9 8 !.!.~.{.. . - ].F !.9 h h e ^./.. . . . . . . . . . . . . . . . . . . . . . # . # - # ",
"    . . . . . . . . . . . . . # = = . . # . { 8 h 9 (.v _.:.5 . . . , <.[ 9 9 f f A [.}.. . . . . . . . . . . . . . . . . . . . . # . # - # ",
"    . . . . . . . . . . - - . # + = . # y /.|.9 9 h l 9 | H . . . . . ^ 1.h h l 9 e N E . . . . . . . . . . . . . . . . . . . . . # . # - # ",
"    . . . . . . . . . . % - . # % = % # > 2.3.9 9 h 9 0 4.s . . . # . 5.6.A 9 e f v ^.7.. # # . # - . . . . . . . . . . . . . . . # . # - # ",
"    . . . . . . . . . . - - # . - + ; . . j _.9 9 9 9 } 8.9.. . - # # 0.a.m 9 g e 9 9 L > = % # - % . . # # . . . . . . . . . . . # . # - # ",
"    . . . . . . . . . . % ; % - ; ; . # =.X l 9 9 h 9 b.c.* . # - . $ . t d.9 v f e 9 e.6 % % = . # . . = % . . . . . . . . . . . # . # - # ",
"    . . . . . . . . . . % ; = - @ & . $ f...9 9 9 h 9 I g.. # % # . $ . h.a ,.9 v 8 9 M L ; - & # . . # ; = . . . . . . . . . . . # . # - # ",
"    . . . . . . . . . . # % = + ; = . K i.j.9 h h h k.l.m.. + ; . # % . n.o.^.9 v #.9 9 p.K . & + - - # % - . . . . . . . . . . . # . # - # ",
"    . . . . . . . . . . . . = & = . . +.3.h 9 h f f q.r.@ - @ + . = . . . ].q.9 l l h 9 z s.. - + % + # . . . . . . . . . . . . . # . # - # ",
"    . . . . . . . . . . . . % ; - . $ ].1.9 h h 9 v t.5 . $ & # # + # % . 6 %.9 v 9 h 9 u.v.* . # - $ # . . . . . . . . . . . . . # . # - # ",
"    . . . . . . . . . . . % + % % # m.w.x.9 f f 9 y.;.* . + - . - - . - . z.a.m 9 9 9 9 A.|.R . . # + = # . . . . . . . . . . . . # . # - # ",
"    . . . . . . . . . . . ; $ - % # 7.B.y.9 h h v w c & % - . # % . # . . & ).C.9 9 9 9 9 I D.. . . - ; - . . . . . . . . . . . . # . # - # ",
"    . . . . . . . . . . . = + - % = E.F.9 9 f 9 A G.+.. . . . . . . . . . . z.:.9 9 l f 9 u H.K . # # & - . . . . . . . . . . . . # . # - # ",
"    . . . . . . . . . . . . . . - z.I.P 9 v f 9 J.*.K., L.L.z.z.L.z.K.K.K.y +.( 9 9 #.v 9 2 M.' . % # $ % . . . . . . . . . . . . # . # - # ",
"    . . . . . . . . . . . # # . ; N.O.0 h f 9 v J.P.a Q.X R.o S.T.6.a U.a 7 %. .(.9 h 9 9 9 V.W.. . . - % # . . . . . . . . . . . # . # - # ",
"    . . . . . . . . . . # # % # @ X.W f 9 v f 9 e ,.J.j.k P ,.P _.k x.C ,.q P (.e e f 9 f 9 >.^ . . # $ % . . . . . . . . . . . . # . # - # ",
"    . . . . . . . . . . % # # % /.G.y.9 9 v e e v f f h h 9 9 9 h f 0 v 9 f v f h v h 9 f 9 k.Y.9.. # > = . . . . . . . . . . . . # . # - # ",
"    . . . . . . . . . . = % . @ ].~.f 9 g l e y.v 9 9 9 h v v f 9 9 v f v e e f 9 v l f h 9 !.Z.W.. # & = . . . . . . . . . . . . # . # - # ",
"    . . . . . . . . . . = % . `.~ | h f A y.9 9 9 9 9 9 9 9 9 9 9 9 9 9 9 9 9 9 9 9 f f v h 9 m  +. # % + % . . . . . . . . . . . # . # - # ",
"    . . . . . . . . . . - - . 9..+0 9 f ,.0 f #.(.(.(.(.#.#.#.#.#.8 P A #.p p (.P C e 9 e e 9 (.T.n.# . + = . . . . . . . . . . . # . # - # ",
"    . . . . . . . . . . # . - ++Z.9 9 h 0 l @+e.$.#+$.$.#+#+S S S Y.$+e.#+%+S D $+z ..p y.!.h g ..v.- . % % . . . . . . . . . . . # . # - # ",
"    . . . . . . . . . . # . R ! >.9 9 9 9 ,.o.. . . . . . . . . . . . . . . . . . > &+} e e f h *+$.$ . . . . . . . . . . . . . . # . # - # ",
"    . . . . . . . . . . . . s I #.9 9 9 9 q.2.# # % % + + % # . . . . - # - - - . = ++Q h 9 h 9 g q.z.. . . . . . . . . . . . . . # . # - # ",
"    . . . . . . . . . . . . r.=+9 v e 9 h S E . . . . . . . . . . . & @ + # - & @ . ; 4.g f p g v w h.= - % . . . . . . . . . . . # . # - # ",
"    . . ; ; % = + . . # . z.( [ 9 f 0 e h ~ . . . . . . . . . . . . - % - . # % % . . -+| g f f 9 k N , . # - # . . - % % - . . . # . # - # ",
"    - . $ $ = $ & . . % . ;+>+p 9 h f !.,+'+. . . . . . . . . . . . . . . . . . . . . ).B.0 9 f h g Z z.. = # . . . # - - - # . . # . # - # ",
"    + # = = = & & . # = . X.T 9 l g 9 (.:./.. . . . . . . . . . . . . . . . . . . . . @ )+#.9 v 9 h } !+& = . . . . . . # - - - # # . # - # ",
"    ; - # . % & & . + - % :.(.9 0 0 9 J.r.. . . . . . . . . . . . . . . . . . . . . . . a.~+9 h h f A o.5 . . # # # . . . . - % # # . # - # ",
"    % # . . % $ ; # $ . {+]+v 9 g l v @+^+. % . . . . . . . . . . . . . . . . . . . . . E.O.p 9 e !.f G {+. . % % % # . . . # - # # . # - # ",
"    . - # . # = = - = . ~ T h 9 9 9 j.t.=.. - . . . . . . . . . . . . . . . . . . . . . +.|.*+9 p P 9 p c . . - = = - # . . . . . # . # - # ",
"    . + % # . . - = . . S.f 9 h 9 h /+c * . . . . . . . . . . . . . . . . . . . . . . * . t 1.9 l !.h 9 ( L.. . # % - - # . . . . # . # - # ",
"    . + ; % . . # # - 6 V.9 h l h f P.9.. . # . . . . . . . . . . . . . . . . . . . . . . (+~.v 9 v !.9 4.{.- . . . . # - # . . . # . # - # ",
"    = # % % # . . . & U 2 9 9 h h C %+, . - - . . . . . . . . . . . . . . . . . . . . . . E 8.} 9 9 0 l k._+@ . # . . # % - . . . # . # - # ",
"    $ . # % - . . . @ ]+p v e 9 l Q V @ $ ; . . . . . . . . . . . . . . . . . . . . . % . # 2.Z 9 (.f h 9 -.y % = . . # = # . . . # . # # . ",
"    = + - - - # . + ^+1 9 f g 9 y.6.s.= $ = . . . . . . . . . . . . . . . . . . . . . - # . J T.v 0 9 9 9 I 5.@ - % # # # $ ; . . % # - ; = ",
"    . ; % # - - . y x k 9 f v 9 C M.= % - % % . . . . . . . . . . . . . . . . . . . . . . . 5 :+[ 9 f 9 9 <+p.[+. = - = - > * . # + - % & & ",
"    % - # - % # # E }+#.9 e l v Q t % % # ; $ . . . . . . . . . . . . . . . . . . . . # . . K v.4 9 l h 9 e Q.O . . - ; + $ ; . # + % - = + ",
"    |+- = ; % . + D.>.f v !.f ,.Q.1+- # . = = . . . . . . . . . . . . . . . . . . . . % - . . s.D 9 0 h 9 9 d N.# . # % % - % = # = ; = # # ",
"    |+- & @ % . y ) g l e l 9 ~+_+@ . . # - # . . . . . . . . . . . . . . . . . . . . = - . . |+^ ,.l f l 9 T 2+n.. . . - # - ; % % + % # = ",
"    . . $ $ . = 7.X v p e 9 9 Z ].. - . - % - . . . . . . . . . . . . . . . . . . . . . % = . @ W.< f h 0 9 C X {+. . # = - # + ; - . . # @ ",
"    % % % - . > H >.9 9 f 9 k 3+g.. $ # = % . . . . . . . . . . . . . . . . . . . . . . > 0.% - s.i.v 9 9 9 9 w E.. . = = # # % + # + ; - # ",
"    # & = . . K.( h 9 9 9 9 *+ +4+. # . + & + . . . . . . . . . . . . . . . . . . . . . & @ - . K t A 9 9 9 9 #.j z.; $ % . . # % # $ @ - . ",
"    . = = - . 0.).M.^ U _+;.V ^+& = @ $ % % % . . . . . . . . . . . . . . . . . . . . . $ $ % . % E 2+p.5+6+I.2+++K % % . # = $ @ % % % = 0.",
"    - . = = # - & * . . . . . . . = > > - . # . . . . . . . . . . . . . . . . . . . . . = + % # # % + . . . . . # # # . - % + $ & = # . % K ",
"    = . = = - - # . . . - . # + % . - + # - - . . . . . . . . . . . . . . . . . . . . . . # # # % + . . . % % . = $ % # = = # . . % % # . . ",
"    # . . # # # . . # . # # # # # . . . . . . . . . . . . . . . . . . . . . . . . . . . . . . . # # . . . - # . # - # . # # . . . # # . . . ",
"    . . . . . . . . . . . . . . . . . . . . . . . . . . . . . . . . . . . . . . . . . . . . . . . . . . . . . . . . . . . . . . . . . . . . ",
"    . . . . . . . . . . . . . . . . . . . . . . . . . . . . . . . . . . . . . . . . . . . . . . . . . . . . . . . . . . . . . . . . . . . . ",
"    . . . . . . . . . . . . . . . . . . . . . . . . . . . . . . . . . . . . . . . . . . . . . . . . . . . . . . . . . . . . . . . . . . . . ",
"    . . . . . . . . . . . . . . . . . . . . . . . . . . . . . . . . . . . . . . . . . . . . . . . . . . . . . . . . . . . . . . . . . . . . ",
"    . . . . . . . . . . . . . . . . . . . . . . . . . . . . . . . . . . . . . . . . . . . . . . . . . . . . . . . . . . . . . . . . . . . . ",
"    . . . . . . . . . . . . . . . . . . . . . . . . . . . . . . . . . . . . . . . . . . . . . . . . . . . . . . . . . . . . . . . . . . . . "};
