/* XPM */
static const char * BigB_xpm[] = {
"70 70 223 2",
"  	c None",
". 	c #FFFFFF",
"+ 	c #FEFEFE",
"@ 	c #F9F9F9",
"# 	c #F8F8F8",
"$ 	c #FCFCFC",
"% 	c #FBFBFB",
"& 	c #FAFAFA",
"* 	c #FDFDFD",
"= 	c #F4F4F4",
"- 	c #F6F6F6",
"; 	c #F7F7F7",
"> 	c #F5F5F5",
", 	c #B3B3B3",
"' 	c #A4A4A4",
") 	c #A5A5A5",
"! 	c #A8A8A8",
"~ 	c #A9A9A9",
"{ 	c #A7A7A7",
"] 	c #A3A3A3",
"^ 	c #A2A2A2",
"/ 	c #A6A6A6",
"( 	c #AFAFAF",
"_ 	c #C3C3C3",
": 	c #D9D9D9",
"< 	c #EFEFEF",
"[ 	c #E3E3E3",
"} 	c #545454",
"| 	c #343434",
"1 	c #363636",
"2 	c #3C3C3C",
"3 	c #3E3E3E",
"4 	c #383838",
"5 	c #3A3A3A",
"6 	c #373737",
"7 	c #393939",
"8 	c #444444",
"9 	c #575757",
"0 	c #6E6E6E",
"a 	c #868686",
"b 	c #A0A0A0",
"c 	c #B9B9B9",
"d 	c #D6D6D6",
"e 	c #D8D8D8",
"f 	c #181818",
"g 	c #010101",
"h 	c #050505",
"i 	c #070707",
"j 	c #040404",
"k 	c #060606",
"l 	c #030303",
"m 	c #080808",
"n 	c #0D0D0D",
"o 	c #151515",
"p 	c #1D1D1D",
"q 	c #282828",
"r 	c #414141",
"s 	c #707070",
"t 	c #D7D7D7",
"u 	c #DADADA",
"v 	c #0E0E0E",
"w 	c #000000",
"x 	c #171717",
"y 	c #353535",
"z 	c #6A6A6A",
"A 	c #EEEEEE",
"B 	c #E1E1E1",
"C 	c #020202",
"D 	c #0B0B0B",
"E 	c #8D8D8D",
"F 	c #DBDBDB",
"G 	c #E0E0E0",
"H 	c #090909",
"I 	c #0C0C0C",
"J 	c #848484",
"K 	c #DDDDDD",
"L 	c #DCDCDC",
"M 	c #111111",
"N 	c #0F0F0F",
"O 	c #101010",
"P 	c #121212",
"Q 	c #2E2E2E",
"R 	c #4C4C4C",
"S 	c #9F9F9F",
"T 	c #DFDFDF",
"U 	c #D0D0D0",
"V 	c #BEBEBE",
"W 	c #6F6F6F",
"X 	c #3B3B3B",
"Y 	c #EBEBEB",
"Z 	c #141414",
"` 	c #525252",
" .	c #BDBDBD",
"..	c #C7C7C7",
"+.	c #656565",
"@.	c #1F1F1F",
"#.	c #4F4F4F",
"$.	c #DEDEDE",
"%.	c #131313",
"&.	c #0A0A0A",
"*.	c #4D4D4D",
"=.	c #BABABA",
"-.	c #C8C8C8",
";.	c #7C7C7C",
">.	c #2F2F2F",
",.	c #1E1E1E",
"'.	c #858585",
").	c #E5E5E5",
"!.	c #808080",
"~.	c #191919",
"{.	c #4B4B4B",
"].	c #C6C6C6",
"^.	c #BFBFBF",
"/.	c #212121",
"(.	c #F2F2F2",
"_.	c #ADADAD",
":.	c #787878",
"<.	c #636363",
"[.	c #CECECE",
"}.	c #CBCBCB",
"|.	c #1A1A1A",
"1.	c #C4C4C4",
"2.	c #B2B2B2",
"3.	c #1B1B1B",
"4.	c #585858",
"5.	c #F3F3F3",
"6.	c #4E4E4E",
"7.	c #E8E8E8",
"8.	c #8F8F8F",
"9.	c #646464",
"0.	c #B8B8B8",
"a.	c #535353",
"b.	c #4A4A4A",
"c.	c #B7B7B7",
"d.	c #7B7B7B",
"e.	c #727272",
"f.	c #999999",
"g.	c #F1F1F1",
"h.	c #7D7D7D",
"i.	c #242424",
"j.	c #B6B6B6",
"k.	c #515151",
"l.	c #838383",
"m.	c #2B2B2B",
"n.	c #595959",
"o.	c #ECECEC",
"p.	c #9B9B9B",
"q.	c #5A5A5A",
"r.	c #323232",
"s.	c #9D9D9D",
"t.	c #EDEDED",
"u.	c #D3D3D3",
"v.	c #979797",
"w.	c #737373",
"x.	c #434343",
"y.	c #8B8B8B",
"z.	c #494949",
"A.	c #454545",
"B.	c #464646",
"C.	c #292929",
"D.	c #929292",
"E.	c #E4E4E4",
"F.	c #686868",
"G.	c #5E5E5E",
"H.	c #2C2C2C",
"I.	c #202020",
"J.	c #222222",
"K.	c #232323",
"L.	c #404040",
"M.	c #F0F0F0",
"N.	c #333333",
"O.	c #757575",
"P.	c #A1A1A1",
"Q.	c #9E9E9E",
"R.	c #9A9A9A",
"S.	c #7F7F7F",
"T.	c #747474",
"U.	c #B0B0B0",
"V.	c #E9E9E9",
"W.	c #2A2A2A",
"X.	c #474747",
"Y.	c #BCBCBC",
"Z.	c #EAEAEA",
"`.	c #626262",
" +	c #1C1C1C",
".+	c #888888",
"++	c #969696",
"@+	c #898989",
"#+	c #505050",
"$+	c #272727",
"%+	c #3D3D3D",
"&+	c #CFCFCF",
"*+	c #C5C5C5",
"=+	c #565656",
"-+	c #5F5F5F",
";+	c #2D2D2D",
">+	c #828282",
",+	c #484848",
"'+	c #ABABAB",
")+	c #717171",
"!+	c #E2E2E2",
"~+	c #C0C0C0",
"{+	c #878787",
"]+	c #161616",
"^+	c #424242",
"/+	c #CCCCCC",
"(+	c #D2D2D2",
"_+	c #D4D4D4",
":+	c #676767",
"<+	c #616161",
"[+	c #606060",
"}+	c #8C8C8C",
"|+	c #7E7E7E",
"1+	c #313131",
"2+	c #E7E7E7",
"3+	c #939393",
"4+	c #CACACA",
"5+	c #E6E6E6",
"6+	c #919191",
"7+	c #949494",
"8+	c #909090",
"9+	c #989898",
"0+	c #ACACAC",
"                                                                                                                                            ",
"                                                                                                                                            ",
". . . . . . + @ # $ . . + % & . . * * + . . . $ + . $ & $ . . * % @ & $ $ & $ . + @ = # + . + - @ + + & & * . . $ + . . . . . . . . . . . . ",
". . . . . . + * * . * ; - $ * $ . . . . . . . . . . . . . . . . . . . . . . . . . + $ $ % % . + * $ % * . $ > = % . . . . . . . . . . . . . ",
". . . . . + * + * * * # @ . - , ' ) ! ~ { ' ] ] ' ) ] ^ ] ' ' ' ' / ! { ( _ : < . . . . + & - % + * $ * . + @ - * . . . . . . . . . . . . . ",
". . . . . + % + & @ * + + . [ } | 1 2 3 2 4 1 4 5 5 4 6 6 6 6 6 1 7 2 2 8 9 0 a b c d > . . ; > % . * @ % . + * $ + . . . . . . . . . . . . ",
". . . . . * & + @ # * . + . e f g g h i i j j k k h h h h j l l l j k k m n o p q r s ~ t = . & % . + # & . + + & * . . . . . . . . . . . . ",
". . . . . + % + % % + $ @ . u v w w w w w w w w w w w w w w w w w w w w w w w w w w x y z , A * . . + $ * . $ & % + . . . . . . . . . . . . ",
". . . . . + * + * * + @ ; . B f C j C w w w w C g i j w w w w w w g w w g l g w l j w w D 8 E F $ . . . + $ % @ + . . . . . . . . . . . . . ",
". . . . . . . * % * + $ $ . G x g w w w g g g w w H l w w w w w g w w w g g w g i v D j w w I J K & . + @ # + . * + . . . . . . . . . . . . ",
". . . . . . * @ $ . + + . . L M l j g l N f x O O N O O M M M M P M O O v n n I i g w l i j j Q a d % * = = . . - & + . . . . . . . . . . . ",
". . . . . $ > @ * + % # % . K o g g w N R S d T T : K T T T T T T T u t U V S W 1 D w w g g w k X S Y . + + + $ % * . . . . . . . . . . . . ",
". . . . . + % * . + $ $ + . K Z w w w n `  .. . . . . . . . . . . . . . . & A K ..) +.@.w g H C m #.V @ $ - + # * . . . . . . . . . . . * # ",
". . . . . . . + . + * + . . $.%.g g w &.*.=.. . . . . . . . . . . . . . . . . . . @ -.;.>.j k C w ,.'.).. - . & $ + . . . . . . . . . + % ; ",
". . . . . . . + . + * + . . K %.g g w &.*.=.. . . + . . . . . . . . . . . + + + + . ; u !.~.w w w k {.].. * . + % * . . . . . . . . . $ % $ ",
". . . . . . . + . + * + . . K %.g g w &.*.=.. . . + . . . . . . . . . . * $ * % & + . . ^.8 k w g w /./ . . + . % * . . . . . . . . . * $ * ",
". . . . . . . + . + * + . . K %.g g w &.*.=.. . . + . . . . . . . . . . * $ * % # % & . B ;.x w C w o E (.. @ . * + . . . . . . . . . . * & ",
". . . . . . . + . + * + . . K %.g g w &.*.=.. . . + . . . . . . . . . . + + . & - % @ + % _.p w j w %.:.G . - + . . . . . . . . . . . . $ & ",
". . . . . . . + . + * + . . K %.g g w &.*.=.. . . + . . . . . . . . . . . . + @ # + . + . ].~.w C w O <.[.. @ + + + . . . . . . . . . + * + ",
". . . . . . . + . + * + . . K %.g g w &.*.=.. . . + . . . . . . . . . . . + % & * . + % . }.|.w w w v 9 1.. + . % * . . . . . . . . . . . $ ",
". . . . . . . + . + * + . . K %.g g w &.*.=.. . . + . . . . . . . . . . . + & % . . % - > 2.3.w w w I 4.].. . . # % + . . . . . . . . . % 5.",
". . . . . . . + . + * + . . K %.g g w &.6.=.. . . + . . . . . . . . . . . + @ % . $ $ + 7.8.P w j w n 9.U . . . @ $ + . . . . . . . . . * @ ",
". . . . . . . + . + * + . . K %.g w w &.R 0.. % . * * * * + + . . . . + * % & & % $ . . [.a.D g j w P 0 d . & $ * + . . . . . . . . . . . . ",
". . . . . . . + . + * + . . K %.g w w &.b.c.. > . * $ % $ * + + . . + * & # % @ ; $ . . ' x k g C w f d.T . - @ $ + . . . . . . . . . . . . ",
". . . . . . . + . + * + . . K %.g w w D R 0.. = + + + + + + . . . . . $ * $ > ; % @ . G e.k w g H w |.f.= @ . + # % + . . . . . . . . . + + ",
". . . . . . . + . + * + . . K P g l w I #.c . g.& ; % . . + + + . . . + . * > ; . @ 7.h.~.g j m m w i.j.. - . . * + . . . . . . . . . . . . ",
". . . . . . . + . + * + . . K P C l w I k. .. # $ # % + + * + . . . + * * . . . $  .l.m.w g i H w g *.}.. * + > * . . . . . . . . . . . . . ",
". . . . . . . + . + * + . . K P g g w N n.1.. . . . . . . . . . . . . . % o.K ..p.q./.k C k h w w r.s.o.. . $ t.% . . . . . . . . . . . . . ",
". . . . . . . + . + * + . . K P w w w O R b K K T G T T T T T T K e u.u.V v.w.x.@.%.l w k i w w q y.B * * . * 5.$ . . . . . . . . . . . . . ",
". . . . . . . + . + * + . . K P w C w k ~.y {.R 6.*.*.6.6.6.6.*.R z.A.B.2 C.~.i l w w i &.C j 4 D.$.+ . * . + $ + + . . . . . . . . . . . . ",
". . . . . . . + . + * + . . K P w l j C w w w w w w w w w w w w w w w w w w w C H g w C f x.s ] E.. $ $ . + * . . + . . . . . . . . . . * + ",
". . . . . . . + . + * + . . $.%.w C k k l w g l w k h l g w C j k i i h i &.h g g g w w p F., t (.* @ & + + $ % . . . . . . . . . . . . $ % ",
". . . . . . . + . + * + . . K %.g w C j C w C &.w w l h C w w w w w w w w w w j m k g m k j m.h.c.$.@ + % * + # * . . . . . . . . . . . % % ",
". . . . . . . + . + * + . . K %.g w g g g g g g k C g g g g g g g g g g w w w l k h g w w C H I f G.1.# . * + ; & * . . . . . . . . . + * . ",
". . . . . . . + . + * + . . K P w g w w &.,.H.I.C.,.@.J.K.J.I.,.3.f %.%.H w w w w w w k H j g g h N L./ M.. . $ + . . . . . . . . . . * % . ",
". . . . . . . + . + * + . . K %.g w w &.N.O.~ ] ! ^ ^ ) ) ' ] P.S Q.R.f.D.a S.T.n.r.&.w w w g i k w g 5 ] ; . + % * . . . . . . . . . $ & + ",
". . . . . . . + . + * + . . $.%.g w w v 6.U.# (.5.(.(.5.5.(.(.g.g.g.M.M.A Y V.).1.R.W b.W.n w g k i w g X.Y.. . ; & + . . . . . . . . * $ . ",
". . . . . . . + . + * + . . K P w g w D #.Y.. . * . . . . . . . . . . . . . . . ; Z.L ..v.` 3.C h v H w n `.B . & % + . . . . . . . . . + . ",
". . . . . . . + . + * + . . K P w g w H b.c.. + - & % % $ * . . . . . . + . + $ . . . . Y Y.'.r.n H m i w  +.+- . + . . . . . . . . . . . . ",
". . . . . . . + . + * + . . K %.w C w I 6.c . * > * . . . . . . . . + + * % * * % & % . . . < ++1 h w k &.k Q u $ . . . . . . . . . . . + . ",
". . . . . . . + . + * + . . K P w h w N ` =.. $ g.% . . . . . . . + + . $ @ & & - = ; $ . . . 5.@+K.C w D D Z ' M.. . . . . . . . . . . * + ",
". . . . . . . + . + * + . . K %.g w w n #+c . . $ . + * * * + . . . . . . . . . . . . * * . . + e w.x w w h @.n.: * . . . . . . . . . + * + ",
". . . . . . . + . + * + . . K %.g g w n #.0.. . + $ * . . + + + * + + . * # ; $ . . . * % % * + . 2.$+w l l i %+&+% . . . . . . . . . + + . ",
"* $ $ * . . . + . + * + . . K %.g g w D 6.c . . . + + . . . . . . . . . . * # > # * . . + + * ; . *+%+C C l w x ].% . . . . . . . . . + + . ",
"+ * * * + . . + . + * + . . K %.g g w &.*.=.. . . + . . . . . . . . . . + $ & @ % + + + . * @ @ . ..=+N w g w &._ % . . . . . . . . . . . . ",
". . + * * * + + . + * + . . K %.g g w &.*.=.. . . + . . . . . . . . . . * @ % + . + & $ . * @ + * ].+.x w w w n 1.% . . . . . . . . . . + * ",
". . . . * $ + + . + * + . . K %.g g w &.*.=.. . . + . . . . . . . . . . * & $ . + + ; & . . * + + ].-+%.w w w Z *+% . . . . . . . . . . * % ",
"+ . . . + * + + . + * + . . K %.g g w &.*.=.. . . + . . . . . . . . . . . * $ % $ $ # $ . . * @ . _ x.j w C j p -.% . . . . . . . . . + * $ ",
"* + . . . . . + . + * + . . K %.g g w &.*.=.. . . + . . . . . . . . . . . + & # % * * * * $ @ - . ( i.w l h i ;+[.$ . . . . . . . . . + . . ",
"* * + . . . . + . + * + . . K %.g g w &.*.=.. . . + . . . . . . . . . . . * # # + . . $ & @ # . < >+f w j l i ,+d $ . . . . . . . . . . . + ",
". + * + . . . + . + * + . . K %.g g w &.*.=.. . . + . . . . . . . . . . . + % $ . . + % $ . . + '+4 k w w w n )+!+* . . . . . . . . . . + $ ",
". + $ * . . . + . + * + . . K %.g g w &.*.=.. . . + . . . . . . . . . . . . . . + $ @ % . . % -.=+I l C w w 3.~ (.. . . . . . . . . . . $ ; ",
". + % + . . . + . + + . . . T %.g w w &.*.=.. . . + . . . . . . . . . . + $ + . + % + . . = V =+M w C h g w Q u * . . . . . . . . . . . + $ ",
"+ + + # @ . . $ + * @ % + . F O w g w n ` ~+. . . . . . . . . . . . . . . . . . . . + B 0.{+#+N w w l j w %.)+= @ % + . . . . . . . . . . . ",
"* % * = > . + & * $ ; ; $ . L ]+g l w D ^+p.$.d /+(+_+u.u.u.u.u.u.u.u.u.u.(+[.-._ ^.{ ;.z.p i w h H h w j x.=.* ; @ + . . . . . . . . * $ * ",
"* @ & # @ . + & $ * % & $ . B p g h l j 3.z.)+:+a.<+9.`.<+<+<+<+<+<+<+<+`.[+9 z.3 | $+x m w w w n N g w Q }+E.* * + . . . . . . . . . $ & $ ",
"+ $ $ * $ % + % @ % + + + . T f g l C w l I o N k P O n I I I I I I I I v N m w w w w w w w g w m l C J.|+$.# - + . . . . . . . . . . + $ * ",
". . * + * @ $ $ & $ + % @ . G |.g w w g g w w w w g w w w w w w w w w w w w w w g h k j g w C g g w 1+l.d . % - & * . . . . . . . . . . . + ",
". + % * + & @ * . . + - > . [ K.g w g C l C C k j w w C l C C C C C C l C g g C C g w w w w g N |.8 p.2++ = = & @ $ . . . . . . . . . . . + ",
". % % + + $ & + & @ * + + . u.O w w w w w w w l g w w w w w w w w w w w w w g j k h g C k H o B.3+u.M.- & + % A @ + . . . . . . . . . . + + ",
"@ # $ . . + $ + # - * . . + ].x w w w w w w w w w w w w w w w w w w w w w w w w w n I.3 +.8.U.4+Z.+ . @ @ . . & - & + . . . . . . . . $ @ % ",
"$ $ . + % # - $ $ $ % 5.= % 5+p.6+D.3+7+7+6+8.8+v.9+7+6+6+6+6+6+6+6+6+6+6+8+6+3+9+b 0+ .(+V.$ . . . . * + $ > ; @ $ . . . . . . . . . $ & $ ",
"+ . * $ & # ; % + . $ (.(.$ . . . . . . . . . . . . . . . . . . . . . . . . . . . . . . . . . . % @ $ . + @ = - % + . . . . . . . . . + + + ",
"$ + % % + . . $ $ + . . . + + . . . + + . . . . . . . . . . . . . . . . . . . + + . . . . . . . ; 5.& + $ & . . & $ . . . . . . . . . . . + ",
"+ . + + . . . + + . . . . . + . . + + + + . . . + . . . . . . . . . . . . . . + + + . . . . . . * $ + . + + . . + + . . . . . . . . . . . . ",
". . . . . . . . . . . . . . . . . . . . . . . . . . . . . . . . . . . . . . . . . . . . . . . . . . . . . . . . . . . . . . . . . . . . . . ",
". . . . . . . . . . . . . . . . . . . . . . . . . . . . . . . . . . . . . . . . . . . . . . . . . . . . . . . . . . . . . . . . . . . . . . ",
". . . . . . . . . . . . . . . . . . . . . . . . . . . . . . . . . . . . . . . . . . . . . . . . . . . . . . . . . . . . . . . . . . . . . . ",
". . . . . . . . . . . . . . . . . . . . . . . . . . . . . . . . . . . . . . . . . . . . . . . . . . . . . . . . . . . . . . . . . . . . . . ",
". . . . . . . . . . . . . . . . . . . . . . . . . . . . . . . . . . . . . . . . . . . . . . . . . . . . . . . . . . . . . . . . . . . . . . "};
