/* XPM */
static const char * BigC_xpm[] = {
"70 70 234 2",
"  	c None",
". 	c #FFFFFF",
"+ 	c #FCFCFC",
"@ 	c #F2F2F2",
"# 	c #F4F4F4",
"$ 	c #FDFDFD",
"% 	c #F3F3F3",
"& 	c #F7F7F7",
"* 	c #FAFAFA",
"= 	c #FEFEFE",
"- 	c #F9F9F9",
"; 	c #ECECEC",
"> 	c #DDDDDD",
", 	c #BABABA",
"' 	c #959595",
") 	c #767676",
"! 	c #5E5E5E",
"~ 	c #4E4E4E",
"{ 	c #4C4C4C",
"] 	c #505050",
"^ 	c #545454",
"/ 	c #5A5A5A",
"( 	c #6C6C6C",
"_ 	c #8D8D8D",
": 	c #B9B9B9",
"< 	c #E6E6E6",
"[ 	c #FBFBFB",
"} 	c #F6F6F6",
"| 	c #F0F0F0",
"1 	c #EFEFEF",
"2 	c #F5F5F5",
"3 	c #F8F8F8",
"4 	c #CFCFCF",
"5 	c #9F9F9F",
"6 	c #7A7A7A",
"7 	c #434343",
"8 	c #2C2C2C",
"9 	c #1A1A1A",
"0 	c #0D0D0D",
"a 	c #070707",
"b 	c #050505",
"c 	c #060606",
"d 	c #0C0C0C",
"e 	c #1C1C1C",
"f 	c #313131",
"g 	c #444444",
"h 	c #5B5B5B",
"i 	c #727272",
"j 	c #A9A9A9",
"k 	c #E4E4E4",
"l 	c #CDCDCD",
"m 	c #9D9D9D",
"n 	c #616161",
"o 	c #323232",
"p 	c #171717",
"q 	c #030303",
"r 	c #020202",
"s 	c #000000",
"t 	c #010101",
"u 	c #0E0E0E",
"v 	c #3D3D3D",
"w 	c #A1A1A1",
"x 	c #C7C7C7",
"y 	c #EEEEEE",
"z 	c #E5E5E5",
"A 	c #ADADAD",
"B 	c #262626",
"C 	c #101010",
"D 	c #040404",
"E 	c #0A0A0A",
"F 	c #141414",
"G 	c #272727",
"H 	c #565656",
"I 	c #DEDEDE",
"J 	c #D2D2D2",
"K 	c #8A8A8A",
"L 	c #404040",
"M 	c #363636",
"N 	c #737373",
"O 	c #B7B7B7",
"P 	c #C3C3C3",
"Q 	c #707070",
"R 	c #212121",
"S 	c #181818",
"T 	c #1E1E1E",
"U 	c #090909",
"V 	c #0F0F0F",
"W 	c #4F4F4F",
"X 	c #E2E2E2",
"Y 	c #BCBCBC",
"Z 	c #5F5F5F",
"` 	c #1B1B1B",
" .	c #2B2B2B",
"..	c #393939",
"+.	c #474747",
"@.	c #5C5C5C",
"#.	c #6F6F6F",
"$.	c #777777",
"%.	c #7D7D7D",
"&.	c #717171",
"*.	c #595959",
"=.	c #222222",
"-.	c #121212",
";.	c #232323",
">.	c #868686",
",.	c #D4D4D4",
"'.	c #B2B2B2",
").	c #161616",
"!.	c #3E3E3E",
"~.	c #7E7E7E",
"{.	c #C4C4C4",
"].	c #DBDBDB",
"^.	c #9E9E9E",
"/.	c #585858",
"(.	c #252525",
"_.	c #5D5D5D",
":.	c #C6C6C6",
"<.	c #B8B8B8",
"[.	c #555555",
"}.	c #646464",
"|.	c #BDBDBD",
"1.	c #E3E3E3",
"2.	c #F1F1F1",
"3.	c #E9E9E9",
"4.	c #757575",
"5.	c #2E2E2E",
"6.	c #080808",
"7.	c #BEBEBE",
"8.	c #CACACA",
"9.	c #383838",
"0.	c #D7D7D7",
"a.	c #AEAEAE",
"b.	c #191919",
"c.	c #0B0B0B",
"d.	c #575757",
"e.	c #CBCBCB",
"f.	c #454545",
"g.	c #AAAAAA",
"h.	c #CCCCCC",
"i.	c #8C8C8C",
"j.	c #A8A8A8",
"k.	c #B6B6B6",
"l.	c #ACACAC",
"m.	c #515151",
"n.	c #111111",
"o.	c #1D1D1D",
"p.	c #E7E7E7",
"q.	c #2F2F2F",
"r.	c #B4B4B4",
"s.	c #C5C5C5",
"t.	c #8F8F8F",
"u.	c #151515",
"v.	c #919191",
"w.	c #8B8B8B",
"x.	c #C1C1C1",
"y.	c #373737",
"z.	c #797979",
"A.	c #353535",
"B.	c #C0C0C0",
"C.	c #DADADA",
"D.	c #6B6B6B",
"E.	c #EBEBEB",
"F.	c #464646",
"G.	c #666666",
"H.	c #131313",
"I.	c #6A6A6A",
"J.	c #E8E8E8",
"K.	c #909090",
"L.	c #686868",
"M.	c #E0E0E0",
"N.	c #858585",
"O.	c #D5D5D5",
"P.	c #A4A4A4",
"Q.	c #D0D0D0",
"R.	c #3B3B3B",
"S.	c #2D2D2D",
"T.	c #3C3C3C",
"U.	c #C2C2C2",
"V.	c #4B4B4B",
"W.	c #C9C9C9",
"X.	c #CECECE",
"Y.	c #D1D1D1",
"Z.	c #606060",
"`.	c #D3D3D3",
" +	c #BBBBBB",
".+	c #656565",
"++	c #D6D6D6",
"@+	c #C8C8C8",
"#+	c #414141",
"$+	c #2A2A2A",
"%+	c #424242",
"&+	c #242424",
"*+	c #AFAFAF",
"=+	c #202020",
"-+	c #7B7B7B",
";+	c #747474",
">+	c #D8D8D8",
",+	c #B5B5B5",
"'+	c #E1E1E1",
")+	c #6D6D6D",
"!+	c #7F7F7F",
"~+	c #303030",
"{+	c #A6A6A6",
"]+	c #EDEDED",
"^+	c #999999",
"/+	c #9C9C9C",
"(+	c #A3A3A3",
"_+	c #787878",
":+	c #979797",
"<+	c #818181",
"[+	c #3F3F3F",
"}+	c #B3B3B3",
"|+	c #A2A2A2",
"1+	c #DFDFDF",
"2+	c #848484",
"3+	c #282828",
"4+	c #7C7C7C",
"5+	c #A0A0A0",
"6+	c #DCDCDC",
"7+	c #EAEAEA",
"8+	c #696969",
"9+	c #898989",
"0+	c #494949",
"a+	c #828282",
"b+	c #878787",
"c+	c #4D4D4D",
"d+	c #333333",
"e+	c #8E8E8E",
"f+	c #292929",
"g+	c #484848",
"h+	c #838383",
"i+	c #636363",
"j+	c #676767",
"k+	c #949494",
"                                                                                                                                            ",
". . . . . . . . . . . . . . + @ # . . . $ $ . $ % & . . . . . . . . . . . . . . . . . . . . . . . * & $ . $ * + . . . . . . . . . . . . . $ ",
". . . . . . . . . . . . . . = + $ - ; % $ $ + . . . - > , ' ) ! ~ { ] ^ / ( _ : < . . . [ } # | 1 = = 2 @ & $ = = . . . . . . . . . . . . . ",
". . . . . . . . . . . . . . . . . - % 3 = . . . 4 5 6 ! 7 8 9 0 a b c c d e f g h i j k . . = & } = $ - 3 [ . . . . . . . . . . . . + - [ + ",
". . . . . . . . . . . . . . = + + $ $ . . 2 l m n o p 0 c q r s s s t t r b a a u 0 v ) w x y . . . + = . + * = . . . . . . . . . . + 3 [ + ",
". . . . . . . . . . . . . . = - 3 . . $ z A n B C r s s s D D t s s q c b t s t E s c F G H 5 I # . . [ $ [ } - $ . . . . . . . . . = + $ $ ",
". . . . . . . . . . . . . . = + [ . - J K L u s s t s s r D t s s t r q t s s r d q r s s E M N O 1 . } 3 $ - 2 - . . . . . . . . . = = $ - ",
". . . . . . . . . . . . . . . . . % P Q R s t D b c D r r q c d S e T p d b q r s s a 0 U s s V W 5 X % * . + } 3 . . . . . . . . . = $ + 3 ",
". . . . . . . . . . . . . . . . % Y Z V s a C a t c V `  ...+.@.#.$.%.&.*.7 f =.-.a t s s s s s s ;.>.,.- = - - = . . . . . . . . . = $ = . ",
". . . . . . . . . . . . . . . - '.L U s s t s s b ).!.~.{.1 * - * * * * * 2 ].^./.(.d r s s r E V r q _.:.+ = @ # . . . . . . . . . [ } [ . ",
". . . . . . . . . . . . . . } <.[.V s s b r s -.}.|.1.2.* . . . . . . . . $ * } 3.P 4.5.a s r a 6.t s C ! 7.} . $ . . . . . . . . . = = = + ",
". . . . . $ 3 3 . = # $ . + 8._.0 s t d q s 9.A 0.# . . . . = = . . = . . $ + $ $ * z a.Z b.s s q 6.c.t c d.e.. . . . . . . . . . . . . . $ ",
". . . . = [ & % # = 3 | . X ~.e s r b b c.f.g.# = $ . . . . . . . . . + [ + = [ * . . } h.i.g d s b 6.d s L 8.. = . . . . . . . . . . . . . ",
". . . . + [ + 2 ; = . 2 y j.M t s D b t +.k.3 2 + . . . . . . . . . . + - + . . = [ * . . ; l.m.n.s s b o.6 p.. + . . . . . . . . . . . . . ",
". . . . $ + $ - % $ $ . :.H c.s t t t q.j = . - + . . . . . . . . . . = $ + $ = . & # [ . = ; r._.V s s m.s.+ . + . . . . . . . . . . . . . ",
". . . . . $ * * $ $ 2 . t.u.s t q s -.v.1 . [ * [ = . . . . . . . . . . $ - & + . [ * [ 3 3 $ } {.[.E u.w.1 . $ + . . . . . . . . . . . . . ",
". . . . . + * [ = = 2 e.m.s s r s 0 / I . & * * [ = . . . . . . . . . . [ } } + . . . = - & + . = x.y.4.l } . . = . . . . . . . . . . . . . ",
". . . . = $ = + - . = z.9 s s s t A.B.3 2 # = = . . . . . . . . . . . = [ * + . = 3 [ $ . . $ $ . $ 5 C.- 2 * . . . . . . . . . . . . . . . ",
". . . . . . + - * $ 1 g s b r s C D.E.2 } $ [ $ . . . . . . . . . . . . . = = = + | % * $ + [ * - . 2 & $ [ & [ . . . . . . . . . . . . . . ",
". . . . . [ % % = 2.'.8 s D r a F.: & + = $ } } + . . . . . . . . . . . = [ * = = [ + = $ $ $ + [ . . 3 * . + * + . . . . . . . . . . . . . ",
". . . . . $ - * . 2.G.H.s t s U I.y = . = + + * + = . . . . . . . . . . $ 3 3 = . . + $ = = = = = . & * * - + $ $ . . . . . . . . . . . . . ",
". . . . . . . . . J.q.s t s t =.K.= . $ + + = . = = . . . . . . . . . . = [ [ . . . * + . . = . . . & $ + - + . . . . . . . . . . . . . . . ",
". . . . . . . . [ l S s q s c.{ Y $ . - $ $ * = . . . . . . . . . . . . . . . . . . . . . . . . . . . . . . . . . . . . . . . . . . . . . . ",
". . . . . = = = | a.).s t s -.L.,.$ . * $ $ [ = = = . . . . . . . . . . . . . . . . . . . . . . . . . . . . . . . . . . . . . . . . . . . . ",
". . . . . . . + M.N.C s s s 9 >.1 . . + = = $ . [ + . . . . . . . . . . . . . . . . . . . . . . . . . . . . . . . . . . . . . . . . . . . . ",
". . . . . . . + O._.c.s t s =.P.. . = = . = $ = * + . . . . . . . . . . . . . . . . . . . . . . . . . . . . . . . . . . . . . . . . . . . . ",
". . . . . . . + Q.R.U t s s S.<.. . = . = + [ = [ $ . . . . . . . . . . . . . . . . . . . . . . . . . . . . . . . . . . . . . . . . . . . . ",
". . . . . . . [ e.;.b t s s T.U.. = = . $ * * = $ = . . . . . . . . . . . . . . . . . . . . . . . . . . . . . . . . . . . . . . . . . . . . ",
". . . . . . . [ x H.s s s a V.W.. [ = . $ * [ = = . . . . . . . . . . . . . . . . . . . . . . . . . . . . . . . . . . . . . . . . . . . . . ",
". . . . . $ = [ s.c.s s s c.[.X.. [ = . = $ $ $ $ . . . . . . . . . . . . . . . . . . . . . . . . . . . . . . . . . . . . . . . . . . . . . ",
". . . . . + [ [ s.U s t s u h Y.. $ . $ = . = [ [ = . . . . . . . . . . . . . . . . . . . . . . . . . . . . . . . . . . . . . . . . . . . . ",
". . . . . [ [ * {.6.s D s C Z.`.. . = * + . = - * $ . . . . . . . . . . . . . . . . . . . . . . . . . . . . . . . . . . . . . . . . . . . . ",
". . . . = $ . *  +a D a s H..+++. + . . + + . = - [ = . . . . . . . . . . . . . . . . . . . . . . . . . . . . . . . . . . . . . . . . . . . ",
". . . . $ [ . * |.a q D s n.n `.. $ . . $ $ . = * [ = . . . . . . . . . . . . . . . . . . . . . . . . . . . . . . . . . . . . . . . . . . . ",
". . . . + * = [ x.a s t s 0 *.4 . + . . = = = = + $ . . . . . . . . . . . . . . . . . . . . . . . . . . . . . . . . . . . . . . . . . . . . ",
". . . . $ + . [ {.E s s s E W 8.. $ $ = . . . . . . . . . . . . . . . . . . . . . . . . . . . . . . . . . . . . . . . . . . . . . . . . . . ",
". . . . . = . [ @+).s s r c #+P . $ * [ = . . . . . . . . . . . . . . . . . . . . . . . . . . . . . . . . . . . . . . . . . . . . . . . . . ",
". . . . . . . + l $+q s D s f  +. = - & + . = $ = . . . . . . . . . . . . . . . . . . . . . . . . . . . . . . . . . . . . . . . . . . . . . ",
". . . . . = . + `.%+c s r s &+*+. . [ 2 * . = * + = . . . . . . . . . . . . . . . . . . . . . . . . . . . . . . . . . . . . . . . . . . . . ",
". . . . . $ = $ ].! E s s s =+m . . = 2 - . $ & 3 $ . . . . . . . . . . . . . . . . . . . . . . . . . . . . . . . . . . . . . . . . . . . . ",
". . . . = $ = = z -+u s t s 9 >.y = = } * . $ & - = . . . . . . . . . . . . . . . . . . . . . . . . . . . . . . . . . . . . . . . . . . . . ",
". . . . = = . = E.K.n.s r s ).;+>+[ . & [ . = [ = . . . . . . . . . . . . . . . . . . . . . . . . . . . . . . . . . . . . . . . . . . . . . ",
". . . . = = . $ @ x.S s s s E +.,++ . = } 3 . $ & - = . . . . . . . . . = + + . . $ 3 & * + $ = . = & $ + 3 [ . . . . . . . . . . . . . . . ",
". . . . . . . = + '+B q D s s 9 K.$ . + - & - = * [ . . . . . . . . . . + - 3 $ . . + [ + = = $ $ . * - * [ $ [ + . . . . . . . . . . . . . ",
". . . . . = $ = . | +.V D s s E )+1 . + $ [ - $ = = . . . . . . . . . . $ * * [ + + [ [ + = = [ - . . * [ = [ 3 [ . . . . . . . . . . . . . ",
". . . . . $ [ + . 2 !+` s r s c f.7.* $ $ = [ + = = . . . . . . . . . . = = = $ 3 3 3 3 * $ + - * . | 3 = [ 3 * = . . . . . . . . . . . . . ",
". . . . = $ + + $ - B.~+s a r D ` ;+1 $ + + - + [ + . . . . . . . . . = $ = . = [ [ [ * [ $ $ + . - {+++& } - = . . . . . . . . . . . . . . ",
". . . . = . . $ * $ } /.E c b c s M X.* $ * } - - + . . . . . . . . . = + * * [ . . . $ + + . . - {.R.!+Y.% . . = . . . . . . . . . . . . . ",
". . . . . . = $ + . . ' G s t t t S N X . $ $ 2 [ . . . . . . . . . . . $ & # & . $ $ * 3 * = 3 e._.c H.K ]+. = $ . . . . . . . . . . . . . ",
". . . . . = + $ . . = > n b s r b t u.^+y . $ * $ . . . . . . . . . . . = + + . $ 2.| - . . 1 , Z a s s ^ W.$ . + . . . . . . . . . . . . . ",
". . . . . + & - . . % . /+&+s t D s s G (+1 ]+$ - * = . . . . . . . . . = [ [ . = | - . . # *+{ U s s U o._+3.. $ . . . . . . . . . . . . . ",
". . . . . = + $ $ 3 * . >+.+b s r s s t o :+; - $ $ . . . . . . . . . . $ } 2 = . - . . `.<+y.E s a E 6.s [+s.. . . . . . . . . . . . . . . ",
". . . . . . . . + # = . % A +.U s c b s s ~+!+}+| . . . . . . . . = [ $ [ 2 } . . . I a.G.=.s s s b 6.s 0 n Q.. . . . . . . . . . . = = . $ ",
". . . . $ + $ . + } = . * z |+A.s D 6.c q r u.{ ' @+1+]+$ . . . . . . . . . . | O.<.z.T.H.s s q b s s u.Z.<.2.$ [ . . . . . . . . . . $ + - ",
". . . . + * + . = [ = = = . X 2+3+r r E C a s U =+{ 4+5+{.6+X k < J.7+p.X M.Y.(+8+9.S D s s r D a r C n B.3 . # } . . . . . . . . . . = [ & ",
". . . . = + $ = . . + 3 [ . $ > 9+3+b D U c s s s D e o 0+_.I.N -+a+b+%.D._.c+d+F s s s r D t s 6.&+;+@+& . - 2 * . . . . . . . . . . . + [ ",
". . . . . . = + $ . + 2 } [ . $ X e+M U s b U t t s s s s s s 6.-.F ).0 t s s s s r r t r r t n.#+i.'++ $ - & - $ . . . . . . . . . . = + * ",
". . . . . . = [ * . . * & - * & $ % A c+S 0 E s s r t s s s r 6.U q t r a E a D b q s s s 6.f+.+r.3 . 2.2 = + } 3 . . . . . . . . . . = * 2 ",
". . . . . = = $ + . . = = + [ + & # } k N.f+U r s s s s s s s t t t c c q s s q n.6.D b p W w X & . . $ = [ 2 - = . . . . . . . . . . = = = ",
". . . . + - [ . = + * $ . . $ [ - [ + = J.@+^+] u.s s s s s q q s s r t q U 6.s s s A.4+'.>+@ . . . $ . . $ * $ . . . . . . . . . . [ & + . ",
". . . . + * + . . [ 3 * $ = = $ = . + [ . . @ P {+N..+g+ .F a s s s s s s C  .g+8+>.k.1.= . + 2 } . . } 2 * $ [ [ . . . . . . . . . $ * + [ ",
". . . . = = = $ $ $ [ [ $ $ $ = = = . = [ $ . . . & 0., /+h+N I.i+! _.Z.j+$.k+, '+. . . . [ & % 2 $ * # # * = [ [ . . . . . . . . . . = [ 3 ",
". . . . . . = [ [ . . . . = [ + + + . . - - . . = $ [ [ [ + [ * } 2 & * * [ + = . . = $ = . . . = + # [ . . . . . . . . . . . . . . . $ * [ ",
". . . . . . . = = . . . . . = = = = . . = = . . = = . . . . . . . . . . . . . . . . = = . . . . . = + = . . . . . . . . . . . . . . . . = = ",
". . . . . . . . . . . . . . . . . . . . . . . . . . . . . . . . . . . . . . . . . . . . . . . . . . . . . . . . . . . . . . . . . . . . . . ",
". . . . . . . . . . . . . . . . . . . . . . . . . . . . . . . . . . . . . . . . . . . . . . . . . . . . . . . . . . . . . . . . . . . . . . ",
". . . . . . . . . . . . . . . . . . . . . . . . . . . . . . . . . . . . . . . . . . . . . . . . . . . . . . . . . . . . . . . . . . . . . . ",
". . . . . . . . . . . . . . . . . . . . . . . . . . . . . . . . . . . . . . . . . . . . . . . . . . . . . . . . . . . . . . . . . . . . . . ",
". . . . . . . . . . . . . . . . . . . . . . . . . . . . . . . . . . . . . . . . . . . . . . . . . . . . . . . . . . . . . . . . . . . . . . ",
". . . . . . . . . . . . . . . . . . . . . . . . . . . . . . . . . . . . . . . . . . . . . . . . . . . . . . . . . . . . . . . . . . . . . . "};
