/* XPM */
static const char * BigD_xpm[] = {
"70 70 212 2",
"  	c None",
". 	c #FCFCFC",
"+ 	c #FFFFFF",
"@ 	c #FDFDFD",
"# 	c #FEFEFE",
"$ 	c #F9F9F9",
"% 	c #F7F7F7",
"& 	c #FBFBFB",
"* 	c #F2F2F2",
"= 	c #EEEEEE",
"- 	c #FAFAFA",
"; 	c #ECECEC",
"> 	c #ACACAC",
", 	c #A6A6A6",
"' 	c #A4A4A4",
") 	c #A5A5A5",
"! 	c #A7A7A7",
"~ 	c #A3A3A3",
"{ 	c #A1A1A1",
"] 	c #A2A2A2",
"^ 	c #A9A9A9",
"/ 	c #B5B5B5",
"( 	c #C5C5C5",
"_ 	c #DADADA",
": 	c #F3F3F3",
"< 	c #F6F6F6",
"[ 	c #F5F5F5",
"} 	c #F8F8F8",
"| 	c #DFDFDF",
"1 	c #4E4E4E",
"2 	c #373737",
"3 	c #353535",
"4 	c #393939",
"5 	c #3C3C3C",
"6 	c #383838",
"7 	c #3B3B3B",
"8 	c #333333",
"9 	c #343434",
"0 	c #3A3A3A",
"a 	c #3D3D3D",
"b 	c #363636",
"c 	c #414141",
"d 	c #4C4C4C",
"e 	c #5B5B5B",
"f 	c #707070",
"g 	c #8C8C8C",
"h 	c #A8A8A8",
"i 	c #B7B7B7",
"j 	c #CFCFCF",
"k 	c #E9E9E9",
"l 	c #F4F4F4",
"m 	c #F1F1F1",
"n 	c #1C1C1C",
"o 	c #030303",
"p 	c #010101",
"q 	c #040404",
"r 	c #060606",
"s 	c #070707",
"t 	c #020202",
"u 	c #050505",
"v 	c #090909",
"w 	c #0C0C0C",
"x 	c #0F0F0F",
"y 	c #161616",
"z 	c #1F1F1F",
"A 	c #292929",
"B 	c #3E3E3E",
"C 	c #666666",
"D 	c #9C9C9C",
"E 	c #CACACA",
"F 	c #EAEAEA",
"G 	c #E0E0E0",
"H 	c #101010",
"I 	c #000000",
"J 	c #151515",
"K 	c #565656",
"L 	c #8F8F8F",
"M 	c #D2D2D2",
"N 	c #111111",
"O 	c #0B0B0B",
"P 	c #212121",
"Q 	c #6A6A6A",
"R 	c #B2B2B2",
"S 	c #121212",
"T 	c #080808",
"U 	c #9B9B9B",
"V 	c #DDDDDD",
"W 	c #131313",
"X 	c #1D1D1D",
"Y 	c #141414",
"Z 	c #0D0D0D",
"` 	c #0A0A0A",
" .	c #6E6E6E",
"..	c #171717",
"+.	c #0E0E0E",
"@.	c #E2E2E2",
"#.	c #D9D9D9",
"$.	c #DEDEDE",
"%.	c #DCDCDC",
"&.	c #CCCCCC",
"*.	c #969696",
"=.	c #646464",
"-.	c #2F2F2F",
";.	c #1B1B1B",
">.	c #C6C6C6",
",.	c #535353",
"'.	c #C1C1C1",
").	c #EBEBEB",
"!.	c #D8D8D8",
"~.	c #AFAFAF",
"{.	c #777777",
"].	c #181818",
"^.	c #5A5A5A",
"/.	c #C9C9C9",
"(.	c #B9B9B9",
"_.	c #D5D5D5",
":.	c #979797",
"<.	c #555555",
"[.	c #717171",
"}.	c #C7C7C7",
"|.	c #262626",
"1.	c #242424",
"2.	c #8D8D8D",
"3.	c #F0F0F0",
"4.	c #D0D0D0",
"5.	c #858585",
"6.	c #202020",
"7.	c #878787",
"8.	c #232323",
"9.	c #E4E4E4",
"0.	c #616161",
"a.	c #808080",
"b.	c #4B4B4B",
"c.	c #252525",
"d.	c #999999",
"e.	c #2A2A2A",
"f.	c #D7D7D7",
"g.	c #727272",
"h.	c #B1B1B1",
"i.	c #323232",
"j.	c #B3B3B3",
"k.	c #6B6B6B",
"l.	c #828282",
"m.	c #E8E8E8",
"n.	c #ABABAB",
"o.	c #4A4A4A",
"p.	c #BBBBBB",
"q.	c #D1D1D1",
"r.	c #484848",
"s.	c #929292",
"t.	c #EFEFEF",
"u.	c #818181",
"v.	c #C4C4C4",
"w.	c #5C5C5C",
"x.	c #5E5E5E",
"y.	c #494949",
"z.	c #E3E3E3",
"A.	c #676767",
"B.	c #E7E7E7",
"C.	c #6C6C6C",
"D.	c #9D9D9D",
"E.	c #767676",
"F.	c #2E2E2E",
"G.	c #9A9A9A",
"H.	c #737373",
"I.	c #303030",
"J.	c #EDEDED",
"K.	c #AAAAAA",
"L.	c #595959",
"M.	c #474747",
"N.	c #B4B4B4",
"O.	c #BEBEBE",
"P.	c #545454",
"Q.	c #7E7E7E",
"R.	c #191919",
"S.	c #E5E5E5",
"T.	c #DBDBDB",
"U.	c #585858",
"V.	c #989898",
"W.	c #CECECE",
"X.	c #454545",
"Y.	c #848484",
"Z.	c #AEAEAE",
"`.	c #C0C0C0",
" +	c #464646",
".+	c #787878",
"++	c #B0B0B0",
"@+	c #D6D6D6",
"#+	c #272727",
"$+	c #9E9E9E",
"%+	c #B8B8B8",
"&+	c #7A7A7A",
"*+	c #797979",
"=+	c #D3D3D3",
"-+	c #D4D4D4",
";+	c #C2C2C2",
">+	c #BABABA",
",+	c #1A1A1A",
"'+	c #6F6F6F",
")+	c #606060",
"!+	c #636363",
"~+	c #686868",
"{+	c #656565",
"]+	c #444444",
"^+	c #7B7B7B",
"/+	c #898989",
"(+	c #757575",
"_+	c #3F3F3F",
":+	c #939393",
"<+	c #919191",
"[+	c #959595",
"}+	c #909090",
"                                                                                                                                            ",
". + + + + + + + + + + + + + @ @ + . # # # # # + @ $ # + . % % . + + + + @ # + + + + # & $ @ + + # + @ . # + + + + + + + + + + + + + + + + + ",
"# # + + + + + + + + + + + + + + + + + + + + + + + + + + + + + + + + + + + + + + # $ $ $ # * = - # $ @ + & @ + + + + + + + + + + + + + + + + ",
"+ + + + + + + + + + + . $ & . - ; > , ' ) ! ! ) ~ ' ~ { ~ ! ! ~ ] , ~ ~ ^ / ( _ : + + + # < [ . + @ : * - + + + + + + + + + + + + + + + + + ",
"# + + + + + + + + + + . } & . # | 1 2 3 4 5 5 6 2 7 6 8 9 0 a 0 6 4 b 6 c d e f g h i j k # + + # + l m . + + + + + + + + + + + + + + + + + ",
"$ @ + + + + + + + + + # . @ @ + | n o p q r r q q s s t p q s s u q o u v w x y z A B C D E F @ + + & & # + + + + + + + + + + + + + + + + + ",
"[ $ + + + + + + + + + # # @ $ + G H I I I I I I I I t p I I I I I I I I I I I I I I o J 8 K L M % # + + # + + + + + + + + + + + + + + + + + ",
"< } + + + + + + + + + # @ . } + G N o q p p q u p I o r u p I I I p p t q u q p I r O p I I P Q R k . @ . # + + + + + + + + + + + + + + + + ",
"$ # + + + + + + + + + # @ # + + | S I p p q T T o I I p p p I p p I I t q r r q p I I r s t I q b U V l - # + + + + + + + + + + + + + + + + ",
"* l + + + + + + + + + & < & + + | W I I o r v S X W H H S N N Y Y H N H H Z x W N s I t W ` I I p H  .M & + + + + + + + + + + + + + + + + + ",
"+ @ + + + + + + + + + # # # . + | ..q o I +.1 ^ @.| #.$.G %._ V G | | | _ &.i *.=.-.O o t I r O I I ;.Q >.} + + + + + + + + + + + + + + + + ",
"+ + + + + + + + + + + + + + @ + | Y t t I w ,.'.+ + + + + + + + + + + + + + } ).!.>.~.{.].I I q o r o W ^./.+ + + @ + + + + + + + + + + + + ",
"+ # + + + + + + + + + + + + + + | W I I I ` d (.+ + + + # # + + + + + + + + + + + + # _.:.<.;.I I q s p J [.%.+ < # & . # + # # + + + + + + ",
"+ . + + + + + + + + + + + + + + | W p p I ` d (.+ + + + @ @ # + + + + + + + + + + + + $ & }.[.|.I p Z v t 1.2.3.- + } - @ + # # + + + + + + ",
"+ . + + + + + + + + + + + + + + | W p p I ` d (.+ + + + @ @ # + + + + + + + + + + + # + + l 4.5.6.` v u t o 0 h + + . @ # # # + + + + + + + ",
"@ . + + + + + + + + + + + + + + | W p p I ` d (.+ + + + @ @ # + + + + + + + + + + + + # % & + | 7.8.I I t I r ,.$.+ + + + # @ @ + + + + + + ",
"+ # + + + + + + + + + + + + + + | W p p I ` d (.+ + + + @ @ # + + + + + + + + + + + # & % & + + 9.0.w I p o I J a.- + $ . @ $ $ + + + + + + ",
"+ + + + + + + + + + + + + + + + | W p p I ` d (.+ + + + @ @ # + + + + + + + + + + + @ & @ # . @ $ '.b.r t s u I c.%.& } - & % % + + + + + + ",
"& + + + + + + + + + + + + + + + | W p p I ` d (.+ + + + @ @ # + + + + + + + + + + + + # $ $ @ . } % d.e.r p s u x 2.k @ @ & . # + + + + + + ",
"- . + + + + + + + + + + + + + + | W p p I ` d (.+ + + + @ @ # + + + + + + + + + + + + # [ < @ + . [ f.g.Y I p s W 9 j @ . < - + + + + + + + ",
"@ @ + + + + + + + + + + + + + + | W p p I ` d (.+ + + + @ @ # + + + + + + + + + + + + @ : % + @ < < - h.i.I I q s Z j.% # - & # + + + + + + ",
"+ + + + + + + + + + + + + + + + | W p p I ` d (.+ + + + @ @ # + + + + + + + + + + + # . % . + & < @ @ M k...I p I r l.V @ + # # + + + + + + ",
"+ + + + + + + + + + + + + + + + | W p p I ` d (.+ + + + @ @ # + + + + + + + + + + + @ - # + @ & + + % m.n.3 I I I o o.p.< + + + + + + + + + ",
"+ + + + + + + + + + + + + + + + | W p p I ` d (.+ + + + @ @ # + + + + + + + + + + + @ - # + @ & # + # + q.r.I I I p |.h : + # @ + + + + + + ",
"+ + + + + + + + + + + + + + + + | W p p I ` d (.+ + + + @ @ # + + + + + + + + + + + # . # + @ & @ + + + @.=.s I I I t s.t.+ . @ + + + + + + ",
"+ + + + + + + + + + + + + + + + | W p p I ` d (.+ + + + @ @ # + + + + + + + + + + + # @ # + + # # . & + ; 5.6.I p I I u.F + . # + + + + + + ",
"+ + + + + + + + + + + + + + + + | W p p I ` d (.+ + + + @ @ # + + + + + + + + + + + # . & @ + + # . - + l ! 4 I q I I [.%.+ # + + + + + + + ",
"+ + + + + + + + + + + + + + + + | W p p I ` d (.+ + + + @ @ # + + + + + + + + + + + # . - & @ + + # # + & v.1 I s p I w.( % + + + + + + + + ",
"+ + + + + + + + + + + + + + + + | W p p I ` d (.+ + + + @ @ # + + + + + + + + + + + + # . & & @ # # + + + !.x.I u I I y.~.t.+ + + + + + + + ",
"+ + + + + + + + + + + + + + + + | W p p I ` d (.+ + + + @ @ # + + + + + + + + + + + + + + @ . - - - . @ + z.A.I p I I 5 { ).+ + + + + + + + ",
"+ + + + + + + + + + + + + + + + | W p p I ` d (.+ + + + @ @ # + + + + + + + + + + + # . # + # & } $ & . + B.C.I I t I 2 D.).+ + + + + + + + ",
"+ + + + + + + + + + + + + + + + | W p p I ` d (.+ + + + @ @ # + + + + + + + + + + + . < . + + + # + + + + ; [.I I q I 9 D ).+ + + + + + + + ",
"+ + + + + + + + + + + + + + + + | W p p I ` d (.+ + + + @ @ # + + + + + + + + + + + + # + # @ # + + + + + : E.I I I I F.G.).+ + + + + + + + ",
"+ + + + + + + + + + + + + + + + | W p p I ` d (.+ + + + @ @ # + + + + + + + + + + + + # @ @ @ # + + + + + 3.H.I p q I I.D.J.+ @ + + + + + + ",
"+ + + + + + + + + + + + + + + + | W p p I ` d (.+ + + + @ @ # + + + + + + + + + + + # . . @ # + + + # + + k C.I p T I 3 ] = + @ + + + + + + ",
"+ + + + + + + + + + + + + + + + | W p p I ` d (.+ + + + @ @ # + + + + + + + + + + + # . @ # + + + @ . + + | =.I t ` I a K.m + @ + + + + + + ",
"+ + + + + + + + + + + + + + + + | W p p I ` d (.+ + + + @ @ # + + + + + + + + + + + + # # + + + # @ . + # q.L.I p s I M.N.l + # + + + + + + ",
"+ + + + + + + + + + + + + + + + | W p p I ` d (.+ + + + @ @ # + + + + + + + + + + + + + + + + # @ @ # + - O.o.I I t I P.'.} + + + + + + + + ",
"+ + + + + + + + + + + + + + + + | W p p I ` d (.+ + + + @ @ # + + + + + + + + + + + + + + # @ @ # # + + : ] 9 I I I I C M @ + + + + + + + + ",
"+ + + + + + + + + + + + + + + + | W p p I ` d (.+ + + + @ @ # + + + + + + + + + + + + + @ & & @ + + + + k Q.R.I I I I Q.S.+ # + + + + + + + ",
"+ + + + + + + + + + + + + + + + | W p p I ` d (.+ + + + @ @ # + + + + + + + + + + + + # . $ & # + + # + T.U.I I o I p V.m + . + + + + + + + ",
"+ + + + + + + + + + + + + + + + | W p p I ` d (.+ + + + @ @ # + + + + + + + + + + + + + # & @ + + + } + W.X.I p u I ` D * + & + + + + + + + ",
"+ + + + + + + + + + + + + + + + | W p p I ` d (.+ + + + @ @ # + + + + + + + + + + + + + + $ $ + + + + B.L c.I O I o d (.l + + + + + + + + + ",
"& . + + + + + + + + + + + + + + | W p p I ` d (.+ + + + @ @ # + + + + + + + + + + + # & @ . @ @ [ } + M b.r q s I o Y.%.. + # @ + + + + + + ",
"} & + + + + + + + + + + + + + + | W p p I ` d (.+ + + + @ @ # + + + + + + + + + + + # - & . # @ [ & : D P I q I I W Z.: + @ - . + + + + + + ",
"- # + + + + + + + + + + + + + + | W p p I ` d (.+ + + + @ @ # + + + + + + + + + + + # . & & & . @ + `.d w I o I u  +4.@ # $ - @ + + + + + + ",
"# + + + + + + + + + + + + + + + | W p p I ` d (.+ + + + @ @ # + + + + + + + + + + + # - & @ } } + 3..+N t o o t y s.m.@ - $ . + + + + + + + ",
"+ # + + + + + + + + + + + + + + | W p p I ` d (.+ + + + @ @ # + + + + + + + + + + + . < % @ & $ < ++6 q o t o Z a @+% & & . # + + + + + + + ",
"# @ + + + + + + + + + + + + + + | W p p I ` d (.+ + + + @ @ # + + + + + + + + + + + # $ t.% + . E B t o p I I P u.$ + # # @ @ # + + + + + + ",
"+ . + + + + + + + + + + + + + + | W p p I ` d (.+ + + + @ @ # + + + + + + + + + + + + + + & # &.M.s I o u I u 1 f.@ . # - < - + + + + + + + ",
"+ @ + + + + + + + + + + + + + + | W p p I ` d (.+ + + + @ @ # + + + + + + + + + + + + @ l + Z.#+u p w Z p r 4 $++ + } & % l $ + + + + + + + ",
"+ + + + + + + + + + + + + + + + | W I I I v b.%++ + + + @ @ # + + + + + + + + + + + + + E &+I.q I T ` q I n 7.l + @ . # @ - $ . + + + + + + ",
"+ + + + + + + + + + + # # + @ + | S p t I +.L.}.+ + + + + + + + + + + + + + + + % f.i s.^.].I v t u o I n *+V + # # + + + # . . + + + + + + ",
"@ & + + + + + + + + + + @ . $ + G S p t I w y.{ T.f.W.=+_.=+q.M _.-+@+=+&.>.;+>+{ E.M.,+s I t s I I t 8.'+_.+ + + + + + + + + + + + + + + + ",
"l < + + + + + + + + + + # & % + G S I t p q ,+ + .k.U.0.C )+w.0.C !+~+{+<.]+0 9 A n O I I p t I I u #+^+j - + + + + + + + + + + + + + + + + ",
"[ - + + + + + + + + + + + . & + | S I o r o p v ].S ` +.x O O x N w N Y Z I I I I I I p t q t I O 9 /+f.@ + + + + + + + + + + + + + + + + + ",
"$ @ + + + + + + + + + + # . - + | S I q r u o I I I I I I I I I t I I t q o p p p t q o p I p y ,.~ m.# + + + + + + + + + + + + + + + + + + ",
"< } + + + + + + + + + + # - [ @ %.N I p I t q o I I o o p p t q T ` I I I p p p I t t I r R.4 (+W.& # # @ # + + + + + + + + + + + + + + + + ",
"$ # + + + + + + + + + + # # # + | N I I p o t I I I I I I I I I I p I I p p I p q T w y _+:+#.* - $ $ - } . + + + + + + + + + + + + + + + + ",
"@ + + + + + + + + + + & % . + + @+Y I I I I I I I I I I I I I I I I I I I v y F.1  .<+%+=+3.- l . @ @ # @ # + + + + + + + + + + + + + + + + ",
"& & + + + + + + + + + @ - . & & ).[+}+:+s.L 2.}+[+*.s.L s.:.d.*.:+:+<+:+V.$+! / }.#.= + # } l < @ + + # # # + + + + + + + + + + + + + + + + ",
"& & + + + + + + + + + + # & } & + # + + + + + + + + + + + + + + + + + + + + + + + + + } : * % @ & @ + # . # + + + + + + + + + + + + + + + + ",
"+ + + + + + + + + + + + @ - & + + + & # + + + + + + + + + @ . # + + + + + + # # + + $ * & + @ } % @ + + # # + + + + + + + + + + + + + + + + ",
"+ + + + + + + + + + + + + # # + + + # # + + + + + + + + + # @ # + + + + + + # # # + # . # + # @ @ # + + + + + + + + + + + + + + + + + + + + ",
"+ + + + + + + + + + + + + + + + + + + + + + + + + + + + + + + + + + + + + + + + + + + + + + + + + + + + + + + + + + + + + + + + + + + + + + ",
"+ + + + + + + + + + + + + + + + + + + + + + + + + + + + + + + + + + + + + + + + + + + + + + + + + + + + + + + + + + + + + + + + + + + + + + ",
"+ + + + + + + + + + + + + + + + + + + + + + + + + + + + + + + + + + + + + + + + + + + + + + + + + + + + + + + + + + + + + + + + + + + + + + ",
"+ + + + + + + + + + + + + + + + + + + + + + + + + + + + + + + + + + + + + + + + + + + + + + + + + + + + + + + + + + + + + + + + + + + + + + ",
"+ + + + + + + + + + + + + + + + + + + + + + + + + + + + + + + + + + + + + + + + + + + + + + + + + + + + + + + + + + + + + + + + + + + + + + ",
"+ + + + + + + + + + + + + + + + + + + + + + + + + + + + + + + + + + + + + + + + + + + + + + + + + + + + + + + + + + + + + + + + + + + + + + "};
