/* XPM */
static const char * BigE_xpm[] = {
"70 70 168 2",
"  	c None",
". 	c #FFFFFF",
"+ 	c #FBFBFB",
"@ 	c #F5F5F5",
"# 	c #F9F9F9",
"$ 	c #FEFEFE",
"% 	c #FDFDFD",
"& 	c #FCFCFC",
"* 	c #F8F8F8",
"= 	c #F0F0F0",
"- 	c #ECECEC",
"; 	c #F4F4F4",
"> 	c #FAFAFA",
", 	c #D4D4D4",
"' 	c #A6A6A6",
") 	c #A9A9A9",
"! 	c #A3A3A3",
"~ 	c #A1A1A1",
"{ 	c #A4A4A4",
"] 	c #AEAEAE",
"^ 	c #ABABAB",
"/ 	c #A5A5A5",
"( 	c #A2A2A2",
"_ 	c #9E9E9E",
": 	c #9F9F9F",
"< 	c #CDCDCD",
"[ 	c #A0A0A0",
"} 	c #353535",
"| 	c #3B3B3B",
"1 	c #393939",
"2 	c #3A3A3A",
"3 	c #3D3D3D",
"4 	c #414141",
"5 	c #3F3F3F",
"6 	c #383838",
"7 	c #363636",
"8 	c #313131",
"9 	c #2D2D2D",
"0 	c #969696",
"a 	c #F1F1F1",
"b 	c #848484",
"c 	c #020202",
"d 	c #060606",
"e 	c #090909",
"f 	c #080808",
"g 	c #040404",
"h 	c #070707",
"i 	c #030303",
"j 	c #000000",
"k 	c #7C7C7C",
"l 	c #F7F7F7",
"m 	c #818181",
"n 	c #010101",
"o 	c #050505",
"p 	c #787878",
"q 	c #858585",
"r 	c #797979",
"s 	c #7E7E7E",
"t 	c #F6F6F6",
"u 	c #0B0B0B",
"v 	c #0C0C0C",
"w 	c #1C1C1C",
"x 	c #151515",
"y 	c #0F0F0F",
"z 	c #141414",
"A 	c #191919",
"B 	c #121212",
"C 	c #101010",
"D 	c #111111",
"E 	c #1B1B1B",
"F 	c #8A8A8A",
"G 	c #EBEBEB",
"H 	c #838383",
"I 	c #1E1E1E",
"J 	c #E1E1E1",
"K 	c #DFDFDF",
"L 	c #E0E0E0",
"M 	c #DDDDDD",
"N 	c #DCDCDC",
"O 	c #E7E7E7",
"P 	c #222222",
"Q 	c #8D8D8D",
"R 	c #868686",
"S 	c #1F1F1F",
"T 	c #888888",
"U 	c #F3F3F3",
"V 	c #878787",
"W 	c #F2F2F2",
"X 	c #212121",
"Y 	c #808080",
"Z 	c #1D1D1D",
"` 	c #828282",
" .	c #232323",
"..	c #8E8E8E",
"+.	c #242424",
"@.	c #7F7F7F",
"#.	c #D7D7D7",
"$.	c #E3E3E3",
"%.	c #DEDEDE",
"&.	c #0D0D0D",
"*.	c #2C2C2C",
"=.	c #494949",
"-.	c #4F4F4F",
";.	c #4D4D4D",
">.	c #4E4E4E",
",.	c #4C4C4C",
"'.	c #4B4B4B",
").	c #505050",
"!.	c #BEBEBE",
"~.	c #B9B9B9",
"{.	c #DADADA",
"].	c #C7C7C7",
"^.	c #BDBDBD",
"/.	c #181818",
"(.	c #303030",
"_.	c #292929",
":.	c #252525",
"<.	c #262626",
"[.	c #272727",
"}.	c #444444",
"|.	c #CCCCCC",
"1.	c #131313",
"2.	c #535353",
"3.	c #9A9A9A",
"4.	c #A8A8A8",
"5.	c #A7A7A7",
"6.	c #EAEAEA",
"7.	c #202020",
"8.	c #E4E4E4",
"9.	c #898989",
"0.	c #EFEFEF",
"a.	c #909090",
"b.	c #737373",
"c.	c #CACACA",
"d.	c #D5D5D5",
"e.	c #D3D3D3",
"f.	c #D6D6D6",
"g.	c #D1D1D1",
"h.	c #D2D2D2",
"i.	c #D9D9D9",
"j.	c #0A0A0A",
"k.	c #333333",
"l.	c #5F5F5F",
"m.	c #656565",
"n.	c #606060",
"o.	c #6C6C6C",
"p.	c #696969",
"q.	c #636363",
"r.	c #616161",
"s.	c #626262",
"t.	c #6A6A6A",
"u.	c #5D5D5D",
"v.	c #5C5C5C",
"w.	c #747474",
"x.	c #0E0E0E",
"y.	c #767676",
"z.	c #171717",
"A.	c #6F6F6F",
"B.	c #6B6B6B",
"C.	c #EEEEEE",
"D.	c #C1C1C1",
"E.	c #939393",
"F.	c #919191",
"G.	c #929292",
"H.	c #959595",
"I.	c #949494",
"J.	c #979797",
"K.	c #989898",
". . . . . . . . . . . . . . . + @ # . . $ + % . . . & % . % * # . . . . . . . . . . . . . . . . . . . % = & @ - ; % $ & $ $ . . . . . . . . ",
". . . . . . . . . . . . & * + $ & % . . . . . . . . . . . . . . . . . . . . . . . . . . . . . . . . . . . . . % % . $ & + # % . . . . . . . ",
". . . . . . . . . . . . $ * & & + > , ' ) ! ~ { ' ) ] ^ ' { ' / ( ! ! ! ! ! ! ! ! ! ! ! ! ! ! ! ! ! ! ( _ : < * % + & % % & $ . . . . . . . ",
". . . . . . . . . . $ & . & $ & & @ [ } | 1 2 | 1 3 4 5 1 } 6 6 7 7 7 7 7 7 7 7 7 7 7 7 7 7 7 7 7 7 7 } 8 9 0 @ . + & $ $ % $ . . . . . . . ",
". . . . . . . . . . % * $ . . % . a b c c d e f g d h d g c i g i i i i i i i i i i i i i i i i i i i i g j k l . + % $ $ % $ . . . . . . . ",
". . . . . . . . . . % * $ . . $ . a m g j j j j j j j j c n j j j j j j j j j j j j j j j j j j j j j j o j p l . # % . $ % $ . . . . . . . ",
". . . . . . . . . . $ & . . % + . a q o o i j n g i j i h h g n j j j j j j j j j j j j j j j j j j j j d j r l . # + % $ $ $ . . . . . . . ",
". . . . . . . . . . . $ . . & # $ a q o i h i c d d j j j n n j j j j j j j j j j j j j j j j j j j j j j j s t . . & # & + % . . . . . . . ",
". . . . . . . . . . $ > $ . . . . a b o d u g j v w x y z w A B C D D D D D D D D D D D D D D D D D D C y E F G . $ # @ % . . . . . . . . . ",
". . . . . . . . . . . $ . . + > . a H o j d j I p < J K L J M N K K K K K K K K K K K K K K K K K K K K L , O > # & % + $ > & . . . . . . . ",
". . . . . . . . . . . $ . % & & . a q o j i j P Q t . . . . . . . . . . . . . . . . . . . . . . . . . . . . . . % $ . $ . % $ . . . . . . . ",
"$ . . . . . . . . . . $ . % $ $ . a R o j c j S T U . $ $ . . . . . . . . . . . . . . . . . . . . . . . . . . . . . . . . . . . . . . . . . ",
"$ . . . . . . . . . . $ . % $ $ . a R o j c j S T U . $ $ . $ $ . . . . . . . . . . . . . . . . . . . . . . . . . . . . . . . . . . . . . . ",
". . . . . . . . . . . $ . % $ $ . a R o j c j S V W . $ $ . $ $ . . . . . . . . . . . . . . . . . . . . . . . . . . . . . . . . . . . . . . ",
"% . . . . . . . . . . $ . % $ $ . a R o j c j S T W . $ $ . $ $ . . . . . . . . . . . . . . . . . . . . . . . . . . . . . . . . . . . . . . ",
"# . . . . . . . . . . $ . % $ $ . a R o j c j S T W . $ $ . $ $ . . . . . . . . . . . . . . . . . . . . . . . . . . . . . . . . . . . . . . ",
"l . . . . . . . . . . $ . % $ $ . a R o j c j S T W . $ $ . $ $ . . . . . . . . . . . . . . . . . . . . . . . . . . . . . . . . . . . . . . ",
"$ . . . . . . . . . . $ . % $ $ . a R o j c j S T W . $ $ . $ $ . . . . . . . . . . . . . . . . . . . . . . . . . . . . . . . . . . . . . . ",
". . . . . . . . . . . $ . % $ $ . a R o j c j S T W . $ $ . $ $ . . . . . . . . . . . . . . . . . . . . . . . . . . . . . . . . . . . . . . ",
"$ . . . . . . . . . . $ . % $ $ . a R o j c j S T W . $ $ . . $ . . . . . . . . . . . . . . . . . . . . . . . . . . . . . . . . . . . . . . ",
"$ . . . . . . . . . . $ . % $ $ . a R o j n j X R W . . % % $ $ $ $ $ $ $ $ $ $ $ . . * % . . $ & + % . . . . . . . . . . . . . . . . . . . ",
". . . . . . . . . . . $ . % $ $ . a R o j j j P m a . $ + l & . % % % % % % % % $ $ % a + $ . $ # l + $ . . . . . . . . . . . . . . . . . . ",
"% . . . . . . . . . . $ . % $ $ . a R o j j j S Y W . & # @ > . . . . . . . . . . $ + # $ % % % & & % + $ . . . . . . . . . . . . . . . . . ",
"% . . . . . . . . . . $ . % $ $ . a R o j j j Z ` a . $ % & % . . . . . . . . . . . $ . . % + & $ $ $ > $ . . . . . . . . . . . . . . . . . ",
"$ . . . . . . . . . . $ . % $ $ . a R o j j j w m = . % . . . . . . . . . . . . . . % # l # & $ $ $ $ > $ . . . . . . . . . . . . . . . . . ",
". . . . . . . . . . . $ . % $ $ . a R o j j j  ...+ . . . . . . . . . . . . . . . . . % t > % & # + . % . . . . . . . . . . . . . . . . . . ",
". . . . . . . . . . . $ . % $ $ . a R o j g n +.@.#.$.L L L N N L K K K K K K K K %.K W + $ % * ; * . & . . . . . . . . . . . . . . . . . . ",
". . . . . . . . . . . $ . % $ $ . a R o j u d &.*.=.-.;.>.>.,.,.>.>.>.>.>.>.>.>.>.'.).!.a . . + > & % ; % . . . . . . . . . . . . . . . . . ",
". . . . . . . . . . . $ . % $ $ . a R o j f g j j j j j j j j j j j j j j j j j j j g ~.U % # * % . % t $ . . . . . . . . . . . . . . . . . ",
". . . . . . . . . . . $ . % $ $ . a R o j j n i h &.&.f i n j j n n n n n n n n j j E {.$ + ; ; > $ % . . . . . . . . . . . . . . . . . . . ",
". . . . . . . . . . . $ . % $ $ . a R o j n d d n j j j n c n j j j j j j j j j j j &.].l % % . . > t % . . . . . . . . . . . . . . . . . . ",
". . . . . . . . . . . $ . % $ $ . a R o j j o g j c c n i i g i n n n n n n n n n j u ^.l . $ $ $ % + ; % . . . . . . . . . . . . . . . . . ",
"% . . . . . . . . . . $ . % $ $ . a R o j j j o /.(.*._.:.S w X <.:.:.:.:.:.:.:.+.[.}.|.; * > % % % . & $ . . . . . . . . . . . . . . . . . ",
"% . . . . . . . . . . $ . % $ $ . a R o j j j 1.2.3.) 4.' ~ [ { 5.' ' ' ' ' ' ' ' ! / 6.> > & & * l % > $ . . . . . . . . . . . . . . . . . ",
"% . . . . . . . . . . $ . % $ $ . a R o j i j 7.m 8.U U W a a W U W W W W W W U U = G & + % . % * l % > $ . . . . . . . . . . . . . . . . . ",
"$ . . . . . . . . . . $ . % $ $ . a R o j h j +...l . . . . . . . . . . . . . . . . . . l + . $ & & $ % . . . . . . . . . . . . . . . . . . ",
". . . . . . . . . . . $ . % $ $ . a R o j o j X F U . & . . % % . $ $ $ $ $ $ $ $ . $ > t > $ $ $ $ . % . . . . . . . . . . . . . . . . . . ",
". . . . . . . . . . . $ . % $ $ . a R o j j j 7.9.W $ # $ $ & & % % % % % % % % % % % # > % $ + > & % # $ . . . . . . . . . . . . . . . . . ",
". . . . . . . . . . . $ . % $ $ . a R o j n j  .Q U $ > $ $ * * % & & & & & & & & & $ . . . % # # & % # $ . . . . . . . . . . . . . . . . . ",
". . . . . . . . . . . $ . % $ $ . a R o j j j 7.T U . . . . . . . . . . . . . . . % > > % $ . . . . $ . . . . . . . . . . . . . . . . . . . ",
". . . . . . . . . . . $ . % $ $ . a R o j j j I q W . + l * % . % % % % % % % % % % . $ $ % % . $ t 0.> $ . . . . . . . . . . . . . . . . . ",
". . . . . . . . . . . $ . % $ $ . a R o j n j S V W . $ & % $ $ . . . . . . . . . . . . . . . . . & > % . . . . . . . . . . . . . . . . . . ",
"% . . . . . . . . . . $ . % $ $ . a R o j c j S T W . . . . $ $ . . . . . . . . . . . . . . . . . . . . . . . . . . . . . . . . . . . . . . ",
"& . . . . . . . . . . $ . % $ $ . a R o j c j S T W . . $ . $ $ . . . . . . . . . . . . . . . . . . . . . . . . . . . . . . . . . . . . . . ",
"% . . . . . . . . . . $ . % $ $ . a R o j c j S T W . $ $ . $ $ . . . . . . . . . . . . . . . . . . . . . . . . . . . . . . . . . . . . . . ",
". . . . . . . . . . . $ . % $ $ . a R o j c j S T W . $ $ . $ $ . . . . . . . . . . . . . . . . . . . . . . . . . . . . . . . . . . . . . . ",
". . . . . . . . . . . $ . % $ $ . a R o j c j S T W . $ $ . $ $ . . . . . . . . . . . . . . . . . . . . . . . . . . . . . . . . . . . . . . ",
"$ . . . . . . . . . . $ . % $ $ . a R o j c j S T W . $ $ . $ $ . . . . . . . . . . . . . . . . . . . . . . . . . . . . . . . . . . . . . . ",
". . . . . . . . . . . $ . % $ $ . a R o j c j S T W . $ $ . $ $ . . . . . . . . . . . . . . . . . . . . . . . . . . . . . . . . . . . . . . ",
". . . . . . . . . . . $ . % $ $ . a R o j c j S T W . $ $ . $ $ . . . . . . . . . . . . . . . . . . . . . . . . . . . . . . . . . . . . . . ",
"& . . . . . . . . . . $ . % $ $ . a q o j c j S V U . $ $ . $ $ . . . . . . . . . . . . . . . . . . . . . . . . . . . . . . . . . . . . . . ",
"& . . . . . . . . . . $ % % $ $ . W T o j n j P a.& . . . . . . . . . . . . . . . . . . . . . . . . . . . . . . . . & > $ . . . . . . . . . ",
". . . . . . . . . . . % * % . . . W T o j i j E b.c.d.e.d.#.f.e.e.e.e.e.e.e.e.e.e.e.e.e.e.e.e.e.e.e.e.e.#.g.h.i.O * & * & # & . . . . . . . ",
". . . . . . . . . . . & l % . $ . a q o n e c j.k.l.m.n.m.o.p.q.r.r.r.r.r.r.r.r.r.r.r.r.r.r.r.r.r.r.r.s.t.u.v.w.5.O . $ + W * . . . . . . . ",
". . . . . . . . . . . % & $ . + % W q o o j.g j h y &.u x.1.1.x.v v v v v v v v v v v v v v v v v v v &.D u o  .y.i.. . % * + . . . . . . . ",
". . . . . . . . . . . $ . . . + % a q o i o i n n j j j j j j j j j j j j j j j j j j j j j j j j j j j j j j x t.#.. # $ . . . . . . . . . ",
". . . . . . . . . . $ & . % % % . a V o j j c o g i d f d c n n c c c c c c c c c c c c c c c c c c c i o h j z.A.{.. ; % & % . . . . . . . ",
". . . . . . . . . . . $ . l t > . W R o c j j n j j j n j j j j j j j j j j j j j j j j j j j j j j j j j j j x B.i.. & > ; > . . . . . . . ",
". . . . . . . . . . & l $ % % $ . C.y.j j j j j j j j j j j j j j j j j j j j j j j j j j j j j j j j j j j j B B.f.. . $ & $ . . . . . . . ",
". . . . . . . . . . $ + . > l + . l D.F a.E.F.a.G.E.H.I.G.I.J.H.a.F.F.F.F.F.F.F.F.F.F.F.F.F.F.F.F.F.F.F.I.E...K.^.- . % & & $ . . . . . . . ",
". . . . . . . . . . $ + . # t # & & & . . . . . . . . . . . . . . . . . . . . . . . . . . . . . . . . . . . . . & % $ + + + % . . . . . . . ",
". . . . . . . . . . & @ $ . . $ + # * + . . . . . . & $ . . % % . . . . . . . . . . . . . . . . . . . . . . . $ + & $ % $ . . . . . . . . . ",
". . . . . . . . . . $ % . . . . $ $ $ % . . . . . . % $ . $ $ $ . . . . . . . . . . . . . . . . . . . . . . . $ $ $ . . . . . . . . . . . . ",
". . . . . . . . . . . . . . . . . . . . . . . . . . . . . . . . . . . . . . . . . . . . . . . . . . . . . . . . . . . . . . . . . . . . . . ",
". . . . . . . . . . . . . . . . . . . . . . . . . . . . . . . . . . . . . . . . . . . . . . . . . . . . . . . . . . . . . . . . . . . . . . ",
". . . . . . . . . . . . . . . . . . . . . . . . . . . . . . . . . . . . . . . . . . . . . . . . . . . . . . . . . . . . . . . . . . . . . . ",
". . . . . . . . . . . . . . . . . . . . . . . . . . . . . . . . . . . . . . . . . . . . . . . . . . . . . . . . . . . . . . . . . . . . . . ",
". . . . . . . . . . . . . . . . . . . . . . . . . . . . . . . . . . . . . . . . . . . . . . . . . . . . . . . . . . . . . . . . . . . . . . ",
". . . . . . . . . . . . . . . . . . . . . . . . . . . . . . . . . . . . . . . . . . . . . . . . . . . . . . . . . . . . . . . . . . . . . . ",
". . . . . . . . . . . . . . . . . . . . . . . . . . . . . . . . . . . . . . . . . . . . . . . . . . . . . . . . . . . . . . . . . . . . . . "};
