/* XPM */
static const char * BigF_xpm[] = {
"70 70 141 2",
"  	c None",
". 	c #FEFEFE",
"+ 	c #FFFFFF",
"@ 	c #F8F8F8",
"# 	c #F3F3F3",
"$ 	c #F9F9F9",
"% 	c #FDFDFD",
"& 	c #F6F6F6",
"* 	c #FCFCFC",
"= 	c #F5F5F5",
"- 	c #F7F7F7",
"; 	c #FBFBFB",
"> 	c #FAFAFA",
", 	c #F4F4F4",
"' 	c #EDEDED",
") 	c #BFBFBF",
"! 	c #A1A1A1",
"~ 	c #ABABAB",
"{ 	c #ACACAC",
"] 	c #A0A0A0",
"^ 	c #9F9F9F",
"/ 	c #A5A5A5",
"( 	c #ADADAD",
"_ 	c #A9A9A9",
": 	c #A3A3A3",
"< 	c #A2A2A2",
"[ 	c #ECECEC",
"} 	c #DCDCDC",
"| 	c #777777",
"1 	c #2D2D2D",
"2 	c #3E3E3E",
"3 	c #393939",
"4 	c #333333",
"5 	c #373737",
"6 	c #3D3D3D",
"7 	c #414141",
"8 	c #383838",
"9 	c #343434",
"0 	c #353535",
"a 	c #363636",
"b 	c #3B3B3B",
"c 	c #D0D0D0",
"d 	c #D3D3D3",
"e 	c #565656",
"f 	c #000000",
"g 	c #050505",
"h 	c #090909",
"i 	c #030303",
"j 	c #010101",
"k 	c #070707",
"l 	c #060606",
"m 	c #020202",
"n 	c #040404",
"o 	c #C3C3C3",
"p 	c #D2D2D2",
"q 	c #545454",
"r 	c #0A0A0A",
"s 	c #C5C5C5",
"t 	c #080808",
"u 	c #121212",
"v 	c #D1D1D1",
"w 	c #535353",
"x 	c #BDBDBD",
"y 	c #D4D4D4",
"z 	c #131313",
"A 	c #151515",
"B 	c #111111",
"C 	c #101010",
"D 	c #1B1B1B",
"E 	c #1A1A1A",
"F 	c #0E0E0E",
"G 	c #1D1D1D",
"H 	c #C9C9C9",
"I 	c #D5D5D5",
"J 	c #585858",
"K 	c #424242",
"L 	c #9A9A9A",
"M 	c #E1E1E1",
"N 	c #DFDFDF",
"O 	c #DBDBDB",
"P 	c #DEDEDE",
"Q 	c #DDDDDD",
"R 	c #454545",
"S 	c #BBBBBB",
"T 	c #404040",
"U 	c #B8B8B8",
"V 	c #B7B7B7",
"W 	c #3A3A3A",
"X 	c #B6B6B6",
"Y 	c #3C3C3C",
"Z 	c #444444",
"` 	c #BEBEBE",
" .	c #464646",
"..	c #E6E6E6",
"+.	c #F0F0F0",
"@.	c #EBEBEB",
"#.	c #E9E9E9",
"$.	c #EAEAEA",
"%.	c #222222",
"&.	c #575757",
"*.	c #787878",
"=.	c #7F7F7F",
"-.	c #7D7D7D",
";.	c #7C7C7C",
">.	c #7B7B7B",
",.	c #747474",
"'.	c #757575",
").	c #767676",
"!.	c #6E6E6E",
"~.	c #141414",
"{.	c #161616",
"].	c #636363",
"^.	c #EFEFEF",
"/.	c #0B0B0B",
"(.	c #E8E8E8",
"_.	c #E4E4E4",
":.	c #E5E5E5",
"<.	c #828282",
"[.	c #838383",
"}.	c #808080",
"|.	c #868686",
"1.	c #818181",
"2.	c #434343",
"3.	c #E2E2E2",
"4.	c #4B4B4B",
"5.	c #C1C1C1",
"6.	c #B3B3B3",
"7.	c #3F3F3F",
"8.	c #555555",
"9.	c #B5B5B5",
"0.	c #F2F2F2",
"a.	c #B9B9B9",
"b.	c #484848",
"c.	c #BCBCBC",
"d.	c #515151",
"e.	c #EEEEEE",
"f.	c #A7A7A7",
"g.	c #797979",
"h.	c #898989",
"i.	c #919191",
"j.	c #D9D9D9",
". . + + + + + + + + + + + + + + + @ # $ + % & $ * + . % . + + . $ % + + + + + + + + + + + + + + + + + + + + + * @ = - % + % - . + + + + + + ",
"; $ % + + + + + + + + + + + ; > % . * % + + + + + + + + + + + + + + + + + + + + + + + + + + + + + + + + + + + + ; ; ; - , @ . . + + + + + + ",
"% * . + + + + + + + + + + + % @ * + ' ) ! ~ { ] ^ ! / ~ ( { _ / : < : : : : : : : : : : : : : : : : : : < : ( [ % + . > - ; . + + + + + + + ",
". % . + + + + + + + + + . % + > % + } | 1 2 2 3 4 4 5 6 7 7 6 8 9 0 a a a a a a a a a a a a a a a a a a a 9 b c * + . . . % & + + + + + + + ",
". % . + + + + + + + + + % > + . . + d e f g g h i j i g k k l i m i n i i i i i i i i i i i i i i i i i n f n o ; % * . + ; , + + + + + + + ",
". % . + + + + + + + + + % $ . + + + p q f j m j f f f f f f f f n f f f f f f f f f f f f f f f f f f f f f r s ; * ; * ; $ > . + + + + + + ",
". . . + + + + + + + + + . * + + % + p q f t t f f m g n j f f j t m f f f f f f f f f f f f f f f f f f f f u s ; + * $ - ; + ; . + + + + + ",
"* ; % + + + + + + + + + + + % + ; + v w f f f m j f f f f j j j f f f f f f f f f f f f f f f f f f f f f f t x > + $ & $ + + - % + + + + + ",
"% + + + + + + + + + + + . ; = * + + y e f f j f t z A B C A D E u C B B B B B B B B B B B B B B B B B B C F G H * > # @ + . + ; % + + + + + ",
". > * + + + + + + + + + + * ' > + + I J f j l f K L p M N N O N N N N N N N N N N N N N N N N N N N N N N P Q @ = , > % = ' + + + + + + + + ",
"+ % . + + + + + + + + + + . = % . + y e f j m f R S % + + + + + + + + + + + + + + + + + + + + + + + + + + + + + ; ; . + ; $ + + + + + + + + ",
"+ + + + + + + + + + + + + . $ . . + d e f j f f T U @ + + + + ; . + + + + + + + + + + + + + + + + + + + + + + + + + + + + + + + + + + + + + ",
"+ + + + + + + + + + + + + . $ . . + d e f j f f T U @ + + + . ; . + + + + + + + + + + + + + + + + + + + + + + + + + + + + + + + + + + + + + ",
"+ + + + + + + + + + + + + . $ . . + d e f j f f T V @ + + + . ; . + + + + + + + + + + + + + + + + + + + + + + + + + + + + + + + + + + + + + ",
"+ + + + + + + + + + + + + . $ . . + d e f j f f T V @ + + + . ; . + + + + + + + + + + + + + + + + + + + + + + + + + + + + + + + + + + + + + ",
"+ + + + + + + + + + + + + . $ . . + d e f j f f T V @ + + + . ; . + + + + + + + + + + + + + + + + + + + + + + + + + + + + + + + + + + + + + ",
"+ + + + + + + + + + + + + . $ . . + d e f j f f T V @ + + + . ; . + + + + + + + + + + + + + + + + + + + + + + + + + + + + + + + + + + + + + ",
"+ + + + + + + + + + + + + . $ . . + d e f j f f T V @ + + + . ; . + + + + + + + + + + + + + + + + + + + + + + + + + + + + + + + + + + + + + ",
"+ + + + + + + + + + + + + . $ . . + d e f j f f T V @ + + + . ; . + + + + + + + + + + + + + + + + + + + + + + + + + + + + + + + + + + + + + ",
"+ + + + + + + + + + + + + . $ . . + d e f j f f T V - + + + . ; . + + + + + + + + + + + + + + + + + + + + + + + + + + + + + + + + + + + + + ",
"+ + + + + + + + + + + + + . $ . . + d e f j f f 2 V @ + . . % % + + . + + + + + + + + . . + + + + + . % . + + + + + + + + + + + % . . % . + ",
"+ + + + + + + + + + + + + . $ . . + d e f j f f W X $ + * . * + % . . . . . . . . . . . . . + + + . * ; * + + + + + + + + + + + * . * ; % + ",
"+ + + + + + + + + + + + + . $ . . + d e f j f f Y V $ . > + . % @ % + + + + + + + + + + + + + + + + % % % . + + + + + + + + + + . + % ; * + ",
"+ + + + + + + + + + + + + . $ . . + d e f j f i Z S > . > + + . * % % % % % % % % % % . + + + + + + . . . % + + + + + + + + + + + + % ; % + ",
"+ + + + + + + + + + + + + . $ . . + d e f j f f T V @ + * % * + + . % % % % % % % % % . + + + . . + + + % * + + + + + + + + + + * . % > * + ",
"+ + + + + + + + + + + + + . $ . . + d e f j f f Z ` * + + + + + + + + + + + + + + + + + . . + % % + + + . ; + + + + + + + + + + $ * % * * . ",
"+ + + + + + + + + + + + + . $ . . + d e f j f n  .( ..+.[ [ @.@...#.@.@.@.@.@.@.@.@.$.+.> % + % * . + + . ; + + + + + + + + + + > ; . . % % ",
"+ + + + + + + + + + + + + . $ . . + d e f j f m %.&.*.=.-.;.>.>.,.'.| ).).).).).).).!./ = % + . % % . + . ; + + + + + + + + + + % . + + . % ",
"+ + + + + + + + + + + + + . $ . . + d e f j f l r C ~.{.{.{.{.{.z B B B B B B B B B i ].^.; . . . % . + . ; + + + + + + + + + + + + + + . % ",
"+ + + + + + + + + + + + + . $ . . + d e f j f /.r j f f f f f f f f f f f f f f f f f w (.@ % + . % . + . * + + + + + + + + + + + . . . + . ",
"+ + + + + + + + + + + + + . $ . . + d e f j f f f f i t t m f j i j f f f f f f f f f w _.- % + % * . + . * + + + + + + + + + + + ; > * + + ",
"+ + + + + + + + + + + + + . $ . . + d e f j f j f f f j i m j k j f j j j j j j j f f q :.- * + % ; % + . % + + + + + + + + + + + > $ % + + ",
"+ + + + + + + + + + + + + . $ . . + d e f j f f f f f f f f f f f f f f f f f f f f f w @.* . + % * . + . * + + + + + + + + + + + ; ; % + . ",
"+ + + + + + + + + + + + + . $ . . + d e f j f f %.e *.<.[.<.}.|.=.1.[.[.[.[.[.[.[.<.;.~ # . + + . . . + . ; + + + + + + + + + + + % % . + % ",
"+ + + + + + + + + + + + + . $ . . + d e f j f f 2.~ 3.[ @.$.$.@.#.#.$.$.$.$.$.$.$.$.#.+.> . + + + + + + . ; + + + + + + + + + + + + + + + % ",
"+ + + + + + + + + + + + + . $ . . + d e f j f f 4.5.. + + + + + + + + + + + + + + + + + . + + + + + + + . * + + + + + + + + + + . + + + + . ",
"+ + + + + + + + + + + + + . $ . . + d e f j f f R X # * $ * % . . + + + + + + + + + + + + + . % % + + + + . + + + + + + + + + + . + . % + + ",
"+ + + + + + + + + + + + + . $ . . + d e f j f f 2.6.+.> $ . + ; - * + + + + + + + + + + + . * * % + + + + + + + + + + + + + + + + + % ; % + ",
"+ + + + + + + + + + + + + . $ . . + d e f j f f Z x > + + . . - +.> + + + + + + + + + + . % * % . + + + + + + + + + + + + + + + + + % > * + ",
"+ + + + + + + + + + + + + . $ . . + d e f j f f 2 U $ + $ $ + + + . . . . . . . . . . . + + + + + + . . + + + + + + + + + + + + + + % ; % . ",
"+ + + + + + + + + + + + + . $ . . + d e f j f f 6 V @ + + + % & ; . + + + + + + + + + + + + + + + . % % . + + + + + + + + + + + + + % * % * ",
"+ + + + + + + + + + + + + . $ . . + d e f j f f 7.V @ + + + . $ . + + + + + + + + + + + + + + + + + + + + + + + + + + + + + + + + + + + + . ",
"+ + + + + + + + + + + + + . $ . . + d e f j f f T V @ + + + . ; . + + + + + + + + + + + + + + + + + + + + + + + + + + + + + + + + + + + + + ",
"+ + + + + + + + + + + + + . $ . . + d e f j f f T V @ + + + . ; . + + + + + + + + + + + + + + + + + + + + + + + + + + + + + + + + + + + + + ",
"+ + + + + + + + + + + + + . $ . . + d e f j f f T V @ + + + . ; . + + + + + + + + + + + + + + + + + + + + + + + + + + + + + + + + + + + + + ",
"+ + + + + + + + + + + + + . $ . . + d e f j f f T V @ + + + . ; . + + + + + + + + + + + + + + + + + + + + + + + + + + + + + + + + + + + + + ",
"+ + + + + + + + + + + + + . $ . . + d e f j f f T V @ + + + . ; . + + + + + + + + + + + + + + + + + + + + + + + + + + + + + + + + + + + + + ",
"+ + + + + + + + + + + + + . $ . . + d e f j f f T V @ + + + . ; . + + + + + + + + + + + + + + + + + + + + + + + + + + + + + + + + + + + + + ",
"+ + + + + + + + + + + + + . $ . . + d e f j f f T V @ + + + . ; . + + + + + + + + + + + + + + + + + + + + + + + + + + + + + + + + + + + + + ",
"+ + + + + + + + + + + + + . $ . . + d e f j f f T V @ + + + . ; . + + + + + + + + + + + + + + + + + + + + + + + + + + + + + + + + + + + + + ",
"+ + + + + + + + + + + + + . > . . + d e f j f f T V - + + + . * + + + + + + + + + + + + + + + + + + + + + + + + + + + + + + + + + + + + + + ",
". + + + + + + + + + + + + % , * . + d e f j i f 7.U @ + + + % @ . + + + + + + + + + + + + + + + + + + + + + + + + + + + + + + + + + + + + + ",
"* $ * + + + + + + + + + + . , * % + p 8.f m l f Y 9.- + * % . - . + + + + + + + + + + + + + + + + + + + + + + + + + + + + + + + + + + + + + ",
"; 0.@ + + + + + + + + + + % * . * + v q f j n f 6 6.& . @ * + % % + + + + + + + + + + + + + + + + + + + + + + + + + + + + + + + + + + + + + ",
"% @ ; + + + + + + + + + % @ + % % + y e f f j f R a.@ + ; % + % $ % + + + + + + + + + + + + + + + + + + + + + + + + + + + + + + + + + + + + ",
". + + + + + + + + + + + * - + @ $ + I &.f j g f b.S @ + $ ; . * @ % + + + + + + + + + + + + + + + + + + + + + + + + + + + + + + + + + + + + ",
"% * % + + + + + + + + + . * + - = + p q f m r f Z X = > # - % + + + + + + + + + + + + + + + + + + + + + + + + + + + + + + + + + + + + + + + ",
"> , > + + + + + + + + + % $ . . . + d 8.f f j f  .c.@ + % % * + % . + + + + + + + + + + + + + + + + + + + + + + + + + + + + + + + + + + + + ",
". * . + + + + + + + + + . % + + + + v d.f f f f 6 _ e.+ + . * + . + + + + + + + + + + + + + + + + + + + + + + + + + + + + + + + + + + + + + ",
"* * . + + + + + + + + + + + ; @ * + (.f.g.h.i.<.~ j.& + . - = + + + + + + + + + + + + + + + + + + + + + + + + + + + + + + + + + + + + + + + ",
"; ; % + + + + + + + + + + + ; , > % > , & + + $ + + . * * @ = + % . + + + + + + + + + + + + + + + + + + + + + + + + + + + + + + + + + + + + ",
". + + + + + + + + + + + + + + > % ; $ % + + . % % % ; $ * + . + ; . + + + + + + + + + + + + + + + + + + + + + + + + + + + + + + + + + + + + ",
"+ + + + + + + + + + + + + + + + + . % . + + . . . . . . + + + + . + + + + + + + + + + + + + + + + + + + + + + + + + + + + + + + + + + + + + ",
"+ + + + + + + + + + + + + + + + + + + + + + + + + + + + + + + + + + + + + + + + + + + + + + + + + + + + + + + + + + + + + + + + + + + + + + ",
"+ + + + + + + + + + + + + + + + + + + + + + + + + + + + + + + + + + + + + + + + + + + + + + + + + + + + + + + + + + + + + + + + + + + + + + ",
"+ + + + + + + + + + + + + + + + + + + + + + + + + + + + + + + + + + + + + + + + + + + + + + + + + + + + + + + + + + + + + + + + + + + + + + ",
"+ + + + + + + + + + + + + + + + + + + + + + + + + + + + + + + + + + + + + + + + + + + + + + + + + + + + + + + + + + + + + + + + + + + + + + ",
"+ + + + + + + + + + + + + + + + + + + + + + + + + + + + + + + + + + + + + + + + + + + + + + + + + + + + + + + + + + + + + + + + + + + + + + ",
"+ + + + + + + + + + + + + + + + + + + + + + + + + + + + + + + + + + + + + + + + + + + + + + + + + + + + + + + + + + + + + + + + + + + + + + ",
"+ + + + + + + + + + + + + + + + + + + + + + + + + + + + + + + + + + + + + + + + + + + + + + + + + + + + + + + + + + + + + + + + + + + + + + "};
