/* XPM */
static const char * BigG_xpm[] = {
"70 70 233 2",
"  	c None",
". 	c #FFFFFF",
"+ 	c #FDFDFD",
"@ 	c #F7F7F7",
"# 	c #FEFEFE",
"$ 	c #FCFCFC",
"% 	c #FAFAFA",
"& 	c #FBFBFB",
"* 	c #F8F8F8",
"= 	c #F9F9F9",
"- 	c #F6F6F6",
"; 	c #F4F4F4",
"> 	c #F0F0F0",
", 	c #F3F3F3",
"' 	c #D6D6D6",
") 	c #A1A1A1",
"! 	c #808080",
"~ 	c #6C6C6C",
"{ 	c #5F5F5F",
"] 	c #505050",
"^ 	c #454545",
"/ 	c #444444",
"( 	c #4F4F4F",
"_ 	c #646464",
": 	c #7F7F7F",
"< 	c #A2A2A2",
"[ 	c #B7B7B7",
"} 	c #F1F1F1",
"| 	c #F2F2F2",
"1 	c #ECECEC",
"2 	c #B6B6B6",
"3 	c #868686",
"4 	c #6B6B6B",
"5 	c #575757",
"6 	c #3A3A3A",
"7 	c #212121",
"8 	c #141414",
"9 	c #0E0E0E",
"0 	c #090909",
"a 	c #040404",
"b 	c #020202",
"c 	c #060606",
"d 	c #1F1F1F",
"e 	c #343434",
"f 	c #484848",
"g 	c #7C7C7C",
"h 	c #DADADA",
"i 	c #E3E3E3",
"j 	c #BFBFBF",
"k 	c #8C8C8C",
"l 	c #4E4E4E",
"m 	c #1D1D1D",
"n 	c #0A0A0A",
"o 	c #010101",
"p 	c #000000",
"q 	c #030303",
"r 	c #0B0B0B",
"s 	c #151515",
"t 	c #393939",
"u 	c #737373",
"v 	c #A7A7A7",
"w 	c #C9C9C9",
"x 	c #D2D2D2",
"y 	c #8D8D8D",
"z 	c #494949",
"A 	c #242424",
"B 	c #0C0C0C",
"C 	c #070707",
"D 	c #171717",
"E 	c #2E2E2E",
"F 	c #5B5B5B",
"G 	c #A6A6A6",
"H 	c #DDDDDD",
"I 	c #EFEFEF",
"J 	c #BABABA",
"K 	c #686868",
"L 	c #2C2C2C",
"M 	c #0D0D0D",
"N 	c #7D7D7D",
"O 	c #C4C4C4",
"P 	c #EEEEEE",
"Q 	c #E8E8E8",
"R 	c #ACACAC",
"S 	c #565656",
"T 	c #050505",
"U 	c #181818",
"V 	c #191919",
"W 	c #5C5C5C",
"X 	c #DBDBDB",
"Y 	c #E7E7E7",
"Z 	c #9A9A9A",
"` 	c #3E3E3E",
" .	c #1C1C1C",
"..	c #404040",
"+.	c #545454",
"@.	c #676767",
"#.	c #757575",
"$.	c #797979",
"%.	c #727272",
"&.	c #636363",
"*.	c #383838",
"=.	c #292929",
"-.	c #828282",
";.	c #D5D5D5",
">.	c #EAEAEA",
",.	c #979797",
"'.	c #303030",
").	c #515151",
"!.	c #8F8F8F",
"~.	c #C1C1C1",
"{.	c #E0E0E0",
"].	c #D3D3D3",
"^.	c #B2B2B2",
"/.	c #6F6F6F",
"(.	c #0F0F0F",
"_.	c #232323",
":.	c #747474",
"<.	c #BCBCBC",
"[.	c #F5F5F5",
"}.	c #EDEDED",
"|.	c #2F2F2F",
"1.	c #1B1B1B",
"2.	c #E9E9E9",
"3.	c #464646",
"4.	c #1A1A1A",
"5.	c #C5C5C5",
"6.	c #323232",
"7.	c #121212",
"8.	c #4D4D4D",
"9.	c #9C9C9C",
"0.	c #CECECE",
"a.	c #333333",
"b.	c #BEBEBE",
"c.	c #C7C7C7",
"d.	c #080808",
"e.	c #616161",
"f.	c #E2E2E2",
"g.	c #131313",
"h.	c #696969",
"i.	c #595959",
"j.	c #6D6D6D",
"k.	c #A5A5A5",
"l.	c #525252",
"m.	c #C8C8C8",
"n.	c #606060",
"o.	c #373737",
"p.	c #ABABAB",
"q.	c #5A5A5A",
"r.	c #B1B1B1",
"s.	c #D1D1D1",
"t.	c #656565",
"u.	c #9B9B9B",
"v.	c #282828",
"w.	c #838383",
"x.	c #CDCDCD",
"y.	c #5D5D5D",
"z.	c #A4A4A4",
"A.	c #D7D7D7",
"B.	c #202020",
"C.	c #A3A3A3",
"D.	c #818181",
"E.	c #111111",
"F.	c #B3B3B3",
"G.	c #434343",
"H.	c #8A8A8A",
"I.	c #D0D0D0",
"J.	c #767676",
"K.	c #717171",
"L.	c #E1E1E1",
"M.	c #626262",
"N.	c #949494",
"O.	c #BBBBBB",
"P.	c #4B4B4B",
"Q.	c #BDBDBD",
"R.	c #353535",
"S.	c #424242",
"T.	c #666666",
"U.	c #161616",
"V.	c #1E1E1E",
"W.	c #898989",
"X.	c #CCCCCC",
"Y.	c #B5B5B5",
"Z.	c #A8A8A8",
"`.	c #DFDFDF",
" +	c #272727",
".+	c #E6E6E6",
"++	c #919191",
"@+	c #2A2A2A",
"#+	c #989898",
"$+	c #535353",
"%+	c #585858",
"&+	c #DCDCDC",
"*+	c #999999",
"=+	c #909090",
"-+	c #555555",
";+	c #EBEBEB",
">+	c #C6C6C6",
",+	c #C3C3C3",
"'+	c #474747",
")+	c #DEDEDE",
"!+	c #939393",
"~+	c #707070",
"{+	c #E4E4E4",
"]+	c #5E5E5E",
"^+	c #9E9E9E",
"/+	c #2D2D2D",
"(+	c #969696",
"_+	c #848484",
":+	c #2B2B2B",
"<+	c #AFAFAF",
"[+	c #CACACA",
"}+	c #A0A0A0",
"|+	c #AEAEAE",
"1+	c #7A7A7A",
"2+	c #888888",
"3+	c #CBCBCB",
"4+	c #E5E5E5",
"5+	c #222222",
"6+	c #252525",
"7+	c #6A6A6A",
"8+	c #3B3B3B",
"9+	c #3F3F3F",
"0+	c #8B8B8B",
"a+	c #878787",
"b+	c #3D3D3D",
"c+	c #9D9D9D",
"d+	c #858585",
"e+	c #777777",
"f+	c #C2C2C2",
"g+	c #787878",
"h+	c #363636",
"i+	c #4A4A4A",
"j+	c #929292",
". + @ # . . . . . . . . . . $ $ . . % @ # . $ $ # & + . . # # $ * % . . . . . . . . . . . . # # . + = - # . + & + # . # + # . . # $ # . . . ",
"; * # # . . . . . . . . . . . = > , & & = + . & - @ @ - . . . . ' ) ! ~ { ] ^ / ( _ : < [ } . . . % * + . & $ + & $ # . # + # . . . . . . . ",
"@ & # . . . . . . . . . . . . & | , & # $ + $ % % + . . 1 2 3 4 5 6 7 8 9 0 a b c 9 d e f _ g < h . . . . + & % $ + . . . # + + # . . . . . ",
"# + - . . . . . . . . . . . + % % = & # . # @ * . . i j k l m n n c o p p p o p p b q q n r s t u v w } . . & = + . . . . . # + + # . . . . ",
". & ; . . . . . . . . . . . % = + # $ & + # $ $ - x y z A B p p p o p o o p o p b C c p p p p 0 D E F G H = . # # . + $ # . . # + + . . . . ",
"& = % # . . . . . . . . . . + % $ # + = = . . I J K L a p p o a c c p p o o b b o b q o p p a o p p M 6 N O P + . . + % & # . . # + # . . . ",
"@ & . & # . . . . . . . . . . # $ & + $ % # Q R S r p p o q o o a c T T B U d d U 9 C a q o p p b q p p V W < X & . . & % $ # . . # . . . . ",
"= . . @ + . . . . . . . . . # # + % & . . Y Z ` c p p p q c a r  .L ..^ +.@.#.$.%.&.] *.=.8 T p p o q p p p =.-.;.@ + . . $ + . # + # . . . ",
". # . & + . . . . . . . . . + & + + . . >.,.'.p p o 0 c o c d ).!.~.{.@ = % @ @ % % @ ].^./.'.r b 0 (.C o p p _.:.<.>.# . & & # . + # . . . ",
"[.}.. . . . . . . . . . . . . = | = . P Z |.p a B a p p 1.@.J 2.| [.# $ # . . . . . . $ , I ' ,.3.r p b C a p p 4.&.5.+ . % % # . . . . . . ",
"& = . . . . . . . . . . . . # & % # * ^.6.c p n 7.p M 8.9.X & . . . # $ # . . . . . . . . . + }.0.!.a.p p T q p p 4.&.b.* . # & = # . . . . ",
". . . . . . . . . . . . . . # + . + c.).a p C d.d.V e.[ }.# # $ + + + . . . . . . . . . . $ + . # i G 8.T o a o p a ^ j = . . $ = # . . . . ",
". . . . . . . . . . . . . . . . # f.N 9 p p 0 T g.h.5.- . * [.% . $ & # . . . . . . . . . + % - [.= ; b.i.s p p p (.j.>.. $ $ $ + . . . . . ",
". . . . . . . . . . . . . . . . > k.*.p p p b (.l.m.= + # & - = . # = + . . . . . . . . . . - P , . . = x n.8 p a o.p.. . % = $ . # . . . . ",
". . . . . . . . . . . . . . . . x q.C o o q p 6 r.= % | * # $ & # # & # . . . . . . . . . + = [., * . . . s.t.9 U : Y + + & & # # $ # . . . ",
". . . . . . . . . . . . . . . }.u.v.p T a b 4.w., & ; , - % # . $ % + . . . . . . . . . . + $ = @ @ $ @ # . c.i./ [ . * * + . . # % + . . . ",
". . . . . . . . . . . . . . . x.5 M p o a o y.x . , & . & - & . $ - + . . . . . . . . . . . & * & . % } + . % w z.A.. * - + . . # % + . . . ",
". . . . . . . . . . . . . . . R B.p C p o 4.C.. # @ % # $ * = + . + % + . . . . . . . . . . # + + # . + # [.% & } } % # $ . $ $ . $ # . . . ",
". . . . . . . . . . . . . . Q D.E.p d.T d.q.x . . $ I }.- $ $ + . # - $ . . . . . . . . . % & $ @ [.+ . + % * + # | , . . . & & . . . . . . ",
". . . . . . . . . . . . . . F.G.M b q p (.< * . & % [.[.& . # $ = - % # . . . . . . . . . + % * * = & , + . % - - - , [.# + $ # . . . . . . ",
". . . . + # # + # . # # . . H.s d.c p C o.I.. & & & . . . . . + = - . . . . . . . . # + + . $ % + . $ | + . + @ ; & % [.# & + . # % + . . . ",
". . . . $ # $ & + . + $ . . J.c a c o 4.K.i . = . . . . . . . . . . . . . . # # . . # $ $ # # # . # # # # # . + % $ # # + = $ . + - $ . . . ",
". . . . # . + & $ . . # + L.M.q p q o A N.}.. $ . . . . . . . . . . . . . # $ $ + # . # # . . . . . . . . . . . . # + % = * & # . # # . . . ",
". . . . . . + & + . . . % O.P.a p b b '.Q.= . + $ # . . . . . . . . . . . # $ & + . . . . . . . . . . . . . . + & & + + + + # + $ . . . . . ",
". . . . $ # + % $ . . . $ 9.R.a p q b S.f.. # + & # . . . . . . . . . . . # # # # . . . $ + # # # # # # # # # + $ + . # & $ $ * - $ . . . . ",
". . . . = $ + $ $ # . . . 3 A b p b a +.>.. + # + . . . . . . . . . . + # . . . # + + . & $ # # # # # # # # # + $ # . $ @ & $ * * # . . . . ",
". . . . % & # # + + . . . J.s p p p B T.1 . + # . . . . . . . . . . . = $ # . + % = $ # + + # # # # # # # # . $ * $ . + & + # + + $ # . . . ",
". . . . + # . . # + # . . @.d.p p o U.J.P . $ + . . . . . . . . . . . $ + . # & * = # . . . . . . . . . . . . # + # . . # = = + % | & . . . ",
". . . . . . . . # + $ # . F p p p b V.-.> . + # . . . . . . . . . . . . . . # $ % $ . . % . . . . . . . . . . . . . . . . & % $ & [.$ . . . ",
". . . . . # # # . # $ + . l.p p p q A W.} . . # + . . . . . . . . . . # # . # # . . . % I X.2 ^.Y.Y.Y.Y.Y.Y.Y.[ F.Z.[ `.% . # + . + # . . . ",
". . . . . & % $ . . # # . ( p p p q  +y | . . $ = # . . . . . . . . . % $ # # # # # + I .+y.p p p p p p p p p p p p  +++}.. $ $ + - & . . . ",
". . . . . % = + . . + # . ( p p p q v.y | . . $ = # . . . . . . . . . # . . . # % @ # # `.q.n p q a p p o p p p p q @+#+, . # # . + # . . . ",
". . . . . & & + . # & . . $+p p p q A W.} . . # + . . . . . . . . . . . # + # . & * . . X %+0 p a c b p o b o o p a L Z ; . # # . # . . . . ",
". . . . . + + # . + & . . W p p p b V.-.> . + # . . . . . . . . . . . . # $ $ # # $ . # &+$+c p p p p p p o q q o a L *+, . # # . # . . . . ",
". . . . . . . . . + $ . . @.C p p o s J.P . + # . . . . . . . . . . . . # & % $ . . . # L.n.7.d.B d.B B M q p q o a L *+, . # # . # . . . . ",
". . . . # . . . . # + . . u 7.p p o B T.1 . + # . . . . . . . . . . . . # & % $ . . . . Q =+F $+S -+q.5 5  .p o o a L *+, . # # . # . . . . ",
". . . . # . # + . . . . . -.B.b p b T +.;+. + # + . . . . . . . . . . + # + & + . # + . I ;.>+,+O 5.m.5.>+'+b p p a L *+, . # # . # . . . . ",
". . . . . . + & + . . . . *+a.a p b b S.{.. . + & # . . . . . . . . . $ # # $ + . + % . * . . . . . . . . W p p p a L *+, . # # . # . . . . ",
". . . . . . + % $ . . . # J f a p b b '.Q.= . + $ # . . . . . . . . . + # + $ + . + = . . . # + $ $ + # . ( p o o a L *+, . # # . # . . . . ",
". . . . . . + & + # $ + . )+n.a p b o _.!+1 . + . . . . . . . . . . . # . + & + . + = . . + $ = , , * = . l.p T b q L *+, . # # . # . . . . ",
". . . . . . + $ + $ - @ . * ~+c c c o  .:.{+. * . . . . . . . . . . . . . & = & . + % + # @ @ & % = . . . 8.p o o a L *+, . # # . # . . . . ",
". . . . . . . . . # $ + . . y 7.p C q q o.5.. = ; = . . . # . # % @ . . . # + # . . + . . + + # # # . . . l p p p a E u.; . $ + . + # . . . ",
". . . . . . . . . . . . . . F.` a o c p D *+} . = & - @ $ . # + $ = @ + . . . . . . . . . & & # . & - & . ] p b p a |.u.; . + # . # . . . . ",
". . . . . . . . . . . . . . H :.E.p a p d.]+s.. # + [.[.& + $ $ . + ; $ . . . . . . . . . & $ # + * , & . ).p q p a E u.; . # . . # . . . . ",
". . . . . . . . . . . . . . + k. +p o p o A ^+= . * = & $ % % # . + % # . . . . . . . . . + # # $ = = # . ( p o p a /+*+, . . . . # . . . . ",
". . . . . . . . . . . . . . . w 8.T p o p b ]+0.& , & . $ * & . + & . . . . . . . . . . . $ $ # + $ # . . 8.p b p a L (+, . . . . # . . . . ",
". . . . . . . . . . . . . . . {+3 V.p c o p V._+.+- @ = % % + # $ & $ . . . . . . . . . . % = + . + & . . $+p q o q :+(+, . . . # + # . . . ",
". . . . . . . . . . . . . . . + ,+'+a M b p p a.<+- @ } = # # $ + # @ + . . . . . . . . . $ * % + & @ . . %+p p p a L ,., . # . # $ # . . . ",
". . . . . . . . . . . . . . . . 1 (+=.b p b p d.( [+@ . . + @ = . # @ + . . . . . . . . . . = ; = . . % s.S.p p p a E u.; . $ + . + # . . . ",
". . . . . . . . . . . . . . $ + . {.h.p p p b p E.5 J @ . ; [.$ . . # . . . . . . . . . . + * @ # . 1 p.).(.c r o a a.}+; . & $ . . . . . . ",
". . . . . . . . . . . . . . # + . = 2 ` b p q o o E.] |+, . . & & . $ . . . . . . . . . . + # . . ' 1+*.9 0 0 T p p :+u.; . % & . . . . . . ",
". . . . . . . . . . . . . . . & @ + P #+ +p p a q p (...2+3+$ . . . $ @ % # . . . . . . . . . A.u.W 7 B p T C p p 7 /.w % . & $ . . . . . . ",
". . . . . . . . . . . . . . # * ; & . {.D.=.b p q b o b d n.G x 4+@ . . . . . . . . . + I h Y.:.L a b 0 q a b q 5+~ c.@ . . + $ + # . . . . ",
". . . . . . . . . . . . . . = @ % & # . f.! 6+p p o T q o 9 :+5 W.[ h `.{+Q Q Q Q {+)+O C.7+8+m 0 p p q b d.d.v.u ~.} . . . # + $ + # . . . ",
". . . . . . . . . . . . . . = = . # $ . . ].#.v.0 o q T b p p d.5+9++.{ ~+! H.0+-.%.e.3.e (.p p a T o p o 9 t a+].[.+ . # # . . # + # . . . ",
". . . . . . . . . . . . . . # & % + . + = % A.k b+B p p p a a o p p p p b 8 A A 8 b p p p p p q C T p o 7 -+) i . . . & % # . . . . . . . . ",
". . . . . . . . . . . . . . . & [.= . % | & . .+c+z  .T p p p b C 0 a r T b o o p p o b q b o a C d.r '.d+' - & . . $ - - + . # + # . . . . ",
". . . . . . . . . . . . . . # $ = = $ . + # . # } c.e+|.9 c b p p b r a o p b T c q o a d.C q o C 7 n.f+P + . . . . $ = & # . $ = # . . . . ",
". . . . . . . . . . . . . . % = + + % & . # ; @ . & {+f+d+` d.p p o p p p p p b o p p p p p c *.w.f+`.& $ . % @ $ . # # . . # % = # . . . . ",
". . . . . . . . . . . . . . + $ . . & - @ + % - - = . . .+Q.#+g+%+h+V.n o p p p p o D e i+j.j+<.Y . # # % + $ = % + . # + . # & & # . . . . ",
". . . . . . . . . . . . . . . # $ $ $ = - $ . $ [.- % # . . . > w < !.$.~ _ { { _ /._+C.b..+. . . = [.& + + # $ % + . + % # . + $ # . . . . ",
". . . . . . . . . . . . . . . $ * = + . # # . . # # . # + # . . $ * $ & @ [.- = % % * * $ . . $ & + # . # # + $ $ # . # & # . # $ + # . . . ",
". . . . . . . . . . . . . . . # + # # . . . . . . . . . # # . . . . . . . . . . . . . . . . . # # # . . . . . # . . . . # . . . # # . . . . ",
". . . . . . . . . . . . . . . . . . . . . . . . . . . . . . . . . . . . . . . . . . . . . . . . . . . . . . . . . . . . . . . . . . . . . . ",
". . . . . . . . . . . . . . . . . . . . . . . . . . . . . . . . . . . . . . . . . . . . . . . . . . . . . . . . . . . . . . . . . . . . . . ",
". . . . . . . . . . . . . . . . . . . . . . . . . . . . . . . . . . . . . . . . . . . . . . . . . . . . . . . . . . . . . . . . . . . . . . ",
". . . . . . . . . . . . . . . . . . . . . . . . . . . . . . . . . . . . . . . . . . . . . . . . . . . . . . . . . . . . . . . . . . . . . . ",
". . . . . . . . . . . . . . . . . . . . . . . . . . . . . . . . . . . . . . . . . . . . . . . . . . . . . . . . . . . . . . . . . . . . . . ",
". . . . . . . . . . . . . . . . . . . . . . . . . . . . . . . . . . . . . . . . . . . . . . . . . . . . . . . . . . . . . . . . . . . . . . ",
". . . . . . . . . . . . . . . . . . . . . . . . . . . . . . . . . . . . . . . . . . . . . . . . . . . . . . . . . . . . . . . . . . . . . . "};
