/* XPM */
static const char * BigH_xpm[] = {
"70 70 147 2",
"  	c None",
". 	c #FCFCFC",
"+ 	c #FEFEFE",
"@ 	c #FFFFFF",
"# 	c #FBFBFB",
"$ 	c #F9F9F9",
"% 	c #F3F3F3",
"& 	c #F7F7F7",
"* 	c #FAFAFA",
"= 	c #FDFDFD",
"- 	c #F8F8F8",
"; 	c #D1D1D1",
"> 	c #8B8B8B",
", 	c #6E6E6E",
"' 	c #767676",
") 	c #777777",
"! 	c #7A7A7A",
"~ 	c #9D9D9D",
"{ 	c #E6E6E6",
"] 	c #F6F6F6",
"^ 	c #CDCDCD",
"/ 	c #999999",
"( 	c #7D7D7D",
"_ 	c #797979",
": 	c #6A6A6A",
"< 	c #A3A3A3",
"[ 	c #E8E8E8",
"} 	c #AFAFAF",
"| 	c #3A3A3A",
"1 	c #070707",
"2 	c #0F0F0F",
"3 	c #121212",
"4 	c #545454",
"5 	c #D5D5D5",
"6 	c #F4F4F4",
"7 	c #ABABAB",
"8 	c #454545",
"9 	c #111111",
"0 	c #030303",
"a 	c #5D5D5D",
"b 	c #D4D4D4",
"c 	c #A6A6A6",
"d 	c #292929",
"e 	c #000000",
"f 	c #050505",
"g 	c #4D4D4D",
"h 	c #D6D6D6",
"i 	c #A9A9A9",
"j 	c #313131",
"k 	c #525252",
"l 	c #D0D0D0",
"m 	c #A7A7A7",
"n 	c #2C2C2C",
"o 	c #020202",
"p 	c #585858",
"q 	c #DBDBDB",
"r 	c #ADADAD",
"s 	c #373737",
"t 	c #595959",
"u 	c #D3D3D3",
"v 	c #0C0C0C",
"w 	c #DADADA",
"x 	c #ACACAC",
"y 	c #393939",
"z 	c #010101",
"A 	c #2B2B2B",
"B 	c #040404",
"C 	c #0A0A0A",
"D 	c #D9D9D9",
"E 	c #B0B0B0",
"F 	c #3D3D3D",
"G 	c #A8A8A8",
"H 	c #080808",
"I 	c #575757",
"J 	c #D2D2D2",
"K 	c #060606",
"L 	c #2D2D2D",
"M 	c #5A5A5A",
"N 	c #363636",
"O 	c #5B5B5B",
"P 	c #B1B1B1",
"Q 	c #383838",
"R 	c #D8D8D8",
"S 	c #B2B2B2",
"T 	c #2F2F2F",
"U 	c #565656",
"V 	c #0B0B0B",
"W 	c #090909",
"X 	c #DCDCDC",
"Y 	c #636363",
"Z 	c #E5E5E5",
"` 	c #BCBCBC",
" .	c #444444",
"..	c #4F4F4F",
"+.	c #C0C0C0",
"@.	c #E2E2E2",
"#.	c #E1E1E1",
"$.	c #DFDFDF",
"%.	c #E0E0E0",
"&.	c #9F9F9F",
"*.	c #434343",
"=.	c #F2F2F2",
"-.	c #A4A4A4",
";.	c #2A2A2A",
">.	c #0D0D0D",
",.	c #1A1A1A",
"'.	c #464646",
").	c #505050",
"!.	c #4E4E4E",
"~.	c #4A4A4A",
"{.	c #181818",
"].	c #F5F5F5",
"^.	c #A5A5A5",
"/.	c #AAAAAA",
"(.	c #2E2E2E",
"_.	c #252525",
":.	c #262626",
"<.	c #242424",
"[.	c #1B1B1B",
"}.	c #868686",
"|.	c #A1A1A1",
"1.	c #6F6F6F",
"2.	c #101010",
"3.	c #CCCCCC",
"4.	c #EEEEEE",
"5.	c #3E3E3E",
"6.	c #5E5E5E",
"7.	c #DEDEDE",
"8.	c #3C3C3C",
"9.	c #5C5C5C",
"0.	c #606060",
"a.	c #DDDDDD",
"b.	c #3B3B3B",
"c.	c #D7D7D7",
"d.	c #AEAEAE",
"e.	c #353535",
"f.	c #323232",
"g.	c #555555",
"h.	c #989898",
"i.	c #848484",
"j.	c #939393",
"k.	c #949494",
"l.	c #ECECEC",
"m.	c #8F8F8F",
"n.	c #8C8C8C",
"o.	c #929292",
"p.	c #B6B6B6",
". + @ @ @ @ @ @ @ @ @ # . @ + $ % $ @ & # @ @ @ @ @ @ @ @ @ @ @ @ @ @ @ @ @ @ @ @ @ @ $ % * @ @ @ = @ * * = @ @ @ @ @ @ @ @ @ @ @ @ @ @ @ @ ",
"@ @ @ @ @ @ @ @ @ @ @ @ * + @ @ @ @ @ @ - $ = @ @ @ @ @ @ @ @ @ @ @ @ @ @ @ @ @ @ @ @ = . @ @ @ @ @ @ @ @ @ + @ @ @ @ @ @ @ @ @ @ @ @ @ @ @ ",
"@ @ @ @ @ @ @ @ @ @ @ @ ; > , ' ) ! ~ { . = + @ @ @ @ @ @ @ @ @ @ @ @ @ @ @ @ @ @ @ + @ @ ] ^ / ( ' _ : < [ @ @ @ @ @ @ @ @ @ @ @ @ @ @ @ @ ",
"+ @ @ @ @ @ @ @ @ @ @ @ } | 1 2 2 3 4 5 + @ @ @ @ @ @ @ @ @ @ @ @ @ @ @ @ @ @ @ @ @ @ @ @ 6 7 8 3 2 9 0 a b @ @ @ @ @ @ @ @ @ @ @ @ @ @ @ @ ",
"= @ @ @ @ @ @ @ @ @ @ @ c d e e e f g h + + + @ @ @ @ @ @ @ @ @ @ @ @ @ @ @ @ @ @ @ @ @ @ $ i j e e e e k l @ @ @ @ @ @ @ @ @ @ @ @ @ @ @ @ ",
"= + @ @ @ @ @ @ @ @ @ @ m n e o 0 3 p q = # . @ @ @ @ @ @ @ @ @ @ @ @ @ @ @ @ @ @ @ @ @ @ * r s e e o e t u @ @ @ @ @ @ @ @ @ @ @ @ @ @ @ @ ",
"+ @ @ @ @ @ @ @ @ @ @ @ c n e o e v p w = # . @ @ @ @ @ @ @ @ @ @ @ @ @ @ @ @ @ @ @ @ + @ $ x y z e e e t u @ @ @ @ @ @ @ @ @ @ @ @ @ @ @ @ ",
"= + @ @ @ @ @ @ @ @ @ @ c A e B e C a D + @ @ @ @ @ @ @ @ @ @ @ @ @ @ @ @ @ @ @ @ @ @ = @ . E F f z e e t b @ @ @ @ @ @ @ @ @ @ @ @ @ @ @ @ ",
"= + @ @ @ @ @ @ @ @ @ @ G n e H e 1 I ; . @ @ @ @ @ @ @ @ @ @ @ @ @ @ @ @ @ @ @ @ @ @ + @ . } s z 0 z e I J @ @ @ @ @ @ @ @ @ @ @ @ @ @ @ @ ",
"@ @ @ @ @ @ @ @ @ @ @ @ G n e 1 f K p h + @ @ @ @ @ @ @ @ @ @ @ @ @ @ @ @ @ @ @ @ @ + + @ . x j e K o e I J @ @ @ @ @ @ @ @ @ @ @ @ @ @ @ @ ",
"+ @ @ @ @ @ @ @ @ @ @ @ G L e o z K M D @ @ @ @ @ @ @ @ @ @ @ @ @ @ @ @ @ @ @ @ @ @ @ = @ = } N e o z e I J @ @ @ @ @ @ @ @ @ @ @ @ @ @ @ @ ",
"+ @ @ @ @ @ @ @ @ @ @ @ G L e e e K O w @ @ @ @ @ @ @ @ @ @ @ @ @ @ @ @ @ @ @ @ @ @ @ = @ = P y e e z e I J @ @ @ @ @ @ @ @ @ @ @ @ @ @ @ @ ",
"@ @ @ @ @ @ @ @ @ @ @ @ G L e z e K O w @ @ @ @ @ @ @ @ @ @ @ @ @ @ @ @ @ @ @ @ @ @ @ = @ = P Q e e z e I J @ @ @ @ @ @ @ @ @ @ @ @ @ @ @ @ ",
"+ @ @ @ @ @ @ @ @ @ @ @ G L e z e K O w @ @ @ @ @ @ @ @ @ @ @ @ @ @ @ @ @ @ @ @ @ @ @ = @ = P Q e e z e I J @ @ @ @ @ @ @ @ @ @ @ @ @ @ @ @ ",
". + @ @ @ @ @ @ @ @ @ @ G L e z e K O w @ @ @ @ @ @ @ @ @ @ @ @ @ @ @ @ @ @ @ @ @ @ @ = @ = P Q e e z e I J @ @ @ @ @ @ @ @ @ @ @ @ @ @ @ @ ",
"* = @ @ @ @ @ @ @ @ @ @ G L e z e K O w @ @ @ @ @ @ @ @ @ @ @ @ @ @ @ @ @ @ @ @ @ @ @ = @ = P Q e e z e I J @ @ @ @ @ @ @ @ @ @ @ @ @ @ @ @ ",
"* = @ @ @ @ @ @ @ @ @ @ G L e z e K O w @ @ @ @ @ @ @ @ @ @ @ @ @ @ @ @ @ @ @ @ @ @ @ = @ = P Q e e z e I J @ @ @ @ @ @ @ @ @ @ @ @ @ @ @ @ ",
". + @ @ @ @ @ @ @ @ @ @ G L e z e K O w @ @ @ @ @ @ @ @ @ @ @ @ @ @ @ @ @ @ @ @ @ @ @ = @ = P Q e e z e I J @ @ @ @ @ @ @ @ @ @ @ @ @ @ @ @ ",
"@ @ @ @ @ @ @ @ @ @ @ @ G L e z e K O w @ @ @ @ @ @ @ @ @ @ @ @ @ @ @ @ @ @ @ @ @ @ @ = @ = P Q e e z e I J @ @ @ @ @ @ @ @ @ @ @ @ @ @ @ @ ",
"@ @ @ @ @ @ @ @ @ @ @ @ G L e z e K O w @ @ @ @ @ @ @ @ @ @ @ @ @ @ @ @ @ @ @ @ @ @ @ = @ = P Q e e z e I J @ @ @ @ @ @ @ @ @ @ @ @ @ @ @ @ ",
"* = @ @ @ @ @ @ @ @ @ @ m n e e e v M D @ @ + + + + + + + + + + + + + + + + + + + + = # @ = P y e o z e t b @ @ @ @ @ @ @ @ @ @ @ @ @ @ @ @ ",
"] . @ @ @ @ @ @ @ @ @ @ m n e e z 9 I R @ @ = = = = = = = = = = = = = = = = = = = = # # @ = S | e B z e O 5 @ @ @ @ @ @ @ @ @ @ @ @ @ @ @ @ ",
"+ + @ @ @ @ @ @ @ @ @ @ x T e e e H k R @ @ @ @ @ @ @ @ @ @ @ @ @ @ @ @ @ @ @ @ @ @ + + @ . S | e K o e p u @ @ @ @ @ @ @ @ @ @ @ @ @ @ @ @ ",
"@ @ @ @ @ @ @ @ @ @ @ @ 7 T e e e f U D @ @ @ @ @ @ @ @ @ @ @ @ @ @ @ @ @ @ @ @ @ @ . . @ # E | e V f e M b @ @ @ @ @ @ @ @ @ @ @ @ @ @ @ @ ",
". @ @ @ @ @ @ @ @ @ @ @ m n e 0 0 W a X @ @ + @ @ @ @ @ @ @ @ @ @ @ @ @ @ @ @ @ @ @ . . @ # E y e f 0 e O 5 @ @ @ @ @ @ @ @ @ @ @ @ @ @ @ @ ",
"+ @ @ @ @ @ @ @ @ @ @ @ c n e 0 0 V Y Z @ @ @ @ @ @ @ @ @ @ @ @ @ @ @ @ @ @ @ @ @ @ @ @ @ @ `  .z 0 e e p u @ @ @ @ @ @ @ @ @ @ @ @ @ @ @ @ ",
". + @ @ @ @ @ @ @ @ @ @ m n e 0 z K ..+.@.#.$.$.$.$.$.$.$.$.$.$.$.$.$.$.$.$.$.$.$.$.$.%.@.w &.*.V 1 o e I J @ @ @ @ @ @ @ @ @ @ @ @ @ @ @ @ ",
"=.# @ @ @ @ @ @ @ @ @ @ -.;.e >.C z ,.'.).!.g !.!.!.!.!.!.!.!.!.!.!.!.!.!.!.!.!.!.!.g !...~.N {.K f B e I J @ @ @ @ @ @ @ @ @ @ @ @ @ @ @ @ ",
"].. @ @ @ @ @ @ @ @ @ @ ^.;.e V H e e e e e e e e e e e e e e e e e e e e e e e e e e e e e e e e f B e I J @ @ @ @ @ @ @ @ @ @ @ @ @ @ @ @ ",
"= + @ @ @ @ @ @ @ @ @ @ G L e e z 0 e e e e z z z z z z z z z z z z z z z z z z z z B 0 z z o z z f 0 e p u @ @ @ @ @ @ @ @ @ @ @ @ @ @ @ @ ",
"] # @ @ @ @ @ @ @ @ @ @ G L e 0 H C e e e e e e e e e e e e e e e e e e e e e e e e z z e o f B e e z e O b @ @ @ @ @ @ @ @ @ @ @ @ @ @ @ @ ",
"= + @ @ @ @ @ @ @ @ @ @ m n e 0 H H e B 0 z z z z z z z z z z z z z z z z z z z z z z z z 0 0 z B e e e p u @ @ @ @ @ @ @ @ @ @ @ @ @ @ @ @ ",
"+ @ @ @ @ @ @ @ @ @ @ @ /.(.e e z z B _.j n :.<._._._._._._._._._._._._._._._._._._._.<._.d [.0 e e K e p u @ @ @ @ @ @ @ @ @ @ @ @ @ @ @ @ ",
"+ @ @ @ @ @ @ @ @ @ @ @ 7 T e o 0 v s }.i x G c c c c c c c c c c c c c c c c c c c c ^.m |.1.d 1 e 0 e p u @ @ @ @ @ @ @ @ @ @ @ @ @ @ @ @ ",
"+ @ @ @ @ @ @ @ @ @ @ @ G L e z 0 2.M 3.=.].% =.=.=.=.=.=.=.=.=.=.=.=.=.=.=.=.=.=.=.% =.6 4.G 5.1 e o e p u @ @ @ @ @ @ @ @ @ @ @ @ @ @ @ @ ",
"+ @ @ @ @ @ @ @ @ @ @ @ c n e o e C 6.7.@ @ @ @ @ @ @ @ @ @ @ @ @ @ @ @ @ @ @ @ @ @ @ @ @ @ S 8.z e B e t b @ @ @ @ @ @ @ @ @ @ @ @ @ @ @ @ ",
"+ @ @ @ @ @ @ @ @ @ @ @ G L e f e f 9.q + = = @ + + + + + + + + + + + + + + + + + @ . . @ # E | e e 0 e t u @ @ @ @ @ @ @ @ @ @ @ @ @ @ @ @ ",
"+ @ @ @ @ @ @ @ @ @ @ @ i L e K e 1 0.a.+ . . + = = = = = = = = = = = = = = = = = + = * + * P 5.o e e e p u @ @ @ @ @ @ @ @ @ @ @ @ @ @ @ @ ",
"+ @ @ @ @ @ @ @ @ @ @ @ ^.A e e e 1 0.q @ @ . . . . . . . . . . . . . . . . . . = = * ].$ ] x b.B o e e M b @ @ @ @ @ @ @ @ @ @ @ @ @ @ @ @ ",
"+ @ @ @ @ @ @ @ @ @ @ @ /.(.e 0 e 1 6.5 = @ @ @ @ @ @ @ @ @ @ @ @ @ @ @ @ @ @ @ @ @ @ @ @ = S 8.B 1 z e p u @ @ @ @ @ @ @ @ @ @ @ @ @ @ @ @ ",
"+ @ @ @ @ @ @ @ @ @ @ @ -.;.e z e H O ; . @ + = = = = = = = = = = = = = = = = = = = = + @ . i T e f z e I J @ @ @ @ @ @ @ @ @ @ @ @ @ @ @ @ ",
"= + @ @ @ @ @ @ @ @ @ @ m n e z e H O c.+ @ @ @ @ @ @ @ @ @ @ @ @ @ @ @ @ @ @ @ @ @ @ = @ . d.e.e z z e I J @ @ @ @ @ @ @ @ @ @ @ @ @ @ @ @ ",
"+ @ @ @ @ @ @ @ @ @ @ @ G L e z e 1 O w @ @ @ @ @ @ @ @ @ @ @ @ @ @ @ @ @ @ @ @ @ @ @ = @ = P y e e z e I J @ @ @ @ @ @ @ @ @ @ @ @ @ @ @ @ ",
"+ @ @ @ @ @ @ @ @ @ @ @ G L e z e K O w @ @ @ @ @ @ @ @ @ @ @ @ @ @ @ @ @ @ @ @ @ @ @ = @ = P y e e z e I J @ @ @ @ @ @ @ @ @ @ @ @ @ @ @ @ ",
"+ @ @ @ @ @ @ @ @ @ @ @ G L e z e K O w @ @ @ @ @ @ @ @ @ @ @ @ @ @ @ @ @ @ @ @ @ @ @ = @ = P Q e e z e I J @ @ @ @ @ @ @ @ @ @ @ @ @ @ @ @ ",
"+ @ @ @ @ @ @ @ @ @ @ @ G L e z e K O w @ @ @ @ @ @ @ @ @ @ @ @ @ @ @ @ @ @ @ @ @ @ @ = @ = P Q e e z e I J @ @ @ @ @ @ @ @ @ @ @ @ @ @ @ @ ",
"= + @ @ @ @ @ @ @ @ @ @ G L e z e K O w @ @ @ @ @ @ @ @ @ @ @ @ @ @ @ @ @ @ @ @ @ @ @ = @ = P Q e e z e I J @ @ @ @ @ @ @ @ @ @ @ @ @ @ @ @ ",
". + @ @ @ @ @ @ @ @ @ @ G L e z e K O w @ @ @ @ @ @ @ @ @ @ @ @ @ @ @ @ @ @ @ @ @ @ @ = @ = P Q e e z e I J @ @ @ @ @ @ @ @ @ @ @ @ @ @ @ @ ",
"= + @ @ @ @ @ @ @ @ @ @ G L e z e K O w @ @ @ @ @ @ @ @ @ @ @ @ @ @ @ @ @ @ @ @ @ @ @ = @ = P Q e e z e I J @ @ @ @ @ @ @ @ @ @ @ @ @ @ @ @ ",
"@ @ @ @ @ @ @ @ @ @ @ @ G L e z e K O w @ @ @ @ @ @ @ @ @ @ @ @ @ @ @ @ @ @ @ @ @ @ @ = @ = P Q e e z e I J @ @ @ @ @ @ @ @ @ @ @ @ @ @ @ @ ",
"@ @ @ @ @ @ @ @ @ @ @ @ G L e e e K O w @ @ @ @ @ @ @ @ @ @ @ @ @ @ @ @ @ @ @ @ @ @ @ = @ = S y e e z e I J @ @ @ @ @ @ @ @ @ @ @ @ @ @ @ @ ",
"@ @ @ @ @ @ @ @ @ @ @ @ G L e 0 o K M D @ @ @ @ @ @ @ @ @ @ @ @ @ @ @ @ @ @ @ @ @ @ @ + @ . d.e.e 0 o e I J @ @ @ @ @ @ @ @ @ @ @ @ @ @ @ @ ",
"+ @ @ @ @ @ @ @ @ @ @ @ G n e 1 0 K p 5 = @ @ @ @ @ @ @ @ @ @ @ @ @ @ @ @ @ @ @ @ @ @ + @ . x f.e f o e I J @ @ @ @ @ @ @ @ @ @ @ @ @ @ @ @ ",
"= + @ @ @ @ @ @ @ @ @ @ G n e 1 e 1 p J = @ @ @ @ @ @ @ @ @ @ @ @ @ @ @ @ @ @ @ @ @ @ + @ . } s e 0 z e I J @ @ @ @ @ @ @ @ @ @ @ @ @ @ @ @ ",
"= + @ @ @ @ @ @ @ @ @ @ c A e f e C O c.+ @ @ @ @ @ @ @ @ @ @ @ @ @ @ @ @ @ @ @ @ @ @ = @ # E 8.B e e e t u @ @ @ @ @ @ @ @ @ @ @ @ @ @ @ @ ",
"@ @ @ @ @ @ @ @ @ @ @ @ c A e o e v M q + = = @ @ @ @ @ @ @ @ @ @ @ @ @ @ @ @ @ @ @ @ = @ * r b.o e e e t b @ @ @ @ @ @ @ @ @ @ @ @ @ @ @ @ ",
"+ @ @ @ @ @ @ @ @ @ @ @ m n e o z 2.g.w # * . @ @ @ @ @ @ @ @ @ @ @ @ @ @ @ @ @ @ @ @ @ @ $ x s e e o e t u @ @ @ @ @ @ @ @ @ @ @ @ @ @ @ @ ",
"+ @ @ @ @ @ @ @ @ @ @ @ m n e e z 2 g.D + @ @ @ @ @ @ @ @ @ @ @ @ @ @ @ @ @ @ @ @ @ @ @ @ * r s e e o e I J @ @ @ @ @ @ @ @ @ @ @ @ @ @ @ @ ",
"+ @ @ @ @ @ @ @ @ @ @ @ x A e e e e  .l + @ @ @ @ @ @ @ @ @ @ @ @ @ @ @ @ @ @ @ @ @ + @ @ =.-.| o e e e g l @ @ @ @ @ @ @ @ @ @ @ @ @ @ @ @ ",
"+ @ @ @ @ @ @ @ @ @ @ @ h h.i.j.j.k.P l.* # = @ @ @ @ @ @ @ @ @ @ @ @ @ @ @ @ @ @ @ @ @ @ - 5 c m.n.o.> p.l.@ @ @ @ @ @ @ @ @ @ @ @ @ @ @ @ ",
"+ @ @ @ @ @ @ @ @ @ @ + - & @ @ @ @ @ @ - $ = @ @ @ @ @ @ @ @ @ @ @ @ @ @ @ @ @ @ @ @ . * = @ + @ @ @ @ @ @ @ @ @ @ @ @ @ @ @ @ @ @ @ @ @ @ ",
"= + @ @ @ @ @ @ @ @ @ = = @ @ = - + @ $ # + @ @ @ @ @ @ @ @ @ @ @ @ @ @ @ @ @ @ @ @ @ * ].# @ @ @ @ @ + = + @ @ @ @ @ @ @ @ @ @ @ @ @ @ @ @ ",
"+ @ @ @ @ @ @ @ @ @ @ + @ @ @ + = = @ + @ @ @ @ @ @ @ @ @ @ @ @ @ @ @ @ @ @ @ @ @ @ @ + = + @ @ @ @ @ = + @ @ @ @ @ @ @ @ @ @ @ @ @ @ @ @ @ ",
"@ @ @ @ @ @ @ @ @ @ @ @ @ @ @ @ @ @ @ @ @ @ @ @ @ @ @ @ @ @ @ @ @ @ @ @ @ @ @ @ @ @ @ @ @ @ @ @ @ @ @ @ @ @ @ @ @ @ @ @ @ @ @ @ @ @ @ @ @ @ ",
"@ @ @ @ @ @ @ @ @ @ @ @ @ @ @ @ @ @ @ @ @ @ @ @ @ @ @ @ @ @ @ @ @ @ @ @ @ @ @ @ @ @ @ @ @ @ @ @ @ @ @ @ @ @ @ @ @ @ @ @ @ @ @ @ @ @ @ @ @ @ ",
"@ @ @ @ @ @ @ @ @ @ @ @ @ @ @ @ @ @ @ @ @ @ @ @ @ @ @ @ @ @ @ @ @ @ @ @ @ @ @ @ @ @ @ @ @ @ @ @ @ @ @ @ @ @ @ @ @ @ @ @ @ @ @ @ @ @ @ @ @ @ ",
"@ @ @ @ @ @ @ @ @ @ @ @ @ @ @ @ @ @ @ @ @ @ @ @ @ @ @ @ @ @ @ @ @ @ @ @ @ @ @ @ @ @ @ @ @ @ @ @ @ @ @ @ @ @ @ @ @ @ @ @ @ @ @ @ @ @ @ @ @ @ ",
"@ @ @ @ @ @ @ @ @ @ @ @ @ @ @ @ @ @ @ @ @ @ @ @ @ @ @ @ @ @ @ @ @ @ @ @ @ @ @ @ @ @ @ @ @ @ @ @ @ @ @ @ @ @ @ @ @ @ @ @ @ @ @ @ @ @ @ @ @ @ ",
"@ @ @ @ @ @ @ @ @ @ @ @ @ @ @ @ @ @ @ @ @ @ @ @ @ @ @ @ @ @ @ @ @ @ @ @ @ @ @ @ @ @ @ @ @ @ @ @ @ @ @ @ @ @ @ @ @ @ @ @ @ @ @ @ @ @ @ @ @ @ ",
"@ @ @ @ @ @ @ @ @ @ @ @ @ @ @ @ @ @ @ @ @ @ @ @ @ @ @ @ @ @ @ @ @ @ @ @ @ @ @ @ @ @ @ @ @ @ @ @ @ @ @ @ @ @ @ @ @ @ @ @ @ @ @ @ @ @ @ @ @ @ "};
