/* XPM */
static const char * BigI_xpm[] = {
"70 70 72 1",
" 	c None",
".	c #FFFFFF",
"+	c #F8F8F8",
"@	c #F6F6F6",
"#	c #FEFEFE",
"$	c #F1F1F1",
"%	c #FCFCFC",
"&	c #FBFBFB",
"*	c #FAFAFA",
"=	c #FDFDFD",
"-	c #F9F9F9",
";	c #F7F7F7",
">	c #9D9D9D",
",	c #777777",
"'	c #757575",
")	c #797979",
"!	c #939393",
"~	c #C6C6C6",
"{	c #F2F2F2",
"]	c #4F4F4F",
"^	c #131313",
"/	c #0D0D0D",
"(	c #0E0E0E",
"_	c #111111",
":	c #3B3B3B",
"<	c #9E9E9E",
"[	c #393939",
"}	c #000000",
"|	c #2B2B2B",
"1	c #9B9B9B",
"2	c #3E3E3E",
"3	c #040404",
"4	c #020202",
"5	c #010101",
"6	c #333333",
"7	c #F4F4F4",
"8	c #424242",
"9	c #050505",
"0	c #343434",
"a	c #9A9A9A",
"b	c #F5F5F5",
"c	c #474747",
"d	c #060606",
"e	c #373737",
"f	c #A1A1A1",
"g	c #434343",
"h	c #030303",
"i	c #2D2D2D",
"j	c #969696",
"k	c #3F3F3F",
"l	c #303030",
"m	c #989898",
"n	c #404040",
"o	c #313131",
"p	c #2F2F2F",
"q	c #979797",
"r	c #464646",
"s	c #353535",
"t	c #444444",
"u	c #363636",
"v	c #999999",
"w	c #A2A2A2",
"x	c #F3F3F3",
"y	c #454545",
"z	c #949494",
"A	c #A8A8A8",
"B	c #8B8B8B",
"C	c #8E8E8E",
"D	c #909090",
"E	c #929292",
"F	c #A7A7A7",
"G	c #D2D2D2",
"............................+@#$%.&*=...@==%#.........................",
"...........................#--.=........;=%%===.......................",
"...........................%&=#+>,'')!~{*#==#%%.......................",
".........................#%%#..@]^/(_:<@#.&&===.......................",
".........................#%=##.+[}}}}|1=%=--%##.......................",
".........................#=#%*.+234536>*7+*%==#.......................",
".........................%*=&;.+895}90a+b+#.=-&.......................",
".........................-7&=*.+cd}}9ef..=#=-b;.......................",
".............................#.+g944hij.%7@&=#........................",
"..........................=7;.=+k9}}hlm..=#&-&........................",
"..........................=+*..+k9}}hla....=&%........................",
"..........................#&%..+n9}}hl1....=%=........................",
"..........................#&%..+n9}}hl1....=%#........................",
"..........................#&%..+n9}}hl1....=%#........................",
"..........................#&%..+n9}}hl1....=%#........................",
"..........................#&%..+n9}}hl1....=%#........................",
"..........................#&%..+n9}}hl1....=%#........................",
"..........................#&%..+n9}}hl1....=%#........................",
"..........................#&%..+n9}}hl1....=%#........................",
"..........................#&%..+n9}}hl1....=%#........................",
"..........................#&%..+n9}}hl1....=%#........................",
"..........................#&%..+n9}}hl1....=%#........................",
"..........................#&%..+n9}}hl1....=%#........................",
"..........................#&%..+n9}}hl1....=%#........................",
"..........................#&%..+n9}}hl1....=%#........................",
"..........................#&%..+n9}}hl1....=%#........................",
"..........................#&%..+n9}}hl1....=%#........................",
"..........................#&%..+n9}}hl1....=%#........................",
"..........................#&%..+n9}}hl1....=%#........................",
"..........................#&%..+n9}}hl1....=%#........................",
"..........................#&%..+n9}}hl1....=%#.....................##.",
"..........................#&%..+n9}}hl1....=%#....................=+-.",
"..........................#&%..+n9}}hl1....=%#....................#%=#",
"..........................#&%..+n9}}hl1....=%#......................%&",
"..........................#&%..+n9}}hl1....=%#......................&-",
"..........................#&%..+n9}}hl1....=%#......................&-",
"..........................#&%..+n9}}hl1....=%#......................=*",
"..........................#&%..+n9}}hl1....=%#....................#&&=",
"..........................#&%..+n9}}hl1....=%#....................#+-.",
"..........................#&%..+n9}}hl1....=%#......................#.",
"..........................#&%..+n9}}hl1....=%#......................&-",
"..........................#&%..+n9}}hl1....=%#....................#==+",
"..........................#&%..+n9}}hl1....=%#.......................&",
"..........................#&%..+n9}}hl1....=%#.......................#",
"..........................#&%..+n9}}hl1....=%#......................#.",
"..........................#&%..+n9}}hl1....=%#.....................=%=",
"..........................#&%..+n9}}hl1....=%#.....................%**",
"..........................#&%..+n9}}hl1....=%#.....................#%&",
"..........................#&%..+n9}}hl1....=%#......................#%",
"..........................#&%..+n9}}hl1....=%#.......................#",
"..........................#&%..+n9}}hl1....=%#......................=%",
"..........................=@+.#+k9}}hoa....%*&......................==",
"..........................=@+.=+k9}}hpq.#&=&*%........................",
".........................#=%==.+8955hpm.=;+&%%#.......................",
".........................&@%=*.+rd}}9s<.#*&=*;-.......................",
".........................&;&*@.+t9}}9u<=+&#.&;-.......................",
"............................%-.+2344hlv@$@*=..........................",
".........................=&=.#.+23}}46w.=#-+%##.......................",
".........................#=%#.#xy}}}}iz$..%%=#=.......................",
"...........................=&%#*ABCDEFGb*#%=#=%.......................",
"...........................#-+.*-.......@=%%===.......................",
"............................-;#7#..#....+===#.........................",
"............................#=.%..###...#.#...........................",
"......................................................................",
"......................................................................",
"......................................................................",
"......................................................................",
"......................................................................",
"......................................................................",
"......................................................................"};
