/* XPM */
static const char * BigJ_xpm[] = {
"70 70 192 2",
"  	c None",
". 	c #FFFFFF",
"+ 	c #FCFCFC",
"@ 	c #F3F3F3",
"# 	c #FDFDFD",
"$ 	c #F9F9F9",
"% 	c #FAFAFA",
"& 	c #FEFEFE",
"* 	c #F6F6F6",
"= 	c #FBFBFB",
"- 	c #F0F0F0",
"; 	c #E9E9E9",
"> 	c #A8A8A8",
", 	c #797979",
"' 	c #767676",
") 	c #787878",
"! 	c #777777",
"~ 	c #7E7E7E",
"{ 	c #7F7F7F",
"] 	c #7A7A7A",
"^ 	c #7C7C7C",
"/ 	c #7D7D7D",
"( 	c #7B7B7B",
"_ 	c #717171",
": 	c #BBBBBB",
"< 	c #F8F8F8",
"[ 	c #F7F7F7",
"} 	c #D8D8D8",
"| 	c #656565",
"1 	c #131313",
"2 	c #0E0E0E",
"3 	c #101010",
"4 	c #111111",
"5 	c #141414",
"6 	c #121212",
"7 	c #090909",
"8 	c #8B8B8B",
"9 	c #ECECEC",
"0 	c #DADADA",
"a 	c #595959",
"b 	c #000000",
"c 	c #858585",
"d 	c #E0E0E0",
"e 	c #606060",
"f 	c #030303",
"g 	c #020202",
"h 	c #010101",
"i 	c #050505",
"j 	c #040404",
"k 	c #898989",
"l 	c #EDEDED",
"m 	c #DBDBDB",
"n 	c #5D5D5D",
"o 	c #888888",
"p 	c #D2D2D2",
"q 	c #636363",
"r 	c #161616",
"s 	c #0F0F0F",
"t 	c #0B0B0B",
"u 	c #0C0C0C",
"v 	c #151515",
"w 	c #070707",
"x 	c #080808",
"y 	c #989898",
"z 	c #646464",
"A 	c #585858",
"B 	c #5B5B5B",
"C 	c #565656",
"D 	c #4F4F4F",
"E 	c #535353",
"F 	c #505050",
"G 	c #4E4E4E",
"H 	c #575757",
"I 	c #555555",
"J 	c #282828",
"K 	c #060606",
"L 	c #8A8A8A",
"M 	c #E3E3E3",
"N 	c #E6E6E6",
"O 	c #EBEBEB",
"P 	c #EAEAEA",
"Q 	c #E7E7E7",
"R 	c #DFDFDF",
"S 	c #E5E5E5",
"T 	c #EEEEEE",
"U 	c #D3D3D3",
"V 	c #878787",
"W 	c #2B2B2B",
"X 	c #F5F5F5",
"Y 	c #929292",
"Z 	c #292929",
"` 	c #232323",
" .	c #8C8C8C",
"..	c #242424",
"+.	c #F1F1F1",
"@.	c #F4F4F4",
"#.	c #EFEFEF",
"$.	c #D9D9D9",
"%.	c #E4E4E4",
"&.	c #B4B4B4",
"*.	c #393939",
"=.	c #191919",
"-.	c #1B1B1B",
";.	c #6D6D6D",
">.	c #CECECE",
",.	c #B1B1B1",
"'.	c #303030",
").	c #0D0D0D",
"!.	c #494949",
"~.	c #D0D0D0",
"{.	c #181818",
"].	c #0A0A0A",
"^.	c #909090",
"/.	c #343434",
"(.	c #2D2D2D",
"_.	c #CDCDCD",
":.	c #757575",
"<.	c #B9B9B9",
"[.	c #3E3E3E",
"}.	c #C2C2C2",
"|.	c #E2E2E2",
"1.	c #C5C5C5",
"2.	c #ABABAB",
"3.	c #F2F2F2",
"4.	c #202020",
"5.	c #A5A5A5",
"6.	c #1D1D1D",
"7.	c #808080",
"8.	c #B2B2B2",
"9.	c #353535",
"0.	c #454545",
"a.	c #BABABA",
"b.	c #A3A3A3",
"c.	c #3F3F3F",
"d.	c #B6B6B6",
"e.	c #707070",
"f.	c #D4D4D4",
"g.	c #CACACA",
"h.	c #4C4C4C",
"i.	c #848484",
"j.	c #BDBDBD",
"k.	c #434343",
"l.	c #979797",
"m.	c #6E6E6E",
"n.	c #404040",
"o.	c #3B3B3B",
"p.	c #C3C3C3",
"q.	c #9E9E9E",
"r.	c #626262",
"s.	c #DCDCDC",
"t.	c #C9C9C9",
"u.	c #A9A9A9",
"v.	c #BCBCBC",
"w.	c #1A1A1A",
"x.	c #5C5C5C",
"y.	c #B7B7B7",
"z.	c #A2A2A2",
"A.	c #444444",
"B.	c #AAAAAA",
"C.	c #C4C4C4",
"D.	c #828282",
"E.	c #323232",
"F.	c #3A3A3A",
"G.	c #ADADAD",
"H.	c #666666",
"I.	c #5A5A5A",
"J.	c #E8E8E8",
"K.	c #DDDDDD",
"L.	c #1C1C1C",
"M.	c #2F2F2F",
"N.	c #8D8D8D",
"O.	c #414141",
"P.	c #515151",
"Q.	c #818181",
"R.	c #6F6F6F",
"S.	c #AEAEAE",
"T.	c #252525",
"U.	c #727272",
"V.	c #A7A7A7",
"W.	c #4D4D4D",
"X.	c #D7D7D7",
"Y.	c #1F1F1F",
"Z.	c #B3B3B3",
"`.	c #3D3D3D",
" +	c #959595",
".+	c #545454",
"++	c #737373",
"@+	c #C8C8C8",
"#+	c #676767",
"$+	c #616161",
"%+	c #6C6C6C",
"&+	c #8F8F8F",
". . . . . . . . . . . . . . . . . . . . . . + @ # . . . . . . . . . . . . . . . . . . . . . . . . # $ % & . . . . . . . . . . & * = . . = - ",
". . . . . . . . . . . . . . . . . . . . . . # $ . ; > , ' ) ! ) , , ~ { ] ! ! ^ / ] ! , ( ! , _ : @ . + = < . . . . . . . . . & < # + = + [ ",
". . . . . . . . . . . . . . . . . . . . . . & # . } | 1 2 3 3 3 4 4 1 5 4 3 3 6 1 4 3 4 6 3 3 7 8 9 . . = [ . . . . . . . . . & % & $ [ + & ",
". . . . . . . . . . . . . . . . . . . . . . # < . 0 a b b b b b b b b b b b b b b b b b b b b b c 9 . # # + . . . . . . . . . & % & = $ # & ",
". . . . . . . . . . . . . . . . . . . . . . + @ . d e f b g h b b g h b b h h b b b f i f h j b k l . < # . . . . . . . . . . & % # # # & $ ",
". . . . . . . . . . . . . . . . . . . . . . # < . m n f b h b h f i g b b b b b h g f f f j g b o 9 . < # . . . . . . . . . . . + + + & & $ ",
". . . . . . . . . . . . . . . . . . . . . . . . . p q 6 7 2 2 3 r r s t s s u 2 v 5 w g x w h b 8 l . & & . . . . . . . . . . . . = < % & . ",
". . . . . . . . . . . . . . . . . . . . . . & % [ 0 y z A B C D E A F D a A G H z I J K b h f b L l & [ # . . . . . . . . . . . . = # . + $ ",
". . . . . . . . . . . . . . . . . . . . . . . & & = l M N O P Q ; P N N O ; R S T U V W b h x b 8 l . % & + . . . . . . . . . . . $ + + X * ",
". . . . . . . . . . . . . . . . . . . . . . . . . . . . . . . . . . . . . . . . . - Y Z b h j b 8 l . & . & . . . . . . . . . . . # & # % = ",
". . . . . . . . . . . . . . . . . . . . . . . . . . . . . . . . . . . & & . . . . T 8 ` b b h b 8 l . . . . . . . . . . . . . . . & . . & & ",
". . . . . . . . . . . . . . . . . . . . . . . . . . . . . . . . . . . & # . . . . T  .` b b g b 8 l . & . . . . . . . . . . . . . & . & & & ",
". . . . . . . . . . . . . . . . . . . . . . . . . . . . . . . . . . . & # . . . . T  ...b b g b 8 l . & . . . . . . . . . . . . . & . & # & ",
". . . . . . . . . . . . . . . . . . . . . . . . . . . . . . . . . . . & # . . . . T  .` b b g b 8 l . & . . . . . . . . . . . . . & . & # & ",
". . . . . . . . . . . . . . . . . . . . . . . . . . . . . . . . . . . & # . . . . T  .` b b g b 8 l . & . . . . . . . . . . . . . & . & # & ",
". . . . . . . . . . . . . . . . . . . . . . . . . . . . . . . . . . . & # . . . . T  .` b b g b 8 l . & . . . . . . . . . . . . . & . & # & ",
". . . . . . . . . . . . . . . . . . . . . . . . . . . . . . . . . . . & # . . . . T  .` b b g b 8 l . & . . . . . . . . . . . . . & . & # & ",
". . . . . . . . . . . . . . . . . . . . . . . . . . . . . . . . . . . & # . . . . T  .` b b g b 8 l . & . . . . . . . . . . . . . & . & # & ",
". . . . . . . . . . . . . . . . . . . . . . . . . . . . . . . . . . . & # . . . . T  .` b b g b 8 l . & . . . . . . . . . . . . . & . & # & ",
". . . . . . . . . . . . . . . . . . . . . . . . . . . . . . . . . . . & # . . . . T  .` b b g b 8 l . & . . . . . . . . . . . . . & . & # & ",
". . . . . . . . . . . . . . . . . . . . . . . . . . . . . . . . . . . & # . . . . T  .` b b g b 8 l . & . . . . . . . . . . . . . & . & # & ",
". . . . . . . . . . . . . . . . . . . . . . . . . . . . . . . . . . . & # . . . . T  .` b b g b 8 l . & . . . . . . . . . . . . . & . & # & ",
". . . . . . . . . . . . . . . . . . . . . . . . . . . . . . . . . . . & # . . . . T  .` b b g b 8 l . & . . . . . . . . . . . . . & . & # & ",
". . . . . . . . . . . . . . . . . . . . . . . . . . . . . . . . . . . & # . . . . T  .` b b g b 8 l . & . . . . . . . . . . . . . & . & # & ",
". . . . . . . . . . . . . . . . . . . . . . . . . . . . . . . . . . . & # . . . . T  .` b b g b 8 l . & . . . . . . . . . . . . . & . & # & ",
". . . . . . . . . . . . . . . . . . . . . . . . . . . . . . . . . . . & # . . . . T  .` b b g b 8 l . & . . . . . . . . . . . . . & . & # & ",
". . . . . . . . . . . . . . . . . . . . . . . . . . . . . . . . . . . & # . . . . T  .` b b g b 8 l . & . . . . . . . . . . . . . & . & # & ",
". . . . . . . . . . . . . . . . . . . . . . . . . . . . . . . . . . . & # . . . . T  .` b b g b 8 l . & . . . . . . . . . . . . . & . & # & ",
". . . . . . . . . . . . . . . . . . . . . . . . . . . . . . . . . . . & # . . . . T  .` b b g b 8 l . & . . . . . . . . . . . . . & . & # & ",
". . & & . . . . & & . . & & . . . . . . . & & . . . . . . . . . . . . & # . . . . T  .` b b g b 8 l . & . . . . . . . . . . . . . & . & # & ",
". # < $ . . . . = % # + < < + . . # + & & = < . . . . . . . . . . & . & + & . & . T 8 ` b b g b 8 l . & . . . . . . . . . . . . . & . & # & ",
". & + # & + @ $ = & . . # # & # = < $ # . . # . . . . . . . . . . & . & + & & & . T 8 ` b b g b 8 l . & . . . . . . . . . . . . . & . & # & ",
". . . + = # [ < # # $ $ + # . & # = # & # # . . . . . . . . . . . & . & + & & & . T 8 ` b b g b 8 l . & . . . . . . . . . . . . . & . & # & ",
". . . = $ . & = & + $ % # # . . + # & + $ % . . . . . . . . . . . & . & + & & & . T 8 ` b b g b 8 l . & . . . . . . . . . . . . . & . & # & ",
". . . = $ & # # = = + = % # . . $ = # % < % . . . . . . . . . . . & . & + & & & . T 8 ` b b g b 8 l . & . . . . . . . . . . . . . & . & # & ",
". . . # % $ * & X [ = * +.$ . . % = # + + # & . . . . . . . . . . & . & + & & & . T 8 ` b b g b 8 l . & . . . . . . . . . . . . . & . & # & ",
". & = = # $ @ # @.X % X - $ & . & + = + + $ [ . . . . . . . . . . & . & + & & & . T 8 ` b b g b 8 l . & . . . . . . . . . . . . . & . & # & ",
". & < $ . & < # = < = . . . + . . % * [ < @ #.& . . . . . . . . . & . & + & & & . T 8 ` b b g b 8 l . & . . . . . . . . . . . . . & . & # & ",
". . . & . & * = . 9 $.%.[ l d @ # . + + & . . . . . . . . . . . . & . & + & & & . T 8 ` b b g b 8 l . & . . . . . . . . . . . . . & . & # & ",
". . . = $ # & # . &.*.w =.r -.;.>.< # = + = [ . . . . . . . . . . & . & # . . & . T  ...b b g b 8 l . . . . . . . . . . . . . . . & . & # & ",
". & # # < - & $ . ,.'.b b b ).!.~.# . + % $ # . . . . . . . . . & = # . # $ = & . P ~ {.b ].h b ^.#.. + . # . . . . . . . . . . . & . & # & ",
". . . . = @.. $ . &./.b g f x (._.. . = [ < . . . . . . . . . . . # . # $ $ [ + . Q :.6 b x b b Y - . = . # . . . . . . . . . . . & . & # & ",
". . . . & + & = . <.[.b j j i ).}.& . = $ % # . . . . . . . . . . . & $ $ # $ % . |.| w b g g i y +.. # . . . . . . . . . . . . . & . & # & ",
". . . & . . + # . 1.I t b g i b 2.3.+ # & # + . . . . . . . . . . & = % # & & + . U G b b b j 4.5.3.. & . . . . . . . . . . . . . & . & # & ",
". . # + # . = # . m , 6.b h f b 7.} % . . . & . . . . . . . . . & = = # # % & . $ 8.9.b f b f 0.a.* . & # & . . . . . . . . . . . & . & # & ",
". . + % % . # = . X b./.b i b b c.d.[ . = & . . . . . . . . . . & = & + * [ $ . %./ 6.b j b j e.f.= . # + + . . . . . . . . . . . & . & # & ",
". . & + = # . $ # . g.h.b ].b w f i.S + < + # . . . . . . . . . . . . * +.# $ . j.k.K h f b K l.O . . & + % . . . . . . . . . . . & . & # & ",
". . . & + + . $ = . R m.K b h b b n.2.3.. + = . . . . . . . . . . . X X . . & R ( {.b b b b -.a.$ . . . # % . . . . . . . . . . . & . & # & ",
". . . . & & . # # . 3.> o.b ).b b b E p.& . & . . . . . . . . . . . X * . . [ q./.i b b b t r.s.# & # & # + . . . . . . . . . . . & . & # & ",
". . . # + & < # . = + d ) b i f K b ).B t.. . . . . . . . . . . . & + X % . u.[.].b j x b 2 2.@ . = + & & + . . . . . . . . . . . . . . . . ",
". . . # # & $ & . = . = v.[.b f i h b w.x.y.# . . . # # . . . . & = . & s.z.k.t g f j b ].I R # . # + + # & . . . . . . . . . . . + & # $ % ",
". . . . . . & . . & . . O y 1 b b h x w u A.B._.P . . . . . . . . @.M C.D.E.w b j j b f F.G.< . . . # = + . . . . . . . . . . . . % # # [ * ",
". . . . . . . . . . . . = ~.H.].h j K f g ).(.I.y ~.M %.Q ; J.M K.v.k G L.h b b f b b M.N.R & & # . & + # . . . . . . . . . . . . % = # = $ ",
". . . . . . . . . . . . & @.t.O.r K b i 3 u b 4 M.P.z _ { V Q.R.I.A.` i b b g b h K 6.! R < . < % & . & & . . . . . . . . . . . . = $ = & & ",
". . . . . . . . . . . . . . # S.F s b t 5 t b K b b b f 6 {.4 h b b j i b i t h b T.U._.. . . * $ & . . & . . . . . . . . . . . # + % + & = ",
". . . . . . . . . . . . # + . . V.W.4.s j b b h g b i K h h b h f h 6 6 h b K ).J ) X.. . . . $ = & . & # & . . . . . . . . . & $ # . . # [ ",
". . . . . . . . . . . & < 3.. $ * K.{ Y.b g b f w j g b h K 7 j h h f f h h j O.V.Q & . # . + + & . & + + & . . . . . . . . . & $ & = $ # & ",
". . . . . . . . . . . . # = = 3.# . J.Z.R.(.h b b b b b g j f b b b b b b `. +p @.= < % & & & . . # + + & . . . . . . . . . . . = . < X # . ",
". . . . . . . . . . . . + $ # % + . . $ } G.Q..+'.s b b b b b b s Y.!.++Y v.3.. + X < # . . . . # = = # . . . . . . . . . . . . * + + + = @.",
". . . . . . . . . . . & = < . = # & # + . . 3.@+z.~ ;.#+$+B n %+{ &+v.l . . . + < < = & . & . . # + # . & # . . . . . . . . . . [ % & . + @ ",
". . . . . . . . . . . . . . . * % # . . . . . . # = % $ < [ < % = + & . . & & & . & % = . # . . & # . . # = . . . . . . . . . . . + + & . . ",
". . . . . . . . . . . . . . . # & . . . . . . . . . . . . . . . . . . . . & . . . . & & . & . . & . . . . & . . . . . . . . . . . . & . . . ",
". . . . . . . . . . . . . . . . . . . . . . . . . . . . . . . . . . . . . . . . . . . . . . . . . . . . . . . . . . . . . . . . . . . . . . ",
". . . . . . . . . . . . . . . . . . . . . . . . . . . . . . . . . . . . . . . . . . . . . . . . . . . . . . . . . . . . . . . . . . . . . . ",
". . . . . . . . . . . . . . . . . . . . . . . . . . . . . . . . . . . . . . . . . . . . . . . . . . . . . . . . . . . . . . . . . . . . . . ",
". . . . . . . . . . . . . . . . . . . . . . . . . . . . . . . . . . . . . . . . . . . . . . . . . . . . . . . . . . . . . . . . . . . . . . ",
". . . . . . . . . . . . . . . . . . . . . . . . . . . . . . . . . . . . . . . . . . . . . . . . . . . . . . . . . . . . . . . . . . . . . . ",
". . . . . . . . . . . . . . . . . . . . . . . . . . . . . . . . . . . . . . . . . . . . . . . . . . . . . . . . . . . . . . . . . . . . . . ",
". . . . . . . . . . . . . . . . . . . . . . . . . . . . . . . . . . . . . . . . . . . . . . . . . . . . . . . . . . . . . . . . . . . . . . ",
". . . . . . . . . . . . . . . . . . . . . . . . . . . . . . . . . . . . . . . . . . . . . . . . . . . . . . . . . . . . . . . . . . . . . . "};
