/* XPM */
static const char * BigK_xpm[] = {
"70 70 209 2",
"  	c None",
". 	c #FFFFFF",
"+ 	c #FEFEFE",
"@ 	c #F8F8F8",
"# 	c #FDFDFD",
"$ 	c #FCFCFC",
"% 	c #FBFBFB",
"& 	c #F7F7F7",
"* 	c #E3E3E3",
"= 	c #969696",
"- 	c #787878",
"; 	c #777777",
"> 	c #757575",
", 	c #838383",
"' 	c #A1A1A1",
") 	c #D3D3D3",
"! 	c #F6F6F6",
"~ 	c #F4F4F4",
"{ 	c #FAFAFA",
"] 	c #999999",
"^ 	c #878787",
"/ 	c #7F7F7F",
"( 	c #7C7C7C",
"_ 	c #747474",
": 	c #E2E2E2",
"< 	c #F9F9F9",
"[ 	c #CFCFCF",
"} 	c #404040",
"| 	c #0A0A0A",
"1 	c #101010",
"2 	c #0E0E0E",
"3 	c #1A1A1A",
"4 	c #4C4C4C",
"5 	c #B3B3B3",
"6 	c #F5F5F5",
"7 	c #E8E8E8",
"8 	c #979797",
"9 	c #303030",
"0 	c #181818",
"a 	c #141414",
"b 	c #121212",
"c 	c #131313",
"d 	c #0C0C0C",
"e 	c #2C2C2C",
"f 	c #858585",
"g 	c #DFDFDF",
"h 	c #D6D6D6",
"i 	c #2F2F2F",
"j 	c #000000",
"k 	c #010101",
"l 	c #383838",
"m 	c #B2B2B2",
"n 	c #E5E5E5",
"o 	c #989898",
"p 	c #252525",
"q 	c #050505",
"r 	c #070707",
"s 	c #1D1D1D",
"t 	c #727272",
"u 	c #CCCCCC",
"v 	c #E4E4E4",
"w 	c #060606",
"x 	c #424242",
"y 	c #BBBBBB",
"z 	c #F3F3F3",
"A 	c #2D2D2D",
"B 	c #080808",
"C 	c #0B0B0B",
"D 	c #282828",
"E 	c #818181",
"F 	c #DDDDDD",
"G 	c #3B3B3B",
"H 	c #444444",
"I 	c #BCBCBC",
"J 	c #929292",
"K 	c #343434",
"L 	c #8A8A8A",
"M 	c #E1E1E1",
"N 	c #363636",
"O 	c #434343",
"P 	c #E0E0E0",
"Q 	c #888888",
"R 	c #222222",
"S 	c #020202",
"T 	c #323232",
"U 	c #8F8F8F",
"V 	c #EDEDED",
"W 	c #E7E7E7",
"X 	c #454545",
"Y 	c #BDBDBD",
"Z 	c #D9D9D9",
"` 	c #7E7E7E",
" .	c #232323",
"..	c #040404",
"+.	c #3D3D3D",
"@.	c #ACACAC",
"#.	c #DEDEDE",
"$.	c #464646",
"%.	c #D0D0D0",
"&.	c #696969",
"*.	c #1C1C1C",
"=.	c #474747",
"-.	c #AAAAAA",
";.	c #EBEBEB",
">.	c #353535",
",.	c #BABABA",
"'.	c #D5D5D5",
").	c #595959",
"!.	c #B5B5B5",
"~.	c #F2F2F2",
"{.	c #C3C3C3",
"].	c #5E5E5E",
"^.	c #505050",
"/.	c #BFBFBF",
"(.	c #5B5B5B",
"_.	c #090909",
":.	c #4D4D4D",
"<.	c #B8B8B8",
"[.	c #515151",
"}.	c #545454",
"|.	c #C1C1C1",
"1.	c #B4B4B4",
"2.	c #535353",
"3.	c #0D0D0D",
"4.	c #171717",
"5.	c #5F5F5F",
"6.	c #C0C0C0",
"7.	c #4E4E4E",
"8.	c #030303",
"9.	c #656565",
"0.	c #C5C5C5",
"a.	c #ABABAB",
"b.	c #191919",
"c.	c #717171",
"d.	c #CDCDCD",
"e.	c #7A7A7A",
"f.	c #9C9C9C",
"g.	c #313131",
"h.	c #E6E6E6",
"i.	c #F1F1F1",
"j.	c #3F3F3F",
"k.	c #B6B6B6",
"l.	c #9B9B9B",
"m.	c #F0F0F0",
"n.	c #3E3E3E",
"o.	c #ECECEC",
"p.	c #BEBEBE",
"q.	c #909090",
"r.	c #151515",
"s.	c #8E8E8E",
"t.	c #414141",
"u.	c #1B1B1B",
"v.	c #0F0F0F",
"w.	c #2A2A2A",
"x.	c #DADADA",
"y.	c #9A9A9A",
"z.	c #868686",
"A.	c #707070",
"B.	c #202020",
"C.	c #A7A7A7",
"D.	c #161616",
"E.	c #ADADAD",
"F.	c #EEEEEE",
"G.	c #8C8C8C",
"H.	c #6C6C6C",
"I.	c #111111",
"J.	c #CECECE",
"K.	c #6F6F6F",
"L.	c #D2D2D2",
"M.	c #AEAEAE",
"N.	c #D4D4D4",
"O.	c #2B2B2B",
"P.	c #D7D7D7",
"Q.	c #7D7D7D",
"R.	c #7B7B7B",
"S.	c #898989",
"T.	c #A4A4A4",
"U.	c #2E2E2E",
"V.	c #959595",
"W.	c #EFEFEF",
"X.	c #555555",
"Y.	c #A5A5A5",
"Z.	c #797979",
"`.	c #3C3C3C",
" +	c #E9E9E9",
".+	c #494949",
"++	c #C9C9C9",
"@+	c #C2C2C2",
"#+	c #606060",
"$+	c #C4C4C4",
"%+	c #636363",
"&+	c #6B6B6B",
"*+	c #EAEAEA",
"=+	c #A3A3A3",
"-+	c #919191",
";+	c #939393",
">+	c #737373",
",+	c #1F1F1F",
"'+	c #9D9D9D",
")+	c #D1D1D1",
"!+	c #A6A6A6",
"~+	c #616161",
"{+	c #585858",
"]+	c #373737",
"^+	c #B7B7B7",
"/+	c #A9A9A9",
"(+	c #8D8D8D",
"_+	c #1E1E1E",
":+	c #AFAFAF",
". . . . . . . . . + @ # $ % $ & & $ * = - ; > , ' ) @ . + % % . . . . . . . . . + ! ~ @ $ + # { $ # ] ^ / ; ( / - _ ] : . . . . . . . . . . ",
". . . . . . . . . + { + < & $ + . . [ } | 1 2 3 4 5 6 . # $ . . . . . . . . . . . . ~ { . + # $ 7 8 9 3 0 a b c d e f g . . . . . . . . . . ",
". . . . . . . . . + { + % < # + # . h i j j j k l m & . { { . . . . . . . . . . . % % $ + . + n o p k j q r j j s t u ~ + . . . . . . . . . ",
". . . . . . . . . + { # # # + < @ . v l j k j w x y @ . < { . . . . . . . . . . . z $ % $ + n 8 A j k k B C | D E F . . # + . . . . . . . . ",
". . . . . . . . . . $ $ $ + + < & . n G j k j r H I < + < % . . . . . . . . . . . ~ ! { < F J 9 j k w q j r K L M . % { # . . . . . . . . . ",
". . . . . . . . . . . % @ { + . . . g N j k j w O I < % & $ . . . . . . . . . . . . 6 < P Q R j S k S S r T U V . ! ~ ! $ . . . . . . . . . ",
". . . . . . . . . . . % # . $ < % . W G j S k r X Y < + # . + . . . . . . . . . . . % Z `  .j S r ..j j +.@.! . @ + . . . . . . . . . . . . ",
". . . . . . . . . . . < $ $ 6 ! $ . #.N j k j r $.y @ . + % { . . . . . . . . . . . %.&.*.j j j S j j =.-.;.. $ < + . % % # . . . . . . . . ",
". . . . . . . . . . . # + # { % + . #.>.j k j r H ,.@ . . # # . . $ % # . + < & . '.).a j j k k j j x !.~.. . + + . . + # + . . . . . . . . ",
". . . . . . . . . . . + . . + + . . P N j k j r O y @ . . . $ < . # % # + + . @ {.].1 k q q k j S ^.!.~ . . . . . . . . . . . . . . . . . . ",
". . . . . . . . . . . + . + + + . . M N j k j r O y @ . . . % ! + . + # + . ! /.(._.j r C q j 2 :.I & . . . . . . . . . . . . . . . . . . . ",
". . . . . . . . . . . + . + # + . . M N j k j r O y @ . . . # $ $ + . # . ~ <.[.c j j q ..k c }.|.! $ + . . . . . . . . . . . . . . . . . . ",
". . . . . . . . . . . + . + # + . . M N j k j r O y @ . . . + . % % # . z 1.2.3.j k w S j 4.5.6.& . @ # . . . . . . . . . . . . . . . . . . ",
". . . . . . . . . . . + . + # + . . M N j k j r O y @ . . . + + $ @ . ! m 7.| j 8.j ..j 0 9.0.$ $ % # . . . . . . . . . . . . . . . . . . . ",
". . . . . . . . . . . + . + # + . . M N j k j r O y @ . . . + + . . & a.$._.j k _.k j b.c.d.{ . + z % . . . . . . . . . . . . . . . . . . . ",
". . . . . . . . . . . + . + # + . . M N j k j r O y @ . . . + . . + ' G B j j k S j 3.e.h < . . % z ~ $ . . . . . . . . . . . . . . . . . . ",
". . . . . . . . . . . + . + # + . . M N j k j r O y @ . . . # $ % o N r j 8.r r j j U M & % + % ! & $ . . . . . . . . . . . . . . . . . . . ",
". . . . . . . . . . . + . + # + . . M N j k j w H y @ . . . . & f.g...j 8...8.8.2 e.h.. $ $ $ ! i.$ ! $ . . . . . . . . . . . . . . . . . . ",
". . . . . . . . . . . + . + # + . . M N j j j _.j.k.@ . # . i.l.i ..S q q j j 3 - m.# # + . # @ ! . ! % . . . . . . . . . . . . . . . . . . ",
". . . . . . . . . . . + . + # + . . M N j k j | n.!.& . . o.o s j j w r j j  .e.z . . . . . . . . . . . . . . . . . . . . . . . . . . . . . ",
". . . . . . . . . . . + . + # + . . M N j 8.j r =.p.{ + i.q.r.j k k S j j D s.< . . . . . . . . . . . . . . . . . . . . . . . . . . . . . . ",
". . . . . . . . . . . + . + # + . . M N j S j B t.,.{ M - u.j S v.q j j w.U o.. ~ . . . . . . . . . . . . . . . . . . . . . . . . . . . . . ",
". . . . . . . . . . . + . + # + . . M N j 8...r n.<.x.( s j ..B d j j G y.h.. # 6 . . . . . . . . . . . . . . . . . . . . . . . . . . . . . ",
". . . . . . . . . . . + . + # + . . M N j w ..w n.z.A.B.S 8.8.C k k n.C.o.# % . + . . . . . . . . . . . . . . . . . . . . . . . . . . . . . ",
". . . . . . . . . . . + . + # + . . P >.j r k C 9 i D._...k 8.B k G E.F.# $ + . + . . . . . . . . . . . . . . . . . . . . . . . . . . . . . ",
". . . . . . . . . . . + . + # + . . P N j S S 2 1 r k ..8.j S q ..G.m.. % { . $ ! . . . . . . . . . . . . . . . . . . . . . . . . . . . . . ",
". . . . . . . . . . . + . + # + . . M N j j ..B q r q j j S 8.S _.H.[ $ . { < < @ . . . . . . . . . . . . . . . . . . . . . . . . . . . . . ",
". . . . . . . . . . . + . + # + . . M N j S S j | B S k j 8.w k B _.&.d.$ # ! { . . . . . . . . . . . . . . . . . . . . . . . . . . . . . . ",
". . . . . . . . . . . + . + # + . . M N j j j j j S q 8.j ..B ..k j I.&.J.. . + % . $ # . . + + . . . . . . . . . . . . . . . . . . . . . . ",
". . . . . . . . . . . + . + # + . . M N j S ..j j S k 8.I.1 j ..3.S j b.K.L.. . % . W i.# # < { . . # + . . . . . . . . . . . . . . . . . . ",
". . . . . . . . . . . + . + # + . . M N j j 8.C S j 3 ; M.].j j 8.d B ..R _ N.. # F.z ! { + # & z . + . . . . . . . . . . . . . . . . . . . ",
". . . . . . . . . . . + . + # + . . M N j ..| r k O./ P.$ ,.} j ..B w k k  .Q.7 . ~ # # $ + + < ! # . . . . . . . . . . . . . . . . . . . . ",
". . . . . . . . . . . + . + # + . . M N j ..B S 4.R.Z # . z @.G 8.k 8.8.j 8.A S.7 . % $ + % @ < # { + . . . . . . . . . . . . . . . . . . . ",
". . . . . . . . . . . + . + # + . . M N j ..k q n.5 < . . . F.T.D j S r q j q U.V.W.& $ # < 6 < + < + . . . . . . . . . . . . . . . . . . . ",
". . . . . . . . . . . + . + # + . . P >.j w j _.X.{.{ . # < { F.G.s ..B r 8.k r T Y.7 + . { < { { $ . . . . . . . . . . . . . . . . . . . . ",
". . . . . . . . . . . + . + # + . . P >.j r j B :.Y < + & ~.& . F.Z.R ..8.q w 8.j `.5 i.. . # $ { . . . . . . . . . . . . . . . . . . . . . ",
". . . . . . . . . . . + . + # + . . M N j 8...w `.5 @ $ i.! . # .  +A.b.j q B 8.j j ^.,.~ . { @ + . + . . . . . . . . . . . . . . . . . . . ",
". . . . . . . . . . . + . + # + . . M N j 8...d O @.6 . . + # # @ . L.H.0 j d D.j j j ).p.W.~ ~ . . + . . . . . . . . . . . . . . . . . . . ",
". . . . . . . . . . . + . + # + . . P >.j _.j B .+p.< . + $ { # # . . ++].v.j 8.q r j q X.6.$ . { @ + . . . . . . . . . . . . . . . . . . . ",
". . . . . . . . . . . + . + # + . . M N j 8.j r X I @ . . + # . . + . { @+#+v.j B _.S j 3.[.,.. + # @ { # + + + . . . % { $ . . . . . . . . ",
". . . . . . . . . . . + . + # + . . M N j k j r H y @ . . + + . % ! % . ~ <.(.1 j q ..j j 4.5.$+. $ { $ # # # + $ $ . # % # . . . . . . . . ",
". . . . . . . . . . . + . + # + . . M N j k j r O ,.@ . . . + + < 6 < . . F.m 2.w j k S ..q 3 %+%.. . . % < # + { & % + . . . . . . . . . . ",
". . . . . . . . . . . + . + # + . . M N j k j r O y @ . . . + + { % # % $ + o.-.t.q j 8.w k j 0 &+P . . < & # . # & & $ . . . . . . . . . . ",
". . . . . . . . . . . + . + # + . . M N j k j r O y @ . . . + . + . . & ~.{ . *+=+i q S 8.k j j s ( n . # @ { # + % @ @ $ . . . . . . . . . ",
". . . . . . . . . . . + . + # + . . M N j k j r O y @ . . . + . . . . @ i.& . . i.-+p k j k k 8...1 ;+h.. + @ ~ < . # & < + . . . . . . . . ",
". . . . . . . . . . . + . + # + . . M N j k j r O y @ . . . # $ # + + . . + $ + . . >+u.j j S j j q ,+] *+. % V i.+ . { { + . . . . . . . . ",
". . . . . . . . . . . + . + # + . . M N j k j r O y @ . . . $ & + % @ % + + < 6 + # % - c j S S j j j N '+*+. # { $ + $ # . . . . . . . . . ",
". . . . . . . . . . . + . + # + . . M N j k j r O y @ . . . # { . . { < $ # { < . . & F ` ,+j r j S j j n.=+W.. + < & % . . . . . . . . . . ",
". . . . . . . . . . . . . . . . . . M N j k j r O y @ . . . + + . . + # $ $ $ + . % % . )+H.c j S k k j w O !+m.. # # + $ $ . . . . . . . . ",
". . . . . . . . . . . $ + # < { + . F >.j k j r H ,.@ . . # $ . . . . . + # + . . $ % . $ $+~+I.j j j k j w =.!.$ . 6 $ # % # + . . . . . . ",
". . . . . . . . . . . { # # & ! $ . g N j k j r X y @ . + $ % . . . . . . . . . . . % $ . < p.].2 j S k w j _.{+0.# ! @ # # $ + . . . + + + ",
". . . . . . . . . . . { % # % < $ . v l j S k r X I < . # + # . . . . . . . . . . . + + $ . & /.}.B 8.j 2 v.j 3.%+)+% { % + + + . . + # # + ",
". . . . . . . . . . . % < % + + + . : ]+j S k w O y < $ < # . . . . . . . . . . . + + . < @ . % ^+G r j | 3.8.j a &.[ { $ % . . . . + $ $ + ",
". . . . . . . . . . # $ { $ + % { . * ]+j S j w O I < # @ % . . . . . . . . . . . + % + # @ & . < /+U.| q 8.8.S j 2 &+N.% $ . . . . + $ $ + ",
". . . . . . . . . + < # . . # & 6 . n `.j k j w O y @ . < % . . . . . . . . . . . . % { + $ z ~.. + (+>.B j q r 8.j 3.K.x.. + + . . + # # + ",
". . . . . . . . . + < + % < # + + . P.T j j j ..+.!.@ . < { . . . . . . . . . . . . . @ @ $ + { & . m.R._+j S 3.| j j k ( 7 @ { + . . . + + ",
". . . . . . . . . . % . @ 6 # . . . u g.j j j B t.@.~ . + + . . . . . . . . . . . . . # { { + . @ m.. F.E 0 j j j j j j 2 ( ! % $ + . . . + ",
". . . . . . . . . . ! $ $ $ % ~ z $ 7 T.q.q.S.= :+x.{ . + { { . . . . . . . . . . % { + # & ! % + ~.$ . x.=+Q G.= ;+q.] S.:+6 { % + . . . + ",
". . . . . . . . . . & { + . $ z ~.$ . . . . . . . . # % % { { . . . . . . . . . . < { { { < & @ % $ # 6 + . . . . . . . . + @ { # . . . + + ",
". . . . . . . . . . . $ $ + . . . . # . . # $ . . . % & $ . . . . . . . . . . . . $ . < < + . { & . . + . . . { < + . . . . # + . . . + + + ",
". . . . . . . . . . . . + . . . . . + . . + + . . . + # + . . . . . . . . . . . . + . + + . . + # . . . . . . # # + . . . . . . . . . . . . ",
". . . . . . . . . . . . . . . . . . . . . . . . . . . . . . . . . . . . . . . . . . . . . . . . . . . . . . . . . . . . . . . . . . . . . . ",
". . . . . . . . . . . . . . . . . . . . . . . . . . . . . . . . . . . . . . . . . . . . . . . . . . . . . . . . . . . . . . . . . . . . . . ",
". . . . . . . . . . . . . . . . . . . . . . . . . . . . . . . . . . . . . . . . . . . . . . . . . . . . . . . . . . . . . . . . . . . . . . ",
". . . . . . . . . . . . . . . . . . . . . . . . . . . . . . . . . . . . . . . . . . . . . . . . . . . . . . . . . . . . . . . . . . . . . . ",
". . . . . . . . . . . . . . . . . . . . . . . . . . . . . . . . . . . . . . . . . . . . . . . . . . . . . . . . . . . . . . . . . . . . . . ",
". . . . . . . . . . . . . . . . . . . . . . . . . . . . . . . . . . . . . . . . . . . . . . . . . . . . . . . . . . . . . . . . . . . . . . ",
". . . . . . . . . . . . . . . . . . . . . . . . . . . . . . . . . . . . . . . . . . . . . . . . . . . . . . . . . . . . . . . . . . . . . . ",
". . . . . . . . . . . . . . . . . . . . . . . . . . . . . . . . . . . . . . . . . . . . . . . . . . . . . . . . . . . . . . . . . . . . . . ",
". . . . . . . . . . . . . . . . . . . . . . . . . . . . . . . . . . . . . . . . . . . . . . . . . . . . . . . . . . . . . . . . . . . . . . "};
