/* XPM */
static const char * BigL_xpm[] = {
"70 70 96 2",
"  	c None",
". 	c #FFFFFF",
"+ 	c #FDFDFD",
"@ 	c #D4D4D4",
"# 	c #C5C5C5",
"$ 	c #C6C6C6",
"% 	c #D0D0D0",
"& 	c #EAEAEA",
"* 	c #FEFEFE",
"= 	c #FAFAFA",
"- 	c #FCFCFC",
"; 	c #868686",
"> 	c #585858",
", 	c #595959",
"' 	c #5B5B5B",
") 	c #5E5E5E",
"! 	c #7E7E7E",
"~ 	c #BEBEBE",
"{ 	c #F6F6F6",
"] 	c #4B4B4B",
"^ 	c #0D0D0D",
"/ 	c #0F0F0F",
"( 	c #151515",
"_ 	c #3E3E3E",
": 	c #9B9B9B",
"< 	c #F3F3F3",
"[ 	c #3D3D3D",
"} 	c #000000",
"| 	c #010101",
"1 	c #282828",
"2 	c #919191",
"3 	c #F8F8F8",
"4 	c #464646",
"5 	c #030303",
"6 	c #040404",
"7 	c #2D2D2D",
"8 	c #969696",
"9 	c #FBFBFB",
"0 	c #020202",
"a 	c #303030",
"b 	c #414141",
"c 	c #9C9C9C",
"d 	c #454545",
"e 	c #2C2C2C",
"f 	c #959595",
"g 	c #434343",
"h 	c #949494",
"i 	c #2B2B2B",
"j 	c #060606",
"k 	c #353535",
"l 	c #A0A0A0",
"m 	c #424242",
"n 	c #050505",
"o 	c #818181",
"p 	c #CFCFCF",
"q 	c #D8D8D8",
"r 	c #D1D1D1",
"s 	c #D3D3D3",
"t 	c #D6D6D6",
"u 	c #DADADA",
"v 	c #E6E6E6",
"w 	c #F5F5F5",
"x 	c #121212",
"y 	c #373737",
"z 	c #696969",
"A 	c #5F5F5F",
"B 	c #5D5D5D",
"C 	c #616161",
"D 	c #626262",
"E 	c #666666",
"F 	c #636363",
"G 	c #767676",
"H 	c #A7A7A7",
"I 	c #DFDFDF",
"J 	c #111111",
"K 	c #0C0C0C",
"L 	c #0E0E0E",
"M 	c #0A0A0A",
"N 	c #262626",
"O 	c #D5D5D5",
"P 	c #070707",
"Q 	c #686868",
"R 	c #F7F7F7",
"S 	c #444444",
"T 	c #101010",
"U 	c #F9F9F9",
"V 	c #656565",
"W 	c #3A3A3A",
"X 	c #AEAEAE",
"Y 	c #909090",
"Z 	c #929292",
"` 	c #939393",
" .	c #8D8D8D",
"..	c #9A9A9A",
"+.	c #C1C1C1",
"@.	c #ECECEC",
". . . . . . . . . . . . . . . . . . . . . . . . . . . + . . . . . . . . . . . . . . . . . . . . . . . . . . . . . . . . . . . . . . . . . . ",
". . . . . . . . . . . . . . . . . . . @ # $ $ # % & * + = - . . . . . . . . . . . . . . . . . . . . . . . . . . . . . . . . . . . . . . . . ",
". . . . . . . . . . . . . . . . . . . ; > , ' ) ! ~ { - = - . . . . . . . . . . . . . . . . . . . . . . . . . . . . . . . . . . . . . . . . ",
". . . . . . . . . . . . . . . . . . . ] ^ ^ / ( _ : < * * * . . . . . . . . . . . . . . . . . . . . . . . . . . . . . . . . . . . . . . . . ",
". . . . . . . . . . . . . . . . . . . [ } } } | 1 2 3 . . . . . . . . . . . . . . . . . . . . . . . . . . . . . . . . . . . . . . . . . . . ",
". . . . . . . . . . . . . . . . . . . 4 5 } } 6 7 8 9 . + * . . . . . . . . . . . . . . . . . . . . . . . . . . . . . . . . . . . . . . . . ",
". . . . . . . . . . . . . . . . . . . 4 0 } } 6 a : 9 . 9 - . . . . . . . . . . . . . . . . . . . . . . . . . . . . . . . . . . . . . . . . ",
". . . . . . . . . . . . . . . . . . . b | | 0 6 a c 9 . . . . . . . . . . . . . . . . . . . . . . . . . . . . . . . . . . . . . . . . . . . ",
". . . . . . . . . . . . . . . . . . . d 0 | 0 6 e f 9 * * . . . . . . . . . . . . . . . . . . . . . . . . . . . . . . . . . . . . . . . . . ",
". . . . . . . . . . . . . . . . . . . g 0 } } 6 e h 9 - * . . . . . . . . . . . . . . . . . . . . . . . . . . . . . . . . . . . . . . . . . ",
". . . . . . . . . . . . . . . . . . . b | } } 6 e f 9 - + . . . . . . . . . . . . . . . . . . . . . . . . . . . . . . . . . . . . . . . . . ",
". . . . . . . . . . . . . . . . . . . b | } } 6 e f 9 - + . . . . . . . . . . . . . . . . . . . . . . . . . . . . . . . . . . . . . . . . . ",
". . . . . . . . . . . . . . . . . . . b | } } 6 e f 9 - + . . . . . . . . . . . . . . . . . . . . . . . . . . . . . . . . . . . . . . . . . ",
". . . . . . . . . . . . . . . . . . . b | } } 6 e f 9 - + . . . . . . . . . . . . . . . . . . . . . . . . . . . . . . . . . . . . . . . . . ",
". . . . . . . . . . . . . . . . . . . b | } } 6 e f 9 - + . . . . . . . . . . . . . . . . . . . . . . . . . . . . . . . . . . . . . . . . . ",
". . . . . . . . . . . . . . . . . . . b | } } 6 e f 9 - + . . . . . . . . . . . . . . . . . . . . . . . . . . . . . . . . . . . . . . . . . ",
". . . . . . . . . . . . . . . . . . . b | } } 6 e f 9 - + . . . . . . . . . . . . . . . . . . . . . . . . . . . . . . . . . . . . . . . . . ",
". . . . . . . . . . . . . . . . . . . b | } } 6 e f 9 - + . . . . . . . . . . . . . . . . . . . . . . . . . . . . . . . . . . . . . . . . . ",
". . . . . . . . . . . . . . . . . . . b | } } 6 e f 9 - + . . . . . . . . . . . . . . . . . . . . . . . . . . . . . . . . . . . . . . . . . ",
". . . . . . . . . . . . . . . . . . . b | } } 6 e f 9 - + . . . . . . . . . . . . . . . . . . . . . . . . . . . . . . . . . . . . . . . . . ",
". . . . . . . . . . . . . . . . . . . b | } } 6 e f 9 - + . . . . . . . . . . . . . . . . . . . . . . . . . . . . . . . . . . . . . . . . . ",
". . . . . . . . . . . . . . . . . . . b | } } 6 e f 9 - + . . . . . . . . . . . . . . . . . . . . . . . . . . . . . . . . . . . . . . . . . ",
". . . . . . . . . . . . . . . . . . . b | } } 6 e f 9 - + . . . . . . . . . . . . . . . . . . . . . . . . . . . . . . . . . . . . . . . . . ",
". . . . . . . . . . . . . . . . . . . b | } } 6 e f 9 - + . . . . . . . . . . . . . . . . . . . . . . . . . . . . . . . . . . . . . . . . . ",
". . . . . . . . . . . . . . . . . . . b | } } 6 e f 9 - + . . . . . . . . . . . . . . . . . . . . . . . . . . . . . . . . . . . . . . . . . ",
". . . . . . . . . . . . . . . . . . . b | } } 6 e f 9 - + . . . . . . . . . . . . . . . . . . . . . . . . . . . . . . . . . . . . . . . . . ",
". . . . . . . . . . . . . . . . . . . b | } } 6 e f 9 - + . . . . . . . . . . . . . . . . . . . . . . . . . . . . . . . . . . . . . . . . . ",
". . . . . . . . . . . . . . . . . . . b | } } 6 e f 9 - + . . . . . . . . . . . . . . . . . . . . . . . . . . . . . . . . . . . . . . . . . ",
". . . . . . . . . . . . . . . . . . . b | } } 6 e f 9 - + . . . . . . . . . . . . . . . . . . . . . . . . . . . . . . . . . . . . . . . . . ",
". . . . . . . . . . . . . . . . . . . b | } } 6 e f 9 - + . . . . . . . . . . . . . . . . . . . . . . . . . . . . . . . . . . . . . . . . . ",
". . . . . . . . . . . . . . . . . . . b | } } 6 e f 9 - + . . . . . . . . . . . . . . . . . . . . . . . . . . . . . . . . . . . . . . . . . ",
". . . . . . . . . . . . . . . . . . . b | } } 6 e f 9 - + . . . . . . . . . . . . . . . . . . . . . . . . . . . . . . . . . . . . . . . . . ",
". . . . . . . . . . . . . . . . . . . b | } } 6 e f 9 - + . . . . . . . . . . . . . . . . . . . . . . . . . . . . . . . . . . . . . . . . . ",
". . . . . . . . . . . . . . . . . . . b | } } 6 e f 9 - + . . . . . . . . . . . . . . . . . . . . . . . . . . . . . . . . . . . . . . . . . ",
". . . . . . . . . . . . . . . . . . . b | } } 6 e f 9 - + . . . . . . . . . . . . . . . . . . . . . . . . . . . . . . . . . . . . . . . . . ",
". . . . . . . . . . . . . . . . . . . b | } } 6 e f 9 - + . . . . . . . . . . . . . . . . . . . . . . . . . . . . . . . . . . . . . . . . . ",
". . . . . . . . . . . . . . . . . . . b | } } 6 e f 9 - + . . . . . . . . . . . . . . . . . . . . . . . . . . . . . . . . . . . . . . . . . ",
". . . . . . . . . . . . . . . . . . . b | } } 6 e f 9 - + . . . . . . . . . . . . . . . . . . . . . . . . . . . . . . . . . . . . . . . . . ",
". . . . . . . . . . . . . . . . . . . b | } } 6 e f 9 - + . . . . . . . . . . . . . . . . . . . . . . . . . . . . . . . . . . . . . . . . . ",
". . . . . . . . . . . . . . . . . . . b | } } 6 e f 9 - + . . . . . . . . . . . . . . . . . . . . . . . . . . . . . . . . . . . . . . . . . ",
". . . . . . . . . . . . . . . . . . . b | } } 6 e f 9 - + . . . . . . . . . . . . . . . . . . . . . . . . . . . . . . . . . . . . . . . . . ",
". . . . . . . . . . . . . . . . . . . b | } } 6 e f 9 - + . . . . . . . . . . . . . . . . . . . . . . . . . . . . . . . . . . . . . . . . . ",
". . . . . . . . . . . . . . . . . . . b | } } 6 e f 9 - + . . . . . . . . . . . . . . . . . . . . . . . . . . . . . . . . . . . . . . . . . ",
". . . . . . . . . . . . . . . . . . . b | } } 6 e f 9 - + . . . . . . . . . . . . . . . . . . . . . . . . . . . . . . . . . . . . . . . . . ",
". . . . . . . . . . . . . . . . . . . b | } } 6 e f 9 - + . . . . . . . . . . . . . . . . . . . . . . . . . . . . . . . . . . . . . . . . . ",
". . . . . . . . . . . . . . . . . . . b | } } 6 e f 9 - + . . . . . . . . . . . . . . . . . . . . . . . . . . . . . . . . . . . . . . . . . ",
". . . . . . . . . . . . . . . . . . . b | } } 6 e f 9 - + . . . . . . . . . . . . . . . . . . . . . . . . . . . . . . . . . . . . . . . . . ",
". . . . . . . . . . . . . . . . . . . b | } } 6 e f 9 - + . . . . . . . . . . . . . . . . . . . . . . . . . . . . . . . . . . . . . . . . . ",
". . . . . . . . . . . . . . . . . . . b | } } 6 e f 9 - + . . . . . . . . . . . . . . . . . . . . . . . . . . . . . . . . . . . . . . . . . ",
". . . . . . . . . . . . . . . . . . . b | } } 6 i h 9 - + . . . . . . . . . . . . . . . . . . . . . . . . . . . . . . . . . . . . . . . . . ",
"* . . . . . . . . . . . . . . . . . . b | } } j k l . . . . . . . . . . . . . . . . . . . . . . . . . . . . . . * 9 . * . . . . . . . . . . ",
"* . . . * * * . . . . . . . . . . . . m | } } n 7 o p q r % s s s s s s s s s s s s s s s s s s s s t @ u v w + - = . . . . . . . . . . . . ",
"* . . * + + * . . . . . . . . . . . . g | | 5 5 x y ) z A B C D C C C C C C C C C C C C C C C C C C E F G H I + - + * + * . . . . . . . . . ",
". . . * - - * . . . . . . . . . . . . m | | n 6 5 n ^ J / ^ K K K K K K K K K K K K K K K K K K K K L M N G O . + . = 3 - . . . . . . . . . ",
". . . * - - * . . . . . . . . . . . . b | } 6 P 6 } } } } } } } } } } } } } } } } } } } } } } } } } | } / Q s . + * R 3 - . . . . . . . . . ",
"* . . * + + * . . . . . . . . . . . . S 0 } | 5 6 5 } } | 0 0 0 0 0 0 0 0 0 0 0 0 0 0 0 0 0 0 0 0 0 ^ } T E r . U + 3 * . . . . . . . . . . ",
"= * . . . * * * . . . . . . . . . . . m | } } } } } } } } } } } } } } } } } } } } } } } } } } } } } | } / V p . + * 3 + . . . . . . . . . . ",
"9 - * . . . * * * . . . . . . . . . . W } } } } } } } } } } } } } } } } } } } } } } } } } } } } } } } } K V p . * . + . . . . . . . . . . . ",
"= 9 * . . . * * * . . . . . . . . . . X Y Z 8 h Z Z ` h Z 2 2 2 2 2 2 2 2 2 2 2 2 2 2 2 2 2 2 2 2 2 `  ...+.@.. - 9 - U - . . . . . . . . . ",
"= + . . . * * * . . . . . . . . . . . . . . . . . . . . . . . . . . . . . . . . . . . . . . . . . . . . . . . 9 3 U 9 U - . . . . . . . . . ",
"* . . . * * * . . . . . . . . . . . . . . * * . . . . . . . . . . . . . . . . . . . . . . . . . . . . - * . + 3 3 + . . . . . . . . . . . . ",
". . . . . . . . . . . . . . . . . . . . . . * * . . . . . . . . . . . . . . . . . . . . . . . . . . * + * . * + * * . . . . . . . . . . . . ",
". . . . . . . . . . . . . . . . . . . . . . . . . . . . . . . . . . . . . . . . . . . . . . . . . . . . . . . . . . . . . . . . . . . . . . ",
". . . . . . . . . . . . . . . . . . . . . . . . . . . . . . . . . . . . . . . . . . . . . . . . . . . . . . . . . . . . . . . . . . . . . . ",
". . . . . . . . . . . . . . . . . . . . . . . . . . . . . . . . . . . . . . . . . . . . . . . . . . . . . . . . . . . . . . . . . . . . . . ",
". . . . . . . . . . . . . . . . . . . . . . . . . . . . . . . . . . . . . . . . . . . . . . . . . . . . . . . . . . . . . . . . . . . . . . ",
". . . . . . . . . . . . . . . . . . . . . . . . . . . . . . . . . . . . . . . . . . . . . . . . . . . . . . . . . . . . . . . . . . . . . . ",
". . . . . . . . . . . . . . . . . . . . . . . . . . . . . . . . . . . . . . . . . . . . . . . . . . . . . . . . . . . . . . . . . . . . . . ",
". . . . . . . . . . . . . . . . . . . . . . . . . . . . . . . . . . . . . . . . . . . . . . . . . . . . . . . . . . . . . . . . . . . . . . ",
". . . . . . . . . . . . . . . . . . . . . . . . . . . . . . . . . . . . . . . . . . . . . . . . . . . . . . . . . . . . . . . . . . . . . . "};
