/* XPM */
static const char * BigM_xpm[] = {
"70 70 217 2",
"  	c None",
". 	c #FFFFFF",
"+ 	c #FBFBFB",
"@ 	c #F6F6F6",
"# 	c #FAFAFA",
"$ 	c #FEFEFE",
"% 	c #FCFCFC",
"& 	c #F5F5F5",
"* 	c #F8F8F8",
"= 	c #D0D0D0",
"- 	c #808080",
"; 	c #747474",
"> 	c #777777",
", 	c #787878",
"' 	c #757575",
") 	c #767676",
"! 	c #7A7A7A",
"~ 	c #838383",
"{ 	c #B2B2B2",
"] 	c #E5E5E5",
"^ 	c #FDFDFD",
"/ 	c #F2F2F2",
"( 	c #F9F9F9",
"_ 	c #E9E9E9",
": 	c #9D9D9D",
"< 	c #707070",
"[ 	c #7C7C7C",
"} 	c #7E7E7E",
"| 	c #878787",
"1 	c #A7A7A7",
"2 	c #DADADA",
"3 	c #B0B0B0",
"4 	c #232323",
"5 	c #0A0A0A",
"6 	c #101010",
"7 	c #0F0F0F",
"8 	c #111111",
"9 	c #1C1C1C",
"0 	c #616161",
"a 	c #C6C6C6",
"b 	c #F7F7F7",
"c 	c #CCCCCC",
"d 	c #303030",
"e 	c #0D0D0D",
"f 	c #131313",
"g 	c #1D1D1D",
"h 	c #595959",
"i 	c #C2C2C2",
"j 	c #000000",
"k 	c #2F2F2F",
"l 	c #A9A9A9",
"m 	c #F1F1F1",
"n 	c #AAAAAA",
"o 	c #040404",
"p 	c #474747",
"q 	c #C4C4C4",
"r 	c #BABABA",
"s 	c #181818",
"t 	c #060606",
"u 	c #030303",
"v 	c #858585",
"w 	c #DBDBDB",
"x 	c #010101",
"y 	c #050505",
"z 	c #020202",
"A 	c #515151",
"B 	c #B5B5B5",
"C 	c #171717",
"D 	c #080808",
"E 	c #070707",
"F 	c #5A5A5A",
"G 	c #D9D9D9",
"H 	c #B8B8B8",
"I 	c #3A3A3A",
"J 	c #535353",
"K 	c #B1B1B1",
"L 	c #161616",
"M 	c #0B0B0B",
"N 	c #EEEEEE",
"O 	c #919191",
"P 	c #525252",
"Q 	c #B7B7B7",
"R 	c #222222",
"S 	c #6B6B6B",
"T 	c #555555",
"U 	c #CDCDCD",
"V 	c #0C0C0C",
"W 	c #505050",
"X 	c #F4F4F4",
"Y 	c #4B4B4B",
"Z 	c #090909",
"` 	c #545454",
" .	c #CBCBCB",
"..	c #383838",
"+.	c #C5C5C5",
"@.	c #E4E4E4",
"#.	c #151515",
"$.	c #292929",
"%.	c #121212",
"&.	c #1F1F1F",
"*.	c #D6D6D6",
"=.	c #606060",
"-.	c #1B1B1B",
";.	c #494949",
">.	c #343434",
",.	c #0E0E0E",
"'.	c #F0F0F0",
").	c #454545",
"!.	c #404040",
"~.	c #575757",
"{.	c #191919",
"].	c #686868",
"^.	c #2C2C2C",
"/.	c #D2D2D2",
"(.	c #E3E3E3",
"_.	c #888888",
":.	c #262626",
"<.	c #6D6D6D",
"[.	c #8E8E8E",
"}.	c #252525",
"|.	c #676767",
"1.	c #A2A2A2",
"2.	c #939393",
"3.	c #ECECEC",
"4.	c #C8C8C8",
"5.	c #585858",
"6.	c #9A9A9A",
"7.	c #2B2B2B",
"8.	c #BBBBBB",
"9.	c #626262",
"0.	c #CECECE",
"a.	c #7D7D7D",
"b.	c #4C4C4C",
"c.	c #D8D8D8",
"d.	c #AEAEAE",
"e.	c #313131",
"f.	c #323232",
"g.	c #2A2A2A",
"h.	c #5F5F5F",
"i.	c #E0E0E0",
"j.	c #ACACAC",
"k.	c #1A1A1A",
"l.	c #1E1E1E",
"m.	c #696969",
"n.	c #BDBDBD",
"o.	c #282828",
"p.	c #DDDDDD",
"q.	c #666666",
"r.	c #A1A1A1",
"s.	c #CACACA",
"t.	c #5E5E5E",
"u.	c #636363",
"v.	c #979797",
"w.	c #D3D3D3",
"x.	c #9C9C9C",
"y.	c #B6B6B6",
"z.	c #5D5D5D",
"A.	c #B3B3B3",
"B.	c #141414",
"C.	c #6E6E6E",
"D.	c #DFDFDF",
"E.	c #B9B9B9",
"F.	c #5C5C5C",
"G.	c #D5D5D5",
"H.	c #D7D7D7",
"I.	c #929292",
"J.	c #EFEFEF",
"K.	c #B4B4B4",
"L.	c #242424",
"M.	c #ABABAB",
"N.	c #6C6C6C",
"O.	c #A6A6A6",
"P.	c #373737",
"Q.	c #D1D1D1",
"R.	c #4A4A4A",
"S.	c #AFAFAF",
"T.	c #737373",
"U.	c #EDEDED",
"V.	c #E7E7E7",
"W.	c #828282",
"X.	c #464646",
"Y.	c #272727",
"Z.	c #4D4D4D",
"`.	c #444444",
" +	c #212121",
".+	c #999999",
"++	c #8C8C8C",
"@+	c #E6E6E6",
"#+	c #C7C7C7",
"$+	c #2D2D2D",
"%+	c #A8A8A8",
"&+	c #868686",
"*+	c #DEDEDE",
"=+	c #CFCFCF",
"-+	c #202020",
";+	c #EAEAEA",
">+	c #353535",
",+	c #C3C3C3",
"'+	c #5B5B5B",
")+	c #E2E2E2",
"!+	c #A0A0A0",
"~+	c #A5A5A5",
"{+	c #C9C9C9",
"]+	c #E1E1E1",
"^+	c #424242",
"/+	c #DCDCDC",
"(+	c #949494",
"_+	c #7F7F7F",
":+	c #EBEBEB",
"<+	c #BEBEBE",
"[+	c #8A8A8A",
"}+	c #F3F3F3",
"|+	c #656565",
"1+	c #4E4E4E",
"2+	c #959595",
"3+	c #9E9E9E",
"4+	c #8F8F8F",
". . . . . . . . . . . . . + @ # $ . . . . . . . . . . . . . $ % & + . . . . . . . . . . $ $ $ . . . . . . . . . . . . . . $ % + * + . . . . ",
". . . . . . . . . . . . . % # $ $ = - ; > , , ' ) ! > ~ { ] ^ ^ / + . . . . . . . . . . . % ( ( _ : < [ } ) > ! > ) | 1 2 % . $ + ^ . . . . ",
". . . . . . . . . . . . . . . . % 3 4 5 6 6 6 7 7 8 7 9 0 a . $ b + $ . . . . . . . . . . % ( b c d e f f 7 7 8 6 7 g h i . . % ^ . . . . . ",
". . . . . . . . . . . . . $ ^ . % { f j j j j j j j j j k l . % ^ % $ . . . . . . . . . $ ^ $ m n o j j j j j j j j j p q . $ ( ^ . . . . . ",
". . . . . . . . . . . . . % ( ^ ^ r s j t o j u t u j j 6 v . # . ^ $ . . . . . . . . . % $ ^ w , o x x u y o z x j t A c . ^ * % . . . . . ",
". . . . . . . . . . . . . ^ # $ % B C j D t x t E o z j j F G ^ . % $ . . . . . . . . . % . b H I u u y z j x x z j E J c . % * ^ . . . . . ",
". . . . . . . . . . . . . . $ . % K L j o u u M u z o j u I l . . ( % . . . . . . . . . . . N O t t z E o z y u x j t P c . ( * ^ . . . . . ",
". . . . . . . . . . . . . % ( $ % Q C j z x x j j o o x E R - . # ^ . . . . . . . . . . . . 2 S j x x j j u t u z j E T U . % . . . . . . . ",
". . . . . . . . . . . . . ^ % $ % H C j x E V j z z j j j j W & m % . . . . . . . . . . . X Q Y j j E x t Z u j x j E `  .. $ . # + . . . . ",
". . . . . . . . . . . . . $ % $ % H C j o o D 7 y j y 5 u j ..+.N ^ . . $ % % . + . * + . @.~ #.j y z u D E x j x j E J  .. . . ^ ^ . . . . ",
". . . . . . . . . . . . . $ ^ . % H C j y x M $.%.j o Z o j &.v / $ . . $ + % $ ( . & # . *.=.j j o z j -.4 5 j x j E P  .. . . $ . . . . . ",
". . . . . . . . . . . . . . . . % H s j u x #.;.>.,.z z z j t p '.. $ $ $ % % . % . b $ + H ).j j x E j !.~.{.j x j E P  .. . . $ . . . . . ",
". . . . . . . . . . . . . . . . % H s j x j 9 0 ].^.o j z x j &./.+ ^ ^ $ ^ ^ . . . # . (._.:.j j x Z j <.[.}.j x j E P  .. . . $ $ . . . . ",
". . . . . . . . . . . . . . $ ^ ^ r s j x j C |.1.P Z j x x j %.2.3.. $ $ ^ % . . . $ . 4.5.Z j j o u y 6.B 7.j x j E P  .. . . $ $ . . . . ",
". . . . . . . . . . . . . . ^ + ^ 8.s j x j 7 9.0.a.6 j j u y e b.c.^ . $ ^ + ^ . . . . d.e.j j z E j f.4.i g.j x j E P  .. . . $ $ . . . . ",
". . . . . . . . . . . . . . $ % ^ H C j x j ,.h.i.j.e.u j o D E k.q + . . ^ % % . . . m _.l.j x z E j m._ n.o.j x j E P  .. . . $ $ . . . . ",
". . . . . . . . . . . . . . $ $ % B C j j j 6 9.p.G q.8 j x u j D r.'.. . $ ^ ^ ^ . . s.t.6 j u j z x 6.. H :.j x j E P  .. . . $ $ . . . . ",
". . . . . . . . . . . . . . . . % Q C j j j %.u.2 # v.9 j j j j u m.w.+ . ^ . $ % . . x.f.z j x j o >.+.. y.:.j x j E P  .. . . $ $ . . . . ",
". . . . . . . . . . . . . $ % $ ^ r s j j j 6 z.c.. Q e.j j u D x k A.@ $ + . $ + . . ! B.j j j j E C.D.. B }.j x j E P  .. . . $ $ . . . . ",
". . . . . . . . . . . . . ^ + $ ^ E.s j j j 7 F.G.. H.].B.j u Z j D I.J.. % . $ ^ ^ @.F D j z u y 6 n X . K.L.j x j E P  .. . . $ $ . . . . ",
". . . . . . . . . . . . . $ % . % E.s j x j 6 0 G.$ * M.e.j x j j j N.G . . . $ $ $ O.P.o j z y 7 f.w . . K.L.j x j E P  .. . . $ $ . . . . ",
". . . . . . . . . . . . . $ ^ . % E.s j j j 6 9.G $ . Q.R.j u j z j ).S.m . $ % + . T.s j j j x s , U.. . K.}.j x j E P  .. . . $ $ . . . . ",
". . . . . . . . . . . . . $ ^ . % E.s j j j 7 0 2 $ . V.> B.j u x j s W.(.. . $ + X X.o j x j z g.4.# ^ . B }.j x j E P  .. . . $ $ . . . . ",
". . . . . . . . . . . . . $ ^ . % E.s j j j 6 0 c.$ . @ M.I j y j j j h.H.. % . * Q Y.j z y j t Z.b . @ . y.Y.j x j E P  .. . . $ $ . . . . ",
". . . . . . . . . . . . . $ ^ . % E.s j j j 6 0 H.$ . . p.q.j u x u j `.n.. $ . @ ].#.j o o x  +v + % b . y.Y.j x j E P  .. . . $ $ . . . . ",
". . . . . . . . . . . . . $ ^ . % E.s j j j 6 0 G $ $ . ( .+k.j z o j :.++@+. $ N 7.D x u j D X.q $ % % . B :.j x j E P  .. . . $ $ . . . . ",
". . . . . . . . . . . . . $ ^ . % E.s j j j 6 0 G $ $ . . +.W j o u j E ` #+. & 0.8 j x x j ,.<.& ( ^ . . K.L.j x j E P  .. . . $ $ . . . . ",
". . . . . . . . . . . . . $ ^ . % E.s j j j 7 0 2 $ . . $ V._.j u j x j $+%+. _ I.e j z j j ^.6.. * . . . K.L.j x j E P  .. . . $ $ . . . . ",
". . . . . . . . . . . . . $ ^ . % E.s j j j 6 0 c.$ . . $ ^ { #.x z u j -.&+/ *+R.Z j o j 8 z.s.. ^ % $ . K.}.j x j E P  .. . . $ $ . . . . ",
". . . . . . . . . . . . . $ ^ . % E.s j j j 6 9.H.$ . $ . . =+p u y u j 8 t.a = B.u j z j -+_.J.. $ @ + . B }.j x j E P  .. . . $ $ . . . . ",
". . . . . . . . . . . . . $ ^ . % E.s j j j 7 0 2 $ # b % . ;+x.5 j z j u e._.1.j M z z j >+d.. . % $ # . B }.j x j E P  .. . . $ $ . . . . ",
". . . . . . . . . . . . . $ ^ . % E.s j j j 7 0 2 $ % ( ^ . * ,+d y j x z #.`.'+j u j j #.|.=+. $ ( $ # . B }.j x j E P  .. . . $ $ . . . . ",
". . . . . . . . . . . . . $ ^ . % E.s j j j 6 9.H.$ . ^ ^ . . )+S B.x j x y f &.y j o j f.!+X . % * $ ^ . B :.j x j E P  .. . . $ $ . . . . ",
". . . . . . . . . . . . . $ ^ . % E.s j j j 6 9.G.$ . $ + % . X ~+R x j x j z t D j V j Y {+. ^ % ( $ . . B :.j x j E P  .. . . $ $ . . . . ",
". . . . . . . . . . . . . $ ^ . % E.s j j j 6 0 H.$ . $ * # . ^ /.I E z x j u t y j D 8 ' ]+. b ^ % $ . . K.L.j x j E P  .. . . $ $ . . . . ",
". . . . . . . . . . . . . $ ^ . % E.s j j j 7 0 G $ . $ ( # . . '.q.k.u j x t 5 j j j ^+d.X ^ & . ^ % $ . K.L.j x j E P  .. . . $ $ . . . . ",
". . . . . . . . . . . . . $ ^ . % E.s j j j 7 0 w $ ^ $ ^ ^ . . ^ 1.P.t j x y D j j j < *+. # * . # b % . B }.j x j E P  .. . . $ $ . . . . ",
". . . . . . . . . . . . . $ ^ . % E.s j j j 7 0 2 $ % $ . . $ % $ /+~.M j u x o z j j (+X . ^ ^ $ * X + . B :.j x j E P  .. . . $ $ . . . . ",
". . . . . . . . . . . . . $ ^ . % E.s j j j 6 0 G $ ^ $ . . $ + . . _+C j j x y E j ;.n.* . . . $ # + % . B :.j x j E P  .. . . $ $ . . . . ",
". . . . . . . . . . . . . $ ^ . % E.s j j j 6 0 c.$ . . . . $ + + . d.!.E j o j j j r.:+* # $ ^ # $ . ^ . K.}.j x j E P  .. . . $ $ . . . . ",
". . . . . . . . . . . . . $ ^ . % E.s j j j 6 0 G $ . . . . . ^ $ . p.q.M j j j j E 8.+ . ^ $ $ ^ ^ . . . K.L.j x j E P  .. . . $ $ . . . . ",
". . . . . . . . . . . . . $ ^ . % E.s j j j 6 0 G $ . . . . . . . . # <+v > - } - [+)+. . . . $ . ^ . . . K.L.j x j E P  .. . . $ $ . . . . ",
". . . . . . . . . . . . . $ ^ . % E.s j j j 6 0 G $ . . . . . . . . $ & _ @+:+;+:+3.& % . . $ $ . ^ . . . K.L.j x j E P  .. . . $ $ . . . . ",
". . . . . . . . . . . . . $ ^ . % E.s j j j 6 0 G $ . . . . . . . . ( $ . . . . . . @ ( . . $ $ . ^ . . . K.L.j x j E P  .. . . $ $ . . . . ",
". . . . . . . . . . . . . $ ^ . % E.s j j j 6 0 G $ . . . . . . . . # + ^ $ ^ # U.$ ( + $ $ $ $ . ^ . . . K.L.j x j E P  .. . . $ $ . . . . ",
". . . . . . . . . . . . . $ ^ . % E.s j j j 6 0 G $ . . . . . . . . . $ + % $ b @.% . # ( ^ . $ . ^ . . . K.L.j x j E P  .. . . $ $ . . . . ",
". . . . . . . . . . . . . $ ^ . % E.s j j j 6 0 G $ . . . . . . . . . + b # . # }+^ . & X % . $ . ^ . . . K.L.j x j E P  .. . . $ $ . . . . ",
". . . . . . . . . . . . . $ ^ . % E.s j j j 6 0 G $ . . . . . . . . . ^ ( b ( % . . $ $ . $ $ $ . ^ . . . K.L.j x j E P  .. . . $ $ . . . . ",
". . . . . . . . . . . . . $ ^ . % E.s j j j 6 0 G $ . . . . . . . . . . $ $ $ . . . ( # ^ . . $ . ^ . . . K.L.j x j E P  .. . . $ $ . . . . ",
". . . . . . . . . . . . . $ ^ . % E.s j j j 6 0 G $ . . . . . . . . $ ^ . . . + '.$ ^ % ^ . . . . $ . . . K.}.j x j E P  .. . . $ . . . . . ",
"+ . $ . . . . . . . . . . ^ # $ ^ E.s j o j 7 0 G $ . . . . . . . . $ $ . . . + X $ . . . $ % ^ $ * + $ . A.R j x j E J s.. $ . + ^ . . . . ",
"# . . . . . . . . . . . . ^ # $ ^ H s j t z 7 u.2 $ . . . . . . . . . . . . . $ $ . . . . ^ + + $ & b ^ . B :.j x j E `  .. ^ . + % . . . . ",
"^ $ ^ $ . . . . . . . . . . $ . % H C j t x 6 |+w $ . . . . . . . . . . . . . . . . . . . $ + + $ # ( $ . E.^.j x j E ` U . % $ $ $ . . . . ",
". # * % . . . . . . . . . . $ ^ ^ H C x Z j 6 q.w $ . . . . . . . . . . . . . . . . . . . $ + ( + $ ^ $ . Q $.j x j E J c . ( ( $ . . . . . ",
"$ b * % . . . . . . . . . . ^ # ^ E.C x E j 8 ]./+$ . . . . . . . . . . . . . . . . . . $ ^ + # + . ( # . H g.j x j E P c . # b % . . . . . ",
"^ * $ . . . . . . . . . . . ^ + ^ 8.s j x j %.S p.$ . . . . . . . . . . . . . . . . . . % # ^ . $ $ X @ . 8.d j j j E P  .. ^ ( % . . . . . ",
"$ * ^ . . . . . . . . . . $ % ^ ^ r C j x j 7 h.c.$ . . . . . . . . . . . . . . . . . . % + % % b . $ $ . {  +j j j y Y #+. ^ b + . . . . . ",
". ^ . . . . . . . . . . . . . . % l M j j j V A w.^ . . . . . . . . . . . . . . . . . . ^ % ^ # X . . . . j.R j j j ,.1+8.$ . ^ . . . . . . ",
"+ % ( % . . . . . . . . . + & # ^ c.2+[.I.2+3+Q U.$ . . . . . . . . . . . . . . . . . . + ( + ^ + ^ '.@ $ 2 !+4+[.[+.+K.i.^ . ^ ( % . . . . ",
"( + ( % . . . . . . . . . # X @ % . . . . . . . . . . . . . . . . . . . . . . . . . . . % ( # $ . ^ J.& ^ . . . . $ . . . ^ # + ( + . . . . ",
"^ . . . . . . . . . . . . . $ + + ^ . . . . $ + ^ . . . . . . . . . . . . . . . . . . . . $ ^ % $ . . . $ $ . . $ % . . . ( b ^ . . . . . . ",
"$ . . . . . . . . . . . . . . $ $ $ . . $ $ . ^ $ . . . . . . . . . . . . . . . . . . . . . . $ . . . . . $ . . $ $ . . . $ ^ $ . . . . . . ",
". . . . . . . . . . . . . . . . . . . . . . . . . . . . . . . . . . . . . . . . . . . . . . . . . . . . . . . . . . . . . . . . . . . . . . ",
". . . . . . . . . . . . . . . . . . . . . . . . . . . . . . . . . . . . . . . . . . . . . . . . . . . . . . . . . . . . . . . . . . . . . . ",
". . . . . . . . . . . . . . . . . . . . . . . . . . . . . . . . . . . . . . . . . . . . . . . . . . . . . . . . . . . . . . . . . . . . . . ",
". . . . . . . . . . . . . . . . . . . . . . . . . . . . . . . . . . . . . . . . . . . . . . . . . . . . . . . . . . . . . . . . . . . . . . ",
". . . . . . . . . . . . . . . . . . . . . . . . . . . . . . . . . . . . . . . . . . . . . . . . . . . . . . . . . . . . . . . . . . . . . . ",
". . . . . . . . . . . . . . . . . . . . . . . . . . . . . . . . . . . . . . . . . . . . . . . . . . . . . . . . . . . . . . . . . . . . . . ",
". . . . . . . . . . . . . . . . . . . . . . . . . . . . . . . . . . . . . . . . . . . . . . . . . . . . . . . . . . . . . . . . . . . . . . ",
". . . . . . . . . . . . . . . . . . . . . . . . . . . . . . . . . . . . . . . . . . . . . . . . . . . . . . . . . . . . . . . . . . . . . . "};
