/* XPM */
static const char * BigN_xpm[] = {
"70 70 200 2",
"  	c None",
". 	c #FFFFFF",
"+ 	c #FEFEFE",
"@ 	c #FBFBFB",
"# 	c #FAFAFA",
"$ 	c #FDFDFD",
"% 	c #FCFCFC",
"& 	c #F9F9F9",
"* 	c #F6F6F6",
"= 	c #F7F7F7",
"- 	c #F1F1F1",
"; 	c #F4F4F4",
"> 	c #F5F5F5",
", 	c #EFEFEF",
"' 	c #F8F8F8",
") 	c #F2F2F2",
"! 	c #F3F3F3",
"~ 	c #F0F0F0",
"{ 	c #E6E6E6",
"] 	c #EBEBEB",
"^ 	c #EEEEEE",
"/ 	c #E7E7E7",
"( 	c #BABABA",
"_ 	c #3A3A3A",
": 	c #212121",
"< 	c #292929",
"[ 	c #2C2C2C",
"} 	c #242424",
"| 	c #7F7F7F",
"1 	c #DBDBDB",
"2 	c #E9E9E9",
"3 	c #898989",
"4 	c #3D3D3D",
"5 	c #282828",
"6 	c #222222",
"7 	c #2F2F2F",
"8 	c #8F8F8F",
"9 	c #B3B3B3",
"0 	c #131313",
"a 	c #000000",
"b 	c #353535",
"c 	c #A9A9A9",
"d 	c #7A7A7A",
"e 	c #141414",
"f 	c #080808",
"g 	c #777777",
"h 	c #B8B8B8",
"i 	c #161616",
"j 	c #020202",
"k 	c #040404",
"l 	c #0E0E0E",
"m 	c #6C6C6C",
"n 	c #D4D4D4",
"o 	c #818181",
"p 	c #1A1A1A",
"q 	c #030303",
"r 	c #0D0D0D",
"s 	c #797979",
"t 	c #171717",
"u 	c #060606",
"v 	c #070707",
"w 	c #999999",
"x 	c #1B1B1B",
"y 	c #B9B9B9",
"z 	c #0B0B0B",
"A 	c #555555",
"B 	c #D2D2D2",
"C 	c #7B7B7B",
"D 	c #181818",
"E 	c #050505",
"F 	c #0A0A0A",
"G 	c #EAEAEA",
"H 	c #808080",
"I 	c #010101",
"J 	c #3B3B3B",
"K 	c #BCBCBC",
"L 	c #090909",
"M 	c #0F0F0F",
"N 	c #E3E3E3",
"O 	c #2E2E2E",
"P 	c #5F5F5F",
"Q 	c #838383",
"R 	c #191919",
"S 	c #464646",
"T 	c #DFDFDF",
"U 	c #151515",
"V 	c #515151",
"W 	c #535353",
"X 	c #202020",
"Y 	c #646464",
"Z 	c #9A9A9A",
"` 	c #2D2D2D",
" .	c #686868",
"..	c #929292",
"+.	c #1F1F1F",
"@.	c #101010",
"#.	c #111111",
"$.	c #E1E1E1",
"%.	c #D6D6D6",
"&.	c #626262",
"*.	c #2A2A2A",
"=.	c #656565",
"-.	c #D5D5D5",
";.	c #727272",
">.	c #D9D9D9",
",.	c #D7D7D7",
"'.	c #DADADA",
").	c #252525",
"!.	c #ABABAB",
"~.	c #B7B7B7",
"{.	c #3C3C3C",
"].	c #6E6E6E",
"^.	c #666666",
"/.	c #828282",
"(.	c #939393",
"_.	c #EDEDED",
":.	c #D0D0D0",
"<.	c #5E5E5E",
"[.	c #4B4B4B",
"}.	c #C3C3C3",
"|.	c #575757",
"1.	c #D1D1D1",
"2.	c #1E1E1E",
"3.	c #505050",
"4.	c #CFCFCF",
"5.	c #616161",
"6.	c #B1B1B1",
"7.	c #A8A8A8",
"8.	c #1C1C1C",
"9.	c #676767",
"0.	c #DDDDDD",
"a.	c #737373",
"b.	c #8E8E8E",
"c.	c #787878",
"d.	c #CBCBCB",
"e.	c #717171",
"f.	c #606060",
"g.	c #848484",
"h.	c #757575",
"i.	c #636363",
"j.	c #D8D8D8",
"k.	c #C9C9C9",
"l.	c #424242",
"m.	c #D3D3D3",
"n.	c #7D7D7D",
"o.	c #1D1D1D",
"p.	c #767676",
"q.	c #707070",
"r.	c #C2C2C2",
"s.	c #4E4E4E",
"t.	c #7E7E7E",
"u.	c #909090",
"v.	c #7C7C7C",
"w.	c #ADADAD",
"x.	c #383838",
"y.	c #696969",
"z.	c #9B9B9B",
"A.	c #595959",
"B.	c #878787",
"C.	c #E8E8E8",
"D.	c #8D8D8D",
"E.	c #E5E5E5",
"F.	c #CACACA",
"G.	c #5D5D5D",
"H.	c #3E3E3E",
"I.	c #9C9C9C",
"J.	c #A0A0A0",
"K.	c #C7C7C7",
"L.	c #565656",
"M.	c #C1C1C1",
"N.	c #8C8C8C",
"O.	c #919191",
"P.	c #868686",
"Q.	c #DEDEDE",
"R.	c #333333",
"S.	c #525252",
"T.	c #414141",
"U.	c #343434",
"V.	c #8B8B8B",
"W.	c #272727",
"X.	c #E0E0E0",
"Y.	c #5B5B5B",
"Z.	c #373737",
"`.	c #9F9F9F",
" +	c #0C0C0C",
".+	c #444444",
"++	c #CCCCCC",
"@+	c #9E9E9E",
"#+	c #6D6D6D",
"$+	c #C6C6C6",
"%+	c #363636",
"&+	c #BBBBBB",
"*+	c #303030",
"=+	c #2B2B2B",
"-+	c #323232",
";+	c #262626",
">+	c #949494",
",+	c #313131",
"'+	c #C8C8C8",
")+	c #CECECE",
". . . . . . . . . . + @ # $ . . + # + $ @ % # $ . % & # + % * + . . . . . . . . . @ % + $ # % + = + $ @ % + @ @ . + + @ # + . . . . . . . . ",
". . . . . . . . . . $ * * % . + + % $ % $ @ - & . @ ; * % + @ . . . . . . . . . . + $ $ & > = + * + + % % $ $ $ + + + = * % . . . . . . . . ",
". . . . . . . . . . + # & $ $ # @ $ # = @ # , ' . % ' & @ $ . . . . . . . . . . . . $ % @ = ' + & $ . @ = & $ % # @ + # & $ . . . . . . . . ",
". . . . . . . . . . . . . + ' > ' $ # * ' @ ' $ % @ . . & * . . . . . . . . . . . $ & @ + + + . @ @ + # * & % # * * $ . . . . . . . . . . . ",
". . . . . . . . . . $ $ . $ = > @ + . . % # . . * ) @ + ! ~ . . . . . . . . . . . ' = @ + $ % $ @ ' % . . . + % ' * $ . $ $ . . . . . . . . ",
". . . . . . . . . . ! ! @ . . + = { ] ; # @ & $ % > - * = = . . . . . . . . . . . . + % ' - ~ & . $ $ % = ^ / - + . . $ ; - $ . . . . . . . ",
". . . . . . . . . . $ + % @ . $ ( _ : < [ } [ | 1 @ % & % & - + . . . . . . . . . @ * ' % + $ $ 2 3 4 5 < 6 7 8 @ . # @ $ % . . . . . . . . ",
". . . . . . . . . . . $ * > + % 9 0 a a a a a b c > . > = . & . . . . . . . . . . + # # @ @ % . ~ d e a a a f g # . * > @ . . . . . . . . . ",
". . . . . . . . . . + % & = % $ h i j k a a j l m n @ # = % @ . . . . . . . . . . + $ + $ # # . * o p a q q r s # + = ' @ $ . . . . . . . . ",
". . . . . . . . . . $ $ $ % $ $ h t u v a j u a 5 w ~ . @ @ & . . . . . . . . . + % $ . . $ $ . * | x a u u r d # $ @ $ $ $ . . . . . . . . ",
". . . . . . . . . . . % % + . % y t a q a k z j a A B . $ % $ . . . + . . . . . % $ $ $ + . . . ; | x a j a l C # . + % % . . . . . . . . . ",
". . . . . . . . . . . @ # + . % y D a a j E v F a : 8 G + ; . . + $ $ + . . . . % . $ % + . . . ! H x a a a l C # . . @ @ . . . . . . . . . ",
". . . . . . . . . . . % @ $ . % y D a a k u I F F k J K + ) + . $ % % % + . . . + . $ % + . . . ! | x a a a l C # . . @ @ . . . . . . . . . ",
". . . . . . . . . . . % @ $ . % y D a a I q j q L a M d N . & + + % % % $ + . . . . $ % + . . . ! | x a a a l C # . . @ @ . . . . . . . . . ",
". . . . . . . . . . . % @ $ . % y D a a a q L q j a a O c . # . . . + $ $ + . . . . $ % + . . . ! | x a a a l C # . . @ @ . . . . . . . . . ",
". . . . . . . . . . . % @ $ . % y D a a I j j a a q q l P B . . . . . . . . + . . . $ % + . . . ! | x a a a l C # . . @ @ . . . . . . . . . ",
". . . . . . . . . . . % @ $ . % y D a a a q f a a j q v 6 Q . . . . . . . . + + . . $ % + . . . ! | x a a a l C # . . @ @ . . . . . . . . . ",
". . . . . . . . . . . % @ $ . % y D a I a z < R z E j q j S T # + . . . . . + + + . $ % + . . . ! | x a a a l C # . . @ @ . . . . . . . . . ",
". . . . . . . . . . . % @ $ . % y D a a a U V W 5 L a a a X | ) % % + . . . + + + . $ % + . . . ! | x a a a l C # . . @ @ . . . . . . . . . ",
". . . . . . . . . . . % @ $ . % y D a a a R Y Z V F a a f F ` T ' # $ . . + + + . . $ % + . . . ! | x a a a l C # . . @ @ . . . . . . . . . ",
". . . . . . . . . . . % @ $ . % y D a a a e  .n ..+.a a k I @.Q { + . . + % % . $ . $ % + . . . ! | x a a a l C # . . @ @ . . . . . . . . . ",
". . . . . . . . . . . % @ $ . % y D a a a #. .$.%.&.M a a I v *.y ' . + % @ @ ' $ . $ % + . . . ! | x a a a l C # . . @ @ . . . . . . . . . ",
". . . . . . . . . . . % @ $ . % y D a a a #.=.-.% c *.a E L a f ;.>.$ @ ' . % - + . $ % + . . . ! | x a a a l C # . . @ @ . . . . . . . . . ",
". . . . . . . . . . . % @ $ . % y D a a a M P ,.. '.m 0 q M a a ).!.* % ' . $ & + . $ % + . . . ! | x a a a l C # . . @ @ . . . . . . . . . ",
". . . . . . . . . . . % @ $ . % y D a a a M P '.+ ' ~.{.a u a a I ].%.@ % % + . % . $ % + . . . ! | x a a a l C # . . @ @ . . . . . . . . . ",
". . . . . . . . . . . % @ $ . % y D a I a #.^.>.+ . 2 /.x a I j a } (._.. ' . + & + $ % + . . . ! | x a a a l C # . . @ @ . . . . . . . . . ",
". . . . . . . . . . . % @ $ . % y D a a a 0 ^.-.+ . # :.<.a a j k a [.}.$ @ . @ & + $ % + . . . ! | x a a a l C # . . @ @ . . . . . . . . . ",
". . . . . . . . . . . % @ $ . % y D a a a 0 |.1.+ # & & w t a a l a 2.| T . @ & % . $ % + . . . ! | x a a a l C # . . @ @ . . . . . . . . . ",
". . . . . . . . . . . % @ $ . % y D a a a l 3.B + % # + 4.5.I a v I a J 6.. ' + . . $ % + . . . ! | x a a a l C # . . @ @ . . . . . . . . . ",
". . . . . . . . . . . % @ $ . % y D a a a @.&.'.+ + $ . & 7.i I a q a 0 =.4.. . % . $ % + . . . ! o 8.a a a l C # . . @ @ . . . . . . . . . ",
". . . . . . . . . . . % @ $ . % y D a a a #.9.1 + . . . . 0.a.f a q j a ).b.. $ $ . + $ $ + . . ; c.R a a a l C # . . @ @ . . . . . . . . . ",
". . . . . . . . . . . % @ $ . % y D a a a @.5.,.+ . . . $ & d.*.j a k a v 3.:.. $ + . + + + . . ; e.D a a a l C # . . @ @ . . . . . . . . . ",
". . . . . . . . . . . % @ $ . % y D a a a M f.%.+ . + + $ . ] ;.U a I a a X g.. @ % + . . + $ $ > h.x a a a l C # . . @ @ . . . . . . . . . ",
". . . . . . . . . . . % @ $ . % y D a a a @.i.j.+ + % + . . = k.J v a a a u l.m.# @ % . . + @ # * n.o.a a a l C # . . @ @ . . . . . . . . . ",
". . . . . . . . . . . % @ $ . % y D a a a @.i.>.+ + @ $ . . . + p.2.j a a I p q.> $ $ + + $ % @ * H 8.a a a l C # . . @ @ . . . . . . . . . ",
". . . . . . . . . . . % @ $ . % y D a a a @.i.'.+ $ # $ . . . $ r.s.z a I E f t 1.@ . % # @ . . > t.x a a a l C # . . @ @ . . . . . . . . . ",
". . . . . . . . . . . % @ $ . % y D a a a @.i.'.+ $ # $ . . . . . u.} a I q a L a.$.. @ * # . . - v.p a a a l C # . . @ @ . . . . . . . . . ",
". . . . . . . . . . . % @ $ . % y D a a a @.&.'.+ + @ $ . $ @ $ . ,.^.0 a a j l t 6.' . & @ . . , v.o.a a a l C # . . @ @ . . . . . . . . . ",
". . . . . . . . . . . % @ $ . % y D a a a @.&.'.+ + % + . $ @ . = . w.x.a a j k a y.4.# . + . . ) | 2.a a a l C # . . @ @ . . . . . . . . . ",
". . . . . . . . . . . % @ $ . % y D a a a @.i.>.+ + % + . + $ # = . 0.C o.a a a a p z.! . + + . ; /.o.a a a l C # . . @ @ . . . . . . . . . ",
". . . . . . . . . . . % @ $ . % y D a a a @.i.j.+ + % + . . $ ; @ + & K 3.I a a E a A.k.+ . $ . * B.2.a a a l C # . . @ @ . . . . . . . . . ",
". . . . . . . . . . . % @ $ . % y D a a a @.i.>.+ . + + $ $ + > + & . C.D.} a I E a D /.E.. $ + ; B.2.a a a l C # . . @ @ . . . . . . . . . ",
". . . . . . . . . . . % @ $ . % y D a a a @.Y >.+ . . . % % . @ . ' % % F.G.a k k j a H.6.& . + _.n.2.a a a l C # . . @ @ . . . . . . . . . ",
". . . . . . . . . . . % @ $ . % y D a a a @.Y >.+ . . . % % . . . @ = . > I.U j E k a i 9.4.. + G a.o.a a a l C # . . @ @ . . . . . . . . . ",
". . . . . . . . . . . % @ $ . % y D a a a @.Y >.+ . . . % % . . @ + % + + ,.;.a f I k a < J.. . = t.2.a a a l C # . . @ @ . . . . . . . . . ",
". . . . . . . . . . . % @ $ . % y D a a a @.Y >.+ . . . % % . # + . . + . + K.R j a u a M L.M.. ' N.X a a a l C # . . @ @ . . . . . . . . . ",
". . . . . . . . . . . % @ $ . % y D a a a @.Y >.+ . . . % % + > $ % # % . . C.O.k j k k a 8.B.. E.P.+.a a a l C # . . @ @ . . . . . . . . . ",
". . . . . . . . . . . % @ $ . % y D a a a @.Y >.+ . . . % % . @ # @ $ . . + # Q.R.f I q a L S.-.~ | o.a a a l C # . . @ @ . . . . . . . . . ",
". . . . . . . . . . . % @ $ . % y D a a a @.Y >.+ . . . % % . . ' @ . + # # . ; 3 D a q I I +.t., v.2.a a a l C # . . @ @ . . . . . . . . . ",
". . . . . . . . . . . % @ $ . % y D a a a @.Y >.+ . . . % % . # = # $ % ' = % = >.T.F k k a q U.( c.: a a a l C # . . @ @ . . . . . . . . . ",
". . . . . . . . . . . % @ $ . % y D a a a @.Y >.+ . . . % % $ ) # & # % % ' = % . V.W.k E k a #.f.Y +.a a a l C # . . @ @ . . . . . . . . . ",
". . . . . . . . . . . % @ $ . % y D a a a @.Y >.+ . . . % % + * $ % @ $ . % & . . X.Y.F a q I v i Z.0 a a a l C # . . @ @ . . . . . . . . . ",
". . . . . . . . . . . % @ $ . % y D a a a @.Y >.+ . . . % % . . . . . . . . . . . . `.O a I E j a  +u a a a l C # . . @ @ . . . . . . . . . ",
". . . . . . . . . . . % @ $ . % y D a a a @.Y >.+ . . . % % . . . . . . . . . . . . / t.p a v a k v q a a a l C # . . @ @ . . . . . . . . . ",
". . . . . . . . . . . % @ $ . % y D a a a @.Y >.+ . . . % % . . . . . . . . . . . . . y .+a a I E j a a a a l C # . . @ @ . . . . . . . . . ",
". . . . . . . . . . . % @ $ . % y D a a a @.Y >.+ . . . % % . . . . . . . . . . . . . E.N.).a I j a a a a a l C # . . @ @ . . . . . . . . . ",
". . . . . . . . . . . % @ $ . % y D a a a @.Y >.+ . . . % % . . . . . . . . . . . . ! ' ++G.q a a a q j I a l C # . . @ @ . . . . . . . . . ",
". . . . . . . . . . . % @ $ . % y D a a a @.Y >.+ . . . % % . . . . . . . . . . . . ! $ ~ @+[ a a I k j I a l C # . . @ @ . . . . . . . . . ",
". . . . . . . . . . . % @ $ . % y D a a a @.Y >.+ . . . % % . . . . . . . . . . . + + . + %.#+q a j I a a a l C # . . @ @ . . . . . . . . . ",
". . . . . . . . . . . % @ + . % y D a a a @.Y >.+ . . . $ % . . . . . . . . . . . % + @ . > w.7 j a I a a a l C # . . @ @ . . . . . . . . . ",
". . . . . . . . . . . % @ + . $ y D a a a @.i.>.+ . . . $ % . . . . . . . . . . . % # ' % + $.Q F a k q a a l C # . . % % . . . . . . . . . ",
". . . . . . . . . . . & * @ . % 6.U a a a l P B $ . . $ % $ . . . . . . . . . . . @ ' # + . # $+%+q a a a a z e.# . $ = ' . . . . . . . . . ",
". . . . . . . . . . $ > ! & . $ &+*+=+-+;+_ P.,.@ . + % % + . . . . . . . . . . . & % % @ $ . ] >+{.[ ` ,+` [ 3 @ . @ ; ; @ . . . . . . . . ",
". . . . . . . . . . ~ ! % + . + ] '+++:.++1.N > % % % $ + . + . . . . . . . . . . $ . $ ' = @ % ] ++d.)+:.)+d.0.+ . + $ ; , $ . . . . . . . ",
". . . . . . . . . . = @ . + # = * + . . . . . . + $ + . . % ' . . . . . . . . . . ; & + @ = # . . . . . . . . = * & $ . % = + . . . . . . . ",
". . . . . . . . . . . $ & & # ' * ' $ % # % $ . . + % # @ @ & . . . . . . . . . . ; & . . % @ $ . . . % % $ # = = # & ' @ . . . . . . . . . ",
". . . . . . . . . . + ' > ' % $ . . % % % # % + . $ & * ' $ . . . . . . . . . . . . + % $ $ # = + . + $ % % + . + + & > = % . . . . . . . . ",
". . . . . . . . . . $ % + + ' > # . @ * ' + + % + . . . . . + . . . . . . . . . . . & * ' # ' > @ + . & > ' + % * = $ . $ $ + . . . . . . . ",
". . . . . . . . . . $ + . $ * > + . + $ # * * ' $ . . . . % & + . . . . . . . . . . % @ $ + + $ + + # # % + . . & ! % . + $ . . . . . . . . ",
". . . . . . . . . . . % $ . % % $ # + . + @ # % . + # # $ . $ . . . . . . . . . . . $ # ' & # @ % + % $ . + @ @ + @ + $ % + . . . . . . . . "};
