/* XPM */
static const char * BigO_xpm[] = {
"70 70 231 2",
"  	c None",
". 	c #FFFFFF",
"+ 	c #FEFEFE",
"@ 	c #FDFDFD",
"# 	c #FBFBFB",
"$ 	c #FAFAFA",
"% 	c #F9F9F9",
"& 	c #FCFCFC",
"* 	c #F8F8F8",
"= 	c #EFEFEF",
"- 	c #E6E6E6",
"; 	c #DADADA",
"> 	c #CFCFCF",
", 	c #D3D3D3",
"' 	c #D6D6D6",
") 	c #D9D9D9",
"! 	c #DDDDDD",
"~ 	c #E3E3E3",
"{ 	c #EBEBEB",
"] 	c #F4F4F4",
"^ 	c #F6F6F6",
"/ 	c #F5F5F5",
"( 	c #CCCCCC",
"_ 	c #959595",
": 	c #5B5B5B",
"< 	c #323232",
"[ 	c #1F1F1F",
"} 	c #161616",
"| 	c #0E0E0E",
"1 	c #090909",
"2 	c #1D1D1D",
"3 	c #393939",
"4 	c #616161",
"5 	c #8A8A8A",
"6 	c #ACACAC",
"7 	c #818181",
"8 	c #3D3D3D",
"9 	c #212121",
"0 	c #141414",
"a 	c #131313",
"b 	c #030303",
"c 	c #000000",
"d 	c #060606",
"e 	c #0D0D0D",
"f 	c #1E1E1E",
"g 	c #343434",
"h 	c #727272",
"i 	c #C7C7C7",
"j 	c #868686",
"k 	c #494949",
"l 	c #1C1C1C",
"m 	c #010101",
"n 	c #040404",
"o 	c #020202",
"p 	c #0A0A0A",
"q 	c #3E3E3E",
"r 	c #747474",
"s 	c #BEBEBE",
"t 	c #F7F7F7",
"u 	c #E7E7E7",
"v 	c #A6A6A6",
"w 	c #5F5F5F",
"x 	c #252525",
"y 	c #050505",
"z 	c #121212",
"A 	c #4D4D4D",
"B 	c #9C9C9C",
"C 	c #E0E0E0",
"D 	c #E5E5E5",
"E 	c #919191",
"F 	c #404040",
"G 	c #313131",
"H 	c #7D7D7D",
"I 	c #E9E9E9",
"J 	c #838383",
"K 	c #2F2F2F",
"L 	c #151515",
"M 	c #242424",
"N 	c #3F3F3F",
"O 	c #414141",
"P 	c #363636",
"Q 	c #262626",
"R 	c #181818",
"S 	c #666666",
"T 	c #F3F3F3",
"U 	c #828282",
"V 	c #070707",
"W 	c #474747",
"X 	c #787878",
"Y 	c #969696",
"Z 	c #A4A4A4",
"` 	c #AFAFAF",
" .	c #B6B6B6",
"..	c #B1B1B1",
"+.	c #A7A7A7",
"@.	c #9D9D9D",
"#.	c #5A5A5A",
"$.	c #333333",
"%.	c #0B0B0B",
"&.	c #080808",
"*.	c #6B6B6B",
"=.	c #DEDEDE",
"-.	c #ABABAB",
";.	c #1B1B1B",
">.	c #525252",
",.	c #B0B0B0",
"'.	c #9F9F9F",
").	c #656565",
"!.	c #282828",
"~.	c #111111",
"{.	c #B9B9B9",
"].	c #303030",
"^.	c #0C0C0C",
"/.	c #232323",
"(.	c #EAEAEA",
"_.	c #F1F1F1",
":.	c #999999",
"<.	c #3C3C3C",
"[.	c #878787",
"}.	c #C6C6C6",
"|.	c #545454",
"1.	c #C3C3C3",
"2.	c #5D5D5D",
"3.	c #A3A3A3",
"4.	c #E4E4E4",
"5.	c #A2A2A2",
"6.	c #D0D0D0",
"7.	c #6C6C6C",
"8.	c #595959",
"9.	c #9B9B9B",
"0.	c #2B2B2B",
"a.	c #6A6A6A",
"b.	c #7F7F7F",
"c.	c #E1E1E1",
"d.	c #C8C8C8",
"e.	c #505050",
"f.	c #2D2D2D",
"g.	c #979797",
"h.	c #ECECEC",
"i.	c #565656",
"j.	c #E8E8E8",
"k.	c #8C8C8C",
"l.	c #8D8D8D",
"m.	c #B3B3B3",
"n.	c #757575",
"o.	c #DFDFDF",
"p.	c #454545",
"q.	c #C0C0C0",
"r.	c #DBDBDB",
"s.	c #777777",
"t.	c #EDEDED",
"u.	c #6F6F6F",
"v.	c #707070",
"w.	c #3B3B3B",
"x.	c #D4D4D4",
"y.	c #686868",
"z.	c #4C4C4C",
"A.	c #ADADAD",
"B.	c #8E8E8E",
"C.	c #2C2C2C",
"D.	c #D2D2D2",
"E.	c #4E4E4E",
"F.	c #696969",
"G.	c #717171",
"H.	c #1A1A1A",
"I.	c #434343",
"J.	c #DCDCDC",
"K.	c #898989",
"L.	c #B7B7B7",
"M.	c #2E2E2E",
"N.	c #BFBFBF",
"O.	c #373737",
"P.	c #676767",
"Q.	c #0F0F0F",
"R.	c #7C7C7C",
"S.	c #464646",
"T.	c #797979",
"U.	c #171717",
"V.	c #4F4F4F",
"W.	c #7E7E7E",
"X.	c #4A4A4A",
"Y.	c #222222",
"Z.	c #848484",
"`.	c #AAAAAA",
" +	c #272727",
".+	c #8B8B8B",
"++	c #191919",
"@+	c #EEEEEE",
"#+	c #424242",
"$+	c #2A2A2A",
"%+	c #B2B2B2",
"&+	c #909090",
"*+	c #888888",
"=+	c #A1A1A1",
"-+	c #949494",
";+	c #575757",
">+	c #7B7B7B",
",+	c #3A3A3A",
"'+	c #B4B4B4",
")+	c #BABABA",
"!+	c #F0F0F0",
"~+	c #555555",
"{+	c #444444",
"]+	c #F2F2F2",
"^+	c #515151",
"/+	c #646464",
"(+	c #484848",
"_+	c #292929",
":+	c #CACACA",
"<+	c #E2E2E2",
"[+	c #8F8F8F",
"}+	c #A9A9A9",
"|+	c #101010",
"1+	c #CDCDCD",
"2+	c #535353",
"3+	c #AEAEAE",
"4+	c #B8B8B8",
"5+	c #202020",
"6+	c #A5A5A5",
"7+	c #626262",
"8+	c #7A7A7A",
"9+	c #A8A8A8",
"0+	c #B5B5B5",
"a+	c #383838",
"b+	c #5E5E5E",
"c+	c #D5D5D5",
"d+	c #D7D7D7",
"e+	c #4B4B4B",
"f+	c #767676",
"g+	c #939393",
"h+	c #636363",
". . . . . . . . + + + + + + + + + + @ # $ $ @ . + % % @ + & # @ . . . @ + . . # # @ . . . @ * % & + . . . . . . . . . . . . . . . . . . . . ",
". . . . . . . . + + + + + + + + + + . + # * % + . . + + + @ @ + + + + @ @ . + & & + @ @ + + + . & + . . . . . . . . . . . . . . . . . . . . ",
". . . . . . . . + + + + + + + + + + @ + . & $ @ . $ = - ; > > , ' ' ) ! ~ { ] & . + & & @ # % @ & + . . . . . . . . . . . . . . . . . . . + ",
". . . . . . . . + + + + + + + + + . ^ / & . . # = ( _ : < [ } | 1 | 2 3 4 5 6 ' ] . . % % @ . + = ^ @ . . . . . . . . . . . . . . . . . . & ",
". . . . . . . . + + + + + + + + + + @ . . # ( 7 8 9 0 a | b c c c c c d e 0 f g h i . . @ * $ . @ + . . . . . . . . . . . . . . . . . . . . ",
". . . . . . . . + + + + + + + + + @ . * i j k l m c c m n b o m o n o c c c c p 2 q r s t . @ % % @ . . . . . . . . . . . . . . . . . . . . ",
". . . . . . . . + + + + . . + + + . u v w x n c b n o m o o c c c m b m c c m y b c z A B C . $ $ @ . . . . . . . . . . . . . . . . . . . . ",
". . . . . . . . . & & @ @ @ . . . D E F z m c m p o c c c c c y d c c c c c c m o m c d G H > . . + . . . + . . + @ + . . . . . . . . . . . ",
". . . . . . . . . $ $ & $ % . . I J K d c c m m n c p L l M < N O P Q [ R | y c m b o c b 2 S D @ . @ @ @ + . + # $ & + . . . . . . . . . . ",
". . . . . . . . . & @ + # t * T U 9 c c y n m m V R W X Y Z `  . ...+.@.J #.$.%.b c n e &.c R *.=.@ # ^ $ + & $ $ # # & + . . . . . . . . . ",
". . . . . . . . @ # @ . . # - -.;.o c n V b o 0 >.H ,.{ . . . . . . . . ] ( '.).!.y m | ~.V o m 7 C # % $ . $ t @ . $ % @ . . . . . . . . . ",
". . . . . . . . # t t # . ^ {.].^.m c c m &./.*.(.& _.^ & * $ . . + @ . . @ & = :.<.^.c 1 | c n L [.D . + @ @ # . . $ $ @ . . . . . . . . . ",
". . . . . . . . + . / / ^ }.|.o p b c c e q @.= . ^ # . . + + . . + & # + . . . / 1.2.~.c b o c c P 3._.. ^ . . . t # + . . . . . . . . . . ",
". . . . . . . . . . & . 4.U y c o b &.e F 5.] . + % + . @ * ^ * # . . . . . & ] & # 6.7.} c c c o b 8.i + & & . . _.* + . . . . . . . . . . ",
". . . . . . . . & ^ . T 9.0.c n m m c 8 v _.. * * + + + @ # $ # @ @ * / * & @ t % + . , a.^.c c m c 2 b.c.. % . . * # + . . . . . . . . . . ",
". . . . . . . . & t @ d.e.c %.n m c f.g.h.. @ % % & % # . + @ & @ @ t ] t & @ @ @ # @ + d.i.c c n o c <.,.. & . . . + + . . . . . . . . . . ",
". . . . . . . . . . j.k.Q c &.c c b l.j.* * . @ + $ t $ + & % * $ . + + + + # & @ @ $ $ # m.R c V n c } n.o.. . @ . @ & + . . . . . . . . . ",
". . . . . . . . . . 1.e.V c m m b p.q.@ . $ + . . + @ & @ + @ @ @ . + & @ + + . # $ @ + + r.s.&.c c c y P '.. . * @ & & + . . . . . . . . . ",
". . . . . . . . & . '.!.c b o p %.@.t.. . . + . . . . + + . . . . . + @ @ + . & # $ $ & & * ( f.o c o c ~.u.T . & t $ @ . . . . . . . . . . ",
". . . . . . . . . =.v.} c V c | w.x.. . . . . . . . . . . . . . . . . . . . + $ @ & t % + . h.y.z m c c &.z.d.. . t # + . . . . . . . . . . ",
". . . . . . . . . A.N d m d c a B.(.. . . . . . . . . . . . . . . . . . . . . & + + # & . . T ,.C.b c c b ].9.. . & @ . . . . . . . . . . . ",
". . . . . . . . . J ;.c b m b !.D.# . . . . . . . . . . . . . . . . . . . . . . . . + . . @ % h.E.p c c c 0 a.. & + . . . . . . . . . . . . ",
". . . . . . . . $ F.| c o m 0 >.= . . . . . . . . . . . . . . . . . . . . . . . . . . . @ $ $ @ G.H.m c c n I.= $ + . . . . . . . . . . . . ",
". . . . . . . + J.8.e c c o x K./ . + . . . . . . . . . . . . . . . . . . . . . . . . + $ t @ & @.G y m m c K 6.$ & @ . . . . . . . . . . . ",
". . . . . . . & L.k %.c c m M.N.* $ & . . . . . . . . . . . . . . . . . . . . + + . . . % t . # > A 1 m b c Q +.$ % # + . . . . . . . . . . ",
". . . . . . . # @.P d c c c O.I + % # + . . . . . . . . . . . . . . . . . . + # @ . . . # % + ^ ^ P.Q.c m c ;.R.^ % $ + . . . . . . . . . . ",
". . . . . . . $ J /.o c c b S.. . + + . . . . . . . . . . . . . . . . . . . + # & . + + & # + % . T.0 c c c z : T + + . . . . . . . . . . . ",
". . . . . . . % *.U.m c c z S . ] & . . . . . . . . . . . . . . . . . . . . . @ + + @ + @ % % @ . [.H.c c c ^.k _.. + @ . . . . . . . . . . ",
". . . . . . . % 8.^.c c c l X . / & . . . . . . . . . . . . . . . . . . . . . + . + + . + # $ . . Y !.c c m d 3 _.. + @ + . . . . . . . . . ",
". . . . . . . * V.V c c c [ W.. & @ . . . . . . . . . . . . . . . . . . . . . . . . . . . + + . . 5.g b c m o 0.= . + + . . . . . . . . . . ",
". . . . . . . * X.d c c m Y.Z.. + + . . . . . . . . . . . . . . . . . . . . . . . . . . . . . . . `.<.d c m c Y.= + @ + . . . . . . . . . . ",
". . . . . . . * S.d c c m  +.+. & + . . . . . . . . . . . . . . . . . . . . . . . . . . . . . . . ,.I.1 c c c ++@+. @ + . . . . . . . . . . ",
". . . . . . . * #+y m c o $+E . # @ . . . . . . . . . . . . . . . . . . . . . . . . . . . . . . . %+W p c c c a @+. + + . . . . . . . . . . ",
". . . . . . . * I.y m m o $+&+. # @ . . . . . . . . . . . . . . . . . . . . . . . . . . . . . . . ,.p.p c c c 0 @+. . . . . . . . . . . . . ",
". . . . . . . * k d c c m x *+. & + . . . . . . . . . . . . . . . . . . . . . . . . . . . . . . . `.F &.c c c f @+. . . . . . . . . . . . . ",
". . . . . . . % |.&.c c c l T.. + . . . . . . . . . . . . . . . . . . . . . . . . . . . . . . . . =+O.y c c y ].(.. + @ . . . . . . . . . . ",
". . . . . . . % 4 ~.c c c 0 P.. . . . . . . . . . . . . . . . . . . . . . . . . . . . . . . . . . -+!.c c c p S.{ . + @ + . . . . . . . . . ",
". . . . . . . % F.++o m o Q.;+. . . . . . . . . . . . . . . . . . . . . . . . . . . . . . . . . . 5 ;.c m c | ;+h.. . . . . . . . . . . . . ",
". . . . . . . $ s.Y.b c c d k . . . . . . . . . . . . + + . . . . . . . . . . @ . + # $ @ + & . . >+0 c o o L P.@+. . + . . . . . . . . . . ",
". . . . . . . # &+G d c c m ,+D & . . . . . . . . . . @ @ + . . . . . . . . + # @ & ^ ] $ @ * . % y.Q.c m o [ 7 _.. + @ + . . . . . . . . . ",
". . . . . . . & '+S.p c c o M.)+/ . . . + @ + . . . . @ @ . . . . . . . . . . & & & * t $ # $ + ; |.%.c c m $+A.t # # @ . . . . . . . . . . ",
". . . . . . . + r.: e c n d 9 .+!+. . + @ & & @ . . . . . . . . . . . . . . . + # # . . # % . & ,.q V c c c g c.+ T t + . . . . . . . . . . ",
". . . . . . . . . a.Q.c 1 &.Q.~+] . @ + @ & # & + . . . . . . . . . . . . . . . * t @ . $ t . $ R.f m m c o {+. . = ^ + . . . . . . . . . . ",
". . . . . . . . . R.a c p d m  +t.% $ + . . + @ + . . . . . . . . . . . . . . . @ @ @ # & % ]+$ ^+&.m V V L /+. . ^ $ + . . . . . . . . . . ",
". . . . . . . . . +.,+d o n c Q.+.@++ . . . . . . + . . . . . . . . . . . . . . . . & ^ % . / ( < b o o y g '.. . + + . . . . . . . . . . . ",
". . . . . . . . . ! 7.0 c o c n (+=.. . . . . . . + + . . . . . . . . . . . . . @ @ @ # & . ]+X L b d c y e.; . & . + + . . . . . . . . . . ",
". . . . . . . . @ . @._+c m b m p A._.+ . . . . . + + + . . . . . . . . . . . + # # + . + % :+].n V d c } >+. . % + & & + . . . . . . . . . ",
". . . . . . . . & . }.>.&.c b c c ;+}.# . & . . . + + + + . . . . . . . . . . @ # @ + . . <+>+1 c d m d I.... . ^ @ & & + . . . . . . . . . ",
". . . . . . . . + . u [+_+c m o d %.K.u + & + @ + + + + . . . . . . . . + . . & @ . + . + )+!.o c o c l H ~ . . ^ @ & & + . . . . . . . . . ",
". . . . . . . . . & . :+|.c c V &.c I.}+h.. @ * % + . . . + + . . . . + & @ . @ + . . + , *.c p b c o F ,.. . + $ @ + + . . . . . . . . . . ",
". . . . . . . . & / . (.[+x c 1 y m y z..._.@ ^ * + . + @ + + @ & @ . @ & @ . + # + . C R.0 c |+n c M U J.. % # . @ + . . . . . . . . . . . ",
". . . . . . . . ] # * = 1+v.c m e d c ~.2+3+= . + & + @ # @ . & * % + . . . + $ % $ J.U M c b V c c >.( . * (.t . & @ . . . . . . . . . . . ",
". . . . . . . . @ # # @ ^ 4+N c m | L &.| z.3+] t h.* . # ^ # . + + @ + + # * @ . ! n.5+o b c m c G '.@+. T (.+ + * # + . . . . . . . . . . ",
". . . . . . . . . @ @ . . _.6+| c d V d V Q.K >+u . . . ^ ]+$ . + * ] $ . . . / 3+8.f o c o c c H.&+D & ] ]+# . + @ $ # + . . . . . . . . . ",
". . . . . . . . . % $ & $ $ t.l.|+c o 1 V c c H.7+&+N.@+. . . . . . . . + , +.>+,+%.c c b n c 1 8+C + * ] $ + ^ + . % % @ . . . . . . . . . ",
". . . . . . . . & * ^ ] T * . ] S 2 d b b b o c c U.^+K.9+'+s }.d.q.0+,.g.P.a+~.m c m m m o 0 b+c+. & ] $ . % !++ @ $ $ + . . . . . . . . . ",
". . . . . . . . % & / !+^ . + @ d+X !.o c d &.n c c Q.z 0 Y.P (+e+<.Q U.|+Q.e m c n b c c ;.4 > # . $ t $ @ * / . * # + . . . . . . . . . . ",
". . . . . . . . + * ^ % + @ ^ / . J.*+$.d o 1 Q.m c d o c c c V &.n c c c c c o m m c m Q f+( ^ + + @ $ % % $ @ . t $ + . . . . . . . . . . ",
". . . . . . . . $ t # + . & t ^ . + D +.~+} m n c c y n b b c c c c o n o c c c c m b 3 g+o.. & * t # @ & # & # & & % # + . . . . . . . . . ",
". . . . . . . . * & . . + + @ @ . # . / d.7 #+R c c c c o y o c c c c c c c c c |+g h+A.{ . . . % t $ + . . + $ # . # # @ . . . . . . . . . ",
". . . . . . . . + . . . . . . . . . # @ & h.1.T.<.M } ^.n c c c c c c b p 0 [ K h+,.4.% + @ # + + + + . . . . + + . . + . . . . . . . . . . ",
". . . . . . . . . . . . . . . . . . * ^ # + t ~ > 0+*+;+G l z ^.^.0 Y.O.~+f+g.i =./ . + % # + . + . . . . . . . . . . . . . . . . . . . . + ",
". . . . . . . . . . . . . . . . . . @ # & @ . . . $ - 1+{.` `.v v -.m.)+i ; t.. . . + & & + . . t $ + . . . . . . . . . . . . . . . . . . + ",
". . . . . . . . . . . . . . . . . . & $ # + + & # + . . . . . . . . . . . . . & # @ + . . + & @ * # + . . . . . . . . . . . . . . . . . . + ",
". . . . . . . . . . . . . . . . . . $ ^ ^ % & . . . . + & $ % $ + . + @ + . + $ % & + . . & % @ . . . . . . . . . . . . . . . . . . . . . + ",
". . . . . . . . . . . . . . . . . . + + & % * + . . @ # # @ + . . + & $ # @ + + + @ @ + . . . . + . . . . . . . . . . . . . . . . . . . . . ",
". . . . . . . . . . . . . . . . . . $ % & + + . . # $ @ # / ^ & . . + + @ $ t ^ ^ t $ @ . . . @ % & . . . . . . . . . . . . . . . . . . . . ",
". . . . . . . . . . . . . . . . . . @ & & % / t # @ @ + @ $ $ & & # & + . @ & # # # & + $ ^ t & & + . . . . . . . . . . . . . . . . . . . . ",
". . . . . . . . . . . . . . . . . . . . @ % ^ ^ $ + . @ @ . + + & & # + . . @ $ & + . + $ t * @ + . . . . . . . . . . . . . . . . . . . . . ",
". . . . . . . . . . . . . . . . . . + + + + @ @ @ . . & & . . . + + + . . + & * $ + . . + @ @ . + + . . . . . . . . . . . . . . . . . . . . "};
