/* XPM */
static const char * BigP_xpm[] = {
"70 70 194 2",
"  	c None",
". 	c #FFFFFF",
"+ 	c #FCFCFC",
"@ 	c #F3F3F3",
"# 	c #F2F2F2",
"$ 	c #F4F4F4",
"% 	c #E5E5E5",
"& 	c #EDEDED",
"* 	c #F5F5F5",
"= 	c #FBFBFB",
"- 	c #FEFEFE",
"; 	c #ECECEC",
"> 	c #EFEFEF",
", 	c #F9F9F9",
"' 	c #FDFDFD",
") 	c #FAFAFA",
"! 	c #F6F6F6",
"~ 	c #A6A6A6",
"{ 	c #313131",
"] 	c #242424",
"^ 	c #2A2A2A",
"/ 	c #292929",
"( 	c #282828",
"_ 	c #2C2C2C",
": 	c #303030",
"< 	c #323232",
"[ 	c #2F2F2F",
"} 	c #2E2E2E",
"| 	c #333333",
"1 	c #444444",
"2 	c #656565",
"3 	c #919191",
"4 	c #B9B9B9",
"5 	c #D9D9D9",
"6 	c #F7F7F7",
"7 	c #979797",
"8 	c #000000",
"9 	c #010101",
"0 	c #050505",
"a 	c #131313",
"b 	c #262626",
"c 	c #353535",
"d 	c #484848",
"e 	c #6D6D6D",
"f 	c #A3A3A3",
"g 	c #DDDDDD",
"h 	c #F8F8F8",
"i 	c #9B9B9B",
"j 	c #030303",
"k 	c #020202",
"l 	c #393939",
"m 	c #696969",
"n 	c #A5A5A5",
"o 	c #E2E2E2",
"p 	c #9C9C9C",
"q 	c #070707",
"r 	c #040404",
"s 	c #0E0E0E",
"t 	c #818181",
"u 	c #C9C9C9",
"v 	c #9D9D9D",
"w 	c #060606",
"x 	c #1B1B1B",
"y 	c #5B5B5B",
"z 	c #BCBCBC",
"A 	c #101010",
"B 	c #363636",
"C 	c #2B2B2B",
"D 	c #252525",
"E 	c #272727",
"F 	c #1A1A1A",
"G 	c #0D0D0D",
"H 	c #0A0A0A",
"I 	c #575757",
"J 	c #B5B5B5",
"K 	c #EEEEEE",
"L 	c #3F3F3F",
"M 	c #858585",
"N 	c #A0A0A0",
"O 	c #959595",
"P 	c #9A9A9A",
"Q 	c #989898",
"R 	c #8C8C8C",
"S 	c #8B8B8B",
"T 	c #8A8A8A",
"U 	c #8D8D8D",
"V 	c #909090",
"W 	c #848484",
"X 	c #737373",
"Y 	c #636363",
"Z 	c #090909",
"` 	c #4C4C4C",
" .	c #B0B0B0",
"..	c #212121",
"+.	c #777777",
"@.	c #D8D8D8",
"#.	c #D1D1D1",
"$.	c #5A5A5A",
"%.	c #141414",
"&.	c #CBCBCB",
"*.	c #181818",
"=.	c #757575",
"-.	c #DCDCDC",
";.	c #E9E9E9",
">.	c #BBBBBB",
",.	c #5D5D5D",
"'.	c #1C1C1C",
").	c #838383",
"!.	c #EBEBEB",
"~.	c #D7D7D7",
"{.	c #121212",
"].	c #0F0F0F",
"^.	c #373737",
"/.	c #767676",
"(.	c #7E7E7E",
"_.	c #151515",
":.	c #080808",
"<.	c #6E6E6E",
"[.	c #DBDBDB",
"}.	c #E0E0E0",
"|.	c #525252",
"1.	c #0B0B0B",
"2.	c #4F4F4F",
"3.	c #191919",
"4.	c #747474",
"5.	c #ACACAC",
"6.	c #999999",
"7.	c #4A4A4A",
"8.	c #171717",
"9.	c #717171",
"0.	c #4E4E4E",
"a.	c #969696",
"b.	c #4B4B4B",
"c.	c #E8E8E8",
"d.	c #898989",
"e.	c #535353",
"f.	c #727272",
"g.	c #5F5F5F",
"h.	c #E3E3E3",
"i.	c #414141",
"j.	c #2D2D2D",
"k.	c #929292",
"l.	c #E4E4E4",
"m.	c #232323",
"n.	c #BFBFBF",
"o.	c #5E5E5E",
"p.	c #B3B3B3",
"q.	c #565656",
"r.	c #0C0C0C",
"s.	c #DEDEDE",
"t.	c #505050",
"u.	c #111111",
"v.	c #C7C7C7",
"w.	c #CFCFCF",
"x.	c #F0F0F0",
"y.	c #F1F1F1",
"z.	c #C8C8C8",
"A.	c #ADADAD",
"B.	c #A4A4A4",
"C.	c #454545",
"D.	c #7F7F7F",
"E.	c #8E8E8E",
"F.	c #828282",
"G.	c #787878",
"H.	c #646464",
"I.	c #3E3E3E",
"J.	c #222222",
"K.	c #202020",
"L.	c #7B7B7B",
"M.	c #DFDFDF",
"N.	c #1F1F1F",
"O.	c #1D1D1D",
"P.	c #161616",
"Q.	c #5C5C5C",
"R.	c #CCCCCC",
"S.	c #3B3B3B",
"T.	c #7C7C7C",
"U.	c #BEBEBE",
"V.	c #686868",
"W.	c #7A7A7A",
"X.	c #6B6B6B",
"Y.	c #6F6F6F",
"Z.	c #6C6C6C",
"`.	c #939393",
" +	c #ABABAB",
".+	c #C3C3C3",
"++	c #666666",
"@+	c #EAEAEA",
"#+	c #E1E1E1",
"$+	c #E7E7E7",
"%+	c #DADADA",
"&+	c #1E1E1E",
"*+	c #797979",
"=+	c #585858",
". . . . . . . . . . + @ # + . . . $ % & * = + + + + + + + + - * ; > , ' ' ' ' + ' - . . - ) - . , @ ! + . . . . . . . . . . . . . . . . . . ",
". . . . . . . . . . . ' ' + ) . . ~ { ] ^ ^ / / / / / / / / ( _ : < [ } | 1 2 3 4 5 $ . . . ' + + ' ' + - . . . . . . . . . . . . . . . . . ",
". . . . . . . . . . . . + 6 ! ' . 7 8 8 8 8 8 8 8 8 8 8 8 8 8 8 8 8 8 8 9 0 a b c d e f g . . . - . . ) = . . . . . . . . . . . . . . . . . ",
". . . . . . . . . . . ' + , h + . i 8 0 j 8 8 8 8 8 8 8 8 8 8 8 8 8 8 9 k 8 8 8 8 9 a l m n o . . + , = ' . . . . . . . . . . . . . . . . . ",
". . . . . . . . . . . ' ' ' + + . p 8 q 0 9 9 8 8 8 8 8 8 8 8 8 8 8 8 8 8 8 8 8 8 8 8 r s } t u h . , , + - . . + + . . . - - . . . . . . . ",
"- . . . . . . . . . . - ' = - - . v 8 9 k j j k 0 w j r w k k r j j r k 8 8 8 8 8 8 9 8 8 8 x y z , - h ! = . . 6 6 . - . ' ' - . . . . . . ",
"+ - . . . . . . . . . . + ) - . . v 8 8 8 9 j A } B C [ { D b D ] E ^ D F G H q j 9 9 j w 9 8 H I J K + h = - . ! ! - + - - ' - . . . . . . ",
", ' . . . . . . . . . . + ) - . . v 8 8 8 8 s L M N O P Q R R S T U V R W X Y d / A k 9 q 0 H 8 Z `  .$ . + ' - ) ) . + ' . . . . . . . . . ",
") ' . . . . . . . . . . + ) - . . v 8 8 8 8 ..+.@.. = = = = = = = = = = ) ) ' #.3 $.: A 8 8 %.H 8 s I &.. ' h ' ' ' . + = ' . . . . . . . . ",
"- . . . . . . . . . . . + ) - . . v 8 8 8 8 *.=.-.. . . . . . . . . . . . = . = $ ;.>.,.H 8 r 9 w k '.).!.- , ' . . . - ) + . . . . . . . . ",
"- . . . . . . . . . . . + ) - . . v 8 8 8 8 *.+.g . ) h ' ) h = . . = , = ' - . ' , $ ~.S {.8 8 9 0 ].^.~ - . - . . . . = + . . . . . . . . ",
"- . . . . . . . . . . . + ) - . . v 8 8 8 8 *./.-.. = = - + + = + ' ' ) = = ' . = h . . % (._.8 k :.w A <.K . . . - - . - - - . . . . . . . ",
"- . . . . . . . . . . . + ) - . . v 8 8 8 8 *.X [.. ' . . + + = , + . . - h , + . . . . - }.|.1.9 r 8 q 2.u ) . . . - . . - ' . . . . . . . ",
"+ - . . . . . . . . . . + ) - . . v 8 8 8 8 3.4.[.. + + - , h , = ' . - - = = ' - - ' . . ) 5.^ 8 9 8 w B 6.@ . . . - ' - ' ' - . . . . . . ",
"+ - . . . . . . . . . . + ) - . . v 8 8 8 8 *.=.[.. - ' . ' + ' - - ' ) ) - - . ' ) , ' - ) ) 7.8 w 9 9 8.=.K . . . ' ) ' ' ' - . . . . . . ",
"' . . . . . . . . . . . + ) - . . v 8 8 8 8 *.4.[.. . - . ' - . . . ' + + . . . - + + ' + ! . 9.a r 9 8 j y !.. . - + = ' - - - . . - . ' ' ",
"- . . . . . . . . . . . + ) - . . v 8 8 8 8 *.4.[.. . . . = ' . . . . . . . . . . - + + - = . R D 9 8 8 j 0.;.. ' ' ' - - . . - . . - . = ' ",
". . . . . . . . . . . . + ) - . . v 8 8 8 8 *.4.[.. . . . + ' - . . . . . . . . . - + + . . . a.C 8 9 j j b.c.. , = - . - - . . . . - ' + . ",
". . . . . . . . . . . . + ) - . . v 8 8 8 8 *.4.[.. . . . + ' - . . . . . . . . . . - . - . . a._ 9 8 j j ` ;.. , ) . . ' ' . . . . ' = - . ",
". . . . . . . . . . . . + ) - . . v 8 8 8 8 *.4.[.. . . . + ' - . . . . . . . . . . . = 6 + . d.D j 8 8 k e.;.. ) = . - = + . - + ' - + . . ",
". . . . . . . . . . . . + ) - . . v 8 8 8 8 *.4.[.. . . . + ' - . . . . . . . . . . - h @ + . f.a k 8 8 q g.!.. ' ' . - ) + . - ) = . - . . ",
"- . . . . . . . . . . . + ) - . . v 8 8 8 8 *.4.[.. . . . + ' - . . . . . . . . . . - ) h . . $.9 8 9 9 _.X K . - - . - + ' . - ) = . . . - ",
"- . . . . . . . . . . . + ) - . . v 8 8 8 8 *.4.[.. . . . + ' - . . . . . . . . . - ' ' . ' h.i.8 8 8 r j.k.# . ' ' . ' - . . - = + . . . - ",
". . . . . . . . . . . . + ) - . . v 8 8 8 8 *.4.[.. . . . + ' - . . . . . . . . . - + ' ' l.3 m.8 8 8 :.7.n.h . + + . ' . ' + + - . - + . . ",
"' . . . . . . . . . . . + ) - . . v 8 8 8 8 *.4.[.. . . . = ' . . . . . . . . . . . . . - n.B j k q 9 Z o.;.. . + + . . . , * ! + . ' h . . ",
"' - . . . . . . . . . . + ) - . . v 8 8 8 8 8.X [.. + . . ' - . . . . . ' . . . . . . @ p.q.1.:.r.r 8 8.d., . . - - . . . + h h + . ' 6 ' . ",
"- . . . . . . . . . . . + ) - . . v 8 8 8 8 8./.s.. . . . . . . . . . . . . . . $ l.u Q t.].8 u.G 8 1.I v.' . . . . . . . - - - ' - ' h + . ",
"- . . . . . . . . . . . + ) - . . v 8 8 8 8 *.e w.6 x.y.x.x.> > > > > & ; !.o z.A.M t.( %.8 9 H j 8 { B.* . . . . . . . . . . . . . ' , - . ",
"- . . . . . . . . . . . + ) - . . v 8 8 8 9 a C.D.7 V 3 U R T S E.E.T F.G.9.H.t.I.J.k 8 9 j Z k 8 K.L.M.. . . . . . . . . . . . . . ' , . . ",
"- . . . . . . . . . . . + ) - . . v 8 8 8 k Z {.'.N.O.'.8.8.P.*.x x 8.A k 8 8 8 8 8 0 q 8 Z Z 8 F 4.#.= - . . . . . . . . . . . . - = ) . . ",
". . . . . . . . . . . . + ) - . . v 8 8 8 8 8 8 8 8 8 8 8 8 r k 8 8 0 1.q 8 8 8 8 w {.A 8 ].].8.G.M.. . = . . . . . . . . . - - - + h = . . ",
". . . . . . . . . . . . + ) - . . v 8 8 8 8 k j r H s j 8 8 8 9 j k 8 8 8 8 k j j k 9 8 0 Z Q.R.= - - - - . . . . . . . . . - ' - = h - . . ",
"' . . . . . . . . . . . + ) - . . v 8 8 8 w q k 8 9 k 8 8 w q r 9 8 k r w 9 8 8 8 8 8 J.(.u [.* . , y., . . . . . . . . . . - - - = , . . . ",
"' - . . . . . . . . . . + ) - . . v 8 8 8 j 9 8 8 8 8 8 8 8 8 8 8 8 8 8 8 w F S.Q.T.v U.-.! ' h , = h ! ) . . . . . . . . . - - - + = . = . ",
". . . . . . . . . . . . + ) - . . v 8 8 8 8 q } V.W.X.Y.Y.Z.e <.<.<.<.9.G.F.`. +.+g @ = + = . ) , = ) h = . . . . . . . . . - - . - ' ' $ . ",
"- . . . . . . . . . . . + ) - . . v 8 8 8 8 a ++v.@+s.#+}.M.M.}.}.}.}.#+% $+; # h - . . . ' . - ' + ) + - . . . . . . . . . - - . - ' ' * . ",
"' - . . . . . . . . . . + ) - . . v 8 8 8 8 *.W.#+. . . . . . . . . . . . . . . . . - ' - . . . . - ' - . . . . . . . . . . - - - ' = - + . ",
"' . . . . . . . . . . . + ) - . . v 8 8 8 8 *.4.[.. . . . + ' . . . . . . . . . . . . . . . . . . . . . . . . . . . . . . . - - ' ' ' - - . ",
"- . . . . . . . . . . . + ) - . . v 8 8 8 8 *.4.[.. . . . + ' - . . . . . . . . . . . . . . . . . . . . . . . . . . . . . . . - = + . - ! . ",
"- . . . . . . . . . . . + ) - . . v 8 8 8 8 *.4.[.. . . . + ' - . . . . . . . . . . . . . . . . . . . . . . . . . . . . . . . ' ! h . ' > + ",
"- . . . . . . . . . . . + ) - . . v 8 8 8 8 *.4.[.. . . . + ' - . . . . . . . . . . . . . . . . . . . . . . . . . . . . . . . - , ) . ' y.+ ",
". . . . . . . . . . . . + ) - . . v 8 8 8 8 *.4.[.. . . . + ' - . . . . . . . . . . . . . . . . . . . . . . . . . . . . . . . . - - . . ' = ",
"- . . . . . . . . . . . + ) - . . v 8 8 8 8 *.4.[.. . . . + ' - . . . . . . . . . . . . . . . . . . . . . . . . . . . . . . - - . - ' - . ' ",
"+ - . . . . . . . . . . + ) - . . v 8 8 8 8 *.4.[.. . . . + ' - . . . . . . . . . . . . . . . . . . . . . . . . . . . . . . - + - ' = . . . ",
"+ - . . . . . . . . . . + ) - . . v 8 8 8 8 *.4.[.. . . . + ' - . . . . . . . . . . . . . . . . . . . . . . . . . . . . . . - + ' + = . + . ",
"+ - . . . . . . . . . . + ) - . . v 8 8 8 8 *.4.[.. . . . + ' - . . . . . . . . . . . . . . . . . . . . . . . . . . . . . . - - - ' ' - 6 - ",
"- . . . . . . . . . . . + ) - . . v 8 8 8 8 *.4.[.. . . . + ' - . . . . . . . . . . . . . . . . . . . . . . . . . . . . . . . . . . . - , - ",
". . . . . . . . . . . . + ) - . . v 8 8 8 8 *.4.[.. . . . + ' - . . . . . . . . . . . . . . . . . . . . . . . . . . . . . . . . . . . . . . ",
". . . . . . . . . . . . + ) - . . v 8 8 8 8 *.4.[.. . . . + ' - . . . . . . . . . . . . . . . . . . . . . . . . . . . . . . . . . . . . . . ",
"- . . . . . . . . . . . + ) - . . v 8 8 8 8 *.4.[.. . . . + ' - . . . . . . . . . . . . . . . . . . . . . . . . . . . . . . . . . . . . . . ",
"= - . . . . . . . . . . + ) - . . v 8 8 8 8 *.4.[.. . . . + ' - . . . . . . . . . . . . . . . . . . . . . . . . . . . . . . . . . . . . . . ",
", ' . . . . . . . . . . + ) - . . v 8 8 8 8 *.4.[.. . . . + ' - . . . . . . . . . . . . . . . . . . . . . . . . . . . . . . . . . . . . . . ",
") - . . . . . . . . . . + ) - . . v 8 8 8 8 *.4.[.. . . . + ' - . . . . . . . . . . . . . . . . . . . . . . . . . . . . . . . . . . . . . . ",
"- . . . . . . . . . . . + ) - . . v 8 8 8 8 *.4.[.. . . . + ' - . . . . . . . . . . . . . . . . . . . . . . . . . . . . . . . . . . . . . . ",
"- . . . . . . . . . . . + ) - . . v 8 8 8 8 8.X [.. . . . + ' - . . . . . . . . . . . . . . . . . . . . . . . . . . . . . . . . . . . . . . ",
"= - . . . . . . . . . . + = - - . i 8 8 8 8 _.f.%+. . . . = ' . . . . . . . . . . . . . . . . . . . . . . . . . . . . . . . . . . . . . . . ",
"= ' . . . . . . . . . - , ! - . . N r.w q 8 &+*+-.. . ' + + . . . . . . . . . . . . . . . . . . . . . . . . . . . . . . . . . . . . . . . . ",
"- . . . . . . . . . . - 6 @ ' . . >.y =+e.d Y ~ l.. . = ) - - ' - . . . . . . . . . . . . . . . . . . . . . . . . . . . . . . . . . . . . . ",
". . . . . . . . . . - + = + - . . ;.#.-.%+~.g ; , - - - - . ) , ' . . . . . . . . . . . . . . . . . . . . . . . . . . . . . . . . . . . . . ",
". . . . . . . . . . - = + - = - = ) . . . . . . - h 6 + . . + + - . . . . . . . . . . . . . . . . . . . . . . . . . . . . . . . . . . . . . ",
". . . . . . . . . . - + + + ! ' ) = . 6 ! 6 , + + ) , + + ' . . . . . . . . . . . . . . . . . . . . . . . . . . . . . . . . . . . . . . . . ",
". . . . . . . . . . - ' ' ) $ + - - = > > y.* = . . . - , , ' . . . . . . . . . . . . . . . . . . . . . . . . . . . . . . . . . . . . . . . ",
". . . . . . . . . . . . + 6 6 + . . ' , + - - - - - . . + = + - . . . . . . . . . . . . . . . . . . . . . . . . . . . . . . . . . . . . . . ",
". . . . . . . . . . . . - + + , h = ' = - . ' ) , ) ' . . - - . . . . . . . . . . . . . . . . . . . . . . . . . . . . . . . . . . . . . . . ",
". . . . . . . . . . . ' = ' . = , = - - . - + + + ' . . - - . . . . . . . . . . . . . . . . . . . . . . . . . . . . . . . . . . . . . . . . ",
". . . . . . . . . . . ' = ) ' - ) = ' h ' - - - - + = ' - - - - . . . . . . . . . . . . . . . . . . . . . . . . . . . . . . . . . . . . . . ",
". . . . . . . . . . . . ' ) + . = + ' * = . - . - ) h + . . - - . . . . . . . . . . . . . . . . . . . . . . . . . . . . . . . . . . . . . . ",
". . . . . . . . . . . . . ' - . - - - = ' . . . - ' + - . . . . . . . . . . . . . . . . . . . . . . . . . . . . . . . . . . . . . . . . . . ",
". . . . . . . . . . . . . . . . . . . . . . . . . . . . . . . . . . . . . . . . . . . . . . . . . . . . . . . . . . . . . . . . . . . . . . ",
". . . . . . . . . . . . . . . . . . . . . . . . . . . . . . . . . . . . . . . . . . . . . . . . . . . . . . . . . . . . . . . . . . . . . . "};
