/* XPM */
static const char * BigQ_xpm[] = {
"70 70 239 2",
"  	c None",
". 	c #FFFFFF",
"+ 	c #FEFEFE",
"@ 	c #FDFDFD",
"# 	c #FBFBFB",
"$ 	c #F9F9F9",
"% 	c #F8F8F8",
"& 	c #FAFAFA",
"* 	c #FCFCFC",
"= 	c #F7F7F7",
"- 	c #F5F5F5",
"; 	c #F4F4F4",
"> 	c #EAEAEA",
", 	c #E1E1E1",
"' 	c #DCDCDC",
") 	c #DADADA",
"! 	c #D7D7D7",
"~ 	c #D1D1D1",
"{ 	c #D0D0D0",
"] 	c #D4D4D4",
"^ 	c #E6E6E6",
"/ 	c #F3F3F3",
"( 	c #F6F6F6",
"_ 	c #DDDDDD",
": 	c #B0B0B0",
"< 	c #7A7A7A",
"[ 	c #494949",
"} 	c #2B2B2B",
"| 	c #202020",
"1 	c #161616",
"2 	c #090909",
"3 	c #2C2C2C",
"4 	c #474747",
"5 	c #676767",
"6 	c #909090",
"7 	c #C1C1C1",
"8 	c #AAAAAA",
"9 	c #5A5A5A",
"0 	c #2A2A2A",
"a 	c #1C1C1C",
"b 	c #1D1D1D",
"c 	c #181818",
"d 	c #0A0A0A",
"e 	c #000000",
"f 	c #030303",
"g 	c #020202",
"h 	c #010101",
"i 	c #070707",
"j 	c #0E0E0E",
"k 	c #191919",
"l 	c #323232",
"m 	c #717171",
"n 	c #C5C5C5",
"o 	c #B3B3B3",
"p 	c #595959",
"q 	c #3B3B3B",
"r 	c #141414",
"s 	c #040404",
"t 	c #050505",
"u 	c #1A1A1A",
"v 	c #404040",
"w 	c #838383",
"x 	c #D3D3D3",
"y 	c #414141",
"z 	c #060606",
"A 	c #212121",
"B 	c #646464",
"C 	c #AEAEAE",
"D 	c #EBEBEB",
"E 	c #F2F2F2",
"F 	c #BDBDBD",
"G 	c #6C6C6C",
"H 	c #232323",
"I 	c #111111",
"J 	c #8D8D8D",
"K 	c #E4E4E4",
"L 	c #B1B1B1",
"M 	c #555555",
"N 	c #101010",
"O 	c #363636",
"P 	c #3F3F3F",
"Q 	c #434343",
"R 	c #151515",
"S 	c #0B0B0B",
"T 	c #1F1F1F",
"U 	c #929292",
"V 	c #E0E0E0",
"W 	c #585858",
"X 	c #0D0D0D",
"Y 	c #616161",
"Z 	c #8C8C8C",
"` 	c #A1A1A1",
" .	c #A8A8A8",
"..	c #ACACAC",
"+.	c #B2B2B2",
"@.	c #B6B6B6",
"#.	c #B4B4B4",
"$.	c #969696",
"%.	c #787878",
"&.	c #4D4D4D",
"*.	c #222222",
"=.	c #C3C3C3",
"-.	c #515151",
";.	c #121212",
">.	c #5C5C5C",
",.	c #999999",
"'.	c #F0F0F0",
").	c #C0C0C0",
"!.	c #888888",
"~.	c #565656",
"{.	c #2D2D2D",
"].	c #DEDEDE",
"^.	c #E3E3E3",
"/.	c #9A9A9A",
"(.	c #E8E8E8",
"_.	c #EDEDED",
":.	c #F1F1F1",
"<.	c #939393",
"[.	c #E9E9E9",
"}.	c #7E7E7E",
"|.	c #080808",
"1.	c #545454",
"2.	c #C2C2C2",
"3.	c #C4C4C4",
"4.	c #393939",
"5.	c #B8B8B8",
"6.	c #7B7B7B",
"7.	c #ECECEC",
"8.	c #C9C9C9",
"9.	c #131313",
"0.	c #6E6E6E",
"a.	c #D2D2D2",
"b.	c #5B5B5B",
"c.	c #747474",
"d.	c #8A8A8A",
"e.	c #262626",
"f.	c #454545",
"g.	c #BEBEBE",
"h.	c #4F4F4F",
"i.	c #868686",
"j.	c #EEEEEE",
"k.	c #E5E5E5",
"l.	c #808080",
"m.	c #252525",
"n.	c #8E8E8E",
"o.	c #383838",
"p.	c #CACACA",
"q.	c #ABABAB",
"r.	c #373737",
"s.	c #343434",
"t.	c #A2A2A2",
"u.	c #666666",
"v.	c #0F0F0F",
"w.	c #353535",
"x.	c #D5D5D5",
"y.	c #707070",
"z.	c #D6D6D6",
"A.	c #2E2E2E",
"B.	c #B7B7B7",
"C.	c #EFEFEF",
"D.	c #5D5D5D",
"E.	c #7C7C7C",
"F.	c #9E9E9E",
"G.	c #CECECE",
"H.	c #464646",
"I.	c #5E5E5E",
"J.	c #ADADAD",
"K.	c #303030",
"L.	c #DBDBDB",
"M.	c #727272",
"N.	c #9F9F9F",
"O.	c #BBBBBB",
"P.	c #696969",
"Q.	c #A0A0A0",
"R.	c #A4A4A4",
"S.	c #1E1E1E",
"T.	c #898989",
"U.	c #272727",
"V.	c #878787",
"W.	c #767676",
"X.	c #4B4B4B",
"Y.	c #636363",
"Z.	c #CBCBCB",
"`.	c #5F5F5F",
" +	c #6B6B6B",
".+	c #C6C6C6",
"++	c #4A4A4A",
"@+	c #BFBFBF",
"#+	c #505050",
"$+	c #757575",
"%+	c #1B1B1B",
"&+	c #3C3C3C",
"*+	c #3D3D3D",
"=+	c #171717",
"-+	c #C7C7C7",
";+	c #444444",
">+	c #6F6F6F",
",+	c #9C9C9C",
"'+	c #7D7D7D",
")+	c #A6A6A6",
"!+	c #848484",
"~+	c #242424",
"{+	c #949494",
"]+	c #4C4C4C",
"^+	c #0C0C0C",
"/+	c #CCCCCC",
"(+	c #626262",
"_+	c #656565",
":+	c #A9A9A9",
"<+	c #818181",
"[+	c #DFDFDF",
"}+	c #B5B5B5",
"|+	c #A3A3A3",
"1+	c #686868",
"2+	c #797979",
"3+	c #313131",
"4+	c #9B9B9B",
"5+	c #AFAFAF",
"6+	c #737373",
"7+	c #333333",
"8+	c #BABABA",
"9+	c #989898",
"0+	c #9D9D9D",
"a+	c #C8C8C8",
"b+	c #7F7F7F",
"c+	c #6D6D6D",
"d+	c #777777",
"e+	c #6A6A6A",
"f+	c #A7A7A7",
"g+	c #2F2F2F",
"h+	c #8F8F8F",
"i+	c #BCBCBC",
"j+	c #3A3A3A",
"k+	c #858585",
"l+	c #3E3E3E",
"m+	c #4E4E4E",
"n+	c #E2E2E2",
"o+	c #828282",
"p+	c #CDCDCD",
". . . . . . . . . . . + @ @ . + + # $ % & @ + @ + . + @ @ @ + + . . . @ # * @ @ @ @ # % % @ + % = & + + @ * . . . . . . . . . . . . . . . . ",
". . . . . . . . . . . . . + * # * & % = % * @ * @ + . . . + + + + @ @ @ + + . + . @ * * @ . + - ; # . + & & . . . . . . . . . . . . . . . . ",
". . . . . . . . . . . . + * % = @ . . . . + + + . . * ; > , ' ) ! ~ { ] ) , ^ > / @ . = ( + + + @ + . + * @ . . . . . . . . . . . . . . . . ",
". . . . . . . . . . . + * * + . . . . + $ ( $ . + = _ : < [ } | 1 2 2 1 3 4 5 6 7 > @ . + # $ + . + @ @ + . . . . . . . . . . . . . . . . . ",
". . . . . . . . . . . + @ @ . . & ; = * + . . & 8 9 0 a b c d e e f g h f i j k l 4 m n @ . . . % # + + @ + . . . . . . . . . . . . . . . . ",
". . . . . . . . . . . + # # . . % $ * . . = o p q r e e h s g t 2 f h e e e e e f d u v w x . . # # . . . + . . . . . . . . . . . . . . . . ",
". . . . . . . . . . . + * * . @ $ @ . # x 6 y z t f g g h e e f t e e e e g f h e h h h A B C D . . * # @ . . . . . . . . . . . . . . . . . ",
"+ + . . . . . . . . . + * @ . + # . E F G H f g e e h e e e e e f z i f e e e e e h h e h I v J K . @ % # . . . . * @ . . + + . . . . . . . ",
"@ @ + . . . . . . . . @ # # . + . & L M r e e f e e e f N u A 0 O P Q q } a R S g e e f f f d T U V & @ @ . @ . . = & . + # * . . . . . . . ",
"+ @ + . . . . . . . . + * * + # ( F W X e g s e h f z 0 Y Z `  ...+.@.#.8 $.%.&.*.d f h d j h e 3 J ) # . + * . . = & + + * * . . . . . . . ",
". . . . . . . . . . . . . * & & =.-.;.e h z i s S 0 >.,.] & . . . . . . . . '.).!.~.{.S i I t e e 3 Z ].. . @ + + * @ . . + + . . . . . . . ",
"@ . . . . . . . . . . . @ = E ^.B N e h g g t 1 y /.(.. = _.:.* . . . * - - . @ * V ` [ S g j f g e 3 <.[.. . * & + . + @ + . . . . . . . . ",
"* . . . . . . . . . . * & # K }.c g e t |.s I 1.2.:.& @ + @ * % ( + . * * + . * # * - 3.1.e s d f e e 4.L . . + % @ . * $ * . + . . . . . . ",
"* . . . . . . . . . . + . = 5.1 h e e h f H 6.' / . . ( ( + . ( 7.- * + . . . @ * . . * ~ 5 e d f e e ;.W ).. . * + . # $ * + * . . . . . . ",
"+ + . . . . . . . . . . @ 8.1.e h e e e 9.0.! . + + @ & & * $ ( = & + . = :.% + . & ; @ . a.b.s f z s g k c.- . . . . * & @ + * . . . . . . ",
"+ @ . . . . . . . . . . > d.t e i s e S W 3.+ ( * + @ * * & % & . + # # - '.= $ $ ( E = . . { e.i z f e i f.@.# . . . @ * @ . + . . . . . . ",
"@ @ + . . . . . . . . $ g.h.e h d t e f.o $ . * & + . * $ & @ @ @ * ( % @ + + - / % * # # . / i.u e e e i *.G j.@ . . @ # * . . . . . . . . ",
"@ @ + . . . . . . . . k.l.R e g t e m.n.[.. * @ @ . + @ @ + @ * @ + @ @ @ @ + * * * * @ % ; & 7.&.S e g e g o.x @ * @ # $ # . + . . . . . . ",
"+ + + . . + . @ @ . . p.&.e h s h e 5 ~ @ . @ + . . + . . . + + . . . . + @ + . . + @ + & - # @ q.r.z e e e 1 < $ & # @ * * * & . . . . . . ",
". . + . . + . # @ . / ` s.e g g e T t.; . * . . . . . . . . . . . . . . . . . . . . . + * # + . _.u.v.e g e z w.K = # + + + # % . . . . . . ",
"+ . . . . + @ * . . x.y.u e e e e 0.z.+ . @ + . . . . . . . . . . . . . . . . . . . . . # $ . @ . 6 A.i h e f m.B.C.+ @ * @ * # . . . . . . ",
"@ . . . . @ # + . . @.P e e h h e +.% . . @ * . . . . . . . . . . . . . . . . . . . . . # $ + @ . n D.9.e e h 9.E.^.. * & @ + @ . . . . . . ",
"* . + * @ + * . . . F.e.e h f s A G.. + @ + + . . . . . . . . . . . . . . . . . . . . . @ & % + . ( J A e e e z H.x.. @ & @ . + . . . . . . ",
"* . + & # . + . . = d.T e g f |.I._ # $ # . . . . . . . . . . . . . . . . . . . . . . . . @ ( . + . J.K.e h g h a p.. + * + . + . . . . . . ",
"@ . + & # . . . + L.M.k e h e S N._.& $ * . . . . . . . . . . . . . . . . . . . . . . . + @ * * @ . ).4 h g t e g O.* . + . . . . . . . . . ",
". . + # * . . . + O.1.v.e e e N a./ # . . @ + . . . . . . . . . . . . . . . . . . . . . # # + :.# . a.P.r e g e e Q.'.. . . . . . . . . . . ",
"@ * * + . + * . . R.q i e e e S.7.# * . + # * . . . . . . . . . . . . . . . . . . . . + $ % @ _.& . K T.U.e e e e V.V @ . . . . . . . . . . ",
"$ - ( * . @ % . . $.} g e h z l :.@ * + . + + . . . . . . . . . . . . . . . . . . . . . @ @ + $ $ . E t.w.e e e e W.z.* . . + + . . . . . . ",
"* % % * . @ = @ . T.a e e e X X.E . @ + . . . . . . . . . . . . . . . . . . . . . . . . . + @ + # . # o P e g e e Y.Z.& . . + + . . . . . . ",
"+ + + @ + @ % * . l.1 e e e I `.E . + @ + . . . . . . . . . . . . . . . . . . . . . . . . + @ . + . . g.f.e t e e 1.=.& . + . . . . . . . . ",
". . . . . @ $ + . 6.r e e e r  +:.. . + @ + . . . . . . . . . . . . . . . . . . . . . . . @ * . . + . .+++e t e e ++@+& . + . . . . . . . . ",
". . . . . @ $ . . %.9.e e e c W.'.. . + @ + . . . . . . . . . . . . . . . . . . . . . . + @ * @ . @ . G.#+e g e e Q O.$ . + . . . . . . . . ",
". . . . + # & . . $+;.e e e %+l.j.. . @ * @ . . . . . . . . . . . . . . . . . . . . . . + * # * . * . a.M e e e e &+B.% . + . . . . . . . . ",
". + + + * % # . . c.;.e e e %+l.7.. . @ * @ . . . . . . . . . . . . . . . . . . . . . . . @ # * . * . a.M e e e e *+B.% . + . . . . . . . . ",
". + @ + # % + . . 6.r e e e =+c._.. . @ * + . . . . . . . . . . . . . . . . . . . . . + + + * + . @ . G.-.e e e e 4 F $ . . . . . . . . . . ",
". + + + # $ . . . i.k e e e I `.'.. . + + + . . . . . . . . . . . . . . . . . . . . + @ + . @ . . . . ).H.e h e e 9 -+& . . . . . . . . . . ",
". + + + * # . # . <.m.e e e S ;+:.. . . . . . . . . . . . . . . . . . . . . . . . . + @ @ . + . @ . % 8 o.e g e e >+~ # . . . . . . . . . . ",
". + + . + @ @ ; . ,+{.h e h z {./ . . . . + + . . . . . . . . . . . . . . . . . . . . @ @ . . . $ . C./.K.e f e e '+z.& . . . . . . . . . . ",
". + + . + @ @ - . )+4.t e e g S.7.. . . + + + . . . . . . . . . . . . . + . . . . . @ * @ + * . & . , !+~+e z e e {+^.# + # & . . . . . . . ",
". + + + @ # + * . B.]+^+e e e R ] & . + @ @ + . . . . . . . . . . + . + + + . . . + * # @ @ % + + . /+(+;.e 2 e e : - + # ( - . . . . . . . ",
". + + @ @ @ + + . { _+r e e e j :+[.@ + # * + . . . . . . . . . + * @ + + + . + + + @ # # # $ * + . B.P e h z t N .+. . @ % = @ . . . . . . ",
". . + # * . + ( . j.<+a e g e i >+x.* . # # + . . . . . . . . . @ # @ . . . @ & & @ . @ ( - . # @ . N.U.e g e ^+o.{ . . . . @ $ . . . . . . ",
". . @ ( % . @ C.* . F.U.e s e s K.=.# . @ + . . . . . . . . . . . . + * * + & ; ; $ + . '.D . . . ' y.=+e e e X m [+. . @ * & # . . . . . . ",
". . + $ & . @ :.* . }+&+h s e t s ..% . @ + . . . . . . . . . . . . % ; % + . . . . . . # & . + . |+w.f e g e X o C.+ . $ C.'.. . . . . . . ",
". . . + + . . @ # . a.1+r e s z e 2+' . + * + . . . . . . . . . + @ & & @ . . . @ $ = ; $ * / = . W.r e 2 |.s 3+^ + + . # ; ; . . . . . . . ",
". + + . + @ + . @ . :.4+A.e d g e l 5+% . + . . . . . . . . . . . + + . + # % & * @ @ # @ . # @ O.y i e t g ;.6+= . @ @ + # ( ( . . . . . . ",
". + * + @ # . . . . . .+&.e |.e e f 6+z.@ . . . . . . . . . . . + * + . @ $ % * . . . . * $ . > B r g f h f 7+8+$ . # & + . = j.+ . . . . . ",
". + * @ * # . * . * . K E.9.e f e e 3+9+> . . . . . . . . . . . @ * + . * & + . = x F V * . $ 0+m.e h s h R 5 C.* . & & @ * ( / . . . . . . ",
". + + + @ @ + = + & . = }+f.e 2 e e g -.g.* . . . . + . . . . . + @ . @ & * . % -+G Q Z ^ + a+4.2 h g e t &+q.. + . # * * $ = @ . . . . . . ",
". . . . . . + $ + * + . ^ b+h z e t e k >+~ . . . @ @ + . . . . @ $ @ $ $ . % G.c+R e 3 ,.2.b.s f t h e %+< j.. + . + . + # # . . . . . . . ",
". . . . . . . . . . . . * 2.++e e i g e S.2+L.. @ @ @ # * . . # = ( ; - @ & G.y.k h e e 3+#+e f f t e 2 #+@+. * @ . . + + . . . . . . . . . ",
". . . . . . . . . . . . . $ B.j e g h g e =+m D ; + . % ( @ + ( :.& [./ . K d+=+h e g h h z 2 g f h e 3 N.* . . . . + * @ + . . . . . . . . ",
". . . . . . . . . . . + + @ V $+|.z t h e h %+e+! @ . ( ( @ . + & - $ + . E f+7+h e i t e e f X d e T <+[+. . . . . + * @ + . . . . . . . . ",
". . . . . . . . . . . . . . $ x.[ i j I z e g I f.,+'.. . . . % ; # @ * * * :.o v z e g g g e i g T < x.+ @ % @ . . . + + . @ * . . . . . . ",
". . . . . . . . . . . . . . . # }+f.R |.s f s e |.g+5 |+! & . . . . . . . * ! h+O |.e h s t e e e y }+$ . % $ + + + . . . + # $ . . . . . . ",
". . . . . . . . . . . + # & + . & }+H.z e f 2 d z e f A.5 U J.F n 3.i+7 @+Q.5 0 j t h h f f e z e A.{+k.. * + . + * * + . . * $ . . . . . . ",
". . . . . . . . . . . @ $ % * & @ . )+H.I e f S g e i |.|.v.T 7+Q [ j+P q T d t s h e e e e |.j s f &+0+[.. + . . # $ * . . + @ . . . . . . ",
". . . . . . . . . . . + @ @ # / :.. ( i+(+u s g |.t s h e e e e s 2 X 2 g e e e e e e h z S v.z g e f j+N.C.@ + . @ & # + . . . . . . . . . ",
". . . . . . . . . . . . + % '.& ( $ . ; a+k+q g f e e g f g e e e e z f e g z z e h e %+Q &+e e g f e t &+|+$ % . . @ @ . . . + . . . . . . ",
". . . . . . . . . . . . @ ( '.. . . & * . j.+.Y O v.e e e e e e e g h e e e e e s %+Q l.5.` A.g e i z e z P J.D @ # @ . . . + @ . . . . . . ",
". . . . . . . . . . . . . + @ . . . + . . . % [.8 (+g+u 9.X z e e e e e s N ;.c l+'+F [.* j. .w.s h s g e s K.J.E % & * @ + + + . . . . . . ",
". . . . . . . . . . . . . . . . . . . . . . . . E ].@+4+c.m+g+u ;.v.X 9.} #+W.9+7 K $ . * - [.+.s.f e f z h f X.n+@ $ - = # + . . . . . . . ",
". . . . . . . . . . . . . . . . . . . . . + * & . . . :.' a+5.C 8  .f+8 @.8.].'.+ . * @ ( :.. - Q.l+|.e h e u V._.- = $ & & * . . . . . . . ",
". . . . . . . . . . . . . . . . . . . . . . @ # + # # . . . . . . . . . . . . . . * = = = % * # :.|+P g e U.b+j.@ / $ + @ # # @ . . . . . . ",
". . . . . . . . . . . . . . . . . . . . . . @ * * = ( % * . . . # ( * + + @ * + . . @ ( $ . - ( . E ,.q {.o+7.# . + + # & @ @ # . . . . . . ",
". . . . . . . . . . . . . . . . . . . . . + $ - * . + + + + + . . @ * & # @ . . + . . @ @ @ & % + . K L t.p++ , @ @ % $ @ + @ + . . . . . . ",
". . . . . . . . . . . . . . . . . . . . . . + * + . * % ( % # + . . + @ @ . . @ # * + . = ; + ( @ + & ; j.> j.$ . D E @ + # & . . . . . . . ",
". . . . . . . . . . . . . . . . . . . . . . . . + @ @ * & # @ @ & # * + + . + & $ # . + & = $ * & @ $ % # # - . % E # $ / = . . . . . . . . ",
". . . . . . . . . . . . . . . . . . . . . . + * @ @ + + + + . + # # @ . + + + # # @ @ @ * & $ # & + & ( & . @ # = @ . $ / ( @ . . . . . . . ",
". . . . . . . . . . . . . . . . . . . . . . @ # @ + + + @ @ + . + + . . + * @ + + + @ + * & @ % * + @ * + . + $ @ + . + # % & . . . . . . . "};
