/* XPM */
static const char * BigR_xpm[] = {
"70 70 218 2",
"  	c None",
". 	c #FFFFFF",
"+ 	c #FEFEFE",
"@ 	c #FDFDFD",
"# 	c #FCFCFC",
"$ 	c #FAFAFA",
"% 	c #FBFBFB",
"& 	c #F9F9F9",
"* 	c #F4F4F4",
"= 	c #ECECEC",
"- 	c #F2F2F2",
"; 	c #F8F8F8",
"> 	c #F5F5F5",
", 	c #A0A0A0",
"' 	c #373737",
") 	c #272727",
"! 	c #282828",
"~ 	c #292929",
"{ 	c #2A2A2A",
"] 	c #303030",
"^ 	c #464646",
"/ 	c #414141",
"( 	c #545454",
"_ 	c #828282",
": 	c #BEBEBE",
"< 	c #929292",
"[ 	c #000000",
"} 	c #050505",
"| 	c #090909",
"1 	c #141414",
"2 	c #242424",
"3 	c #383838",
"4 	c #515151",
"5 	c #717171",
"6 	c #A2A2A2",
"7 	c #E2E2E2",
"8 	c #9A9A9A",
"9 	c #010101",
"0 	c #030303",
"a 	c #060606",
"b 	c #020202",
"c 	c #0D0D0D",
"d 	c #343434",
"e 	c #6F6F6F",
"f 	c #A5A5A5",
"g 	c #EAEAEA",
"h 	c #9E9E9E",
"i 	c #0F0F0F",
"j 	c #959595",
"k 	c #C7C7C7",
"l 	c #F0F0F0",
"m 	c #070707",
"n 	c #040404",
"o 	c #B4B4B4",
"p 	c #9F9F9F",
"q 	c #101010",
"r 	c #262626",
"s 	c #2E2E2E",
"t 	c #252525",
"u 	c #1C1C1C",
"v 	c #0C0C0C",
"w 	c #0A0A0A",
"x 	c #080808",
"y 	c #555555",
"z 	c #B8B8B8",
"A 	c #F3F3F3",
"B 	c #9B9B9B",
"C 	c #0E0E0E",
"D 	c #909090",
"E 	c #919191",
"F 	c #8E8E8E",
"G 	c #6A6A6A",
"H 	c #616161",
"I 	c #505050",
"J 	c #2F2F2F",
"K 	c #0B0B0B",
"L 	c #535353",
"M 	c #BDBDBD",
"N 	c #F7F7F7",
"O 	c #989898",
"P 	c #222222",
"Q 	c #7B7B7B",
"R 	c #DADADA",
"S 	c #E3E3E3",
"T 	c #A6A6A6",
"U 	c #5D5D5D",
"V 	c #121212",
"W 	c #D2D2D2",
"X 	c #1D1D1D",
"Y 	c #7D7D7D",
"Z 	c #E0E0E0",
"` 	c #E4E4E4",
" .	c #ABABAB",
"..	c #4C4C4C",
"+.	c #161616",
"@.	c #707070",
"#.	c #D8D8D8",
"$.	c #393939",
"%.	c #AEAEAE",
"&.	c #1F1F1F",
"*.	c #797979",
"=.	c #DBDBDB",
"-.	c #F6F6F6",
";.	c #767676",
">.	c #9D9D9D",
",.	c #212121",
"'.	c #7C7C7C",
").	c #DDDDDD",
"!.	c #EFEFEF",
"~.	c #4F4F4F",
"{.	c #525252",
"].	c #CBCBCB",
"^.	c #171717",
"/.	c #D9D9D9",
"(.	c #AAAAAA",
"_.	c #353535",
":.	c #979797",
"<.	c #4B4B4B",
"[.	c #191919",
"}.	c #7A7A7A",
"|.	c #999999",
"1.	c #EBEBEB",
"2.	c #858585",
"3.	c #4E4E4E",
"4.	c #E9E9E9",
"5.	c #9C9C9C",
"6.	c #949494",
"7.	c #2B2B2B",
"8.	c #575757",
"9.	c #626262",
"0.	c #5E5E5E",
"a.	c #747474",
"b.	c #3E3E3E",
"c.	c #868686",
"d.	c #1E1E1E",
"e.	c #494949",
"f.	c #C2C2C2",
"g.	c #F1F1F1",
"h.	c #656565",
"i.	c #727272",
"j.	c #646464",
"k.	c #8D8D8D",
"l.	c #787878",
"m.	c #DFDFDF",
"n.	c #C8C8C8",
"o.	c #4A4A4A",
"p.	c #131313",
"q.	c #C3C3C3",
"r.	c #EEEEEE",
"s.	c #E5E5E5",
"t.	c #D3D3D3",
"u.	c #AFAFAF",
"v.	c #808080",
"w.	c #454545",
"x.	c #818181",
"y.	c #969696",
"z.	c #939393",
"A.	c #8A8A8A",
"B.	c #888888",
"C.	c #8C8C8C",
"D.	c #6E6E6E",
"E.	c #676767",
"F.	c #585858",
"G.	c #3F3F3F",
"H.	c #D5D5D5",
"I.	c #1B1B1B",
"J.	c #202020",
"K.	c #181818",
"L.	c #111111",
"M.	c #CDCDCD",
"N.	c #A1A1A1",
"O.	c #5F5F5F",
"P.	c #C1C1C1",
"Q.	c #B0B0B0",
"R.	c #E7E7E7",
"S.	c #BABABA",
"T.	c #333333",
"U.	c #636363",
"V.	c #565656",
"W.	c #1A1A1A",
"X.	c #7E7E7E",
"Y.	c #848484",
"Z.	c #BBBBBB",
"`.	c #6B6B6B",
" +	c #C5C5C5",
".+	c #323232",
"++	c #E8E8E8",
"@+	c #E1E1E1",
"#+	c #DCDCDC",
"$+	c #151515",
"%+	c #CFCFCF",
"&+	c #484848",
"*+	c #686868",
"=+	c #CECECE",
"-+	c #BFBFBF",
";+	c #4D4D4D",
">+	c #444444",
",+	c #B2B2B2",
"'+	c #A8A8A8",
")+	c #838383",
"!+	c #EDEDED",
"~+	c #8F8F8F",
"{+	c #2C2C2C",
"]+	c #404040",
"^+	c #B9B9B9",
"/+	c #DEDEDE",
"(+	c #B6B6B6",
"_+	c #D4D4D4",
":+	c #737373",
"<+	c #C6C6C6",
"[+	c #CACACA",
"}+	c #606060",
"|+	c #595959",
"1+	c #C4C4C4",
"2+	c #D6D6D6",
"3+	c #B7B7B7",
"4+	c #E6E6E6",
"5+	c #D7D7D7",
". . . . . . . . . . . . . . . . . . . . . . . . . . . . . . . . . . . . . . . . . . . . . . . . . . . . . . . . . . . . . . . . . . . . . . ",
". . . . . . . . . . . . + + . + . . + @ + . . + + + + + + + + + + + . . . . + + + . . + @ + . . . . . . . . . . . . . . . . . . . . . . . . ",
". . . . . . . . . . . . @ + + + . . @ @ + # @ . . . . . . . . + + + . + @ @ @ @ + . . @ # @ + . + + + . . . . . . . . . . . . . . . . . . . ",
". . . . . . . . . . . . + # # . + . + . + $ % . . . . . . . . . + + . @ # # @ + . . . + + + . . @ # # . . . . . . . . . . . . . . . . . . . ",
". . . . . . . . . . . . . & & . # + + + + # # . . . . . . . . . . + . @ # @ + . . . . . . . . . @ % # . . . . . . . . . . . . . . . . . . . ",
". . . . . . . . . . . . . & $ . # @ % # + . . + + + + + + + + + + @ + @ @ @ + + + + + @ . . . . + @ + . . . . . . . . . . . . . . . . . . . ",
". . . . . . . . . . . . + @ + . . . % # + . . . . . . . . . . . . . . # $ % # # % # # $ + . + + . . . . + + . . . . . . . . . . . . . . . . ",
". . . . . . . . . . . . & @ $ * % @ @ % * = - + # # # # # # # # # # # @ @ + # & % . + # @ @ % & % @ . + ; % . . . . . . . . . . . . . . . . ",
". . . . . . . . . . . . . > , ' ) ! ! ! ~ { { ~ ~ ~ ~ ~ ~ ~ ! ! ] ^ / ( _ : - . . . - @ . . # ; ; # . . # + . . . . . . . . . . . . . . . . ",
". . . . . . . . . . . . . . < [ [ [ [ [ [ [ [ [ [ [ [ [ [ [ [ [ [ } | 1 2 3 4 5 6 7 . % @ . + # % @ . . . . . . . . . . . . . . . . . . . . ",
". . . . . . . . . . . . @ . 8 [ [ [ } } 9 [ [ [ [ [ [ [ [ [ [ [ [ [ 0 a b [ [ c d e f g . . . . + + + + # + . . . . . . . . . . . . . . . . ",
"+ . . . . . . . . . . + & . h [ [ 0 } 0 [ [ [ [ [ [ [ [ [ [ [ [ [ 9 9 [ [ 9 9 [ b i { j k l . . . . + @ $ @ . . . . . . . . . . . . . . . . ",
"# . . . . . . . . . . + & . , 9 [ m | 0 9 0 n b b b b b b b 0 0 b b [ [ [ 0 m a [ [ [ 2 ( o & . + @ + @ # + . . . . . . . . . . . . . . . . ",
"# . . . . . . . . . . + @ . p [ [ n } n q r s r ) ) ) ) ) ) ) ! t u v w x 0 b n } m [ [ | y z A % & . # @ . . . . . . . . . . . . . . . . . ",
"+ . . . . . . . . . . . . . B [ [ [ [ C / _ B D D D D D D D E E F _ G H I J C [ b K [ 9 [ x L M - @ @ N @ . . . . . . . . . . . . . . . . . ",
". . . . . . . . . . . . . . O [ [ 0 [ P Q R . % % % % % % % % % % $ & # S T U r w 9 0 0 b [ V H W . $ > # . . . . . . . . . . . . . . . . . ",
". + . . . . . . . . . . . . 8 [ [ 9 [ X Y Z . . . . . . . . . . . + . - N N `  ...w v 0 x } [ P E l + + + . . . . . . . . . . . . . . . . . ",
"+ # . . . . . . . . . . . . p b [ [ [ +.@.#.. + + + + + + + + + + + * N + . @ * W _ m [ } n [ n $.%.+ . % @ . . . . . . . . . . . . . . . . ",
"+ # . . . . . . . . . . . . p b [ [ [ &.*.=.. . . . . . . . . . . . ; @ & * -.+ @ =._ V [ b b [ i ;.A + @ + . . . . . . . . . . . . . . . . ",
". + . . . . . . . . . . . . >.[ [ [ [ ,.'.).. + . . . . . . . . + % . + ; -.& $ ; & !.~.C b b [ m {.].-.. . . . . . . . . . . . . . . . . . ",
". . . . . . . . . . . . . . 8 [ [ [ [ ^.5 /.. + + + + + + + + + # N # + + + @ @ + . $ (.] [ 9 9 a _.O !.. + . . . . . . . . . . . . . . . . ",
". + . . . . . . . . . . . . :.[ [ 9 [ +.5 R . . . . . . . . . . . % -.% . # & $ . . + % <.[ } w } [.}.l + # . . . . . . . . . . . . . . . . ",
"# $ . . . . . . . . . . . . |.[ [ b [ +.5 R . . . . . . . . . . @ ; $ @ . @ % # . . . . G K 0 m b } U 1.. # . . . . . . . . . . . . . . . . ",
"% ; . . . . . . . . . . . . B [ [ b [ +.5 /.. . . . . . . . . . @ ; . . . # % # @ @ . . 2.P 0 [ [ 0 3.4.. + . . . . . . . . . . . . . . . . ",
"# % . . . . . . . . . . . . 5.[ [ 9 [ +.5 /.. . . . . . . . . . . + . . # $ & & % # + . 6.7.b [ [ 0 ~.4.. . . . . . . . . . . . . . . . . . ",
"+ @ . . . . . . . . . . . . 5.[ [ 9 [ +.5 /.. . . . . . . . . . . . @ % % # @ + + + . . B s 9 [ [ 0 4 4.. . . . . . . . . . . . . . . . . . ",
". + . . . . . . . . . . . . 5.[ [ 9 [ +.5 /.. . . . . . . . . . . @ $ $ @ . . . . . . . E ) [ [ [ } 8.g . . . . . . . . . . . . . . . . . . ",
". + . . . . . . . . . . . . 5.[ [ 9 [ +.5 /.. . . . . . . . . . . # $ @ . . . @ % # . . }.+.[ [ [ K 9.= . + . . . . . . . . . . . . . . . . ",
". . . . . . . . . . . . . . 5.[ [ 9 [ +.5 /.. . . . . . . . . . . @ + . . . + % & % . # 0.a [ [ 9 +.a.!.+ # . . . . . . . . . . . . . . . . ",
". . . . . . . . . . . . . . 5.[ [ 9 [ +.5 /.. . . . . . . . . . . @ . . @ @ @ . . . # W b.[ 9 [ 0 ~ 6.A . @ . . . . . . . . . . . . . . . . ",
". . . . . . . . . . . . . . 5.[ [ 9 [ +.5 /.. . . . . . . . . . @ % . . # # + . . + g c.d.[ } [ m e.f.& . . . . . . . . . . . . . . . . . . ",
"+ + . . . . . . . . . . . . B [ [ b [ +.5 /.. . . . . . . . . . @ & . . # # + . + g.]._.9 } | [ w h.g N @ . . . . . . . . . . . . . . . . . ",
"+ + . . . . . . . . . . . . p [ [ [ [ ^.i.R . . . . . . + + + . + $ . . + . . . 4.(.j.c } K } [ d.k.$ & & @ . . . . . . . . . . . . . . . . ",
". . . . . . . . . . . . . . 5.9 [ 9 [ ^.l.m.. . . . . . . . . . . . . . . > ` n.j o.p.[ c K [ K y q.@ . & # . . . . . . . . . . . . . . . . ",
". . . . . . . . . . . . . . j [ [ 0 [ +.e W -.= g.g.r.r.r.!.!.= 4.1.g s.t.u.v.I ! c [ [ m 0 [ t O A . + # + . . . . . . . . . . . . . . . . ",
". . . . . . . . . . . . . . j [ [ b [ q w.x.y.F 6.z.A.2.2.B.C.C.c.Q D.E.F.G.&.0 [ [ b } [ [ [.e H.. # - % . . . . . . . . . . . . . . . . . ",
". . . . . . . . . . . . . . >.b [ [ [ a p.I.&.J.,.d.K.V C L.^.u [.x [ [ [ [ [ [ [ 9 0 } [ C 9.M.% @ > !.% . . . . . . . . . . . . . . . . . ",
". . . . . . . . . . . . + . N.m [ [ [ 9 b 9 [ [ [ [ b n b [ [ [ [ n m m b [ [ 9 9 [ [ 0 q O.P.& . & -.. . . . . . . . . . . . . . . . . . . ",
". . . . . . . . . . . . . . z.[ [ 9 [ 0 c +.L.} 9 [ b m w x 0 [ [ [ [ [ [ [ [ [ 9 n x ) v.#.@ # # . . . . . . . . . . . . . . . . . . . . . ",
". . . . . . . . . . . . . . 6.[ [ x n [ b 0 b b n m 9 [ 9 b 0 b [ [ [ a | 0 [ [ b 7.U Q.R.@ . & g !.. $ * $ . . . . . . . . . . . . . . . . ",
". . . . . . . . . . . + % . >.9 [ a a [ [ [ [ [ [ b 0 0 b 9 9 9 [ [ [ [ K s L ;.O S.W A g.-.. @ -.l * @ # @ . . . . . . . . . . . . . . . . ",
". . . . . . . . . . . + # . , b [ 9 9 C T.U.;.V.W.[ [ } } b [ n ~ X.e 5 Y.h Z.#.!.& @ & - N + . + $ * N @ . . . . . . . . . . . . . . . . . ",
"$ . . . . . . . . . . . + . h [ [ [ [ K.`. +1.n.e q [ 0 n 9 [ } .+(.s.s.++r.* $ + . % * ; # + + . . $ > # . . . . . . . . . . . . . + + + @ ",
"> . . . . . . . . . . . . . 5.[ [ 9 [ K.*.@+. . M.U 1 [ [ b } a 1 ( #+. . . + ; ; + N ; + . + . . . . % + . . . . . . . . . . . . . # + @ % ",
"N @ . . . . . . . . . . . . B [ [ b [ $+@./.. . @  +4 C [ n x x b [ H %+% + N -.$ # % . . . . . . . . . . . . . . . . . . . . . . + @ + + # ",
"@ & . . . . . . . . . . . . 5.[ [ 9 [ +.5 R . $ # . Q.&+q 0 } | c [ [ }.H.* ; % + ; @ . . . . . . . . . . . . . . . . . . . . + # $ @ @ + . ",
"$ % . . . . . . . . . . . . 5.[ [ 9 [ +.5 R . $ . $ . z e.K n x [ b n n *+=+@ . & - N + . . . . . . . . . . . . . . . . . . . + $ A & $ # # ",
"l . . . . . . . . . . . . . 5.[ [ 9 [ +.5 R . # . @ & . -+;+m [ [ [ [ [ C D.=.. # N + . . . . . . . . . . . . . . . . . . . . . . . . . . $ ",
"* . . . . . . . . . . . . . 5.[ [ 9 [ +.5 R . . . + @ . . M >+[ [ } [ 9 [ 1 G #.. @ + . . . . . . . . . . . . . . . . . . . . $ !.r.% . . + ",
"-.-.. . . . . . . . . . . . 5.[ [ 9 [ +.5 R . % * . . . . r.,+~.[ 9 [ [ [ [ J.*./.. & + . . . . . . . . . . . . . . . . . . . @ & N + % & % ",
"N r.+ . . . . . . . . . . . 5.[ [ 9 [ +.5 R . $ > % . + $ % !.u./ [ [ 9 w m n t Q m.. . . . . . . . . . . . . . . . . . . . . # -.+ . ; -.% ",
"-.A . . . . . . . . . . . . 5.[ [ 9 [ +.i.R . # # $ @ % % + @ ++'+.+[ [ C C 9 [ ) )+` . . . . . . . . . . . . . . . . . . . . $ - . % ; $ @ ",
"N @ . . . . . . . . . . . . 5.[ [ 9 [ +.5 R . + . @ % ; # + . + !+, ) 0 } a n [ b r F ++. . . . . + + . . . . . . . . . . . . @ $ . N & . # ",
"% . . . . . . . . . . . . . 5.[ [ 9 [ +.5 /.. . + . @ % # + . . . g.~+{+n [ } m [ [ {+, !+. + . + $ ; + + + . . . . . . . . . . . . & # . % ",
". . . . . . . . . . . . . . 5.[ [ 9 [ +.5 /.. . . . . . . . . . . . l C.) [ b m 0 [ b d (.r.@ . + -.A @ + + . . . . . . . . . . . + + . @ % ",
". . . . . . . . . . . . . . 5.[ [ 9 [ +.5 /.. . . . . . . . . . . + A * Y K.[ 9 0 n [ [ ]+ .* . + & N $ + . . . . . . . . . . . + % @ . + % ",
". . . . . . . . . . . . . . 5.[ [ 9 [ +.5 /.. . . . . . . . . . . @ . -.s._ [.[ n n [ [ [ I ^+* . + -.R.; . . . . . . . . . . . + N @ . + % ",
"@ # . . . . . . . . . . . . 5.[ [ 9 [ +.5 /.. . . . . . . . . . . . > & . /+v.X [ x [ [ [ | o.Q.; . # * @ . . . . . . . . . . . + N @ . @ & ",
"% & . . . . . . . . . . . . 5.[ [ 9 [ +.5 /.. . . . . . . . . . + & N + . . #.'.&.[ [ m } [ a &+(+$ . . N % . . . . . . . . . . . % + . @ % ",
"# & . . . . . . . . . . . . 5.[ [ 9 [ +.5 /.. . . . . . . . . . @ ; . . # . . _+:+V [ m n 0 [ | I M @ # -.$ . . . . . . . . . . + . . . @ + ",
"+ @ . . . . . . . . . . . . 5.[ [ 9 [ +.5 /.. . . . . . . . . . . + % $ & @ . $ <+h.$+[ b 0 } n | 8.[+; . . . . . . . . . . . + % . + + . . ",
". . . . . . . . . . . . . . B [ [ 9 [ $+@./.. . . . . . . . . . . + g.g.; + + @ > ].}+L.[ [ 9 n 0 C |+).. . . . . . . . . . . @ & . $ # + . ",
". + . . . . . . . . . . . . 8 [ [ [ [ p.e /.. . . . . . . . . . . @ -.N % % & $ . $ 1+V.i [ [ 9 0 [ C `.2+. . . . . . . . . . @ $ . > $ # % ",
"+ @ . . . . . . . . . . . . h m [ m [ d.*.#+. . . . . . . . . . . + . . + $ $ @ + . . S.L I.v x | v } L.l.m.. . . . . . . . . @ # . N % @ % ",
"+ + . . . . . . . . . . . . 3+y 3.L ..U.f 4+. . . . . . . . . . . . . . . + + . . . . % : l.L 4 |+|+{.I }+ +. . + + + + + + + + . . + + . + ",
"+ . . . . . . . . . . . % @ 1.t./.R #.#+g & . . . . . . . . . . . . . . . . . . . . . . > Z 5+/.=.=.R /.2+r.. + + + + + + + + + . . . . . . ",
"# . . . . . . . . . . @ A & . . . . . . . @ @ . . . . . . . . . . . . . . . . . . . + * @ . . . . . . . . . + + + + + + + + + + . . . . . . ",
"% @ . . . . . . . . . @ -.% . @ % ; # . + # @ . . . . . . . . . . . . . . . . . . . + > # . + % $ % # # # @ + + + + + + + + + + . . . . . . ",
"@ % . . . . . . . . . . . # # . $ A & + + @ @ . . . . . . . . . . . . . . . . . . . . . + @ $ -.> % . . . + + + + + + + + + + + . . . . . . ",
"@ + . . . . . . . . . . + A * . . + . . + # @ . . . . . . . . . . . . . . . . . . . . + # ; -.& @ . + + . + + + + + + + + + + + . . . . . . "};
