/* XPM */
static const char * BigS_xpm[] = {
"70 70 234 2",
"  	c None",
". 	c #FFFFFF",
"+ 	c #FDFDFD",
"@ 	c #FAFAFA",
"# 	c #FBFBFB",
"$ 	c #FCFCFC",
"% 	c #FEFEFE",
"& 	c #F9F9F9",
"* 	c #F5F5F5",
"= 	c #F8F8F8",
"- 	c #F7F7F7",
"; 	c #F2F2F2",
"> 	c #F3F3F3",
", 	c #EFEFEF",
"' 	c #F4F4F4",
") 	c #EDEDED",
"! 	c #ECECEC",
"~ 	c #E5E5E5",
"{ 	c #DFDFDF",
"] 	c #DBDBDB",
"^ 	c #D6D6D6",
"/ 	c #D5D5D5",
"( 	c #D2D2D2",
"_ 	c #D3D3D3",
": 	c #D9D9D9",
"< 	c #DDDDDD",
"[ 	c #E3E3E3",
"} 	c #E4E4E4",
"| 	c #C7C7C7",
"1 	c #A0A0A0",
"2 	c #6F6F6F",
"3 	c #414141",
"4 	c #202020",
"5 	c #0E0E0E",
"6 	c #080808",
"7 	c #090909",
"8 	c #0A0A0A",
"9 	c #141414",
"0 	c #242424",
"a 	c #353535",
"b 	c #575757",
"c 	c #868686",
"d 	c #B9B9B9",
"e 	c #E2E2E2",
"f 	c #F6F6F6",
"g 	c #C9C9C9",
"h 	c #808080",
"i 	c #3C3C3C",
"j 	c #181818",
"k 	c #101010",
"l 	c #070707",
"m 	c #020202",
"n 	c #010101",
"o 	c #030303",
"p 	c #040404",
"q 	c #050505",
"r 	c #111111",
"s 	c #1F1F1F",
"t 	c #3A3A3A",
"u 	c #676767",
"v 	c #A1A1A1",
"w 	c #8E8E8E",
"x 	c #3D3D3D",
"y 	c #1C1C1C",
"z 	c #000000",
"A 	c #131313",
"B 	c #6E6E6E",
"C 	c #A9A9A9",
"D 	c #F0F0F0",
"E 	c #C4C4C4",
"F 	c #787878",
"G 	c #252525",
"H 	c #1A1A1A",
"I 	c #909090",
"J 	c #DEDEDE",
"K 	c #F1F1F1",
"L 	c #B0B0B0",
"M 	c #585858",
"N 	c #171717",
"O 	c #0C0C0C",
"P 	c #212121",
"Q 	c #7B7B7B",
"R 	c #D8D8D8",
"S 	c #BEBEBE",
"T 	c #555555",
"U 	c #272727",
"V 	c #363636",
"W 	c #3E3E3E",
"X 	c #373737",
"Y 	c #2D2D2D",
"Z 	c #1E1E1E",
"` 	c #191919",
" .	c #0F0F0F",
"..	c #878787",
"+.	c #D1D1D1",
"@.	c #686868",
"#.	c #3F3F3F",
"$.	c #8D8D8D",
"%.	c #9C9C9C",
"&.	c #A7A7A7",
"*.	c #B2B2B2",
"=.	c #B6B6B6",
"-.	c #B5B5B5",
";.	c #ADADAD",
">.	c #A3A3A3",
",.	c #5E5E5E",
"'.	c #303030",
").	c #2E2E2E",
"!.	c #9E9E9E",
"~.	c #838383",
"{.	c #161616",
"].	c #747474",
"^.	c #AEAEAE",
"/.	c #333333",
"(.	c #0D0D0D",
"_.	c #484848",
":.	c #BCBCBC",
"<.	c #CCCCCC",
"[.	c #4E4E4E",
"}.	c #9A9A9A",
"|.	c #464646",
"1.	c #6A6A6A",
"2.	c #6C6C6C",
"3.	c #222222",
"4.	c #636363",
"5.	c #D0D0D0",
"6.	c #EAEAEA",
"7.	c #CACACA",
"8.	c #383838",
"9.	c #ABABAB",
"0.	c #424242",
"a.	c #060606",
"b.	c #CBCBCB",
"c.	c #BFBFBF",
"d.	c #777777",
"e.	c #E0E0E0",
"f.	c #262626",
"g.	c #7A7A7A",
"h.	c #121212",
"i.	c #727272",
"j.	c #0B0B0B",
"k.	c #C2C2C2",
"l.	c #767676",
"m.	c #B1B1B1",
"n.	c #EEEEEE",
"o.	c #979797",
"p.	c #656565",
"q.	c #CECECE",
"r.	c #393939",
"s.	c #606060",
"t.	c #C1C1C1",
"u.	c #919191",
"v.	c #5A5A5A",
"w.	c #858585",
"x.	c #1D1D1D",
"y.	c #707070",
"z.	c #C3C3C3",
"A.	c #818181",
"B.	c #1B1B1B",
"C.	c #929292",
"D.	c #515151",
"E.	c #313131",
"F.	c #282828",
"G.	c #8F8F8F",
"H.	c #4F4F4F",
"I.	c #696969",
"J.	c #B3B3B3",
"K.	c #434343",
"L.	c #C8C8C8",
"M.	c #595959",
"N.	c #BDBDBD",
"O.	c #4B4B4B",
"P.	c #2C2C2C",
"Q.	c #151515",
"R.	c #2A2A2A",
"S.	c #E1E1E1",
"T.	c #797979",
"U.	c #343434",
"V.	c #4D4D4D",
"W.	c #DADADA",
"X.	c #A6A6A6",
"Y.	c #6D6D6D",
"Z.	c #5D5D5D",
"`.	c #757575",
" +	c #505050",
".+	c #E9E9E9",
"++	c #E7E7E7",
"@+	c #848484",
"#+	c #E8E8E8",
"$+	c #565656",
"%+	c #CDCDCD",
"&+	c #B7B7B7",
"*+	c #939393",
"=+	c #5C5C5C",
"-+	c #323232",
";+	c #898989",
">+	c #5F5F5F",
",+	c #AAAAAA",
"'+	c #4A4A4A",
")+	c #666666",
"!+	c #616161",
"~+	c #A5A5A5",
"{+	c #ACACAC",
"]+	c #BBBBBB",
"^+	c #A2A2A2",
"/+	c #7E7E7E",
"(+	c #2F2F2F",
"_+	c #888888",
":+	c #B4B4B4",
"<+	c #6B6B6B",
"[+	c #3B3B3B",
"}+	c #BABABA",
"|+	c #232323",
"1+	c #EBEBEB",
"2+	c #7C7C7C",
"3+	c #D7D7D7",
"4+	c #535353",
"5+	c #545454",
"6+	c #9D9D9D",
"7+	c #989898",
"8+	c #454545",
"9+	c #999999",
"0+	c #C0C0C0",
"a+	c #C5C5C5",
"b+	c #8B8B8B",
"c+	c #292929",
"d+	c #474747",
"e+	c #4C4C4C",
"f+	c #E6E6E6",
"g+	c #D4D4D4",
"h+	c #8C8C8C",
"i+	c #969696",
"j+	c #CFCFCF",
"k+	c #A8A8A8",
". . . . . . . . . . . . . . + @ + + # @ $ + $ . % + % . . . % % % + + % . % + + % . . % + % % # # $ % % # # % . . . . . . . . . . @ & % . . ",
". . . . . . . . . . . . . . % * @ . $ = & % % $ # # + . % % % % + # # % . + $ + % . . % # + + + + + + $ @ & $ % . . . . . . . . . + $ + $ + ",
". . . . . . . . . . . . . . $ - # % + # # % $ ; & + % . % % % . . + + . . % + % + % % % $ @ @ $ $ # & @ $ $ # + . . . . . . . . . % $ & - @ ",
". . . . . . . . . . . . . . @ . + @ # . % & > , @ . % % % % % % % + + % % % . . + # @ # $ @ @ @ # & = # . . @ + . . . . . . . . . $ & - - & ",
". . . . . . . . . . . . . . . . = = $ $ & ' ) + # > ! ~ { ] ^ / / ( _ : < [ ) * # @ - * - + . . . . . % + % = + . . . . . . . . . $ $ . . # ",
". . . . . . . . . . . . . . . % . . = ) , . % & } | 1 2 3 4 5 6 7 8 9 0 a b c d e @ . . % = @ % . . % & ' = % . . . . . . . . . . $ # % . $ ",
". . . . . . . . . . . . . . f + . . + # . % g h i 4 j k l m n o p o o p q 8 r s t u v < . . % @ ' ' @ . + % . . . . . . . . . . . . + # & * ",
". . . . . . . . . . . . . . $ + ' - . . [ w x y o z z z z z n o o o m n m p z z n A t B C = . . * ; = . . . . . . . . . . . . . . . % # # $ ",
". . . . . . . . . . . . . . # % = @ D E F G z o n z z n m z z z z z z z m q p m n z 6 H x I J . % - @ . $ f . . . . . . . . . . . % $ $ % % ",
". . . . . . . . . . . . . . @ & . K L M N z z O p z z z z z z z p o m z z z z n o n z z q P Q R % . $ % # * + % . . . . . . . . . % + . . $ ",
". . . . . . . . . . . . . . + - $ S T 8 z z m 7 n z 6 A H s U V W i X Y Z `  .p z z z z z z j ..e . + @ + @ # % . . . . . . . . . % % . % # ",
". . . . . . . . . . . . . . + . +.@.9 z q z z z p N #.B $.%.&.*.=.-.;.>.%.c ,.'.k o n n n z z ).!.) . & # f $ . . . . . . . . . . $ $ % . $ ",
". . . . . . . . . . . . . . $ . ~.{.z l 7 z z A W ].^.} . . . . . . . . . @ ( !.u /.(.z z z z z _.:.+ . @ > # . . . . . . . . . . $ # % % $ ",
". . . . . . . . . . . . . . . <.[.6 z z n q 9 ,.<.@ + % . # - & % % $ @ f & + % } }.|.k z m z z 9 1.( . % $ = + . . . . . . . . . . . % @ @ ",
". . . . . . . . . . . . . . . 2.3.(.q z z A 4.5.& % # = - @ % % . & ) 6.$ % @ # + = 7.@.(.6 m z z 8.9.. % D + . . . . . . . . . . . . $ @ # ",
". . . . . . . . . . . . . . . 0.q p a.m q t b.# . . % $ & = @ % . % @ @ . # - @ . . D c.d.6 q l z ` F e.. @ . . . . . . . . . . . . = > & % ",
". . . . . . . . . . . . . + ] 8.z z n l f.g.@ . - f # . % $ $ # @ @ @ @ @ @ # % . + f > <.0 7 q z h.i.] . . ' $ . . . . . . . . . . @ f $ . ",
". . . . . . . . . . . . . & ;.Y q m z j.[.k.$ . * * @ % . . . $ @ & = = & + . . % + $ . D l.Z z j.T m.n.= = > $ . . . . . . . . . % # # + % ",
". . . . . . . . . . . . . - o.P a.l z 5 p.* @ . % % % + % . . % . % % % % % % % % % % . # q.r.` s.t.- $ - ; + . . . . . . . . . . # & @ & # ",
". . . . . . . . . . . . . - u.Z z q z k 2 . % % $ # # % % . . % . . . % % % + + % . . . % ! v.~./ $ . . $ # $ . . . . . . . . . . $ $ $ - & ",
". . . . . . . . . . . . . f w.x.z m z r y.. . @ = = # . . . . % % % % % % % % % % . . . % & z.~ $ . . . . . + . . . . . . . . . . % . % # $ ",
". . . . . . . . . . . . . f A.B.m o z r y.. & & # + + + # # + . % % % . . . . . . . . . . . + % . . . . . . . . . . . . . . . . . . . . . . ",
". . . . . . . . . . . . . - C.s p q z  .1.# * + @ @ $ # & & $ . . % % . . . . . . . . . . . . . . . . . . . . . . . . . . . . . . . . . . . ",
". . . . . . . . . . . . . & ^.U n z z j.D.5.# % , n.- % + + % % . % % . . . . . . . . . . . . . . . . . . . . . . . . . . . . . . . . . . . ",
". . . . . . . . . . . . . $ ( E.z z n o F.G.. . - f # . . % $ $ + % . . . . . . . . . . . . . . . . . . . . . . . . . . . . . . . . . . . . ",
". . . . . . . . . . . . . % ' #.l a.q z j.H.( @ . . $ @ # $ $ + % % . . . . . . . . . . . . . . . . . . . . . . . . . . . . . . . . . . . . ",
". . . . . . . . . . . . . . . I.Z 7 m z q s 4.t.f . % & & $ + # $ + % . . . . . . . . . . . . . . . . . . . . . . . . . . . . . . . . . . . ",
". . . . . . . . . . . . . . . d 0.q z q 7 a.l T J.e K # . . @ > f $ . . . . . . . . . . . . . . . . . . . . . . . . . . . . . . . . . . . . ",
". . . . . . . . . . . . . . . # l.A z O 5 z z O B.K.~.L.f @ # + % . . . . . . . . . . . . . . . . . . . . . . . . . . . . . . . . . . . . . ",
". . . . . . . . . . . . . . % . | M.O z p m 8 m z 7 s i b ].o.N.{ - . . . . . . . . . . . . . . . . . . . . . . . . . . . . . . . . . . . . ",
". . . . . . . . . . . . . . = . + *.O.7 z z 7 o p m m q 6 r P.O.u Q I &.=.5., . . . . . . . $ . + @ $ . + = . . . . . . . . . . . . . . . . ",
". . . . . . . . . . . . . . - @ . ! 9.v.x.z z z n n n o m z o 8 r Q.y R.K.I.C.-.q.S.' . . . $ @ - f @ . + * . . . . . . . . . . . . . . . . ",
". . . . . . . . . . . . . . $ f # % D z.T./.5 q z z z m m n z z z z z z l {.f.U.V.T.^.^ 6.= . = * = & & % # $ % . . . . . . . . . . . . . . ",
". . . . . . . . . . . . . % - f # . . + W.X.Y.0.Q.o n z z o l a.n z n n z z z z z H W Z.h S n.& $ + f K @ % ) @ . . . . . . . . . . . . . . ",
". . . . . . . . . . . . . % > $ . + $ . . . S.L `. +V H q z o o z z q 7 n z m p m z z z {.M.$.+.- # * ' * ; .+& . . . . . . . . . . . . . . ",
". . . . . . . . . . . . . . . % $ & & # $ + . . % e L l.|.P.3.B.A 5 (.7 z z o 7 7 o z q k 8 o 4.-.{ f . - ++. . . . . . . . . . . . . . . . ",
". . . . . . . . . . . . . . % - = + . % - n.f % . . . . % > ^ ^.h ,.Y o 6 8 q n z n n z z z z z U @+< % ' . . . . . . . . . . . . . . . . . ",
". . . . . . . . . . . . . + ! * $ . % @ & % + - $ + @ = - - - ' ) #+S.^ t.u.$+4 n z z p O k o z z Z 2.%+. n.$ . . . . . . . . . . . . . . . ",
". . . . . . . . . . . . . . - $ . . + @ & + . # # $ + $ $ $ . . + @ # % f ~ +.&+C.Z.G n z q l 8 o z Z ~.= @ % . . . . . . . . . . . . . . . ",
". . . . . . . . . . . . . . % $ + . . $ # % . . + + % + $ + % . + & @ % . + $ & ) g *+Z.P.z z a.6 z n 8.9.. . . . . . . . . . . . . . . . . ",
". . . . . . % % % + + % . % % & $ % + % % % . . . % % $ # $ % . % + + % . + # % . # .+b.*+V q z 7 j.m O =+& . . . . . . . . . . . . . . . . ",
". . . . . . $ % + # # % . # + @ + $ $ + % $ % % . . % % + + % . . . . . . + # # % . . . ++X.-+q q (.a.z '.q.$ . . . . . . . . . . . . . . . ",
". . . . . % + % % $ $ % % & % # # $ + % $ & # & + . . . . . . . . . . . . . . . . . . . . ; ;+U p o o z Z I - . . . . . . . . . . . . . . . ",
". . . % $ @ + + % . % + $ # + - = + . % # = @ - $ . . . . . . . . . . . . . . . . . . . . @ e >+(.z z z  .M.; . . . . . . . . . . . . . . . ",
". . . % @ > & @ $ $ = * & . = f @ % % # # . . . . . . . . . . . . . . . . . . . . . . . . . . w.j z o n q V D . . . . . . . . . . . . . . . ",
". . . . . . . . . @ D , $ . & + . . # K D + . + % . . . . . . . . . . . . . . . . . . . . . . o.'.a.n z q Y ) . . . . . . . . . . . . . . . ",
". . . @ , n.# . . % + % . @ . . . . . . # % + = + . . . . . . . . . . . . . . . . . . . . . . ,+'+h.n z n s } . . . . . . . . . . . . . . . ",
". . . + & - % # & # % * L.)+1.)+!+].~+e.. % @ $ % . . . . . . . . . . . . . . . . . . . . . . =.[. .z z z 9 .+. . . . . . . . . . . . . . . ",
". . . $ f % . = f # . f *.l 7 q n h.Z.g . + = % . . . . . . . . . . . . . . . . . . . . . + . {+x a.z m z Z D . . . . . . . . . . . . . . . ",
". . . @ ; . # = @ + . + ]+z z z z z #.:.. % $ % . . . . . . . . . . . . . . . . . . . . . + . *+G z n m q X ) . . . . . . . . . . . . . . . ",
". . . + @ . - & . $ # $ c.z m a.m z R.^+. . $ % . . . . . . % . . . . . . . . . . % % . . . . d.h.z n z 5 $+#+. . . . . . . . . . . . . . . ",
". . . . . . & $ . # # # :.z z 6 p z {.2 { . f + . . . . % % + . . . . . . . . . % # $ % . % S.b j.z n z H /+n.. . . . . . . . . . . . . . . ",
". . . . . % % . + # % + z.` l q 7 o o (+C.f f % . . . + $ $ + % % # # % . % % . % @ # + $ * _+Y q z z m ).:+- . . . . . . . . . . . . . . . ",
". . . . % # + . % # + . { <+9 z (.h.a.a.[+;.@ . . . + @ & # . . % * ' $ . . + $ % . . + 6.}+|+q 8 q z 8 H.) ' + . . . . . . . . . . . . . . ",
". . . . % - + . % # @ + f ]+9 n m n l (. .(+:+f . . . % # @ $ . . % # @ . . @ f @ . % ' z.X p z n o 6 f.g.. % . . . . . . . . . . . . . . . ",
". . . . % - + . + & = $ . 1+$+k z m a.a.o l P.2+3+. . . . % + + % . $ & % . . . . . b.d.P.o z o a.z 6 4++.. . . . . . . . . . . . . . . . . ",
". . . . . # % . + # # # $ % 7.U.n z o o a.q z ` M.$.&+{ + . . . . . . . . . ' ( L ;+5+j z 8 o m z q a 6+. . # % . . . . . . . . . . . . . . ",
". . . . % . . . + % % @ * % . 7+R.z z q q p z o p H 8+].9+*.d 0+a+| a+S =.9.b+4.t ` p z o (.p z z E.I ~ . % # % . . . . . . . . . . . . . . ",
". . . % # . % % . . . # f @ + % _+c+q z z n q (.m z q O Q.4 '.W d+e+d+8.U j 5 8 a.n z z o m z p ).;+e . @ $ . . . . . . . . . . . . . . . . ",
". . . + & . @ $ % . % + $ $ * . .+}.x 6 m n 7 a.n z z z z z o l l 6 l m z z z n m n z z z q O r.C.e.. % # @ . . . . . . . . . . . . . . . . ",
". . . + @ . * @ $ # # . . . # , % D J.!+x.m m o n n m n z z m z z z z z z z o q p n z n q Z ].*.f++ + - @ $ + . . . . . . . . . . . . . . . ",
". . . + $ . - # + # # . . . . n.* % @ g+;+_.G a.z z z z z z n o p p m z z z z z z z k '.D.@+} # . . + # @ . + . . . . . . . . . . . . . . . ",
"% % % % . . % % . % % . . . % + $ + . + D g+h+d+U B.9 j.o z z z z z z z z q 5 N Z (+=+1 R K % . . . . . % . . . . . . . . . . . . . . . . . ",
"% % % % . . . . . . . . . . $ % . + & & % . 6.R :+i+g.M X 4 A 5 5 5 j G F.t >+c &.0+R D . . . . . . . . . . . . . . . . . . . . . . . . . . ",
"% % % % . . . . . . . . . . - + . . $ # + . . . $ n.e.j+N.m.,+&.&.k+;.:+-.}+q.~ - . . . + % . . . . . . . . . . . . . . . . . . . . . . . . ",
"% % % % . . . . . . . . . . & + $ # + . . % + @ . . . . . . . . . . . . . . . . . . . % $ % . . . . . . . . . . . . . . . . . . . . . . . . ",
"% % % % . . . . . . . . . . . . & - @ % . % $ f $ % $ # # $ $ + $ @ & # % . . % + $ + % + . . . . . . . . . . . . . . . . . . . . . . . . . ",
"% % % % . . . . . . . . . . % . + + % . . % % + % . % # & # $ . . . # = $ % $ # + . . # f % . . . . . . . . . . . . . . . . . . . . . . . . ",
"% % % % . . . . . . . . . . # $ % . . . + & f f & $ % % % % . % # * - % . . @ & $ % . % + . . . . . . . . . . . . . . . . . . . . . . . . . ",
"% % % % . . . . . . . . . . + + @ - - @ + + # # # + % % $ # # $ $ # = = $ % % + + & - = # . . . . . . . . . . . . . . . . . . . . . . . . . "};
