/* XPM */
static const char * BigT_xpm[] = {
"70 70 107 2",
"  	c None",
". 	c #FFFFFF",
"+ 	c #FAFAFA",
"@ 	c #F9F9F9",
"# 	c #FEFEFE",
"$ 	c #FCFCFC",
"% 	c #F7F7F7",
"& 	c #F5F5F5",
"* 	c #FBFBFB",
"= 	c #F6F6F6",
"- 	c #FDFDFD",
"; 	c #F2F2F2",
"> 	c #F8F8F8",
", 	c #F1F1F1",
"' 	c #F3F3F3",
") 	c #E6E6E6",
"! 	c #878787",
"~ 	c #626262",
"{ 	c #6A6A6A",
"] 	c #6B6B6B",
"^ 	c #686868",
"/ 	c #6D6D6D",
"( 	c #767676",
"_ 	c #696969",
": 	c #606060",
"< 	c #7F7F7F",
"[ 	c #DEDEDE",
"} 	c #E3E3E3",
"| 	c #454545",
"1 	c #090909",
"2 	c #141414",
"3 	c #151515",
"4 	c #161616",
"5 	c #171717",
"6 	c #1B1B1B",
"7 	c #080808",
"8 	c #434343",
"9 	c #E0E0E0",
"0 	c #E5E5E5",
"a 	c #353535",
"b 	c #000000",
"c 	c #020202",
"d 	c #363636",
"e 	c #373737",
"f 	c #060606",
"g 	c #010101",
"h 	c #030303",
"i 	c #040404",
"j 	c #343434",
"k 	c #050505",
"l 	c #070707",
"m 	c #E2E2E2",
"n 	c #3D3D3D",
"o 	c #0A0A0A",
"p 	c #0B0B0B",
"q 	c #3C3C3C",
"r 	c #DCDCDC",
"s 	c #E7E7E7",
"t 	c #858585",
"u 	c #5A5A5A",
"v 	c #5E5E5E",
"w 	c #616161",
"x 	c #3B3B3B",
"y 	c #111111",
"z 	c #656565",
"A 	c #636363",
"B 	c #666666",
"C 	c #646464",
"D 	c #5F5F5F",
"E 	c #E4E4E4",
"F 	c #939393",
"G 	c #333333",
"H 	c #909090",
"I 	c #F0F0F0",
"J 	c #EAEAEA",
"K 	c #919191",
"L 	c #282828",
"M 	c #8B8B8B",
"N 	c #F4F4F4",
"O 	c #8C8C8C",
"P 	c #242424",
"Q 	c #888888",
"R 	c #EFEFEF",
"S 	c #E9E9E9",
"T 	c #292929",
"U 	c #8A8A8A",
"V 	c #2A2A2A",
"W 	c #898989",
"X 	c #8F8F8F",
"Y 	c #E8E8E8",
"Z 	c #202020",
"` 	c #EBEBEB",
" .	c #929292",
"..	c #272727",
"+.	c #262626",
"@.	c #252525",
"#.	c #232323",
"$.	c #EEEEEE",
"%.	c #9E9E9E",
"&.	c #4F4F4F",
"*.	c #131313",
"=.	c #969696",
"-.	c #CFCFCF",
";.	c #C4C4C4",
">.	c #CACACA",
",.	c #CCCCCC",
"'.	c #C0C0C0",
". . . . . . . . . . . . . . . . . . . . . . . . . . . . . . . . . . . . . . . . . . . . . . . . . . . . . . . . . . . . . . . . . . . . . . ",
". . . . . . . . . . . . . . . . . . . . . . . . . . . . . . . . . . . . . . . . . . . . . . . . . . . . . . . . . . . . . . . . . . . . . . ",
". . . . . . . . . . . . . . . . . . . . . . . . . . . . . . . . . . . . . . . . . . . . . . . . . . . . . . . . . . . . . . . . . . . . . . ",
". . . . + @ # . . . . $ # # $ # # # # # # # # # # # # # # # # # # # # # # # # # # # # # # . . . . $ % $ . . # . . . . . . . . . . . . . . . ",
". . . . + @ # . . . # & + # * # . . . . . . . . . . . . . . . . . . . . . . . . . . . . . . # * $ $ & * . @ = # . . . . . . . . . . . $ * - ",
". . . . - $ - $ - . - ; > . # # . . . . . . . . . . . . . . . . . . . . . . . . . . . . . . - > + # * # # & , # . . . . . . . . . . # > = + ",
". . . . # $ @ % + . # > * . # - # # # # # # # # # # # # # # # # # # # # # # # # # # # # - # - + $ . . . # @ % # . . . . . . . . . . # + @ $ ",
". . . . $ @ % % @ - . . . * @ - - - - - - - - - - - - - - - - - - - - - - - - - - - - - - # . . . - * $ # . . $ # . . . . . . . . . . . . . ",
". . . . $ $ . . * > # . . > & . . . . . . . . . . . . . . . . . . . . . . . . . . . . . . . . . . + @ @ - . - @ - . . . . . . . . . - $ # # ",
". . . . $ * # . $ * - > + # - - - - - - - - - - - - - - - - - - - - - - - - - - - - - - # * = + $ * $ @ $ > ' - . . . . . . . . . . & ; @ . ",
". . . . . - * @ & > ) ! ~ { ] ^ ^ ^ ^ ^ ^ ^ ^ ^ ^ ^ ^ ^ ^ ^ ^ ^ ^ ^ ^ ^ ^ ^ ^ ^ ^ ^ ^ ^ ^ ^ { ] { / ( / _ : < [ . . . . . . . . . . - - - * ",
". . . . . # * * $ # } | 1 2 3 3 3 3 3 3 3 3 3 3 3 3 3 3 3 3 3 3 3 3 3 3 3 3 3 3 3 3 3 3 3 4 5 4 2 4 6 4 2 7 8 9 . . . . . . . . . . . - > & ",
". . . . # $ $ # # . 0 a b c b b b b b b b b b b b b b b b b b b b b b b b b b b b b b b b b b b b b b b b b d 0 . . . . . . . . . . # $ @ % ",
". . . . # - . . $ . 0 e b f g b b b b b b b b b b g b b b g c h b b b b b b b b b b b b b b g b b g b c i b e 0 . . . . . . . . . . # - - $ ",
". . . . # # . # * . } j b g b b b b b b b b b b b b b b b g k l b g g b b b b b b b b b b b b b b b b c g b j m . . . . . . . . . . . $ $ - ",
". . . . $ $ # . $ . [ n b 1 o o o o o o o o o o o o o p p f h k b f i f 1 o o o o o o o o o o o p o o 1 o b q r . . . . . . . . . . . $ + - ",
". . . . $ * # # $ . s t u v : w w w w w w w w : : w ~ { w x y c b 7 b j v z : w w w w w w : : A B C : D : u < ) . . . . . . . . . . . - * - ",
". . . . . . # + + . - + @ @ @ @ @ @ @ @ @ @ @ @ @ @ @ - E F G k g k b H I $ @ @ @ @ @ @ @ @ @ @ @ @ @ @ @ % = $ . . . . . . . . . . . - * - ",
". . . . . . $ + * * % # . . . . . . . . . . . . . . . . J K L b b l b M ' . . . . . . . . . . . - $ . . . # > N $ . . . . . . . . . . - * - ",
". . . . . > ' @ # # - # $ > > # . . . . . . . . . . . . s O P b b c b Q R . . . . . . . . # - . # # # * N = - - # . . . . . . . . . . - * - ",
". . . . . + = $ . - - $ $ $ $ . . . . . . . . . . . # . S K T b g b b U I . . . . . . . . . - * + $ . - % + $ ' + . . . . . . . . . . - * - ",
". . . . # * * - # - $ + * - - # . . . . . . . . . . - . J F V b g b b W I . # . . . . . # . # @ % * - . $ - * , + . . . . . . . . . . - * - ",
". . . . * @ + @ * . # $ * @ @ # # # # # # # # # # . - . S X P b h b b Q R . # # # # # # # . - > @ - @ - - $ # - # . . . . . . . . . . - * - ",
". . . . $ $ $ % @ . $ # # - $ # . . . . . . . . . # # . Y M Z b l b b Q R . . . . . . . . . - > * $ & $ . # - * - . . . . . . . . . . - * - ",
". . . . # . # * $ . - # . . . . . . . . . . . . . . - . J X P b i g b Q R . . . . . . . . . . - - - + # . . # $ # . . . . . . . . . . - * - ",
". . . . . . . . . . . . . . . . . . . . . . . . . . * . `  ...b b g b Q R . . . . . . . . . . . . . . . . . . . . . . . . . . . . . . - * - ",
". . . . . . . . . . . . . . . . . . . . . . . . . . * . ` K +.b b g b Q R . . . . . . . . . . . . . . . . . . . . . . . . . . . . . . - * - ",
". . . . . . . . . . . . . . . . . . . . . . . . . . * . ` K +.b b g b Q R . . . . . . . . . . . . . . . . . . . . . . . . . . . . . . - * - ",
". . . . . . . . . . . . . . . . . . . . . . . . . . * . ` K +.b b g b Q R . . . . . . . . . . . . . . . . . . . . . . . . . . . . . . - * - ",
". . . . . . . . . . . . . . . . . . . . . . . . . . * . ` K +.b b g b Q R . . . . . . . . . . . . . . . . . . . . . . . . . . . . . . - * - ",
". . . . . . . . . . . . . . . . . . . . . . . . . . * . ` K +.b b g b Q R . . . . . . . . . . . . . . . . . . . . . . . . . . . . . . - * - ",
". . . . . . . . . . . . . . . . . . . . . . . . . . * . ` K +.b b g b Q R . . . . . . . . . . . . . . . . . . . . . . . . . . . . . . - * - ",
". . . . . . . . . . . . . . . . . . . . . . . . . . * . ` K +.b b g b Q R . . . . . . . . . . . . . . . . . . . . . . . . . . . . . . - * - ",
". . . . . . . . . . . . . . . . . . . . . . . . . . * . ` K +.b b g b Q R . . . . . . . . . . . . . . . . . . . . . . . . . . . . . . - * - ",
". . . . . . . . . . . . . . . . . . . . . . . . . . * . ` K +.b b g b Q R . . . . . . . . . . . . . . . . . . . . . . . . . . . . . . - * - ",
". . . . . . . . . . . . . . . . . . . . . . . . . . * . ` K +.b b g b Q R . . . . . . . . . . . . . . . . . . . . . . . . . . . . . . - * - ",
". . . . . . . . . . . . . . . . . . . . . . . . . . * . ` K +.b b g b Q R . . . . . . . . . . . . . . . . . . . . . . . . . . . . . . - * - ",
". . . . . . . . . . . . . . . . . . . . . . . . . . * . ` K +.b b g b Q R . . . . . . . . . . . . . . . . . . . . . . . . . . . . . . - * - ",
". . . . . . . . . . . . . . . . . . . . . . . . . . * . ` K +.b b g b Q R . . . . . . . . . . . . . . . . . . . . . . . . . . . . . . - * - ",
". . . . . . . . . . . . . . . . . . . . . . . . . . * . ` K +.b b g b Q R . . . . . . . . . . . . . . . . . . . . . . . . . . . . . . - * - ",
". . . . . . . . . . . . . . . . . . . . . . . . . . * . ` K +.b b g b Q R . . . . . . . . . . . . . . . . . . . . . . . . . . . . . . - * - ",
". . . . . . . . . . . . . . . . . . . . . . . . . . * . ` K +.b b g b Q R . . . . . . . . . . . . . . . . . . . . . . . . . . . . . . - * - ",
". . . . . . . . . . . . . . . . . . . . . . . . . . * . ` K +.b b g b Q R . . . . . . . . . . . . . . . . . . . . . . . . . . . . . . - * - ",
". . . . . . . . . . . . . . . . . . . . . . . . . . * . ` K +.b b g b Q R . . . . . . . . . . . . . . . . . . . . . . . . . . . . . . - * - ",
". . . . . . . . . . . . . . . . . . . . . . . . . . * . ` K +.b b g b Q R . . . . . . . . . . . . . . . . . . . . . . . . . . . . . . - + $ ",
". . . . . . . . . . . . . . . . . . . . . . . . . . * . ` K +.b b g b Q R . . . . . . . . . . . . . . . . . . . . . . . . . . . . . . $ @ $ ",
". . . . . . . . . . . . . . . . . . . . . . . . . . * . ` K +.b b g b Q R . . . . . . . . . . . . . . . . . . . . . . . . . . . . . . * > + ",
". . . . . . . . . . . . . . . . . . . . . . . . . . * . ` K +.b b g b Q R . . . . . . . . . . . . . . . . . . . . . . . . . . . . . . $ % % ",
". . . . . . . . . . . . . . . . . . . . . . . . . . * . ` K +.b b g b Q R . . . . . . . . . . . . . . . . . . . . . . . . . . . . . . - + > ",
". . . . . . . . . . . . . . . . . . . . . . . . . . * . ` K +.b b g b Q R . . . . . . . . . . . . . . . . . . . . . . . . . . . . . . . # - ",
". . . . . . . . . . . . . . . . . . . . . . . . . . * . ` K +.b b g b Q R . . . . . . . . . . . . . . . . . . . . . . . . . . . . . # . . . ",
". . . . . . . . . . . . . . . . . . . . . . . . . . * . ` K +.b b g b Q R . . . . . . . . . . . . . . . . . . . . . . . . . . . . . - - # . ",
". . . . . . . . . . . . . . . . . . . . . . . . . . * . ` K +.b b g b Q R . . . . . . . . . . . . . . . . . . . . . . . . . . . . . - $ # . ",
". . . . . . . . . . . . . . . . . . . . . . . . . . * . ` K +.b b g b Q R . . . . . . . . . . . . . . . . . . . . . . . . . . . . . # - # . ",
". . . . . . . . . . . . . . . . . . . . . . . . . . * . ` K +.b b g b Q R . . . . . . . . . . . . . . . . . . . . . . . . . . . . . . # # . ",
". . . . . . . . . . . . . . . . . . . . . . . . . . * . ` K +.b b g b Q R . . . . . . . . . . . . . . . . . . . . . . . . . . . . . . - $ - ",
". . . . . . . . . . . . . . . . . . . . . . . . . . * . ` K +.b b g b Q R . . . . . . . . . . . . . . . . . . . . . . . . . . . . . . * > $ ",
". . . . . . . . . . . . . . . . . . . . . . . . . . * . ` K +.b b g b Q R . . . . . . . . . . . . . . . . . . . . . . . . . . . . . . @ & @ ",
". . . . . . . . . . . . . . . . . . . . . . . . . . * . ` K +.b b g b Q R . . . . . . . . . . . . . . . . . . . . . . . . . . . . . . $ + $ ",
". . . . . . . . . . . . . . . . . . . . . . . . . . * . ` K +.b b g b Q R . . . . . . . . . . . . . . . . . . . . . . . . . . . . . - $ $ * ",
". . . . . . . . . . . . . . . . . . . . . . . . . . * . ` K +.b b g b Q R . . . . . . . . . . . . . . . . . . . . . . . . . . . . . @ + $ @ ",
". . . . . . . . . . . . . . . . . . . . . . . . . . * . ` K +.b b g b Q R . . . . . . . . . . . . . . . . . . . . . . . . . . . . . + * - $ ",
". . . . . . . . . . . . . . . . . . . . . . . . . . * . ` K +.b b g b Q R . . . . . . . . . . . . . . . . . . . . . . . . . . . . . # # # . ",
". . . . . . . . . . . . . . . . . . . . . . . . . . * . ` K +.b b g b Q R . . . . . . . . . . . . . . . . . . . . . . . . . . . . . . $ + $ ",
". . . . . . . . . . . . . . . . . . . . . . . . . . * . ` K @.b b g b Q R . . . . . . . . . . . . . . . . . . . . . . . . . . . . . . $ + * ",
". . . . . . . . . . . . . . . . . . . . . . . . . # - . 0 W #.b b b b t $.. . . . . . . . . . . . . . . . . . . . . . . . . . . . . . # - - ",
". . . . . . . . . . . . . . . . . . . . . . . . . * # . E %.&.+.L V *.=.; . . . . . . . . . . . . . . . . . . . . . . . . . . . . . . . . . ",
". . . . . . . . . . . . . . . . . . . . . . . . . @ $ . > ) -.;.>.,.'.} $ . . . . . . . . . . . . . . . . . . . . . . . . . . . . . . . . . ",
". . . . . . . . . . . . . . . . . . . . . . . . . $ > = > # . . . . . . . . . . . . . . . . . . . . . . . . . . . . . . . . . . . . . . . . ",
". . . . . . . . . . . . . . . . . . . . . . . . . . * % % * . # * $ . . . . . . . . . . . . . . . . . . . . . . . . . . . . . . . . . . . . "};
