/* XPM */
static const char * BigU_xpm[] = {
"70 70 185 2",
"  	c None",
". 	c #FFFFFF",
"+ 	c #FEFEFE",
"@ 	c #FAFAFA",
"# 	c #FCFCFC",
"$ 	c #FBFBFB",
"% 	c #FDFDFD",
"& 	c #F9F9F9",
"* 	c #F8F8F8",
"= 	c #F6F6F6",
"- 	c #F3F3F3",
"; 	c #F7F7F7",
"> 	c #F5F5F5",
", 	c #F2F2F2",
"' 	c #E6E6E6",
") 	c #EAEAEA",
"! 	c #EDEDED",
"~ 	c #E3E3E3",
"{ 	c #DEDEDE",
"] 	c #454545",
"^ 	c #272727",
"/ 	c #292929",
"( 	c #242424",
"_ 	c #2D2D2D",
": 	c #616161",
"< 	c #B8B8B8",
"[ 	c #B7B7B7",
"} 	c #4B4B4B",
"| 	c #1D1D1D",
"1 	c #2A2A2A",
"2 	c #393939",
"3 	c #828282",
"4 	c #D7D7D7",
"5 	c #E5E5E5",
"6 	c #131313",
"7 	c #000000",
"8 	c #040404",
"9 	c #B3B3B3",
"0 	c #AAAAAA",
"a 	c #282828",
"b 	c #060606",
"c 	c #EEEEEE",
"d 	c #0F0F0F",
"e 	c #0B0B0B",
"f 	c #4C4C4C",
"g 	c #BABABA",
"h 	c #ABABAB",
"i 	c #2E2E2E",
"j 	c #020202",
"k 	c #050505",
"l 	c #5C5C5C",
"m 	c #D9D9D9",
"n 	c #101010",
"o 	c #080808",
"p 	c #070707",
"q 	c #A9A9A9",
"r 	c #030303",
"s 	c #585858",
"t 	c #D8D8D8",
"u 	c #121212",
"v 	c #010101",
"w 	c #A8A8A8",
"x 	c #DADADA",
"y 	c #575757",
"z 	c #B9B9B9",
"A 	c #A7A7A7",
"B 	c #2C2C2C",
"C 	c #5A5A5A",
"D 	c #EBEBEB",
"E 	c #0C0C0C",
"F 	c #4D4D4D",
"G 	c #A5A5A5",
"H 	c #2B2B2B",
"I 	c #DBDBDB",
"J 	c #A6A6A6",
"K 	c #090909",
"L 	c #ECECEC",
"M 	c #484848",
"N 	c #0D0D0D",
"O 	c #565656",
"P 	c #181818",
"Q 	c #3D3D3D",
"R 	c #5D5D5D",
"S 	c #252525",
"T 	c #969696",
"U 	c #737373",
"V 	c #DFDFDF",
"W 	c #E4E4E4",
"X 	c #7A7A7A",
"Y 	c #1B1B1B",
"Z 	c #0A0A0A",
"` 	c #909090",
" .	c #636363",
"..	c #111111",
"+.	c #707070",
"@.	c #C7C7C7",
"#.	c #5B5B5B",
"$.	c #B1B1B1",
"%.	c #E9E9E9",
"&.	c #949494",
"*.	c #212121",
"=.	c #4E4E4E",
"-.	c #CDCDCD",
";.	c #A0A0A0",
">.	c #373737",
",.	c #202020",
"'.	c #CFCFCF",
").	c #F4F4F4",
"!.	c #C6C6C6",
"~.	c #222222",
"{.	c #848484",
"].	c #747474",
"^.	c #191919",
"/.	c #363636",
"(.	c #3A3A3A",
"_.	c #BCBCBC",
":.	c #474747",
"<.	c #595959",
"[.	c #F1F1F1",
"}.	c #1A1A1A",
"|.	c #9E9E9E",
"1.	c #A4A4A4",
"2.	c #343434",
"3.	c #303030",
"4.	c #EFEFEF",
"5.	c #999999",
"6.	c #505050",
"7.	c #E8E8E8",
"8.	c #C1C1C1",
"9.	c #F0F0F0",
"0.	c #AEAEAE",
"a.	c #959595",
"b.	c #A2A2A2",
"c.	c #464646",
"d.	c #DCDCDC",
"e.	c #7D7D7D",
"f.	c #161616",
"g.	c #3E3E3E",
"h.	c #939393",
"i.	c #D1D1D1",
"j.	c #6F6F6F",
"k.	c #434343",
"l.	c #AFAFAF",
"m.	c #686868",
"n.	c #676767",
"o.	c #D4D4D4",
"p.	c #CACACA",
"q.	c #8D8D8D",
"r.	c #535353",
"s.	c #1C1C1C",
"t.	c #333333",
"u.	c #9A9A9A",
"v.	c #C8C8C8",
"w.	c #171717",
"x.	c #8F8F8F",
"y.	c #B0B0B0",
"z.	c #BBBBBB",
"A.	c #C0C0C0",
"B.	c #C4C4C4",
"C.	c #C2C2C2",
"D.	c #9D9D9D",
"E.	c #606060",
"F.	c #262626",
"G.	c #696969",
"H.	c #0E0E0E",
"I.	c #232323",
"J.	c #2F2F2F",
"K.	c #3C3C3C",
"L.	c #3F3F3F",
"M.	c #7F7F7F",
"N.	c #D3D3D3",
"O.	c #6E6E6E",
"P.	c #323232",
"Q.	c #979797",
"R.	c #E1E1E1",
"S.	c #D5D5D5",
"T.	c #8A8A8A",
"U.	c #9B9B9B",
"V.	c #5F5F5F",
"W.	c #D2D2D2",
"X.	c #646464",
"Y.	c #6C6C6C",
"Z.	c #C5C5C5",
"`.	c #ADADAD",
" +	c #B5B5B5",
". . . . . . . . . . . . . . . . . . . . . . . . . . . . . . . . . . . . . . . . . . . . . . . . . . . . . . . . . . . . . . . . . . . . . . ",
". . . . . . . . . . . . . . . + . @ + # $ % + % # . . . . % # + . . . . . . . . . . . . . . . . . . . # @ # . + . . % + . . . . . . . . . . ",
". . . . . . . . . . . # $ % . . . & + % $ # + $ * + & # + # $ % . . . . . . . . . . . . . . . . . . . # @ # . + . . # # # % + . . . . . . . ",
". . . . . . . . . . + * = @ . . + % % # # + + $ * + - * # % + + . . . . . . . . . . . . . . . . . . . % # % + % % . % $ @ $ + . . . . . . . ",
". . . . . . . . . . + @ & # % $ @ + @ ; @ + . # @ + > @ $ # . . . . . . . . . . . . . . . . . . . . . % $ $ # @ $ . . # $ # + . . . . . . . ",
"+ . . . . . . . . . . . . . @ > ; % @ = * # % $ # . % . # & $ + . . . . . . . . . . . . . . . . . . . # & & $ @ # . . % % + . . . . . . . . ",
"% . . . . . . . . . % # + + @ > $ + . . . + @ & # + % + # * ; # . . . . . . . . . . . . . . . . . . . . . . . . + . . @ & % . . . . . . . . ",
". . . . . . . . . . > , & . . . % ' ) - & # % . % = ! > @ # + . . . . . . . . . . . . . . . . . . . . + % # $ - ~ - % + + + . . . . . . . . ",
". . . . . . . . . . % % % $ # + { ] ^ / ( _ : < . + % + & > * % . . . . . . . . . . . . . . . . . . . [ } | / 1 2 3 4 & + + + . . . . . . . ",
". . . . . . . . . . . % * > & . 5 6 7 7 7 8 ] 9 . . @ # @ & # + . . . . . . . . . . . . . . . . . . . 0 a 7 7 7 b : 4 % + # + . . . . . . . ",
". . . . . . . . . . + # & ; @ . c d 8 8 7 e f g . # & # % % % . . . . . . . . . . . . . . . . . . . . h i 7 j j k l m . + # % . . . . . . . ",
". . . . . . . . . . + % % # % . c n o p 7 e } < . $ % + . + % + . . . . . . . . . . . . . . . . . . . q _ 7 r 8 b s t + . # % . . . . . . . ",
". . . . . . . . . . . # # % . . c u v j 7 e } [ . + . . % % + + . . . . . . . . . . . . . . . . . . . w _ 7 j v b s m . . % . . . . . . . . ",
". . . . . . . . . . . # @ % . . c 6 7 7 7 e } < . . . . # # . . . . . . . . . . . . . . . . . . . . . w _ 7 v 7 b s x . . + . . . . . . . . ",
". . . . . . . . . . . % $ % . . c u 7 7 7 e } < . . . . # # + . . . . . . . . . . . . . . . . . . . . w _ 7 v 7 b s m . . + . . . . . . . . ",
". . . . . . . . . . . % $ % . . c u 7 7 7 e } < . . . . # # + . . . . . . . . . . . . . . . . . . . . w _ 7 v 7 b s m . . + . . . . . . . . ",
"# . . . . . . . . . . % $ % . . c u 7 7 7 e } < . . . . # # + . . . . . . . . . . . . . . . . . . . . w _ 7 v 7 b s m . . + . . . . . . . . ",
"+ . . . . . . . . . . % $ % . . c u 7 7 7 e } < . . . . # # + . . . . . . . . . . . . . . . . . . . . w _ 7 v 7 b s m . . + . . . . . . . . ",
"@ . . . . . . . . . . % $ % . . c u 7 7 7 e } < . . . . # # + . . . . . . . . . . . . . . . . . . . . w _ 7 v 7 b s m . . + . . . . . . . . ",
"@ . . . . . . . . . . % $ % . . c u 7 7 7 e } < . . . . # # + . . . . . . . . . . . . . . . . . . . . w _ 7 v 7 b s m . . + . . . . . . . . ",
"+ . . . . . . . . . . % $ % . . c u 7 7 7 e } < . . . . # # + . . . . . . . . . . . . . . . . . . . . w _ 7 v 7 b s m . . + . . . . . . . . ",
"% . . . . . . . . . . % $ % . . c u 7 7 7 e } < . . . . # # + . . . . . . . . . . . . . . . . . . . . w _ 7 v 7 b s m . . + . . . . . . . . ",
"+ . . . . . . . . . . % $ % . . c u 7 7 7 e } < . . . . # # + . . . . . . . . . . . . . . . . . . . . w _ 7 v 7 b s m . . + . . . . . . . . ",
". . . . . . . . . . . % $ % . . c u 7 7 7 e } < . . . . # # + . . . . . . . . . . . . . . . . . . . . w _ 7 v 7 b s m . . + . . . . . . . . ",
". . . . . . . . . . . % $ % . . c u 7 7 7 e } < . . . . # # + . . . . . . . . . . . . . . . . . . . . w _ 7 v 7 b s m . . + . . . . . . . . ",
". . . . . . . . . . . % $ % . . c u 7 7 7 e } < . . . . # # + . . . . . . . . . . . . . . . . . . . . w _ 7 v 7 b s m . . + . . . . . . . . ",
". . . . . . . . . . . % $ % . . c u 7 7 7 e } < . . . . # # + . . . . . . . . . . . . . . . . . . . . w _ 7 v 7 b s m . . + . . . . . . . . ",
". . . . . . . . . . . % $ % . . c u 7 7 7 e } < . . . . # # + . . . . . . . . . . . . . . . . . . . . w _ 7 v 7 b s m . . + . . . . . . . . ",
". . . . . . . . . . . % $ % . . c u 7 7 7 e } < . . . . # # + . . . . . . . . . . . . . . . . . . . . w _ 7 v 7 b s m . . + . . . . . . . . ",
". . . . . . . . . . . % $ % . . c u 7 7 7 e } < . . . . # # + . . . . . . . . . . . . . . . . . . . . w _ 7 v 7 b s m . . + . . . . . . . . ",
". . . . . . . . . . . % $ % . . c u 7 7 7 e } < . . . . # # + . . . . . . . . . . . . . . . . . . . . w _ 7 v 7 b s m . . + . . . . . . . . ",
". . . . . . . . . . . % $ % . . c u 7 7 7 e } < . . . . # # + . . . . . . . . . . . . . . . . . . . . w _ 7 v 7 b s m . . + . . . . . . . . ",
". . . . . . . . . . . % $ % . . c u 7 7 7 e } < . . . . # # + . . . . . . . . . . . . . . . . . . . . w _ 7 v 7 b s m . . + . . . . . . . . ",
". . . . . . . . . . . % $ % . . c u 7 7 7 e } < . . . . # # + . . . . . . . . . . . . . . . . . . . . w _ 7 v 7 b s m . . + . . . . . . . . ",
". . . . . . . . . . . % $ % . . c u 7 7 7 e } < . . . . # # + . . . . . . . . . . . . . . . . . . . . w _ 7 v 7 b s m . . + . . . . . . . . ",
". . . . . . . . . . . % $ % . . c u 7 7 7 e } < . . . . # # + . . . . . . . . . . . . . . . . . . . . w _ 7 v 7 b s m . . + . . . . . . . . ",
". . . . . . . . . . . % $ % . . c u 7 7 7 e } < . . . . # # + . . . . . . . . . . . . . . . . . . . . w _ 7 v 7 b s m . . + . . . . . . . . ",
". . . . . . . . . . . % $ % . . c u 7 7 7 e } < . . . . # # + . . . . . . . . . . . . . . . . . . . . w _ 7 v 7 b s m . . + . . . . . . . . ",
". . . . . . . . . . . % $ % . . c u 7 7 7 e } < . . . . # # + . . . . . . . . . . . . . . . . . . . . w _ 7 v 7 b s m . . + . . . . . . . . ",
". . . . . . . . . . . % $ % . . c u 7 7 7 e } < . . . . # # + . . . . . . . . . . . . . . . . . . . . w _ 7 v 7 b s m . . + . . . . . . . . ",
". . . . . . . . . . . % $ % . . c u 7 7 7 e } < . . . . # # + . . . . . . . . . . . . . . . . . . . . w _ 7 v 7 b s m . . + . . . . . . . . ",
". . . . . . . . . . . % $ % . . c u 7 7 7 e } < . . . . % % . . . . . . . . . . . . . . . . . . . . . w _ 7 v 7 b y m . . + . . . . . . . . ",
". . . . . . . . . . . % @ # . . ! 6 7 7 7 e f z . . . . $ @ + . . . . . . . . . . . . . . . + $ % . . A B 7 v 7 b C x . . + . . . . . . . . ",
". . . . . . . . . . . # & # . . D 6 7 7 7 E F z . . . % ; ; % . . . . . . . . . . . . . + . # = $ . . G H 7 v 7 p l I . . + . . . . . . . . ",
". . . . . . . . . . . $ * @ . . D u 7 v 7 E F < . . . % & & + . . . . . . . . . . . . + + + # * # % . J H 7 r 7 K C x . . + . . . . . . . . ",
". . . . . . . . . . . # ; ; # . L u 7 v 7 e M 9 . . $ % . . . . . . . . . . . . . . % # + % $ . . > . q _ 7 k 7 N O m + % % . . . . . . . . ",
". . . . . . . . . . . % @ * $ . c P 7 v 7 p Q w . + ; # . + # % . . . . . . . . . . % # + $ & . + ) . A H 7 p 7 d R I + % % . . . . . . . . ",
". . . . . . . . . . . . + % + . c S r 7 7 7 a T . + & # . % @ # . . . . . . . . . + + . . # $ . . > $ T ( 7 b 7 E U V . . . . . . . . . . . ",
". . . . . . . . . . + . . . . . L Q o 7 7 7 P 3 . # + + # # % . . . . . . . . . . # # + . + $ ; + . W X Y 7 v 7 Z ` ~ % . . . . . . . . . . ",
". . . . . . . . . . % % + . . . D  .6 7 7 7 ..+.. $ . + $ $ + . . . . . . . . . . $ $ + # % $ - + . @.#...7 7 7 N $.%.# + % % . . . . . . . ",
". . . . . . . . . . % # + . . + ! &.*.7 v 7 Z =.-.@ . + # % . . . . . . . . . . . $ # % @ $ % * + . ;.>.b 7 7 v ,.'.).% % # % . . . . . . . ",
". . . . . . . . . . + % + . . . ).!.H 7 v v j ~.{.# . # % . . . . . . . . . . . . % + % @ $ . + + D ].^.7 7 7 p /.' % . + % + . . . . . . . ",
". . . . . . . . . . . + + . . + # ! (.v 7 r 7 8 ] ) . # # + + + + + . . . . + . . . . + $ @ % . # _.:.o 7 7 7 ..<.[.. % % + . . . . . . . . ",
". . . . . . . . . . . % # % % # . . : n 7 r b v }.|.[.. @ @ % $ & # + . . % $ + . # # + # ; & . 5 +.Y v 7 7 v S |.- . ; = # . . . . . . . . ",
". . . . . . . . . . . $ * # + @ % . 1.2.r r Z b 8 3.z ; % & @ & * $ # # + # @ % # & ; * @ @ @ 4.5.~.v v 8 j E 6.7.= . = > $ . . . . . . . . ",
". . . . . . . . . . . & > & . % = . 7. .N 7 8 7 7 b F 8.$ . $ $ . % ; ; $ % . + = $ * 9.* . - 0.a j j K k r B a.. . . . + % + . . . . . . . ",
". . . . . . . . . . . # @ # . % ; . . b./.r v k j K o c.[ . . & $ . + * [., & . . . + % @ [.9 >.r 7 7 v 7 e R d.. . % . # @ # . . . . . . . ",
". . . . . . . . . . % # # $ @ % % ; . %.e.f.7 k 7 j 7 E g.h.~ . . . . % $ $ % % - ! . . i.j.,.p j b r 7 k k.l.+ ; . % % % % + . . . . . . . ",
". . . . . . . . . . & @ # & ; % . & ; . '.m...7 j k v 7 e i n.A o.[.. . . . . . . * p.q.r.s.7 b j r 7 7 t.u.- . c + . % % . . . . . . . . . ",
". . . . . . . . . . @ $ % # $ + % . [.# % v.m.w.7 k 8 7 p k o t.m.x.y.z.A.B.C.< l.D.E.Y 7 b E o k 7 7 F.3 V . $ - + . + + + . . . . . . . . ",
". . . . . . . . . . + + + . . + & . > * . # p.G.u 7 8 v v j j 8 H.w.I.J.K.] L.B }.H.e o j 7 j r p 8 / M.N.# + @ + . % . + % + . . . . . . . ",
". . . . . . . . . . . # @ # . % * + % * # . 4._.O.,.8 7 7 k E r 7 7 7 7 r b 8 7 7 7 v r j 7 7 8 p P.Q.R.+ . @ @ . . @ # % # % . . . . . . . ",
". . . . . . . . . . . # @ $ # & # ; # # # % @ , S.T.J.p 7 8 o 8 7 7 7 7 7 7 7 7 j b 8 j 7 v 7 Z ] 1.) . . & ; # $ . $ @ @ # . . . . . . . . ",
". . . . . . . . . . . + % % $ & . = $ + + + . . % %.U.r.1 H.7 7 7 7 7 v j 7 7 7 r 7 7 7 7 6 2.V.z & . @ $ @ @ . @ . + $ # + . . . . . . . . ",
". . . . . . . . . . . . . . + + . + + . . . + % . + = W.Q.O a w.d b 7 7 7 7 7 7 r K d }.2.X.1.{ & . @ & # . + . + . . . . . . . . . . . . . ",
". . . . . . . . . . . . . . . . . . . . . + @ * @ . . % ! I z.{.C ] B Y n e H.^.a :.Y.&.C.R.9.. + @ @ % . . . . . . . . . . . . . . . . . . ",
". . . . . . . . . . . . . . . . . . . . . + % $ @ # % . . . . 5 '.Z.< l.w G A `. +Z.m ! . . . . % # # + . . . . . . . . . . . . . . . . . . ",
". . . . . . . . . . . . . . . . . . . . . . . . + # % $ @ @ # . . . . . . . . . . . . . . # # % . . + + . . . . . . . . . . . . . . . . . . ",
". . . . . . . . . . . . . . . . . . . . + % + . . . + & = = ; @ @ & $ + + % % + . + % + % $ @ @ # % + . . . . . . . . . . . . . . . . . . . ",
". . . . . . . . . . . . . . . . . . . . + % + . . . . + + . . + + + + + # @ & $ + @ @ + + + + + @ & $ + . . . . . . . . . . . . . . . . . . "};
