/* XPM */
static const char * BigV_xpm[] = {
"70 70 231 2",
"  	c None",
". 	c #FFFFFF",
"+ 	c #FEFEFE",
"@ 	c #FCFCFC",
"# 	c #FAFAFA",
"$ 	c #FBFBFB",
"% 	c #FDFDFD",
"& 	c #F6F6F6",
"* 	c #F8F8F8",
"= 	c #F4F4F4",
"- 	c #F9F9F9",
"; 	c #F7F7F7",
"> 	c #F1F1F1",
", 	c #E9E9E9",
"' 	c #EAEAEA",
") 	c #EEEEEE",
"! 	c #F3F3F3",
"~ 	c #BDBDBD",
"{ 	c #4C4C4C",
"] 	c #232323",
"^ 	c #292929",
"/ 	c #2D2D2D",
"( 	c #313131",
"_ 	c #424242",
": 	c #B0B0B0",
"< 	c #DFDFDF",
"[ 	c #767676",
"} 	c #343434",
"| 	c #252525",
"1 	c #2A2A2A",
"2 	c #262626",
"3 	c #2C2C2C",
"4 	c #7D7D7D",
"5 	c #D9D9D9",
"6 	c #CCCCCC",
"7 	c #363636",
"8 	c #000000",
"9 	c #070707",
"0 	c #818181",
"a 	c #C3C3C3",
"b 	c #060606",
"c 	c #7A7A7A",
"d 	c #E5E5E5",
"e 	c #E7E7E7",
"f 	c #5D5D5D",
"g 	c #0A0A0A",
"h 	c #020202",
"i 	c #646464",
"j 	c #DADADA",
"k 	c #F5F5F5",
"l 	c #ABABAB",
"m 	c #1A1A1A",
"n 	c #010101",
"o 	c #191919",
"p 	c #A8A8A8",
"q 	c #979797",
"r 	c #282828",
"s 	c #3C3C3C",
"t 	c #AAAAAA",
"u 	c #F2F2F2",
"v 	c #D7D7D7",
"w 	c #797979",
"x 	c #0D0D0D",
"y 	c #CFCFCF",
"z 	c #D5D5D5",
"A 	c #4A4A4A",
"B 	c #101010",
"C 	c #E6E6E6",
"D 	c #F0F0F0",
"E 	c #B1B1B1",
"F 	c #373737",
"G 	c #050505",
"H 	c #181818",
"I 	c #838383",
"J 	c #6A6A6A",
"K 	c #040404",
"L 	c #505050",
"M 	c #909090",
"N 	c #121212",
"O 	c #B8B8B8",
"P 	c #8F8F8F",
"Q 	c #202020",
"R 	c #B3B3B3",
"S 	c #6D6D6D",
"T 	c #414141",
"U 	c #4F4F4F",
"V 	c #7C7C7C",
"W 	c #AEAEAE",
"X 	c #3E3E3E",
"Y 	c #161616",
"Z 	c #777777",
"` 	c #474747",
" .	c #C8C8C8",
"..	c #E8E8E8",
"+.	c #848484",
"@.	c #090909",
"#.	c #B6B6B6",
"$.	c #5E5E5E",
"%.	c #585858",
"&.	c #C9C9C9",
"*.	c #141414",
"=.	c #858585",
"-.	c #EBEBEB",
";.	c #BFBFBF",
">.	c #898989",
",.	c #111111",
"'.	c #555555",
").	c #E4E4E4",
"!.	c #212121",
"~.	c #B4B4B4",
"{.	c #BCBCBC",
"].	c #242424",
"^.	c #9B9B9B",
"/.	c #CBCBCB",
"(.	c #080808",
"_.	c #D6D6D6",
":.	c #444444",
"<.	c #B2B2B2",
"[.	c #0C0C0C",
"}.	c #929292",
"|.	c #828282",
"1.	c #1D1D1D",
"2.	c #030303",
"3.	c #C1C1C1",
"4.	c #ECECEC",
"5.	c #878787",
"6.	c #151515",
"7.	c #B7B7B7",
"8.	c #888888",
"9.	c #C5C5C5",
"0.	c #575757",
"a.	c #626262",
"b.	c #0E0E0E",
"c.	c #676767",
"d.	c #A5A5A5",
"e.	c #303030",
"f.	c #989898",
"g.	c #EDEDED",
"h.	c #434343",
"i.	c #DEDEDE",
"j.	c #7B7B7B",
"k.	c #0F0F0F",
"l.	c #2F2F2F",
"m.	c #C6C6C6",
"n.	c #ACACAC",
"o.	c #9E9E9E",
"p.	c #D1D1D1",
"q.	c #595959",
"r.	c #A3A3A3",
"s.	c #333333",
"t.	c #969696",
"u.	c #727272",
"v.	c #131313",
"w.	c #3A3A3A",
"x.	c #D0D0D0",
"y.	c #383838",
"z.	c #6F6F6F",
"A.	c #5C5C5C",
"B.	c #DCDCDC",
"C.	c #9C9C9C",
"D.	c #939393",
"E.	c #9F9F9F",
"F.	c #1C1C1C",
"G.	c #CECECE",
"H.	c #696969",
"I.	c #3D3D3D",
"J.	c #E3E3E3",
"K.	c #737373",
"L.	c #DDDDDD",
"M.	c #1B1B1B",
"N.	c #717171",
"O.	c #C2C2C2",
"P.	c #D3D3D3",
"Q.	c #484848",
"R.	c #0B0B0B",
"S.	c #949494",
"T.	c #2B2B2B",
"U.	c #6B6B6B",
"V.	c #E0E0E0",
"W.	c #272727",
"X.	c #A6A6A6",
"Y.	c #A1A1A1",
"Z.	c #353535",
"`.	c #4B4B4B",
" +	c #CACACA",
".+	c #DBDBDB",
"++	c #636363",
"@+	c #E2E2E2",
"#+	c #1F1F1F",
"$+	c #5A5A5A",
"%+	c #D4D4D4",
"&+	c #B5B5B5",
"*+	c #222222",
"=+	c #3F3F3F",
"-+	c #616161",
";+	c #4E4E4E",
">+	c #7E7E7E",
",+	c #8C8C8C",
"'+	c #3B3B3B",
")+	c #ADADAD",
"!+	c #A4A4A4",
"~+	c #666666",
"{+	c #E1E1E1",
"]+	c #565656",
"^+	c #BEBEBE",
"/+	c #EFEFEF",
"(+	c #9A9A9A",
"_+	c #535353",
":+	c #BABABA",
"<+	c #D2D2D2",
"[+	c #C7C7C7",
"}+	c #757575",
"|+	c #8B8B8B",
"1+	c #C0C0C0",
"2+	c #868686",
"3+	c #6C6C6C",
"4+	c #393939",
"5+	c #D8D8D8",
"6+	c #494949",
"7+	c #A0A0A0",
"8+	c #5B5B5B",
"9+	c #323232",
"0+	c #999999",
"a+	c #5F5F5F",
"b+	c #454545",
"c+	c #7F7F7F",
"d+	c #464646",
"e+	c #787878",
"f+	c #A7A7A7",
"g+	c #2E2E2E",
"h+	c #8E8E8E",
". . . . . . . . . + @ # $ % + + $ & * % . . . . . . . . . . . . . . . . . . . . + @ . . + % + . . + + % # @ . @ = # + $ # % . . . . . . . . ",
". . . . . . . . + $ - . $ # $ @ + = * + . . . . . . . . . . . . . . . . . . . . . . . + + + . . . . . % - # % % * = $ + % + . . . . . . . . ",
". . . . . . . . + - & % @ $ # $ . - - @ + . . . . . . . . . . . . . . . . . . . . . . % . . . + % % + % $ # $ + % = ; + . . . . . . . . . . ",
". . . . . . . . . + @ % + . . + + + @ $ + . . . . . . . . . . . . . . . . . . . . . + . . . + @ # $ + . . . . + . + + + @ % . . . . . . . . ",
". . . . . . . . . . + * > ; + * , ' ; + . . . . . . . . . . . . . . . . . . . . . + + . . . + % % . + % # $ @ $ # @ . ; ) ; . . . . . . . . ",
". . . . . . . . . . ! ~ { ] ^ / ( _ : ; . . . . . . . . . . . . . . . . . . . . . . . . @ $ % + . + < [ } | 1 2 3 4 5 $ + + . . . . . . . . ",
". . . . . . . . . . @ 6 7 8 8 8 8 9 0 ! . . . . . . . . . . . . . . . . . . . . . . . . - - @ . . + a } 8 8 8 8 b c d . . + . . . . . . . . ",
". . . . . . . . . . . e f g 8 8 8 h i j + . . . . . . . . . . . . . . . . . . . + % . . - $ . + # k l m 8 h n 8 o p * $ % . . . . . . . . . ",
". . . . . . . . . . . k q r 8 8 8 h s t u . $ . . % % + . . . . . . . . . . . . + $ - + @ $ @ + ; v w x n b 8 b _ y + * @ . . . . . . . . . ",
". . . . . . . . . . . @ z A 8 8 8 h B [ C + & . + # # % . . . . . . . . . . . . . # D % . & = . * E F G 8 b 8 H I e . $ # + . . . . . . . . ",
". . . . . . . . . . + . * J 8 n n K 8 L v . - + . $ # % + . . . . . . . . . . . . @ ! % . k ! . > M N 8 8 b 8 1 O ! + . @ % . . . . . . . . ",
". . . . . . . . . . + . . P Q n n 9 8 7 R * . @ . + % + + % + . . . . . . . . . + % % $ + # $ + 5 S 9 8 8 K n T j - - + . . . . . . . . . . ",
". . . . . . . . . . . . . a U 8 8 G 8 m V < . - + . + . + % + . . . . . . . . . % $ + = $ % . ! W X h 8 K 8 Y Z u . - % . . . . . . . . . . ",
". . . . . . . . . + + . . = 0 8 h h 8 h `  .. ; # + + . . . . . . . . . . . . . @ # + ; @ . . ..+.m n n @.8 F #.# . $ - + . . . . . . . . . ",
". . . . . . . . . . + + @ . p H n 8 G 8 ] l . + % . + . . . . . . . . . . . . . % @ + % . . . < $.h 8 n h 8 %.C @ . % $ @ + . . . . . . . . ",
". . . . . . . . . . @ ; $ . &.A G 8 G 8 *.=.-.. . . . + + . . . . . . . . . . . + % - + . . @ ;.X 8 h n 8 N I @ + @ + % @ + . . . . . . . . ",
". . . . . . . . . . # ! @ . e >.,.8 h 8 g '.a . . . . @ % + . . . . . . . . . . . % * + . . ).>.!.8 K 8 8 T ~.. . # % + % + . . . . . . . . ",
". . . . . . . . . . @ * @ % . {.] 8 n 8 8 ].^.. + + . $ $ + . . . . . . . . . . . + $ @ + . /.U (.8 h 8 8 S < + . @ @ % + . . . . . . . . . ",
". . . . . . . . . . + % $ @ . _.:.g n n 8 (.c @ $ % + $ $ % . . . . . . . . . . . . % k @ . <.2 8 h 8 8 [.}.$ . . . - * % . . . . . . . . . ",
". . . . . . . . . . @ ; $ . . e |.1.n 8 8 2.{ 3.. . - # % + + . . . . . . . . . . + $ - . 4.5.6.8 K 8 h ( 7.. $ + . $ $ + . . . . . . . . . ",
". . . . . . . . . . $ k @ . . ; 7.( h 8 8 K ].8.. - ; # % + + . . . . . . . . . . + $ + . 9.0.[.8 2.8 @.a.z . $ + % + . . . . . . . . . . . ",
". . . . . . . . . + % @ + . . . 5 { G 8 8 2.b.c.. 4.# @ @ + . . . . . . . . . . . . + . . d.e.h 8 n 8 6.f.D . + . % @ + . . . . . . . . . . ",
". . . . . . . . . @ $ + . + % . g.w H n 8 n 8 h.i.' @ @ $ % . . . . . . . . . . + % . . k j.k.8 8 8 2.l.m.. % . . % % + . . . . . . . . . . ",
". . . . . . . . . @ $ . . + % . ; n.F G 8 8 8 | o.u + @ $ % . . . . . . . . . + @ # . . p.'.h 8 h 8 b.q.i.. - . + % + + . . . . . . . . . . ",
". . . . . . . . . + % . % + % @ + < $.@.8 n 8 [.q.; + $ @ + . . . . . . . . . + @ # . . r.s.8 n b n !.t.) . # + + % + . + . . . . . . . . . ",
". . . . . . . . . . . + @ + + $ @ + 5.6.8 2.h 8 r ).$ - @ . . . . . . . . . . . + % . % u.v.8 h G n w.x.@ + + + + + . % @ + . . . . . . . . ",
". . . . . . . . . . + @ @ + . # > % W y.G h K 8 6.n.u % @ % . . . . . . . . . . . . % _.:.8 8 8 8 9 $.) % # . + . . . @ - @ . . . . . . . . ",
". . . . . . . . . . . + . . . $ k + j z.*.8 n 8 g A.B.% + + . . . . . . . . . . . . * C.2 8 n h 2.2 D.! % @ . . . + . % - @ . . . . . . . . ",
". . . . . . . . . % @ . . % % . @ $ + E.Q 8 K b 8 F.G.% % - @ . . . . . . . . . + . * H.N 8 b (.9 A  .# . # $ . . @ % + + + . . . . . . . . ",
". . . . . . . . . + % . . + + . + @ . 3.I.8 2.@.h (.l & . @ @ @ - . . . . % @ % . + J.w.h 8 G K k.K.> + . @ @ . . % + . . . . . . . . . . . ",
". . . . . . . . . . + . . . . . . + . L.u.H 8 9 2.K K.5 @ . + - k . + % . @ # @ . = R M.8 G G 2.^ C.@ . . + + . . + . . . . . . . . . . . . ",
". . . . . . . . . . . . . . . . . . . * t e.8 b n h F #.& . . @ # . # - % % $ + + J.N.[.8 9 K g U O.% . . . . . . . . . . . . . . . . . . . ",
". . . . . . . . . . . . . . . . . . . . P.Q.8 2.8 8 R.S.D . + + . . & ; % % @ . @ G.T.2.8 G 8 6.j.e + . . . . . . . . . . . . . . . . . . . ",
". . . . . . . . . . . . . . . . . . . . ..U.@.8 8 8 8 u.V.. + @ . . * $ . @ # . ; E 2.8 K 2.8 W.X.. . . . . . . . . . . . . . . . . . . . . ",
". . . . . . . . . . . . . . . . . . . . D Y.Z.8 2.n 8 `.O & . # . . + . . # $ + ).=.G K g h b `. +. . . . . . . . . . . . . . . . . . . . . ",
". . . . . . . . . . . . . . . . . . . + $ .+++8 9 8 8 m |.@+. + . . . . $ $ . * ;.` 2.2.(.8 #+0 ).. % . . . . . . . . . . . . . . . . . . . ",
". . . . . . . . . . . . . . . . . . . % . & j.8 G 8 9 8 $+%+. . % # . . % % . > ^.R.h 8 n 8 7 &+$ . . . . . . . . . . . . . . . . . . . . . ",
". . . . . . . . . . . . . . . . . . . + . % Y.*+8 8 G 8 =+#.% . @ - . @ @ . . L.N.8 h 8 8 K $..+. @ . . . . . . . . . . . . . . . . . . . . ",
". . . . . . . . . . . . . . . . . . . . . % G.-+8 n h 8 *+I V.. @ % . * @ . k O ;+8 h 9 8 H >+4.. ; . . . . . . . . . . . . . . . . . . . . ",
". . . . . . . . . . . . . . . . . . . + % % > S.8 h 8 2.(.;+3.. @ @ . - @ . C ,+*+8 n @.8 '+)+; @ ; . . . . . . . . . . . . . . . . . . . . ",
". . . . . . . . . . . . . . . . . . . @ # + . #.1.2.8 (.8 1 !+. % ; + % + . 5 ++n 8 8 K 8 ~+{++ - # . . . . . . . . . . . . . . . . . . . . ",
". . . . . . . . . . . . . . . . . . . % $ + . p.]+G 8 G 8 m 0 4.. * $ . . . ^+:.8 8 8 8 n ,++ . - + % . . . . . . . . . . . . . . . . . . . ",
". . . . . . . . . . . . . . . . . . . . . + . /+(+g 8 8 8 k._+:+. . ; @ . @+>.W.8 n h 8 Z.: $ # # + $ + . . . . . . . . . . . . . . . . . . ",
". . . . . . . . . . . . . . . . . . . . % - $ . <+Y h h 8 n r }.. . = - . [+0.@.8 n K 8 }+L.% $ @ % $ + . . . . . . . . . . . . . . . . . . ",
". . . . . . . . . . . . . . . . . . . . + $ @ . C :.v.b n 8 N u.& . ; * . ~.7 8 8 8 8 8 t @ # % . + + . . . . . . . . . . . . . . . . . . . ",
". . . . . . . . . . . . . . . . . . . + % @ @ . u |+#+2.8 8 9 Q.1+. # . D |+Q 8 n n h r 9.. - @ $ $ . . . . . . . . . . . . . . . . . . . . ",
". . . . . . . . . . . . . . . . . . . + % % @ % @ y ^ n 2.2.h ] 2+. + . ;.0.k.8 2.h b 3+5 . @ # $ % . . . . . . . . . . . . . . . . . . . . ",
". . . . . . . . . . . . . . . . . . . . . + % % . ! { 9 8 G n R.%.+ . . }.^ G 2.2.G N )+-.@ @ * @ + + . . . . . . . . . . . . . . . . . . . ",
". . . . . . . . . . . . . . . . . . . . . . . + . @ 0 !.h n 8 n 4+L.+ . u.B 8 K n b 2 5+$ $ @ - % % # + . . . . . . . . . . . . . . . . . . ",
". . . . . . . . . . . . . . . . . . . . . . . % # % ^+6+g 8 8 8 ] 7+% L.'.(.8 n 8 [.L -.. % + % + $ * + . . . . . . . . . . . . . . . . . . ",
". . . . . . . . . . . . . . . . . . . . + % + @ & . = c.k.8 h 8 ,.8+# o.9+K 8 n n #+0+= . . + % + % @ . . . . . . . . . . . . . . . . . . . ",
". . . . . . . . . . . . . . . . . . . . + $ @ @ * . . +.o 8 2.8 K | < a+N 8 n h K 4+.+@ # % % - @ . . . . . . . . . . . . . . . . . . . . . ",
". . . . . . . . . . . . . . . . . . . + + + % @ . . . &+Q.g 8 8 8 x M 4+9 8 8 8 b.0.C . # $ % $ % . . . . . . . . . . . . . . . . . . . . . ",
". . . . . . . . . . . . . . . . . . . % @ + $ - . . . e j.M.8 K 8 K I.N 8 h n 2.r ,+* . # $ % % + + % . . . . . . . . . . . . . . . . . . . ",
". . . . . . . . . . . . . . . . . . . % @ % $ - . . @ . Y.r 8 b 2.8 g n 8 K n (.b+O.% . $ $ + + + + % . . . . . . . . . . . . . . . . . . . ",
". . . . . . . . . . . . . . . . . . . + % + + $ $ + @ . ;.{ 9 n b 9 8 2.h h 8 b.c.> . + $ % . + % + + . . . . . . . . . . . . . . . . . . . ",
". . . . . . . . . . . . . . . . . . . . + + . $ = + + . L.c+!.8 G [.8 (.G 8 8 Q ,+. + - $ . . + % + . . . . . . . . . . . . . . . . . . . . ",
". . . . . . . . . . . . . . . . . . . . + % + $ = . . . * : I.8 h (.n 9 K 8 @.d+R . # ; @ . + + % + . . . . . . . . . . . . . . . . . . . . ",
". . . . . . . . . . . . . . . . . . . . + @ % + # . . . . P.%.8 8 n G 2.8 8 M.e+< . * @ . @ $ % + + + . . . . . . . . . . . . . . . . . . . ",
". . . . . . . . . . . . . . . . . . . . + $ @ . % # % . . @+j.*.8 8 g h 8 8 / f+. % * + . ; k % . % @ . . . . . . . . . . . . . . . . . . . ",
". . . . . . . . . . . . . . . . . . . . + @ % . + # % . . > f+'+8 8 h 8 8 8 Q.a . @ @ . . - ; % . % % . . . . . . . . . . . . . . . . . . . ",
". . . . . . . . . . . . . . . . . . . . . . . . . + . . . + 5 0 W./ '+g+Q =+h+< . . . . . + + . . . . . . . . . . . . . . . . . . . . . . . ",
". . . . . . . . . . . . . . . . . . . . . . . . . . . . . . - J.&.G.<+G. +%+..* % . . . . . . . . . . . . . . . . . . . . . . . . . . . . . ",
". . . . . . . . . . . . . . . . . . . . . . . . . . . . . . . . . . . . . . . $ * . . . . . . . . . . . . . . . . . . . . . . . . . . . . . ",
". . . . . . . . . . . . . . . . . . . . . . . . . . . . . . . + $ - % @ # @ $ - # . . . . . . . . . . . . . . . . . . . . . . . . . . . . . ",
". . . . . . . . . . . . . . . . . . . . . . . . . . . . . + % $ * = # + $ - # % . . . . . . . . . . . . . . . . . . . . . . . . . . . . . . ",
". . . . . . . . . . . . . . . . . . . . . . . . . . . . . % - - . + + . . % - # + . . . . . . . . . . . . . . . . . . . . . . . . . . . . . ",
". . . . . . . . . . . . . . . . . . . . . . . . . . . . . . + + . . # % . + % % + . . . . . . . . . . . . . . . . . . . . . . . . . . . . . ",
". . . . . . . . . . . . . . . . . . . . . . . . . . . . . . . @ * # % . . + % + . . . . . . . . . . . . . . . . . . . . . . . . . . . . . . ",
". . . . . . . . . . . . . . . . . . . . . . . . . . . . . . . % - $ $ - @ . + @ % . . . . . . . . . . . . . . . . . . . . . . . . . . . . . "};
