/* XPM */
static const char * BigW_xpm[] = {
"70 70 246 2",
"  	c None",
". 	c #FFFFFF",
"+ 	c #FDFDFD",
"@ 	c #F9F9F9",
"# 	c #FCFCFC",
"$ 	c #FAFAFA",
"% 	c #FBFBFB",
"& 	c #FEFEFE",
"* 	c #F5F5F5",
"= 	c #F8F8F8",
"- 	c #F7F7F7",
"; 	c #F6F6F6",
"> 	c #F0F0F0",
", 	c #F4F4F4",
"' 	c #F3F3F3",
") 	c #F1F1F1",
"! 	c #E6E6E6",
"~ 	c #EEEEEE",
"{ 	c #D2D2D2",
"] 	c #7B7B7B",
"^ 	c #363636",
"/ 	c #292929",
"( 	c #272727",
"_ 	c #2A2A2A",
": 	c #454545",
"< 	c #878787",
"[ 	c #D6D6D6",
"} 	c #C9C9C9",
"| 	c #6C6C6C",
"1 	c #232323",
"2 	c #282828",
"3 	c #222222",
"4 	c #5A5A5A",
"5 	c #B0B0B0",
"6 	c #E8E8E8",
"7 	c #D3D3D3",
"8 	c #000000",
"9 	c #0E0E0E",
"0 	c #5D5D5D",
"a 	c #A6A6A6",
"b 	c #3C3C3C",
"c 	c #AFAFAF",
"d 	c #E5E5E5",
"e 	c #888888",
"f 	c #090909",
"g 	c #555555",
"h 	c #C7C7C7",
"i 	c #9B9B9B",
"j 	c #131313",
"k 	c #010101",
"l 	c #464646",
"m 	c #C1C1C1",
"n 	c #F2F2F2",
"o 	c #A0A0A0",
"p 	c #020202",
"q 	c #030303",
"r 	c #4A4A4A",
"s 	c #969696",
"t 	c #050505",
"u 	c #4D4D4D",
"v 	c #CBCBCB",
"w 	c #040404",
"x 	c #B9B9B9",
"y 	c #8D8D8D",
"z 	c #535353",
"A 	c #D1D1D1",
"B 	c #333333",
"C 	c #B2B2B2",
"D 	c #EFEFEF",
"E 	c #585858",
"F 	c #BDBDBD",
"G 	c #303030",
"H 	c #ADADAD",
"I 	c #EAEAEA",
"J 	c #7F7F7F",
"K 	c #606060",
"L 	c #DADADA",
"M 	c #C4C4C4",
"N 	c #0B0B0B",
"O 	c #0D0D0D",
"P 	c #2C2C2C",
"Q 	c #E0E0E0",
"R 	c #727272",
"S 	c #6D6D6D",
"T 	c #DEDEDE",
"U 	c #C8C8C8",
"V 	c #1C1C1C",
"W 	c #101010",
"X 	c #9E9E9E",
"Y 	c #656565",
"Z 	c #121212",
"` 	c #E3E3E3",
" .	c #CECECE",
"..	c #939393",
"+.	c #C6C6C6",
"@.	c #595959",
"#.	c #1D1D1D",
"$.	c #868686",
"%.	c #D5D5D5",
"&.	c #494949",
"*.	c #0F0F0F",
"=.	c #1E1E1E",
"-.	c #848484",
";.	c #DBDBDB",
">.	c #636363",
",.	c #181818",
"'.	c #747474",
").	c #B4B4B4",
"!.	c #A7A7A7",
"~.	c #A5A5A5",
"{.	c #A8A8A8",
"].	c #BFBFBF",
"^.	c #ACACAC",
"/.	c #414141",
"(.	c #373737",
"_.	c #A1A1A1",
":.	c #E1E1E1",
"<.	c #141414",
"[.	c #686868",
"}.	c #434343",
"|.	c #4B4B4B",
"1.	c #A2A2A2",
"2.	c #424242",
"3.	c #E7E7E7",
"4.	c #8C8C8C",
"5.	c #0A0A0A",
"6.	c #5F5F5F",
"7.	c #B3B3B3",
"8.	c #2B2B2B",
"9.	c #E9E9E9",
"0.	c #ECECEC",
"a.	c #999999",
"b.	c #2E2E2E",
"c.	c #B6B6B6",
"d.	c #EDEDED",
"e.	c #515151",
"f.	c #BCBCBC",
"g.	c #EBEBEB",
"h.	c #8B8B8B",
"i.	c #111111",
"j.	c #6E6E6E",
"k.	c #E2E2E2",
"l.	c #262626",
"m.	c #575757",
"n.	c #C3C3C3",
"o.	c #444444",
"p.	c #AEAEAE",
"q.	c #CACACA",
"r.	c #5E5E5E",
"s.	c #D9D9D9",
"t.	c #818181",
"u.	c #1B1B1B",
"v.	c #D0D0D0",
"w.	c #BABABA",
"x.	c #060606",
"y.	c #393939",
"z.	c #070707",
"A.	c #B5B5B5",
"B.	c #DFDFDF",
"C.	c #979797",
"D.	c #1F1F1F",
"E.	c #858585",
"F.	c #646464",
"G.	c #787878",
"H.	c #D8D8D8",
"I.	c #191919",
"J.	c #8A8A8A",
"K.	c #565656",
"L.	c #CDCDCD",
"M.	c #D7D7D7",
"N.	c #838383",
"O.	c #E4E4E4",
"P.	c #151515",
"Q.	c #BEBEBE",
"R.	c #080808",
"S.	c #898989",
"T.	c #313131",
"U.	c #767676",
"V.	c #3B3B3B",
"W.	c #A9A9A9",
"X.	c #909090",
"Y.	c #1A1A1A",
"Z.	c #0C0C0C",
"`.	c #7D7D7D",
" +	c #C0C0C0",
".+	c #9C9C9C",
"++	c #666666",
"@+	c #6F6F6F",
"#+	c #989898",
"$+	c #4C4C4C",
"%+	c #3D3D3D",
"&+	c #252525",
"*+	c #626262",
"=+	c #616161",
"-+	c #A3A3A3",
";+	c #242424",
">+	c #9F9F9F",
",+	c #343434",
"'+	c #757575",
")+	c #484848",
"!+	c #545454",
"~+	c #2F2F2F",
"{+	c #BBBBBB",
"]+	c #828282",
"^+	c #9D9D9D",
"/+	c #7C7C7C",
"(+	c #B1B1B1",
"_+	c #3A3A3A",
":+	c #ABABAB",
"<+	c #DCDCDC",
"[+	c #8F8F8F",
"}+	c #717171",
"|+	c #777777",
"1+	c #353535",
"2+	c #171717",
"3+	c #949494",
"4+	c #212121",
"5+	c #474747",
"6+	c #676767",
"7+	c #4E4E4E",
"8+	c #161616",
"9+	c #808080",
"0+	c #A4A4A4",
"a+	c #323232",
"b+	c #2D2D2D",
"c+	c #CCCCCC",
"d+	c #797979",
"e+	c #3F3F3F",
"f+	c #383838",
"g+	c #404040",
"h+	c #7E7E7E",
"i+	c #B7B7B7",
"j+	c #6B6B6B",
"k+	c #B8B8B8",
"l+	c #AAAAAA",
"m+	c #959595",
"n+	c #4F4F4F",
"o+	c #DDDDDD",
"p+	c #929292",
"q+	c #696969",
"r+	c #C5C5C5",
"s+	c #7A7A7A",
"t+	c #D4D4D4",
"u+	c #919191",
"v+	c #3E3E3E",
"w+	c #CFCFCF",
". . . . . . . . . . + @ . # # $ $ # . + . . . . . . . . . . . . . . . . . . . . + + . . . # % & . . . + + & . . . . . & . . . . . . & + + # ",
". . . . . . . . . . # * . + # @ = # . # . . . . . . . . . . . . . . . . . . . . # % . . & % % + + # # & & + & . . . . + + . . . . . & + # % ",
". . . . . . . . . & % @ & & + # # + & & . . . . . . . . . . . . . . . . . . . . & + & + # # & + $ - $ + + $ + + # + . # $ & . . . . & & & + ",
". . . . . . . . . + % & & # + . & # # . . . . . . . . . . . . . . . . . . . . . . . & % $ + . + @ = % @ = ; # % - $ . + # + & . . . . . . . ",
". . . . . . . . . + # . & $ % & & % % & . . . . . . . . . . . . . . . . . . . . & & & % % & & % # . & ; ; ; + $ * @ . & . + & . . . . . . . ",
". . . . . . . . . . . . & . . . . . & + . . . . . . . . . . . . . . . . . . . . & + . . & . % - % & # . . . . + $ % # % + & . . . . . . . & ",
". . . . . . . . . & $ > , $ + # # # = ' . . . . . . . . . . . . . . . . . . . . . . . . + . $ - @ ) ! & # - ~ ) % . . & $ & . . . . . + % % ",
". . . . . . . . % { ] ^ / ( _ : < [ . + . . . . . . . . . . . . . . . . . . . . . . . . % + + . = } | 1 2 ( 3 4 5 6 $ . + . . . . . & # $ + ",
". . . . . . . . + 7 | 8 8 8 8 9 0 } . . . . . . . . . . . . . . . . . . . . . . . & % . @ # . . ' a / 8 8 8 8 b c ; & . & . . . . . . + % & ",
". . . . . . . . . d e 8 8 8 8 f g h . # . . . . . . . . . . . . . . . . . . . . . % - . $ % + . ' i j k 8 k 8 l m . . . # & & . . . . . + & ",
". . . . . . . . . n o 8 k p 8 q r m . $ & . # + . & . . . . . . . . . . . . & + + % @ + # % # . ' s t 8 8 p 8 u v . + + # & & . . . . . . . ",
". . . . . . . . . $ 5 8 p w k 8 b x . + & . - $ & + & & + & . & & . & + & . & % % & + @ + & & . n y 8 k 8 k 8 z A . # $ & . . . . . . . . . ",
". . . . . . . . . # x 8 w w k 8 B C . . + . - @ + # + + @ $ + & & . + % + . . # # . & - + . . . D < 8 q 8 8 8 E [ . # @ . . . . . . . . . . ",
". . . . . . . . . + F 8 f p 8 8 G H . & $ & # + & & . + = = @ # . . & # + + + & . & & = + & . . I J 8 k 8 8 8 K L . # $ . . . . . . . . . . ",
". . . . . . . . . & M N O q 8 8 P a . & $ & . & & + & # # + * = + + + . & $ @ + . & & @ & & . . Q R 8 8 8 8 t S T . + % . . . . . . . . . . ",
". . . . . . . . . & U V W q 8 8 ( X . . & . . + @ - @ ' ) % & & & $ = % % @ $ + . & & @ & . . . 7 Y 8 k 8 8 Z ] ` . & + . . . . . . . . . . ",
". . . . . . . . . .  .G W p 8 8 1 ..& . . @ + . # $ $ $ % & @ % . & + & & + $ @ % & & $ & . . % +.@.8 p 8 8 #.$.! . . & . . . . . . . . . . ",
". . . . . . . . . . %.&.*.k k 8 =.-.D . & ' $ . . & & . & + . . . . . . . . + = @ & & % & . . - x u 8 p 8 8 _ ..I . & . . . . . . . . . . . ",
". . . . . . . . . . ;.>.N 8 p 8 ,.'.Q . & - % . & # $ # ! ).!.a a a ~.{.].` $ + % + . % & . . ' ^./.8 p 8 8 (._.D . & . . . . . . . . . . . ",
". . . . . . . . . . :.] f 8 p 8 <.[.%.. . . # & + = ; @ +.}.Z N O O N Z |.^.) . & & . # & . . > 1.^ 8 k 8 8 2.H ' . & . & . . . . . . . . . ",
". . . . . . . . . . 3.4.5.8 8 8 Z 6.v . . . $ # & + + % 7.Z 8 8 8 8 8 8 8...9.. . & & # & . . 0.a.b.8 8 8 8 r c.; . . . + . . . . . . . . . ",
". . . . . . . . . . d.o 9 8 8 8 O e.f.. . . # + . . & g.h.i.8 q q w w 8 N j.k.. . + % + . . . 3.y l.8 q 8 8 m.n.@ . + . & . . . . . . . . . ",
". . . . . . . . . . ' c W 8 8 8 f o.p.. . & . . & . $ q.r.5.8 p p k t w 8 |.s.. . + $ . . . . k.t.u.8 w 8 8 >.v.& . # . . . . . . . . . . . ",
". . . . . . . . . . * w.Z 8 8 8 x.y.~.. & % & . % % = 7.(.w 8 k k k k z.8 ^ A.= . . & . & . . B.'.O 8 k k 8 | ;.. . + . . . . . . . . . . . ",
". . . . . . . . . . $ } j 8 8 8 k 8.C.. & - # . $ $ * C.*.p q k k p k t 8 D.E.` . . . . + & . ;.F.8 8 8 q 8 G.d . . & . & . . . . . . . . . ",
". . . . . . . . . . + H.I.8 8 8 8 #.J.. & - # . + . ~ ] p w w k 8 p x.q 8 5.K.L.. . . . # + . M.4 8 k 8 x.8 N.d.. . & . & . . . . . . . . . ",
". . . . . . . . . . . O.1 k 8 k 8 P.J . . # & + . & %.0 q t w 8 k w x.k 8 8 B Q.. . . . # & . A z 8 q 8 R.8 S.> . & & . & . . . . . . . . . ",
". . . . . . . . . . . 0.T.w 8 k 8 j U.. . . . % . ' ^.V.p w p 8 9 V t k p 8 D.W.. . . . + . . v u 8 t 8 z.8 X.n . # + . . . . . . . . . . . ",
". . . . . . . . . . . ) }.f 8 k 8 W S . + . . # . 6 -.Y.k p 8 8 B K.Z.q w 8 <.`.` . . . & . .  +: 8 w 8 p *..+, . % & . . . . . . . . . . . ",
". . . . . . . . . & . ' K.9 k p 8 9 ++= & . & & . T K w 8 8 8 W @+#+P.8 t 8 f $+F . . . . . % 5 %+8 k k 8 &+W.; . # & & . . . . . . . . . . ",
". . . . . . . . . & . , *+W k p 8 9 =+D & . & . . A &.8 8 8 8 ( -+v ( 8 q k 8 ;+>+. . . . . , ~.(.8 8 8 8 ,+7.= . + & # . . . . . . . . . . ",
". . . . . . . . . . . , '+Y.k k 8 N m.B.& * $ . ; c ,+8 p 8 8 )+U Q !+N k p 8 O N.. . . $ . 0.C.~+8 8 8 8 $+{+- . . . & . . . . . . . . . . ",
". . . . . . . . . . . * h.;+p 8 8 5.u L.& D = . k.]+#.8 p 8 8 S O.I J.D.k p 8 w F.O.. . , . O.e l.8 8 8 8 K n.; . . . . . . . . . . . . . . ",
". . . . . . . . . . . = ^+/ p 8 8 R.}.Q.+ = # .  .m.f 8 k 8 5.y @ = w.~+p 8 8 w &.f.. . ' . T /+D.8 8 8 8 | v = . . . . & . . . . . . . . . ",
". . . . . . . . . . . $ (+_ k 8 8 x._+^.# . + . {+T.8 k 8 p 1 :+. . <+2.k 8 8 w 8.[+. . = . H.}+,.8 8 k 8 |+%.% . . & + & . . . . . . . . . ",
". . . . . . . . . . . # q.~+8 8 8 t G C.% . + . ~.u.8 p 8 5.r U . . d.=+5.8 8 k O F.# . + . v.F.i.8 p 8 8 E.:.& . & + + & . . . . . . . . . ",
". . . . . . . . . . . + Q 1+k 8 8 w 2 $.% + . I < 2+8 8 8 i.`.k.. @ n y l.q 8 8 8 l I . . . h g f 8 p 8 8 3+g.. . + # + . . . . . . . . . . ",
". . . . . . . . . . . # n V.k 8 8 w 4+|+$ # . h @.Z.8 p 8 P.H + & # @ ].5+z.8 8 8 ^ +.# . . F : k 8 8 8 8 _.n . & + # + . . . . . . . . . . ",
". . . . . . . . . . + $ . }.p 8 8 k 2+6+@ . . o ( 8 8 t 8 V h . + . & O.*+5.8 8 8 ;+C.n . . A.(.8 8 8 8 8 p.= . . & + & . . . . . . . . . . ",
". . . . . . . . . . + @ . 7+t 8 k 8 N E @ . . -.Z.8 p k f 5+[ . & . . = N.8+8 8 8 Z K O.& . H ~+8 t 8 k t {+# . . & & & . . . . . . . . . . ",
". . . . . . . . . . % - . K.z.8 q 8 z.7+= . , @+w 8 p k u.9+3.. % @ . # 0+a+t 8 8 8 T.;.+ . W.b+8 x.8 t x.m & . . . & & . . . . . . . . . . ",
". . . . . . . . . & # @ . Y W 8 p 8 x.l @ # c+K.w 8 q p b.w.= . $ ; & + U E 9 8 p 8 u.n.* . -+/ 8 t 8 R.2+h & . + & . & . . . . . . . . . . ",
". . . . . . . . . . & + . d+V 8 k 8 t e+* @ X f+w 8 w k g+Q . & + % & & 6 h+2+8 t k Z s I . s 1 8 q 8 x.1+ .& & % + . & . . . . . . . . . . ",
". . . . . . . . . . . . . J.l.k 8 8 w f+3.@ d+u.k 8 q R.@.0.. # & . & . # X 1 8 q p 5.r.B.) e D.8 k 8 t |.%.. + $ # . & . . . . . . . . . . ",
". . . . . . . . . . & . . 3+b.q 8 k q T. ., 6.x.8 8 p D.t.> . % % . . & . {+e+q 8 8 q _ { g.J u.8 8 8 z.g s.. & # + . + & . . . . . . . . . ",
". . . . . . . . . & + . . a _+x.8 8 q _ x <+e+8 k k x.g+i+= . - - . & $ . L j+P.8 k k x.w.H.R 2+8 k p 5.[.T . & # & . & + . . . . . . . . . ",
". . . . . . . . . . . . . k+}.z.8 8 q _ l+l+G 8 p p 5.6.d & . @ @ & # & . ~ C./ 8 q q x.#+x 6+8+8 8 8 N ] ` . . + & . . & . . . . . . . . . ",
". . . . . . . . . . . + . U $+z.8 8 q _ a.[.,.8 k 8 Z.d+= . . & + # @ + . + F _+8 z.8 q >.y 4 2+8 8 8 5.y 3.. . + & . . . . . . . . . . . . ",
". . . . . . . . . . . # . L g f 8 8 q &+] 8.N w 8 8 D.m+# + + . & $ = + = . L g 8 p 8 5.T.0 5+<.8 8 8 Z.o g.. & + + . . . . . . . . . . . . ",
". . . . . . . . . . & % . g.=+N 8 8 p Y.n+O z.z.8 f : x + # # . + @ @ & @ . g.`.,.8 8 z.9 ,+~+*.8 8 8 9 7.) . . + & . . . . . . . . . . . . ",
". . . . . . . . . . + % . $ | 9 8 8 k O 1 t t w 8 <.R Q & + & . + $ % # # . ) ~.f+8 x.k 8 2+I.R.8 8 8 i.n.- . . & . . . . . . . . . . . . . ",
". . . . . . . . . . & % . . U.i.8 k p q x.q p p 8 =.#+% . . . . + # + = # . * U g 8 9 8 k f f q 8 p k P.v.% . . . & & . & . . . . . . . . . ",
". . . . . . . . . . . # . . J <.8 p q 8 8 p 8 p 8 P ).. & . . . & & & $ # + & g.'.8 5.k x.t k k p p 8 ,.o+. . . & # # . + . . . . . . . . . ",
". . . . . . . . . . & & . . e Y.8 p w 8 k 8 8 8 O e.v . # . . . . . . . . . . + s W 8 8 5.t k k w p 8 D.6 . . . + @ $ . + . . . . . . . . . ",
". . . . . . . . . & + & . . p+1 8 k q 8 p 8 p 8 Y.'+<+. . & . . . . . . . . . # (+f+8 8 x.q 8 k p 8 q G d.. . . + $ $ . & . . . . . . . . . ",
". . . . . . . . . + # . . . X T.k 8 q 8 q 8 R.8 G a , . & + & . . . . . . . . . %.q+8 p p 8 8 p k 8 5.: n . . & # @ $ . . . . . . . . . . . ",
". . . . . . . . . + + . . . ^.e+x.8 p 8 p 8 z.8 g+v . . . & . . . . . . . . . . , C.8 p 8 8 p q p 8 *.E ' . . . + % % . . . . . . . . . . . ",
". . . . . . . . . & & . . . k+$+5.8 k 8 8 8 k 8 K.T . + # & . . . . . . . . . . . A.i.p 8 8 q t p 8 <.q+n . . . & + + . & . . . . . . . . . ",
". . . . . . . . . . . . + . r+@.9 8 k k 8 k 8 <.s+I . $ = & . . . . . . . . . . . } ^ t 8 k w w k 8 I.s+) . . . . . . & + . . . . . . . . . ",
". . . . . . . . . . . . # . 7 6+j 8 k p 8 k 8 _+{., . $ @ & . . . . . . . . . . . <+j+Z.8 q w p 8 8 =.y ' . . . . . . & + . . . . . . . . . ",
". . . . . . . . . . & . % . B.'+2+8 k p 8 8 8 r.t+# . + # & . . . . . . . . . . . ) a P.k q q p 8 8 1 _.- . . & + & . . & . . . . . . . . . ",
". . . . . . . . . . & . # . 6 h+Y.8 k k 8 8 8 /+n . % & & + & . . . . . . . . . . . %.V k w q p 8 8 l.5 $ . . + % + . . . . . . . . . . . . ",
". . . . . . . . . . + $ & . ~ ]+I.8 8 8 8 8 W u+= . @ + + = + . . . . . . . . . . . d %+k 8 8 8 8 8 / +.* . . + % + . . . . . . . . . & # & ",
". . . . . . . . . & $ * . . * 0+)+&+b+b.~+&+0 k+* . # # + = + . . . . . . . . . . & 3...v+/ b+~+/ P *+k.n + . & # + . . & . & & . . . & @ = ",
". . . . . . . . . # = = & . & g.%.c+ .w+w+U ;.> # . + + & + & . . . . . . . . . & # @ I v.c+ . .c+ .L D % & . & & . . & # & & & & . . . + @ ",
". . . . . . . . . & + & # * - & . . . . . . . . + @ @ # @ ' # . . . . . . . . . @ = . . . . . . . . . $ . . & & & . . + @ & & & & . . . . + ",
". . . . . . . . . # $ + @ * - $ & . $ * $ + . . # @ % + $ , # . . . . . . . . . % @ . & # + + # % # & . . . + # + . . + @ & . & & . . . . . ",
". . . . . . . . & $ , % - & . . + # + + - & . # % & & # + . . . . . . . . . . . . & % . . . # @ = $ # & . & # % + & . & % & . . & . . . . . ",
". . . . . . . . . . & & - + % $ @ , ; . & . . $ = % $ * ; # . . . . . . . . . . . # ; + & & & & & & + % & . & + + & . & # . . . . & & & . . ",
". . . . . . . . . . . . $ . = = % # # & @ # . & + & & $ @ & . . . . . . . . . . . & + % % = - % & . & # . . . . . & + + & . . . . & + # # & "};
