/* XPM */
static const char * BigX_xpm[] = {
"70 70 221 2",
"  	c None",
". 	c #FFFFFF",
"+ 	c #FEFEFE",
"@ 	c #FDFDFD",
"# 	c #FCFCFC",
"$ 	c #FAFAFA",
"% 	c #FBFBFB",
"& 	c #F8F8F8",
"* 	c #F9F9F9",
"= 	c #F7F7F7",
"- 	c #F6F6F6",
"; 	c #F5F5F5",
"> 	c #EDEDED",
", 	c #F2F2F2",
"' 	c #F3F3F3",
") 	c #F4F4F4",
"! 	c #F0F0F0",
"~ 	c #EAEAEA",
"{ 	c #EBEBEB",
"] 	c #ECECEC",
"^ 	c #E8E8E8",
"/ 	c #8A8A8A",
"( 	c #2D2D2D",
"_ 	c #282828",
": 	c #2A2A2A",
"< 	c #2B2B2B",
"[ 	c #292929",
"} 	c #616161",
"| 	c #D1D1D1",
"1 	c #989898",
"2 	c #3C3C3C",
"3 	c #222222",
"4 	c #2C2C2C",
"5 	c #232323",
"6 	c #6C6C6C",
"7 	c #C7C7C7",
"8 	c #A5A5A5",
"9 	c #000000",
"0 	c #999999",
"a 	c #C9C9C9",
"b 	c #3E3E3E",
"c 	c #757575",
"d 	c #E3E3E3",
"e 	c #E6E6E6",
"f 	c #7B7B7B",
"g 	c #070707",
"h 	c #050505",
"i 	c #030303",
"j 	c #080808",
"k 	c #454545",
"l 	c #B4B4B4",
"m 	c #D2D2D2",
"n 	c #707070",
"o 	c #101010",
"p 	c #010101",
"q 	c #525252",
"r 	c #C5C5C5",
"s 	c #CACACA",
"t 	c #040404",
"u 	c #060606",
"v 	c #606060",
"w 	c #DBDBDB",
"x 	c #EEEEEE",
"y 	c #929292",
"z 	c #1D1D1D",
"A 	c #020202",
"B 	c #2F2F2F",
"C 	c #B3B3B3",
"D 	c #1C1C1C",
"E 	c #868686",
"F 	c #BEBEBE",
"G 	c #4C4C4C",
"H 	c #7D7D7D",
"I 	c #E9E9E9",
"J 	c #191919",
"K 	c #BDBDBD",
"L 	c #6F6F6F",
"M 	c #151515",
"N 	c #0F0F0F",
"O 	c #585858",
"P 	c #E0E0E0",
"Q 	c #555555",
"R 	c #090909",
"S 	c #535353",
"T 	c #DFDFDF",
"U 	c #3B3B3B",
"V 	c #AFAFAF",
"W 	c #A6A6A6",
"X 	c #353535",
"Y 	c #EFEFEF",
"Z 	c #BCBCBC",
"` 	c #393939",
" .	c #121212",
"..	c #7A7A7A",
"+.	c #F1F1F1",
"@.	c #828282",
"#.	c #161616",
"$.	c #CECECE",
"%.	c #656565",
"&.	c #141414",
"*.	c #0B0B0B",
"=.	c #5B5B5B",
"-.	c #CFCFCF",
";.	c #636363",
">.	c #0D0D0D",
",.	c #686868",
"'.	c #D3D3D3",
").	c #818181",
"!.	c #1B1B1B",
"~.	c #0A0A0A",
"{.	c #333333",
"].	c #ADADAD",
"^.	c #3D3D3D",
"/.	c #949494",
"(.	c #AEAEAE",
"_.	c #909090",
":.	c #888888",
"<.	c #262626",
"[.	c #464646",
"}.	c #B9B9B9",
"|.	c #DEDEDE",
"1.	c #0C0C0C",
"2.	c #565656",
"3.	c #D7D7D7",
"4.	c #6A6A6A",
"5.	c #676767",
"6.	c #D0D0D0",
"7.	c #898989",
"8.	c #1F1F1F",
"9.	c #3F3F3F",
"0.	c #BABABA",
"a.	c #C0C0C0",
"b.	c #4F4F4F",
"c.	c #838383",
"d.	c #E1E1E1",
"e.	c #C4C4C4",
"f.	c #303030",
"g.	c #939393",
"h.	c #242424",
"i.	c #363636",
"j.	c #DDDDDD",
"k.	c #5C5C5C",
"l.	c #5D5D5D",
"m.	c #D9D9D9",
"n.	c #D4D4D4",
"o.	c #727272",
"p.	c #5A5A5A",
"q.	c #9E9E9E",
"r.	c #B6B6B6",
"s.	c #0E0E0E",
"t.	c #131313",
"u.	c #1E1E1E",
"v.	c #9F9F9F",
"w.	c #111111",
"x.	c #A7A7A7",
"y.	c #D6D6D6",
"z.	c #E5E5E5",
"A.	c #6D6D6D",
"B.	c #171717",
"C.	c #8B8B8B",
"D.	c #414141",
"E.	c #C3C3C3",
"F.	c #797979",
"G.	c #424242",
"H.	c #8C8C8C",
"I.	c #202020",
"J.	c #C2C2C2",
"K.	c #505050",
"L.	c #ABABAB",
"M.	c #8E8E8E",
"N.	c #A1A1A1",
"O.	c #373737",
"P.	c #252525",
"Q.	c #C8C8C8",
"R.	c #A2A2A2",
"S.	c #878787",
"T.	c #484848",
"U.	c #B1B1B1",
"V.	c #1A1A1A",
"W.	c #DADADA",
"X.	c #808080",
"Y.	c #212121",
"Z.	c #444444",
"`.	c #B8B8B8",
" +	c #4D4D4D",
".+	c #343434",
"++	c #6B6B6B",
"@+	c #313131",
"#+	c #272727",
"$+	c #C6C6C6",
"%+	c #545454",
"&+	c #737373",
"*+	c #A3A3A3",
"=+	c #3A3A3A",
"-+	c #979797",
";+	c #CCCCCC",
">+	c #A8A8A8",
",+	c #181818",
"'+	c #9C9C9C",
")+	c #646464",
"!+	c #696969",
"~+	c #767676",
"{+	c #D8D8D8",
"]+	c #6E6E6E",
"^+	c #595959",
"/+	c #A9A9A9",
"(+	c #9D9D9D",
"_+	c #BBBBBB",
":+	c #B5B5B5",
"<+	c #9A9A9A",
"[+	c #717171",
"}+	c #7F7F7F",
"|+	c #C1C1C1",
"1+	c #383838",
"2+	c #B0B0B0",
"3+	c #323232",
"4+	c #4A4A4A",
"5+	c #D5D5D5",
"6+	c #AAAAAA",
"7+	c #B2B2B2",
"8+	c #CDCDCD",
". . . . . . . . . . . . . . . . . . . . . . . . . . . . . . . . . . . . . . . . . . . . . . . . . . . . . . . . . . . . . . . . . . . . . . ",
". . . . . . + @ @ # # $ @ . @ @ . . . . % $ . . . . . . . . . . . . . . . . . . . . . % $ @ . + % $ + . . @ & @ . @ % + + @ . @ % @ . . . + ",
"@ . . . . . + @ # % $ $ $ # # * $ $ % @ % * . . . . . . . . . . . . . . . . . . . . + $ & % @ # & * @ . . @ = $ + # * @ + * = @ # @ + @ % $ ",
"$ + . . . . + + + @ # @ $ & @ & = - ; % + # . . . . . . . . . . . . . . . . . . . . # % # % * * % # @ + + @ % & # @ % @ . & > % # @ @ $ = * ",
"# @ + . . . . . . . . . % = @ # $ * & & # . . . . . . . . . . . . . . . . . . . . . @ # + @ * $ @ # @ @ $ $ @ = * + + + . % , = - $ @ % $ % ",
". @ + . . . . . . . . . + $ - # . . + ; - . . . . . . . . . . . . . . . . . . . . . . $ $ + @ # % = + % & $ % $ & $ @ & - # . = ' & + . + % ",
"@ + . . . . . . . + @ % + $ > = . . @ ) - . . . . . . . . . . . . . . . . . . . . . . * - % + * ) % . % % . . . ; ) $ ! ~ ; . . + + . . # ; ",
"$ + . . . . . @ % % % { ] % * % @ * = # # * . . . . . . . . . . . . . . . . . . . . + . & ! ; ! ^ # @ % % # # - ) * + . . # - $ ' , * + . . ",
"@ . . . . . + # $ @ # / ( _ : < _ [ } | . + . . . . . . . . . . . . . . . . . . . . ; & + @ . @ ^ 1 2 3 [ : 4 5 6 7 ] & + + * + @ @ . . . . ",
"+ . . . . . . @ % + @ 8 4 9 9 9 9 9 3 0 ; . . . . . . . . . . . . . . . . . . . . . # ; & # = & a b 9 9 9 9 9 9 c d $ & % @ # @ . + * - * . ",
"# + + . . . . . @ + . e f g 9 h i 9 j k l . . . . . . . . . . . . . . . . . . . . . . & - @ & m n o 9 9 p 9 i q r # . @ # + + + % # * & * % ",
"# + + . . . . . . . . . s q i t u p 9 g v w . + + . . . . . . + . + + . . . . . + + . # % . x y z A A i 9 p B C & . . . % $ . . $ # + + @ $ ",
"+ . . . . . . . . . . . % C 4 p i i 9 9 D E @ # @ + + . . + + # . @ @ . + @ + . @ # + . . * F G 9 9 A A 9 D H I . + + . = ) . . + + . . . @ ",
". . . . . . . . . . . . . { E J 9 t A 9 9 2 K & . $ $ + + % $ @ . @ + @ % $ @ . + # @ . . w L M p A 9 9 N O r * . @ + . & ; . . . . . . . . ",
". . . . . . . . . . . . # @ P Q R i t p 9 N S T + % & % # & ; . + + + $ = * + . . @ @ . ^ y [ 9 A A 9 9 U V I @ @ % + . # % + . . . . . . . ",
". . . . . . . . . . . @ # . ; W X t t t 9 9 M 0 Y . % & $ * ; . @ . . % * # . + + + . . Z ` 9 9 p A 9  ...! . . # # @ . . + # . . . . . . . ",
". . . . . . . . . . . @ + . @ +.@.#.9 i A 9 A B 7 @ . $ $ % + + % . + @ + + # & % + . $.%.&.9 9 h *.p =.-.. . . + @ + . . @ $ + . . . . . . ",
". . . . . . . . . . . . . # & . | ;.>.9 i t i u ,.'.# # & @ . $ * + % $ + + & , @ . & ).!.~.h 9 p u {.].. . $ @ . + @ . . + % . . . . . . . ",
". . . . . . . . . . . @ @ + $ % % C ^.A 9 t i 9 &./.x . # + . @ # . * & @ + * - . . (.U p i u p 9 N _.] . + % @ . + % # + . + . . . . . . . ",
". . . . . . . . . . . * $ . + - . ^ :.<.9 p i 9 9 [.}.$ + ; . . . . $ $ + . @ @ @ |.O >.p p i 9 1.2.3.. @ . . . . + # % @ . . . . . . . . . ",
"+ . . . . . . . . . . * & @ + & @ + | 4.&.9 A A 9 j 5.6.= ! # + @ . @ @ + + . . Y 7.8.9 i t p u 9.0.) . + + . . + . . @ @ + + . . . . . . . ",
"@ . . . . . . . . . . + & ; + + - $ * a.b.9 9 g A 9 3 c.d.. Y . & @ @ + @ % @ $ e.f.9 i j i p 3 :.Y . . @ % + + # + . . @ # # . . . . . . . ",
"+ . . . . . . . . . . . $ - + . ; - . x g.h.9 t t p 9 i.V . ) . = + @ @ % $ % j.k.R 9 i h 9 *.l.m.+ ) & . # + + @ + . . . + @ . . . . . . . ",
". . . . . . . . . . . . % = + . = - + # n.o.t 9 p R 9 >.p.7 . % % * $ + + $ e q.*.i A t p u 2 ].% . , - + . . . . . . . . . . . . . . . . . ",
". . . . . . . . . . . . * - + . & - @ . = r.b 9 9 s.t.h  .o.# @ . , = + . ! V k p g t t 9 u.g.) . . + $ % . . . . . . . . . . . . . . . . . ",
"+ . . . . . . . . . . . % & + . % = * + . x v.w.g *.R p 9 {.x.. . ; & . # $.%.R p A u 9 t.5.y.. . . . # # . . . . . . . . . . . . . . . . . ",
"+ . . . . . . . . . . . + # % + + # * * @ . z.A.B.t 9 9 9 1.G m.@ @ - . ] C.!.9 i 9 t 9 D.E.* * % . # @ . . . . . . . . . . . . . . . . . . ",
"+ . . . . . . . . . . . . + % @ . . # * % . $ n.2 t 9 t h 9 M F.; . # ) C G.9 9 A j 9 z H.= . = * # # @ + . . . . . . . . . . . . . . . . . ",
". . . . . . . . . . . @ @ . + + . . . @ @ % = . C.5 p i g A 9 I.J.& . 7 k.o p 9 i R u 4.3.% + + $ & + + @ . . . . . . . . . . . . . . . . . ",
". . . . . . . . . . . $ $ . . @ @ + + . . # * . ! 6 M 9 p i A u K.j.Y c.J 9 >.p u 9 [.K $ - = + # - % . . . . . . . . . . . . . . . . . . . ",
". . . . . . . . . . . @ @ . . . % = = $ + . + . . l b.o 9 ~.t.9 A L.M.i.g p u g h M N.- . % ! ) . * ; % . . . . . . . . . . . . . . . . . . ",
". . . . . . . . . . . . # * $ + + # # @ + + . . . = N.i.9 A R p 9 O.P.~.9 p 9 9 A ..d * ) # $ - $ @ $ @ . . . . . . . . . . . . . . . . . . ",
". . . . . . . . . . . . @ $ % + . . . . . . . # + . d.).8.9 p 9 g u A i u t 9 i b s @ * ) # . # $ + . + + . . . . . . . . . . . . . . . . . ",
". . . . . . . . . . . . . + + . . . . . . + % % * . . Q.O A 9 t i p 9 t j h i [ R.! . @ # @ + + @ + + + + . . . . . . . . . . . . . . . . . ",
"+ . . . . . . . . . . . . . . . . . . . . # - @ ' & . +.8 U 9 R p t t i A t D L ~ + . . . + + + + + + + + . . . . . . . . . . . . . . . . . ",
"+ . . . . . . . . . . . . . . . . . . . . @ & * = ) * + d S.N u j t A t 9 j T.7 . + @ + + + + + + + + + + . . . . . . . . . . . . . . . . . ",
"+ . . . . . . . . . . . . . . . . . . . . . + ; + * - . @ U._ 9 *.A 9 g t s.5.@ . = # + + + + + + + + + + . . . . . . . . . . . . . . . . . ",
". . . . . . . . . . . . . . . . . . . . . . + $ $ . # . > 1 V.9 i i p *.j *.q W.. & # + + + + + + + + + + . . . . . . . . . . . . . . . . . ",
". . . . . . . . . . . . . . . . . . . . . + $ + = % . +.V [.9 h 9 R s.R p 9 M 6 - . . + + + + + + + + + + . . . . . . . . . . . . . . . . . ",
". . . . . . . . . . . . . . . . . . . . . . # ~ & + . 6.=.9 9 u g A u h p 9 i h.0 ) . + + + + + + + + + + . . . . . . . . . . . . . . . . . ",
". . . . . . . . . . . . . . . . . . . . . . # I & . d.X.Y.9 9 A i 9 9 A i A j M {.| + . . + + + + + + + + . . . . . . . . . . . . . . . . . ",
". . . . . . . . . . . . . . . . . . . . . # - ) + ) v.i.9 p g 9 9 Z.[ j p t u ~.u o.I . + + + + + . + + + . . . . . . . . . . . . . . . . . ",
". . . . . . . . . . . . + + . % # . . + + # - @ . `. +~.9 u j 9 R N.S..+u 9 A p 9 Y.x.= . @ # . + # + . + . . . . . . . . . . . . . . . . . ",
". . . . . . . . . . . . # % @ - * + @ % @ + % . I ++&.9 i t A g  +j.d X.8.9 p A 9 p  +F % # # . # * % + + . . . . . . . . . . . . . . . . . ",
". . . . . . . . . . . . % & % & $ % & $ @ . . = q.@+h p i 9 i #+l - . $+%+R 9 h t p *.&+W.% + @ $ * ; $ . . . . . . . . . . . . . . . . . . ",
"+ . . . . . . . . . . . @ & & . + = ; # @ # % -.[.t.g A 9 9 B.++* . . x *+=+9 i R p 9 B -+! . * * % , * . . . . . . . . . . . . . . . . . . ",
"@ . . . . . . . . . . . . # ; % & & + + & $ ~ &+t.9 p p 9 *.T.;+% . ; . I :.&.9 1.A 9 9 k Q.# % % ) # . . . . . . . . . . . . . . . . . . . ",
"+ . . . . . . . . . . . . . @ - ; % @ $ @ , >+,+g i A 9 i @+'+. = ' - @ . n.)+9 h i i 9 &.!+m.. - ) @ @ # . . . . . . . . . . . . . . . . . ",
". . . . . . . . . . . . # $ . + + & , $ . ;+G.t A p 9 9 V.~+! . + +.* = * ' l U p ~.1.t 9 5 _.] @ + . & & . . . . . . . . . . . . . . . . . ",
". . . . . . . . . . . + # % # . . & - . {+]+~.p 9 9 9 *.^+7 . = . $ % $ $ $ ~ v.&.i t A 9 t X /+. . . % $ . . . . . . . . . . . . . . . . . ",
". . . . . . . . . . . + + @ * $ @ # . ) g.,+9 p p 9 9 4 (+@ . = $ . % $ % @ + P ;.j 9 A i 9 R l.m.. % $ . . . . . . . . . . . . . . . . . . ",
". . . . . . . . . . . . . @ $ ; * . # K T.9 p A p 9 ,+&+m.. # @ * @ % $ % @ . & _+.+h A i p i 3 :.] $ $ . . . . . . . . . . . . . . . . . . ",
"+ . . . . . . . . . . + # # @ ; * . w 5.s.9 p p 9 t =.7 + + * + # $ % @ @ # @ . ] 7.h.9 A t i i O.:+- + % . . . . . + . . . . . . . . . . . ",
"@ . . . . . . . . . . & - @ + $ . Y g.h.9 u 9 p 9 U (.; . @ % % . % @ . + @ @ . # d q 1.g h t p *.^+3.. # . . . . @ % @ . . . . . . . . . . ",
"@ . . . . . . . . . . ; ; + % . . l U i 9 p t 9 w.C.I . . . . % . . . . . . . . . . <+X ~.9 A u 9 N y x . # + $ # # $ # # % + . . . . . . . ",
"+ . . . . . . . . . . . . @ * + y.5. .9 i h g i [+s ; . + @ . . . . . . . . . . . . % }+s.9 *.*.9 9 f.C . - $ , ' # . @ - ; . . . . . . . . ",
". . . . . . . . . . . . . . . * @.B.i A u R p Y.|+- . + % * # . . . . . . . . . . . . a ^+1.u 1.9 9 9 l.6.# > = * = @ . $ * . . . . . . . . ",
". . . . . . . . . . . $ * . # V 1+A j *.h 9 s.E ~ . . + @ % $ . . . . . . . . . . . % % 2+i.p i A u 9 t.c.' +.% + * $ + . % = + . . . . . . ",
"+ . . . . . . . . . . - & $ s Q 1.9 j o h t  +W.* + + + . + # + . . . . . . . . . . * . ~ / z 9 g g p 9 3+x.* = - # @ + @ $ $ . . . . . . . ",
"@ . . . . . . . . . . & . e n ,+9 9 i R R i.2+% @ + + @ + . + # . . . . . . . . . . + # + n.} >.u A 9 9 t 4+5+' - + . . = ) . . . . . . . . ",
"@ . . . . . . . . . . . # U.P.p i i 9 9 h.:.* * @ . + @ @ + + # . . . . . . . . . . . * + = C G.p 9 9 h 9 &.f z.. @ + + ; ' . . . . . . . . ",
"+ . . . . . . . . . . . Q.Q N 9 j j 9 >.} '.. Y $ + + @ % $ # + . . . . . . . . . . # % @ . x M.,+9 p t h p 8.2+= % + @ % $ $ . . . . . . . ",
". . . . . . . . . . . { ).N t i u 9 p =+6+# ; ; @ % % @ @ $ $ . . . . . . . . . . . + % $ + # 3.4.>.9 i u A g b.$+* . % @ # ; + . . . . . . ",
". . . . . . . + # + # (+[ 9 9 9 9 9 z @.d.. ; . . % % + . @ # . . . . . . . . . . . # & $ . . % F 1+i 9 9 9 9 h ++m.$ @ + @ = + . . . . . . ",
"+ . + + . . . + * & , }+P.<.4 3+< @+++a . . + . . . + . . . . . . . . . . . . . . . = * + @ @ . ] <+k _ B .+4 : l.7+Y . + % $ . . . . . . . ",
"# + + + + . . . @ * ; w a ;+8+-.8+6.T - . # . . . . . . . . . . . . . . . . . . . . @ + # - ; % @ { ;+7 6.| $.8+y.~ $ @ = ' = + . . . . . . ",
"* + + + + . . . . @ # . . . . . . . . . * - . . . . . . . . . . . . . . . . . . . . % @ @ $ $ @ . . . . . . . . . # & $ % * # . . . . . . . ",
"* + . + + . . . . . . @ @ + % # @ + + . % * . . . . . . . . . . . . . . . . . . . . % # . . . # $ % @ @ $ & + . $ ) - # . + * + . . . . . . ",
"% + . . + . . . . . . % % + % $ # # $ % + . . . . . . . . . . . . . . . . . . . . . . . . . @ & ) & % % % # @ @ # % @ . . % ) + . . . . . . ",
"# . . . . + + + . . . + + . . # + + * ) * . . . . . . . . . . . . . . . . . . . . . . . . . . % * . . + * ' - % + . @ # @ . + . . . . . . . "};
