/* XPM */
static const char * BigY_xpm[] = {
"70 70 195 2",
"  	c None",
". 	c #FFFFFF",
"+ 	c #FEFEFE",
"@ 	c #FDFDFD",
"# 	c #FBFBFB",
"$ 	c #FCFCFC",
"% 	c #F8F8F8",
"& 	c #F9F9F9",
"* 	c #FAFAFA",
"= 	c #F7F7F7",
"- 	c #F6F6F6",
"; 	c #EDEDED",
"> 	c #F2F2F2",
", 	c #F5F5F5",
"' 	c #F3F3F3",
") 	c #F1F1F1",
"! 	c #EAEAEA",
"~ 	c #F4F4F4",
"{ 	c #EFEFEF",
"] 	c #E3E3E3",
"^ 	c #F0F0F0",
"/ 	c #D2D2D2",
"( 	c #999999",
"_ 	c #404040",
": 	c #242424",
"< 	c #2D2D2D",
"[ 	c #353535",
"} 	c #707070",
"| 	c #EBEBEB",
"1 	c #B0B0B0",
"2 	c #636363",
"3 	c #2E2E2E",
"4 	c #2A2A2A",
"5 	c #363636",
"6 	c #2C2C2C",
"7 	c #1E1E1E",
"8 	c #5A5A5A",
"9 	c #B9B9B9",
"0 	c #C5C5C5",
"a 	c #303030",
"b 	c #000000",
"c 	c #040404",
"d 	c #343434",
"e 	c #CFCFCF",
"f 	c #D0D0D0",
"g 	c #6E6E6E",
"h 	c #161616",
"i 	c #1B1B1B",
"j 	c #7D7D7D",
"k 	c #D9D9D9",
"l 	c #7B7B7B",
"m 	c #1D1D1D",
"n 	c #020202",
"o 	c #141414",
"p 	c #686868",
"q 	c #A0A0A0",
"r 	c #393939",
"s 	c #606060",
"t 	c #CCCCCC",
"u 	c #565656",
"v 	c #0A0A0A",
"w 	c #030303",
"x 	c #050505",
"y 	c #151515",
"z 	c #A1A1A1",
"A 	c #5D5D5D",
"B 	c #101010",
"C 	c #010101",
"D 	c #292929",
"E 	c #A5A5A5",
"F 	c #9A9A9A",
"G 	c #4C4C4C",
"H 	c #CECECE",
"I 	c #ECECEC",
"J 	c #898989",
"K 	c #818181",
"L 	c #E0E0E0",
"M 	c #717171",
"N 	c #181818",
"O 	c #090909",
"P 	c #8F8F8F",
"Q 	c #E9E9E9",
"R 	c #4B4B4B",
"S 	c #080808",
"T 	c #0E0E0E",
"U 	c #2B2B2B",
"V 	c #BABABA",
"W 	c #484848",
"X 	c #434343",
"Y 	c #E5E5E5",
"Z 	c #747474",
"` 	c #1A1A1A",
" .	c #8A8A8A",
"..	c #E8E8E8",
"+.	c #919191",
"@.	c #282828",
"#.	c #0F0F0F",
"$.	c #060606",
"%.	c #757575",
"&.	c #E2E2E2",
"*.	c #9C9C9C",
"=.	c #2F2F2F",
"-.	c #4D4D4D",
";.	c #DFDFDF",
">.	c #D1D1D1",
",.	c #616161",
"'.	c #313131",
").	c #9D9D9D",
"!.	c #E4E4E4",
"~.	c #4F4F4F",
"{.	c #262626",
"].	c #A8A8A8",
"^.	c #B1B1B1",
"/.	c #070707",
"(.	c #515151",
"_.	c #EEEEEE",
":.	c #949494",
"<.	c #232323",
"[.	c #626262",
"}.	c #E7E7E7",
"|.	c #909090",
"1.	c #191919",
"2.	c #C2C2C2",
"3.	c #373737",
"4.	c #0C0C0C",
"5.	c #B5B5B5",
"6.	c #7A7A7A",
"7.	c #171717",
"8.	c #111111",
"9.	c #D8D8D8",
"0.	c #383838",
"a.	c #DEDEDE",
"b.	c #646464",
"c.	c #252525",
"d.	c #DBDBDB",
"e.	c #737373",
"f.	c #9E9E9E",
"g.	c #C7C7C7",
"h.	c #D5D5D5",
"i.	c #9F9F9F",
"j.	c #767676",
"k.	c #DADADA",
"l.	c #6D6D6D",
"m.	c #1F1F1F",
"n.	c #838383",
"o.	c #585858",
"p.	c #C4C4C4",
"q.	c #474747",
"r.	c #3C3C3C",
"s.	c #CACACA",
"t.	c #777777",
"u.	c #8D8D8D",
"v.	c #B3B3B3",
"w.	c #3A3A3A",
"x.	c #6A6A6A",
"y.	c #D3D3D3",
"z.	c #DDDDDD",
"A.	c #656565",
"B.	c #AAAAAA",
"C.	c #6C6C6C",
"D.	c #131313",
"E.	c #ADADAD",
"F.	c #AFAFAF",
"G.	c #CBCBCB",
"H.	c #848484",
"I.	c #8E8E8E",
"J.	c #8C8C8C",
"K.	c #BDBDBD",
"L.	c #494949",
"M.	c #414141",
"N.	c #5C5C5C",
"O.	c #1C1C1C",
"P.	c #B7B7B7",
"Q.	c #0D0D0D",
"R.	c #B8B8B8",
"S.	c #7E7E7E",
"T.	c #0B0B0B",
"U.	c #595959",
"V.	c #6F6F6F",
"W.	c #C3C3C3",
"X.	c #D4D4D4",
"Y.	c #BFBFBF",
"Z.	c #5F5F5F",
"`.	c #D7D7D7",
" +	c #424242",
".+	c #878787",
"++	c #E6E6E6",
"@+	c #A6A6A6",
"#+	c #858585",
"$+	c #676767",
"%+	c #989898",
"&+	c #929292",
"*+	c #969696",
"=+	c #222222",
"-+	c #D6D6D6",
". . . . . . . . . . . . . . . . . . . . . . . . . . . . . . . . . . . . . . . . . . . . . . . . . . . . . . . . . . . . . . . . . . . . . . ",
". . . . . . . . . . . . . . . . . . . . . . . . . . . . . . . . . . . . . . . . . . . . . . . . . . . . . . . . . . . . . . . . . . . . . . ",
"+ @ . @ # @ . . . + $ + @ . % & $ # * . @ # + . . . . . . . . . . . . . . . . . . . . . + + . . . @ $ . . & $ . . + $ # . . # $ . . . . . . ",
"+ & = @ $ @ + @ # * $ + $ . = - & & & . @ % + . . . . . . . . . . . . . . . . . . . . . . + + + . + * $ # = * @ . + $ * @ . * * @ . . . . . ",
". % ; # $ @ @ * = & + + @ @ # & % * @ . + # # + . . . . . . . . . . . . . . . . . . . . . . @ $ @ + $ & - * $ $ @ + + # % + + & & + . . . . ",
". # > = - * @ # * # . . # , $ $ & # . . @ + - & . . . . . . . . . . . . . . . . . . . . . . @ * & $ . * = + . # * @ . @ , @ . & = @ . . . . ",
"- $ . = ' % + . + # & + & ) & @ $ $ . + % . - % . . . . . . . . . . . . . . . . . . . . . . @ * % # . . + . . $ = = $ @ % $ . # & @ . . . . ",
"! , . . + + . . $ , ' + . . . . . . + $ - + . . . . . . . . . . . . . . . . . . . . . . . @ # # + . + + . . . $ , > = . . = # . . . . . . . ",
". $ - * ' > & + . . . + - # = > > ~ > { + . . . . . . . . . . . . . . . . . . . . . . . . # * + + = ! ] ~ $ ~ , $ . @ $ @ ^ - @ . . . . . . ",
"+ + & + @ @ . . . . = / ( _ : : < [ _ } ' . ~ = . . . . . . . . . . . . . . . . . . . . & $ . | 1 2 3 4 5 6 7 8 9 - . . . + $ , - @ . . . . ",
"# @ $ @ . + & - & . @ ! 0 a b b b b c d e + $ # . . . . . . . . . . . . . . . . . . . . , @ . f g h b b b b i j k + @ % # * $ $ $ + . . . . ",
"$ + + + # $ & % & # * + & l m b b b n o p ] . . . . . . . . . . . . . . . . . . . . . . & . { q r b b b b b s t + . % * # ~ $ $ # + . . . . ",
"# * . . * $ + + @ * % . . / u v b w x w y z ' . . . . + + . . . . . . . + . + @ + . . . . . 0 A B b n C b D E , . # & . + - @ * % @ . . . . ",
"= ~ . . + + . . . @ $ . . . F < b b c b x G H . @ $ $ $ $ + . . . + . . @ + @ * # . + + . I J : b n c n n K L . . $ @ . . $ + @ $ + . . . . ",
"% , . . . . . . . . . . . . k M N b C w O B P Q # , % @ # # @ . @ # @ + @ @ + & * . $ # . 9 R v b S T w U 0 @ . . . . . . . . . . . . . . . ",
"$ # + . . . . . . . . . . $ . V W w C v n b X 9 % , & . # * $ . @ & * + + + + @ * * + $ Y Z ` b C O B o  .! . . . . . . . . . . . . . . . . ",
". + $ . . . . . . . . . . & . ..+.@.b #.C b $.%.&.. + @ . + @ $ + + # @ + @ . . % , . $ *.=.c b C b v -.;.$ . . . . . . . . . . . . . . . . ",
". @ * + . . . . . . . . . # + . >.,.w n b w b '.).> + = . . . = = . + $ @ . . + , ' . !.~.v n x C b {.].& # $ + . . . . . . . . . . . . . . ",
". + # . . . . . . . . . . + $ . - ^._ b $./.b b (.t . @ $ . . , , . + & * . . . $ $ _.:.<.C b C b o [.! + @ + . . . . . . . . . . . . . . . ",
"+ . + . . . . . . . . . . . + # @ }.|.1.c w $.b i K }.. = # + # & $ + & # @ # @ . * 2.3.4.n C b w _ 9 . . + + . . . . . . . . . . . . . . . ",
"@ . . . . . . . . . . . . . . * $ $ >.2 b b $.w C r 5.# % # . . $ & # $ + # - # . Y K $.n C C C m 6.& . . * $ + . . . . . . . . . . . . . . ",
"@ + + . . . . . . . . . . + . @ @ . ~ 1 7.C b n b 8.g 9.+ . @ + + * & @ . * - $ # 9 0.x b n b T u 2.. $ . % * + . . . . . . . . . . . . . . ",
"@ $ $ . . . . . . . . . . # @ . . . @ a.b.8.b C b C c.( % . - * . @ # + . # * + d.e.c 4.n $.b D f.. + , $ @ + . . . . . . . . . . . . . . . ",
". + @ . . . . . . . . . . # @ . @ # + # g.{.n S /.b O 8 h.@ * $ @ & $ + . $ . $ i.7 b x O b 1.j.k.. # & - @ . . . . . . . . . . . . . . . . ",
". . . . . . . . . . . . . @ + + $ & # . # l.7.c S $.C m.n.> . & = * $ + . . . e o.b b w x C (.p.. . # . % @ . . . . . . . . . . . . . . . . ",
". . . . . . . . . . . . . + . @ $ @ . . $ >.q.n n v x c r.s.@ = ~ + . $ + . Y t.` n b /.b < :.... + # . + + . . . . . . . . . . . . . . . . ",
". . . . . . . . . . . . . . . + @ + . @ # . u.: b n C b B p L . * # + & . # v.w.C v b n b x.y.+ . + $ + . @ + . . . . . . . . . . . . . . . ",
". . . . . . . . . . . . . . + + @ # # @ * . z.A.v b b C C m.B.* . $ @ $ . d.C.D.b v n b a E., . $ + + + # @ + . . . . . . . . . . . . . . . ",
". . . . . . . . . . . . . . $ @ @ & & . * & . F.r.x b C b w o.G.. . + + ) F 6 c x c n 4.H.!.+ * * . . + & @ . . . . . . . . . . . . . . . . ",
". . . . . . . . . . . . . + @ @ @ # * @ @ - . ! I.<.b C w b B J.~ . . . K.L.$.c O b w M.s.@ . * $ + @ . $ + . . . . . . . . . . . . . . . . ",
". . . . . . . . . . . . . # @ @ $ @ * - . . & . h.N.v C v n b ~.2.. . ' j B b n C b O.q { + + . . * - . . $ @ . . . . . . . . . . . . . . . ",
". . . . . . . . . . . . . @ . $ # $ # - . . ^ & * P.r b $.Q./.S x._.* R.M.$.$.x b 8.[.Y . $ * @ + * , * . = * + . . . . . . . . . . . . . . ",
". . . . . . . . . . . . . . @ $ $ # * $ + ~ ~ * . Y S.7.C $.O b '.F.I p T.C x w b < V # . $ & * @ + & > . & # + . . . . . . . . . . . . . . ",
". . . . . . . . . . . . . . @ @ + @ @ . + , # $ + $ e U.b b $.b Q.-.H.@.C S w b o V.' + . + $ # @ . @ = . @ @ . . . . . . . . . . . . . . . ",
". . . . . . . . . . . . . . . . . . . . . @ . + @ . ' f.<.C C n C Q.7 S $.T.C b G W.. . . . + + . . . @ . . . . . . . . . . . . . . . . . . ",
". . . . . . . . . . . . . . . . . . . . . . . . + + = X.M v b $.x b b C x c b i J.* = + . . . . . . . . . . . . . . . . . . . . . . . . . . ",
". . . . . . . . . . . . . . . . . . . . . . . . + % - , Y.5 n O 4.b C C $.b T.Z.e . = * + . . . . . . . . . . . . . . . . . . . . . . . . . ",
". . . . . . . . . . . . . . . . . . . . . . . + * = # . ! J 7.n v b b C /./.0.^.. . . = @ . . . . . . . . . . . . . . . . . . . . . . . . . ",
". . . . . . . . . . . . . . . . . . . . . . . * % @ . # * `. +b C b C S b 7 .+++. @ @ & @ . . . . . . . . . . . . . . . . . . . . . . . . . ",
". . . . . . . . . . . . . . . . . . . . . . . % - $ # * . = @+a b C w B b q.y.. . $ - + . . . . . . . . . . . . . . . . . . . . . . . . . . ",
". . . . . . . . . . . . . . . . . . . . . . . @ @ + * * . . ! o.b C w n m.#+... . + @ . . . . . . . . . . . . . . . . . . . . . . . . . . . ",
". . . . . . . . . . . . . . . . . . . . . . . . @ & * $ # . . p b b C C 3 ).{ $ % . @ . . . . . . . . . . . . . . . . . . . . . . . . . . . ",
". . . . . . . . . . . . . . . . . . . . . . . + # * @ + $ . . $+b c b n U %+_.+ - # + @ + . . . . . . . . . . . . . . . . . . . . . . . . . ",
". . . . . . . . . . . . . . . . . . . . . . . @ # @ . . + . . 2 b $.b C @.&+I . & & . $ + . . . . . . . . . . . . . . . . . . . . . . . . . ",
". . . . . . . . . . . . . . . . . . . . . . . @ @ . + + + . . 2 b w C C 4 *+; . @ $ . @ + . . . . . . . . . . . . . . . . . . . . . . . . . ",
". . . . . . . . . . . . . . . . . . . . . . . + . . @ @ + . . b.b b n n < F _.. . . . + . . . . . . . . . . . . . . . . . . . . . . . . . . ",
". . . . . . . . . . . . . . . . . . . . . . . + + . @ @ + . . b.b C n C 6 ( ; . + + . + . . . . . . . . . . . . . . . . . . . . . . . . . . ",
". . . . . . . . . . . . . . . . . . . . . . . + + . @ @ + . . b.b C n C 6 ( ; . . + . + . . . . . . . . . . . . . . . . . . . . . . . . . . ",
". . . . . . . . . . . . . . . . . . . . . . . + + . @ @ + . . b.b C n C 6 ( ; . . + . + . . . . . . . . . . . . . . . . . . . . . . . . . . ",
". . . . . . . . . . . . . . . . . . . . . . . + + . @ @ + . . b.b C n C 6 ( ; . . + . + . . . . . . . . . . . . . . . . . . . . . . . . . . ",
". . . . . . . . . . . . . . . . . . . . . . . + + . @ @ + . . b.b C n C 6 ( ; . . + . + . . . . . . . . . . . . . . . . . . . . . . . . . . ",
". . . . . . . . . . . . . . . . . . . . . . . + + . @ @ + . . b.b C n C 6 ( ; . . + . + . . . . . . . . . . . . . . . . . . . . . . . . . . ",
". . . . . . . . . . . . . . . . . . . . . . . + + . @ @ + . . b.b C n C 6 ( ; . . + . + . . . . . . . . . . . . . . . . . . . . . . . . . . ",
". . . . . . . . . . . . . . . . . . . . . . . + + . @ @ + . . b.b C n C 6 ( ; . . + . + . . . . . . . . . . . . . . . . . . . . . . . . . . ",
". . . . . . . . . . . . . . . . . . . . . . . + + . @ @ + . . b.b C n C 6 ( ; . . + . + . . . . . . . . . . . . . . . . . . . . . . . . . . ",
"$ # + . . . . . . . . . . . . . . . . . . . . + + . @ @ + . . b.b C n C 6 ( ; . . + . + . . . . . . . . . . . . . . . . . . . . . . . . . . ",
"- , . . . . . . . . . . . . . . . . . . . . . + + . @ @ + . . b.b C n C 6 ( ; . . + . + . . . . . . . . . . . . . . . . . . . . . . . . . . ",
"* & . . . . . . . . . . . . . . . . . . . . . + + . @ @ + . . b.b C n C 6 ( ; . . + . + . . . . . . . . . . . . . . . . . . . . . . . . . . ",
". # = + . . . . . . . . . . . . . . . . . . . + + . @ @ + . . b.b C n C 6 ( ; . . + . + . . . . . . . . . . . . . . . . . . . . . . . . . . ",
"@ * * . . . . . . . . . . . . . . . . . . . . + + . @ @ + . . b.b C n C 6 ( ; . . + . + . . . . . . . . . . . . . . . . . . . . . . . . . . ",
"= ~ . . . . . . . . . . . . . . . . . . . . . + + . @ @ + . . b.b C n C 6 ( ; . . + . + . . . . . . . . . . . . . . . . . . . . . . . . . . ",
", ' . . . . . . . . . . . . . . . . . . . . . + + . @ @ + . . b.b C n C 6 ( ; . . + . + . . . . . . . . . . . . . . . . . . . . . . . . . . ",
"# * * . . . . . . . . . . . . . . . . . . . . + + . @ @ + . . b.b C n C 6 ( _.. . + . + . . . . . . . . . . . . . . . . . . . . . . . . . . ",
"@ $ , + . . . . . . . . . . . . . . . . . . . + + + @ @ + . . 2 b C n C U F _.. + + . . . . . . . . . . . . . . . . . . . . . . . . . . . . ",
"+ @ = + . . . . . . . . . . . . . . . . . . . . + $ # @ . . . [.b b b b =++.I . + @ + * + . . . . . . . . . . . . . . . . . . . . . . . . . ",
"+ # * . . . . . . . . . . . . . . . . . . . . . @ # # $ @ . . S.7 < =.{.-.E ; . @ # + = @ . . . . . . . . . . . . . . . . . . . . . . . . . ",
"= ' = + . . . . . . . . . . . . . . . . . . . . + + @ * % + . h.Y.e H t -+! # . @ @ + @ + . . . . . . . . . . . . . . . . . . . . . . . . . ",
"# & $ . . . . . . . . . . . . . . . . . . . . * & . . # & @ * $ . . . . . . . * % # # > # . . . . . . . . . . . . . . . . . . . . . . . . . ",
". + & + . . . . . . . . . . . . . . . . . . . # * @ $ = = @ > * $ ' & $ + + @ * * @ $ ' # . . . . . . . . . . . . . . . . . . . . . . . . . ",
". # ~ + . . . . . . . . . . . . . . . . . . . . + $ * - = @ > & % | , @ . @ * @ + @ @ . . . . . . . . . . . . . . . . . . . . . . . . . . . "};
