/* XPM */
static const char * BigZ_xpm[] = {
"70 70 197 2",
"  	c None",
". 	c #FFFFFF",
"+ 	c #FEFEFE",
"@ 	c #FCFCFC",
"# 	c #FBFBFB",
"$ 	c #F9F9F9",
"% 	c #FDFDFD",
"& 	c #FAFAFA",
"* 	c #F8F8F8",
"= 	c #F5F5F5",
"- 	c #F7F7F7",
"; 	c #F2F2F2",
"> 	c #F0F0F0",
", 	c #F6F6F6",
"' 	c #EEEEEE",
") 	c #CCCCCC",
"! 	c #818181",
"~ 	c #6C6C6C",
"{ 	c #747474",
"] 	c #777777",
"^ 	c #727272",
"/ 	c #717171",
"( 	c #686868",
"_ 	c #656565",
": 	c #606060",
"< 	c #646464",
"[ 	c #C1C1C1",
"} 	c #B4B4B4",
"| 	c #343434",
"1 	c #0E0E0E",
"2 	c #191919",
"3 	c #1A1A1A",
"4 	c #1B1B1B",
"5 	c #181818",
"6 	c #161616",
"7 	c #151515",
"8 	c #171717",
"9 	c #111111",
"0 	c #121212",
"a 	c #1C1C1C",
"b 	c #A3A3A3",
"c 	c #F4F4F4",
"d 	c #AEAEAE",
"e 	c #222222",
"f 	c #000000",
"g 	c #010101",
"h 	c #020202",
"i 	c #030303",
"j 	c #9B9B9B",
"k 	c #ADADAD",
"l 	c #252525",
"m 	c #050505",
"n 	c #9D9D9D",
"o 	c #AAAAAA",
"p 	c #070707",
"q 	c #2C2C2C",
"r 	c #0A0A0A",
"s 	c #090909",
"t 	c #0B0B0B",
"u 	c #0C0C0C",
"v 	c #989898",
"w 	c #707070",
"x 	c #595959",
"y 	c #626262",
"z 	c #616161",
"A 	c #5F5F5F",
"B 	c #636363",
"C 	c #3F3F3F",
"D 	c #101010",
"E 	c #080808",
"F 	c #959595",
"G 	c #F3F3F3",
"H 	c #CBCBCB",
"I 	c #696969",
"J 	c #A7A7A7",
"K 	c #7F7F7F",
"L 	c #040404",
"M 	c #676767",
"N 	c #D6D6D6",
"O 	c #3B3B3B",
"P 	c #060606",
"Q 	c #393939",
"R 	c #B5B5B5",
"S 	c #DEDEDE",
"T 	c #5A5A5A",
"U 	c #242424",
"V 	c #979797",
"W 	c #EAEAEA",
"X 	c #878787",
"Y 	c #0F0F0F",
"Z 	c #E1E1E1",
"` 	c #B7B7B7",
" .	c #292929",
"..	c #3C3C3C",
"+.	c #D5D5D5",
"@.	c #525252",
"#.	c #828282",
"$.	c #F1F1F1",
"%.	c #E2E2E2",
"&.	c #8B8B8B",
"*.	c #A5A5A5",
"=.	c #2F2F2F",
"-.	c #363636",
";.	c #C3C3C3",
">.	c #575757",
",.	c #E4E4E4",
"'.	c #737373",
").	c #D8D8D8",
"!.	c #ECECEC",
"~.	c #969696",
"{.	c #424242",
"].	c #BCBCBC",
"^.	c #8E8E8E",
"/.	c #CFCFCF",
"(.	c #0D0D0D",
"_.	c #D0D0D0",
":.	c #858585",
"<.	c #232323",
"[.	c #2E2E2E",
"}.	c #C6C6C6",
"|.	c #ACACAC",
"1.	c #414141",
"2.	c #EFEFEF",
"3.	c #DDDDDD",
"4.	c #585858",
"5.	c #DFDFDF",
"6.	c #1F1F1F",
"7.	c #373737",
"8.	c #C2C2C2",
"9.	c #202020",
"0.	c #545454",
"a.	c #929292",
"b.	c #B0B0B0",
"c.	c #272727",
"d.	c #909090",
"e.	c #CACACA",
"f.	c #5D5D5D",
"g.	c #D4D4D4",
"h.	c #E8E8E8",
"i.	c #4D4D4D",
"j.	c #323232",
"k.	c #2B2B2B",
"l.	c #3E3E3E",
"m.	c #7A7A7A",
"n.	c #DCDCDC",
"o.	c #6A6A6A",
"p.	c #131313",
"q.	c #494949",
"r.	c #9E9E9E",
"s.	c #EDEDED",
"t.	c #B8B8B8",
"u.	c #444444",
"v.	c #6D6D6D",
"w.	c #141414",
"x.	c #949494",
"y.	c #262626",
"z.	c #888888",
"A.	c #282828",
"B.	c #D9D9D9",
"C.	c #9C9C9C",
"D.	c #212121",
"E.	c #868686",
"F.	c #B1B1B1",
"G.	c #DADADA",
"H.	c #454545",
"I.	c #E5E5E5",
"J.	c #838383",
"K.	c #E9E9E9",
"L.	c #313131",
"M.	c #D7D7D7",
"N.	c #4A4A4A",
"O.	c #BBBBBB",
"P.	c #7D7D7D",
"Q.	c #A4A4A4",
"R.	c #898989",
"S.	c #7B7B7B",
"T.	c #474747",
"U.	c #B2B2B2",
"V.	c #E7E7E7",
"W.	c #2A2A2A",
"X.	c #A6A6A6",
"Y.	c #A2A2A2",
"Z.	c #A1A1A1",
"`.	c #A0A0A0",
" +	c #C5C5C5",
".+	c #2D2D2D",
"++	c #303030",
"@+	c #5E5E5E",
"#+	c #666666",
"$+	c #383838",
"%+	c #808080",
"&+	c #CDCDCD",
"*+	c #CECECE",
"=+	c #D1D1D1",
"-+	c #D3D3D3",
";+	c #C8C8C8",
">+	c #E0E0E0",
". . . . . . . . . . . . . . . . . . . . . . . . . . . . . . . . . . . . . . . . . . . . . . . . . . . . . . . . . . . . . . . . . . . . . . ",
". . . . . . . . . . . . . . . . . . . . . . . . . . . . . . . . . . . . . . . . . . . . . . . . . . . . . . . . . . . . . . . . . . . . . . ",
"+ @ # . . # @ . . . . . . . . . . . + + . . . + # $ + . + + + + + + + + + + + + + + + + + + + . + @ @ . . @ + % & % . . . . . . . . . . . . ",
"+ @ & % . & & % . . . . . . . . . . + % + . . + # $ . + + + . . . . . . . . . . . . . . . . . . + # # . + # % @ $ @ . . . . . . . . . . . . ",
"+ + # * + + $ $ + . . . . . . . . . + % % + + % % @ . # % + . . . . . . . . . . . . . . . . . . + % + . + @ + + % + % . . . . . . . . . . . ",
"% . % = % . $ - % . . . . . . . . . . # & % # & + % . $ # % + + + + + + + + + + + + + + + + + + + . . . + % + . . . % + . . . . . . . . . . ",
"- @ % * @ . # $ % . . . . . . . . . % $ & + # & % # . # # % % % % % % % % % % % % % % % % % % % % % % + + + . + % . + + . . . . . . . . . . ",
"; - . . - # . . . . . . . . . . . . # - & + . . . + . . . . . . . . . . . . . . . . . . . . . . . % % . . + . % & % + . . . . . . . . . . . ",
". % @ % > , % . . . . . . . . . . . . . # = , & # - * , & % % % % % % % % % % % % % % % % % % % % % % % & ' , . + & $ @ . . . . . . . . . . ",
", . . . + @ = , % . . . . . . . . . % . ) ! ~ { ] ] ^ / ~ ( ( ( ( ( ( ( ( ( ( ( ( ( ( ( ( ( ( ( ( _ : : < ~ [ . . + . . . . . . . . . . . . ",
"+ % * # & @ @ @ + . . . . . . . . . . . } | 1 2 3 4 2 5 6 7 7 7 7 7 7 7 7 7 7 7 7 7 7 7 7 7 7 7 6 3 8 9 0 a b . . + $ # + . . . . . . . . . ",
". * & # c @ @ # + . . . . . . . . + & . d e f f f g f h g f f f f f f f f f f f f f f f f f f f f i h f f f j . . + & @ . . . . . . . . . . ",
"# $ . + , % & * % . . . . . . . . + * . k l f h h m h m h f f f f f f f f f f g i i f f g h f f h g f f f f n . . + % + . . . . . . . . . . ",
"@ % . . @ + % @ + . . . . . . . . . % . o e f f g h g f f f f f f f f f f f f f i i f f f g f g p m g g f f n . . + @ % . . . . . . . . . . ",
". . . . . . . . . . . . . . . . . . . . d q h r r r r r r r r r r r r r r r r r s r t r r r u u p i g i m f v . . + @ % . . . . . . . . . . ",
". . . . . . . . . . . . . . . . . + & . ) w x y : z < < z : : z z z z z z z z : A y _ : A B : C D f f m E g F . . . . . . . . . . . . . . . ",
". . . . . . . . . . . . . . . . . % G * * c - & $ $ $ $ $ $ $ $ $ $ $ $ $ $ $ $ $ $ $ $ $ . H I 4 g f f f 4 J . + . + + . . . . . . . . . . ",
". . . . . . . . . . . . . . . . . . + + . . . . # * . . . . . . . . . . . . . . . . . . . = K 6 h L i f r M N . @ + @ % . . . . . . . . . . ",
". . . . . . . . . . . . . . . . . + * G * + . + % @ + @ + . . . . . . . . . . % & # . $ . d O g m P g P Q R $ . + . + + . . . . . . . . . . ",
". . . . . . . . . . . . . . . . . + # - $ @ # # . . . + + . . . . . . . . . . . @ $ # @ S T u f i h f U V W . . . + . . . . . . . . . . . . ",
". . . . . . . . . . . . . . . . . . . + % # $ # . . # @ + + . . . . . . + . % @ % @ * G X 3 f E P f Y A Z % @ % + @ + . . . . . . . . . . . ",
". . . . . . . . . . . . . . . . . . @ % % # @ . . + = $ % + + + + + + + + . # * @ . G `  .f P Y r m ..d $ % $ @ @ @ % + . . . . . . . . . . ",
". . . . . . . . . . . . . . . . . + $ @ @ & % . . + * @ . . . . . . . . . . + @ % # +.@.P i p i g 3 #.$.. + + @ & % @ % . . . . . . . . . . ",
". . . . . . . . . . . . . . . . . . @ % + % + . . . % . . . . . . % @ . . % % . + %.&.u f i P f 0 ( +.+ . . . % @ + % + . . . . . . . . . . ",
". . . . . . . . . . . . . . . . . . . . . . . . . . . . + . . + @ $ @ . % & @ . ; *.=.h f f f g -.R . & + . % % + . . . . . . . . . . . . . ",
". . . . . . . . . . . . . . . . . . . . . . . . . . . . % % . + $ = . . , , + & ;.>.h P i L f e &.,.. + . . % % + . . . . . . . . . . . . . ",
". . . . . . . . . . . . . . . . . . . . . . . . . . . . @ @ + . & - . . $.$ . S '.1 f h m g E : ).% . . . . % % + . . . . . . . . . . . . . ",
". . . . . . . . . . . . . . . . . . . . . . . . . . . . @ @ % + % % . * * . !.~.q f g f m f {.].+ . . . + @ @ % . . . . . . . . . . . . . . ",
". . . . . . . . . . . . . . . . . . . . . . . . . . . . @ @ @ & # . + $ . % k {.P i h P f 1 ^.* . % + @ # # @ + . . . . . . . . . . . . . . ",
". . . . . . . . . . . . . . . . . . . . . . . . . . . . # @ @ - - . + . . /.y (.f E h E f M _.@ % # % # # % . . . + + . . . . . . . . . . . ",
". . . . . . . . . . . . . . . . . . . . . . . . . . . . # @ @ & $ . . + = :.<.f h i f i [.}.% , @ . + + + . . . + @ % + . . . . . . . . . . ",
". . . . . . . . . . . . . . . . . . . . . . . . . . . . + . . + @ @ . c |.1.p g r E g e j 2.. + + . . . . . . + @ # % . . . . . . . . . . . ",
". . . . . . . . . . . . . . . . . . . . . . . . . . . . . @ $ @ + @ + 3.4.Y f h L L 0 T 5.. & $ + . + % + . . @ $ # + . . . . . . . . . . . ",
". . . . . . . . . . . . . . . . . . . . . . . . . . . . . # $ @ . . % K 6.g f f f i 7.].$ + $ * & % . % + . . % # % + . . . . . . . . . . . ",
". . . . . . . . . . . . . . . . . . . . . . . . . . . . + % # % . @ 8.<.E h g f f 9.X G + $ @ # - # . + . . . . + . . . . . . . . . . . . . ",
". . . . . . . . . . . . . . . . . . . . . . . . . . . . @ % @ % @ ).0.f L m i f u A %.# + # @ # $ @ . . . . . . . . . . . . . . . . . . . . ",
". . . . . . . . . . . . . . . . . . . . . . . . . . . . + % + % ,.a.p f h p g P C b.. $ + . * , @ + . . . . . . . . . . . . . . . . . . . . ",
". . . . . . . . . . . . . . . . . . . . . . . . . . . . + + . G d O f i f P f c.d.' * % . . = G % . . . . . . . . . . . . . . . . . . . . . ",
". . . . . . . . . . . . . . . . . . . . . . . . . . . . $ . + e.f.f r r h f D _ g.. h.+ . . # $ @ . . . . . . . . . . . . . . . . . . . . . ",
". . . . . . . . . . . . . . . . . . . . . . . . . . . . - . ,.K 7 f g Y i f i.[ * - . @ # + . # - # . . . . . . . . . . . . . . . . . . . . ",
". . . . . . . . . . . . . . . . . . . . . . . . . . . . . h.F j.f f f m f k.V W * 2.. c % . @ & @ + . . . . . . . . . . . . . . . . . . . . ",
". . . . . . . . . . . . . . . . . . . . . . . . . . . . . ` l.h m L f f m m.n.@ * ; $.* . . * , % . . . . . . . . . . . . . . . . . . . . . ",
". . . . . . . . . . . . . . . . . . . . . . . . . . . . ).o.p.f m m f f q.[ # . @ & = % @ . # * # + . . . . . . . . . . . . . . . . . . . . ",
". . . . . . . . . . . . . . . . . . . . . + . + @ @ . - &.c.i L L g f 2 r.s.. . + + % . # + . @ # % . . . . . . . . . . . . . . . . . . . . ",
". . . . . . . . . . . . . . . . . . . . % # % @ * $ + t.u.p f s p f E v.3.+ . . . . . . % + . + % + . . . . . . . . . . . . . . . . . . . . ",
". . . . . . . . . . . . . . . . . . . . # - & @ & $ ,.f.w.f f m p s =.H # . + . . . . . . . . . . . . . . . . . . . . . . . . . . . . . . . ",
". . . . . . . . . . . . . . . . . . . + # * & # . G x.9.g f f f i y.z.+ . % % . . . . . . . . . . . . . . . . . . . . . . . . . . . . . . . ",
". . . . . . . . . . . . . . . . . . @ % . . + - = _.A.h f g g g (.@.G + . & & % . . . . . . . . . . . . . . . . . . . . . . . . . . . . . . ",
". . . . . . . . . . . . . . . . . + & # . @ c # B.A P m E P f m C } . + @ % . . . . . . . . . . . . . . . . . . . . . . . . . . . . . . . . ",
". . . . . . . . . . . . . . . . . + # + & ; = > C.p m i g g f D.E.. # . ; * + . . . . . . . . . . . . . . . . . . . . . . . . . . . . . . . ",
". . . . . . . . . . . . . . . . . . + . % % % F.| f h f f f 0 v.G.. % * - @ . . . . . . . . . . . . . . . . . . . . . . . . . . . . . . . . ",
". . . . . . . . . . . . . . . . . . . - @ . +.: f g f L f P H.} . % % $ % + + + . . . . . . . . . . . . . . . . . . . . . . . . . . . . . . ",
". . . . . . . . . . . . . . . . . . @ G * I.J.a f E f p f k.a.K.. # @ @ . % @ + . . . . . . . . . . . . . . . . . . . . . . . . . . . . . . ",
". . . . . . . . . . . . . . . . . + * # s.r.L.f L r g h t o.M.. + + % # + % % + . . . . . . . . . . . . + . . . . . + . . . . . . . . . . . ",
". . . . . . . . . . . . . . . . . + $ . e.N.m f P P h f i.O., . % . . # % + + . . . . . . . . . . + + + & % . . . . % + . . . . . . . . . . ",
". . . . . . . . . . . . . . . . . . + h.P.6 f m p g g 8 Q.c + $ . . . + + . . . . . . . . . . . + % + @ = # . @ # + @ % . . . . . . . . . . ",
". . . . . . . . . . . . . . . . . . # R.3 f f P t m m S.M.& + + . . . + + . . . + + + + + + + + + . + & * & % * = % . . . . . . . . . . . . ",
". . . . . . . . . . . . . . . . . # H @.s E P f f p T.) * . . . . . . . . . . . . . . . . . . . . . # * % . . % $ + . . . . . . . . . . . . ",
". . . . . . . . . . . . . . . . . !._ p.g i h f f U U.+ . . . . . . . . . . . . . . . . . . . . . . . . . . . # + % c - + . . . . . . . . . ",
". . . . . . . . . . . . . . . . . V.{.f g g f i r W.&.Q.X.*.Q.b Y.Z.Y.Y.b b *.X.X.X.X.X.X.X.X.J *.`.r.`.Y.X.n  +. . $ & + . . . . . . . . . ",
". . . . . . . . . . . . . . . . . h.N.i g g f L (.2 W.=.=.[..+q k.k.q [.[.=.=.++++++++++++++++L.=.W. .W. .=.y.! . + @ % . . . . . . . . . . ",
". . . . . . . . . . . . . . . . . h.N.i f f f g m E h i i h h g g g h L L L L L L L L L L L L L L L P L f f f : # % - @ . . . . . . . . . . ",
". . . . . . . . . . . . . . . . . h.T.h L i h g f g h f f f f f f f f f f f f f f f f f f f f f f f f f f f f z . . @ + . . . . . . . . . . ",
". . . . . . . . . . . . . . . . . h.q.h L p E L g P m h g g f f f g h i g f f g g g g g g g g g g i g f L g f B + . . . . . . . . . . . . . ",
". . . . . . . . . . . . . . . . . V.1.g f f f f f f f f f f f f f f f f f f f f f f f f f f f f f f f f f f f @+% . + . . . . . . . . . . . ",
". . . . . . . . . . . . . . . . . !.#+l k..+q .+.+q .+.+.+.+.+.+.+.+.+.+.+.+.+.+.+.+.+.+.+.+.+.+.+.+| $+++q 9.%+. - & . . . . . . . . . . . ",
". . . . . . . . . . . . . . . . . & n.H &+*+*+*+*+*+*+*+*+*+*+*+*+*+*+*+*+*+*+*+*+*+*+*+*+*+*+*+*+*+=+-+/.*+;+>+& K., . . . . . . . . . . . ",
". . . . . . . . . . . . . . . . . . . . . . . . . . . . . . . . . . . . . . . . . . . . . . . . . . + + . . . . # $.& . . . . . . . . . . . ",
". . . . . . . . . . . . . . . . . . % % % % % % % % % % % % % % % % % % % % % % % % % % % % % % @ $ c = + # & @ @ % # % . . . . . . . . . . ",
". . . . . . . . . . . . . . . . . . . . . . . . . . . . . . . . . . . . . . . . . . . . . . . . . . . . # = , * & + $ # + . . . . . . . . . "};
