/* XPM */
static const char * bongo_cat1_xpm[] = {
"172 73 82 1",
" 	c None",
".	c None",
"+	c #000000",
"@	c #FCFCFC",
"#	c #EFEFEF",
"$	c #F9F9F9",
"%	c #E5E5E5",
"&	c #F2F2F2",
"*	c #ECECEC",
"=	c #B0B0B0",
"-	c #BDBDBD",
";	c #C3C3C3",
">	c #F6F6F6",
",	c #9A9A9A",
"'	c #E1E1E1",
")	c #D3D3D3",
"!	c #BFBFBF",
"~	c #858585",
"{	c #737373",
"]	c #ADADAD",
"^	c #D0D0D0",
"/	c #B8B8B8",
"(	c #7A7A7A",
"_	c #A7A7A7",
":	c #D9D9D9",
"<	c #979797",
"[	c #6A6A6A",
"}	c #5B5B5B",
"|	c #515151",
"1	c #A1A1A1",
"2	c #626262",
"3	c #747474",
"4	c #8C8C8C",
"5	c #353535",
"6	c #252525",
"7	c #4B4B4B",
"8	c #313131",
"9	c #414141",
"0	c #101010",
"a	c #1A1A1A",
"b	c #2A2A2A",
"c	c #5E5E5E",
"d	c #818181",
"e	c #212121",
"f	c #3A3A3A",
"g	c #F8FFFF",
"h	c #0B0B0B",
"i	c #FFF4F3",
"j	c #FFFFFB",
"k	c #FF9CAC",
"l	c #FABBCD",
"m	c #FB9FA8",
"n	c #F5D8DD",
"o	c #F9E3E6",
"p	c #E2F0EE",
"q	c #E4AAB5",
"r	c #FDECE9",
"s	c #F2AFBF",
"t	c #ECD2D4",
"u	c #FFEDF5",
"v	c #1D171D",
"w	c #7E767A",
"x	c #E99EB1",
"y	c #F9D1DB",
"z	c #ECC2CC",
"A	c #E5A5AB",
"B	c #8DA19B",
"C	c #5C5357",
"D	c #43393F",
"E	c #FEDAE9",
"F	c #EB9CA9",
"G	c #12211C",
"H	c #F4A0B0",
"I	c #F5C2CF",
"J	c #DAA3AE",
"K	c #E9BDBF",
"L	c #F1C9D1",
"M	c #FBA4A3",
"N	c #F0B6BF",
"O	c #F9E2EB",
"P	c #F7F7ED",
"Q	c #F0DCD7",
"............................................................................................................................................................................",
"............................................................................................................................................................................",
"............................................................................................................................................................................",
"............................................................................................................................................................................",
"............................................................................................................................................................................",
"............................................................................................................................................................................",
"............................................................................................................................................................................",
"............................................................................................................................................................................",
"............................................................................................................................................................................",
"............................................................................................................................................................................",
"............................................................................................................................................................................",
".............................................................................>!.............................................................................................",
"............................................................................%a+=.@..........................................................................................",
"...........................................................................%+c_+^...........................................................................................",
"........................................................................@.#+2..4+*..........................................................................................",
"..........................................................................9f.@@.9|..........................................................................................",
"....................................................................@.@..(+#....%+/.@.......................................................................................",
".......................................................................^[+).@....4h&........................................................................................",
"................................................................@@..&,++}^......@$++e(!#...@@...............................................................................",
"..................................................................*d+h1*..@.....@.&)1}++91%.................................................................................",
"..............................................................@.&d+5!...@@@............)46+5_#..............................................................................",
"..............................................................._+6;.......................'4++[)............................................................................",
".............................................................)b+]...@@..................@@...;}+5/..........................................................................",
".........................................................@..4+[&...............................%d+a=........................................................................",
"..........................................................'8+;.@...............................@.&4+0/......................................................................",
"......................................................@../+}&...................................@..&4+8;..$..@@..>!~|>......................................................",
"........................................................4+,..@..................................@@@@.*(+|'.....^2++|+'......................................................",
"..........@.........................................@..c+;.@........................................@..'|+d>.:7+};@.+;......................................................",
"..........@..@.......................................&f0%.@.........................................@@...;e+2+2'....+-......................................................",
"..........#/#.......................................#a5&..............................................@....,f:..@@@.+-......................................................",
"..........;++bd!*...@.@............................*+7$...........@......................................@....@...@@+;......................................................",
"...........@:1|++6(-#.............................#+|.@.............$....................................@@@@@@....>+:......................................................",
"...............$),}++6d-*.......................$#a|..............*8+/.............................................:+#......................................................",
"...................$:1}++6d!*...................$e9@@@............4++9.............................................=+.......................................................",
".......................@:1|++b(-*....@........@.78>...............<++}..:^.@..@@...................................3c.......................................................",
"...........................@:_|++e(!*..........2+&.@..............$1~*..[+@@-4.@...................................h_.......................................................",
"................................:1}++6d!*.....4+'.....................@./+h+++'...................................'+%.@.....................................................",
"...................................@:_}++e(-&^+;.@.....................$./[{_+7^-=.......@@@@.....................,b........................................................",
".......................................@:1}+++(.@@.....................@@....]++++.......@........................8,........................................................",
"............................................]+*............................@@.*!^&.......@)(;.@..................:+'........................................................",
"............................................32.@...........................@@@...........&+++#...................~9.........................................................",
"............................................8_.........@@.@..$...@..@@.................@.:+++'...................{6@........................................................",
"............................................e=.@.......@...!f+(-*....@.................@.@}+2.@@...............@@>+4........................................................",
"............................................|(.@@..@....&1a+d_}++a(-*...................@@.$....................@.;+:.......................................................",
"............................................;+_......%/}++<#...$:1}++e(/%................@@.@......................}9.......................................................",
"............................................._+h[~d|0++3;..@.@.....@'_}++a(/*..............@@......................%+-......................................................",
"..............................................#_{}[d]:@................@:1}++e(/*........@@@.>@...................@.~6.@....................................................",
"..............................................@.........@.............@.....:_}++a(/*....@..[5.@..................@.#+!.@...................................................",
"...............................................................................@:_}++6(/*..~+:.......................39.@...................................................",
"...................................................................................@:1c++a[+^.@@....................@:+%....................................................",
"........................................................................................:1+~.@......................@.61....................................................",
".........................................................................................^+#@.......................@.47....................................................",
".......................................................................................@.,9.....................@.....;+@...................................................",
".........................................................................................47.........@....)47a05>.@....%+%...................................................",
".........................................................................................;+#..........)4++f++++/*.....>+).@.................................................",
"..........................................................................................5f^>@@&:/~9++91*..:_2++a(/%..+)...................................................",
"..........................................................................................#c+++++++|4;#..@@....$'_[++e{+;...................................................",
"............................................................................................#^!;:*..................:_ca+a(/%.....@.........................................",
".......................................................................................................................@:_2++a3/*...........................................",
"............................................................................................................................'_c++03/*.....@@................................",
"...............................................................................................................................@:_2++e{/%...@...............................",
".............................................................................................................................@@.....'_2++03/%...............................",
".......................................................................................................................................@:_2++a3/%...........................",
"......................................................................................................................................@.....'_2+++{/%.......................",
"...............................................................................................................................................@:_2++a{=*.....@.............",
"....................................................................................................................................................:_2+++3/%...............",
"........................................................................................................................................................:_2++a3=*...........",
"............................................................................................................................................................'_c+h...........",
"...............................................................................................................................................................@*...........",
"............................................................................................................................................................................",
"............................................................................................................................................................................",
"............................................................................................................................................................................",
"............................................................................................................................................................................"};
