/* XPM */
static const char * bongo_cat2_xpm[] = {
"172 73 82 1",
" 	c None",
".	c None",
"+	c #000000",
"@	c #FCFCFC",
"#	c #EFEFEF",
"$	c #F9F9F9",
"%	c #E5E5E5",
"&	c #F2F2F2",
"*	c #ECECEC",
"=	c #B0B0B0",
"-	c #BDBDBD",
";	c #C3C3C3",
">	c #F6F6F6",
",	c #9A9A9A",
"'	c #E1E1E1",
")	c #D3D3D3",
"!	c #BFBFBF",
"~	c #858585",
"{	c #737373",
"]	c #ADADAD",
"^	c #D0D0D0",
"/	c #B8B8B8",
"(	c #7A7A7A",
"_	c #A7A7A7",
":	c #D9D9D9",
"<	c #979797",
"[	c #6A6A6A",
"}	c #5B5B5B",
"|	c #515151",
"1	c #A1A1A1",
"2	c #626262",
"3	c #747474",
"4	c #8C8C8C",
"5	c #353535",
"6	c #252525",
"7	c #4B4B4B",
"8	c #313131",
"9	c #414141",
"0	c #101010",
"a	c #1A1A1A",
"b	c #2A2A2A",
"c	c #5E5E5E",
"d	c #818181",
"e	c #212121",
"f	c #3A3A3A",
"g	c #F8FFFF",
"h	c #0B0B0B",
"i	c #FFF4F3",
"j	c #FFFFFB",
"k	c #FF9CAC",
"l	c #FABBCD",
"m	c #FB9FA8",
"n	c #F5D8DD",
"o	c #F9E3E6",
"p	c #E2F0EE",
"q	c #E4AAB5",
"r	c #FDECE9",
"s	c #F2AFBF",
"t	c #ECD2D4",
"u	c #FFEDF5",
"v	c #1D171D",
"w	c #7E767A",
"x	c #E99EB1",
"y	c #F9D1DB",
"z	c #ECC2CC",
"A	c #E5A5AB",
"B	c #8DA19B",
"C	c #5C5357",
"D	c #43393F",
"E	c #FEDAE9",
"F	c #EB9CA9",
"G	c #12211C",
"H	c #F4A0B0",
"I	c #F5C2CF",
"J	c #DAA3AE",
"K	c #E9BDBF",
"L	c #F1C9D1",
"M	c #FBA4A3",
"N	c #F0B6BF",
"O	c #F9E2EB",
"P	c #F7F7ED",
"Q	c #F0DCD7",
"............................................................................................................................................................................",
"............................................................................................................................................................................",
"............................................................................................................................................................................",
"............................................................................................................................................................................",
"............................................................................................................................................................................",
"............................................................................................................................................................................",
"............................................................................................................................................................................",
"............................................................................................................................................................................",
"............................................................................................................................................................................",
"............................................................................@...............................................................................................",
"............................................................................$2_.............................................................................................",
"...........................................................................>f++/............................................................................................",
"..........................................................................$8f@_+:...........................................................................................",
"..........................................................................|e@..{h@..........................................................................................",
".......................................................................@.4+*..@.a(.@........................................................................................",
"........................................................................=+;.@@@.^+'.........................................................................................",
"..................................................................@..*,0+_.......2b]:$....@.................................................................................",
"...................................................................*(++,*.@.....@%[a++c]*...................................................................................",
".................................................................*(+f;..........@@..*-3h+51*................................................................................",
"...............................................................@<+8;....................:4h+|-@.............................................................................",
"..............................................................;++/...@.....................){++<#...........................................................................",
"............................................................>[+~>............................>_0+(*..@......................................................................",
"...........................................................;+8:............................@....!9+3%.......................................................................",
"............................................@..!([1#...@..~+4.....................................^f+(#...........$:*@......................................................",
".............................................)v+236+1...*f+^.@......................................;8+<$......#]7++1.......................................................",
"............................................^+{>...=+(.^+7&...........................................=++/.@.#d++~)c(.......................................................",
"...........................................$0d.uu@@.:+c+d.@..........................................@.>4+7:<+5-@..d2.......................................................",
".........................................../+g@IAijij^+(.................................................*}++-.....4|.......................................................",
"..........^+{/%..........................@.3[.gotjLFK._+'..................................................^$......~c.......................................................",
"..........*]2++0{/*........................f,.u..@uLy@.26.................................................@.@......[3.@.....................................................",
"..............'_2++03/%...@................0=uJOyNPgg.g#2>@.......&4_..............................................94.@.....................................................",
".............@....'][++0{/%................+=iKEAMH$g@@@..........c++!.............................................+-.......................................................",
"......................']2++0{/%.....@......a_..iqkHig@@...........+++1.@@.@@......................................%+%.......................................................",
"..........................:][++0{=%......@.9<...LFzjg@@...........1+b%.$+/..*>..................................../+........................................................",
"..............................'][++03/%....[d...io$gg@.............$..@@+5]{+(.@.@.....................@@.......@.[{........................................................",
".................................@'_2++0[/*4}......g@@g.................-+++6+*.>................@={2,*.@........$+!........................................................",
"......................................'][++++-%......@g..................@*$'++5+<............@.^++[(6+1..@......;+>........................................................",
"..........................................'][++0{=%..........................:[|d'........%'.@.^+d$...=+d........2[.........................................................",
"........................................@....@'][++0{/%....................@.............^++/.@0d.rr@@.)+~......&+;@........................................................",
"..................................................%]2++h{/'....@.........................2++2.!+pjNx@jPj^+=.....!+#@........................................................",
"................................................@@...@'][++0{/%..........................4++,.32.jrQ.KFK._+%....@b[.........................................................",
"..........................................................'][++h{/%.....@.................;-..f,.Og.Pinij.|5.....:+;.@......................................................",
".............................................................@'][++h{=%.....................@.+/nJoNNo..j@*[$...@.~0@.......................................................",
"..................................................................'][+++[/%.....@.............+;iLrFkN.g@.........@+,.......................................................",
"......................................................................'=[++h[=%...............+-.@PAmN.g...........]+>......................................................",
"....................................................................@.....%=[+++{=%...........h=.@jLAn.gg.........@.e<......................................................",
"..............................................................................'=[++h[=%.......51.@@@$...............]+@.....................................................",
"...........................................................................@@@....'=[+++[=%...c~.@..@...............@+/.@...................................................",
"......................................................................................'=[++h{/[[.....................{|.@...................................................",
".....................................................................................@....%][+++{=%..................;+>....................................................",
"..............................................................................................'=[++h{=%.....@........&+^....................................................",
"..................................................................................................%][+++{=%...........6]....................................................",
"...............................................................................................@......%=[++h[=%.......}4....................................................",
"..........................................................................................................%][+++[=%...[d....................................................",
"........................................................................................................@.....%={++h[/}4....................................................",
"..................................................................................................................%=[+++[='....@............................................",
".................................................................................................................@....'=[++h[='.............................................",
"..........................................................................................................................%=[h++[=%....@....................................",
".............................................................................................................................@'={++h[='.....................................",
"..................................................................................................................................*=[+++[=%......@..........................",
"..................................................................................................................................@..@'={++h[]%.............................",
"...................................................................................................................................@......*=[0++[=%.........................",
"..............................................................................................................................................%=[++h[]'.....................",
"............................................................................................................................................@@@...%/{0++[=%.................",
"......................................................................................................................................................%/[+++[]'@.@..........",
"....................................................................................................................................................@..@..%/{0++$...........",
"..............................................................................................................................................................%-............",
"................................................................................................................................................................@...........",
"................................................................................................................................................................@...........",
"............................................................................................................................................................................",
"............................................................................................................................................................................",
"............................................................................................................................................................................",
"............................................................................................................................................................................"};
