/* XPM */
static const char * Brush_xpm[] = {
"46 46 52 1",
" 	c None",
".	c #C1C1C1",
"+	c #363636",
"@	c #000000",
"#	c #858585",
"$	c #7D7D7D",
"%	c #0D0D0D",
"&	c #3D3D3D",
"*	c #020202",
"=	c #AAAAAA",
"-	c #080808",
";	c #646464",
">	c #B3B3B3",
",	c #2B2B2B",
"'	c #6C6C6C",
")	c #0E0E0E",
"!	c #282828",
"~	c #010101",
"{	c #9D9D9D",
"]	c #050505",
"^	c #636363",
"/	c #2D2D2D",
"(	c #030303",
"_	c #626262",
":	c #0B0B0B",
"<	c #2E2E2E",
"[	c #1A1A1A",
"}	c #060606",
"|	c #242424",
"1	c #434343",
"2	c #494949",
"3	c #3A3A3A",
"4	c #151515",
"5	c #141414",
"6	c #161616",
"7	c #0A0A0A",
"8	c #262626",
"9	c #343434",
"0	c #101010",
"a	c #0C0C0C",
"b	c #090909",
"c	c #5C5C5C",
"d	c #4B4B4B",
"e	c #717171",
"f	c #2C2C2C",
"g	c #6A6A6A",
"h	c #1D1D1D",
"i	c #979797",
"j	c #111111",
"k	c #353535",
"l	c #747474",
"m	c #C9C9C9",
"                                              ",
"                                        .+@@# ",
"                                       $%@@@@ ",
"                                      &*@@@@@ ",
"                                    =-@@@@@@@ ",
"                                   ;@@@@@@@@  ",
"                                 >,@@@@@@@@   ",
"                                ')@@@@@@@@    ",
"                               !~@@@@@@@@     ",
"                             {]@@@@@@@@@@     ",
"                            ^@@@@@@@@@@@      ",
"                           /@@@@@@@@@@@(      ",
"                         _:@@@@@@@@@@@@       ",
"                        <@@@@@@@@@@@@@        ",
"                       ]@@@@@@@@@@@@@         ",
"                      @@@@@@@@@@@@@@~         ",
"                     @@@@@@@@@@@@@@@          ",
"                    *@@@@@@@@@@@@@@[          ",
"                      }@@@@@@@@@@@@           ",
"                       |@@@@@@@@@@            ",
"                        1@@@@@@@@2            ",
"                         3@@@@@@4             ",
"                          5@@@@~              ",
"              6]7          @@@@               ",
"            @@@@@@          @@8               ",
"          6@@@@@@@@@        @9                ",
"          @@@@@@@@@@@                         ",
"         @@@@@@@@@@@@@                        ",
"         @@@@@@@@@@@@@0                       ",
"        %@@@@@@@@@@@@@@                       ",
"        a@@@@@@@@@@@@@~                       ",
"        :@@@@@@@@@@@@@~                       ",
"        b@@@@@@@@@@@@@~                       ",
"        ]@@@@@@@@@@@@@                        ",
"        @@@@@@@@@@@@@@                        ",
"        @@@@@@@@@@@@@                         ",
"       )@@@@@@@@@@@@@                         ",
"       @@@@@@@@@@@@@@                         ",
"      (@@@@@@@@@@@@@                          ",
"      @@@@@@@@@@@@@*                          ",
"     @@@@@@@@@@@@@~c                          ",
"    @@@@@@@@@@@@@@d                           ",
"   @@@@@@@@@@@@@}e                            ",
" |@@@@@@@@@@@@@f>                             ",
" gb@@@@@@@@@@hi                               ",
"     fjaa4klm                                 "};
