/* XPM */
static const char * Bubble2_xpm[] = {
"61 40 6 1",
" 	c None",
".	c #9BE6FF",
"+	c #1191F4",
"@	c #0073DF",
"#	c #C6F1FF",
"$	c #FFFFFF",
"                                                             ",
"                                                             ",
"                     #                      +     #        @ ",
"    +@   +@           +              +  @         . @     #  ",
" +  #.                            .  #  .         +#         ",
"                @               +.   #. .            @..     ",
"               +           +.@   +    ++                @    ",
"         .            $     +                  +      . @    ",
"        +                                       #    +##     ",
"                                                             ",
"                                                   .         ",
"                                                             ",
"                                                             ",
"                                                        . @  ",
"                                                        ++   ",
"                                                             ",
"                                                             ",
"                                                             ",
"                                                             ",
"                                                             ",
"                                                             ",
"                                                             ",
"                                                             ",
"                                                             ",
"                                                             ",
"                                                             ",
"                                                             ",
"                                                       @.@   ",
"                                                          @  ",
"                                                        . @  ",
"                                                       +#@   ",
"                                               #.            ",
"                       @       @          +@                 ",
"               @      +             @              @         ",
"  .    +@ + @          .#          #              +.         ",
"           #                                                 ",
"                   @                         .@        + @   ",
"     .            #         @               +          # .   ",
"     #                                       #+         +    ",
"                                                             "};
