/* XPM */
static const char * CINCO_xpm[] = {
"10 20 40 1",
" 	c None",
".	c #FFFFFF",
"+	c #9F9F9F",
"@	c #000000",
"#	c #777777",
"$	c #EFEFEF",
"%	c #161616",
"&	c #050505",
"*	c #222222",
"=	c #828282",
"-	c #FBFBFB",
";	c #ABABAB",
">	c #909090",
",	c #E6E6E6",
"'	c #E9E9E9",
")	c #8F8F8F",
"!	c #040404",
"~	c #636363",
"{	c #6D6D6D",
"]	c #010101",
"^	c #E0E0E0",
"/	c #B0B0B0",
"(	c #AEAEAE",
"_	c #B1B1B1",
":	c #727272",
"<	c #E1E1E1",
"[	c #535353",
"}	c #AFAFAF",
"|	c #E8E8E8",
"1	c #ECECEC",
"2	c #979797",
"3	c #070707",
"4	c #686868",
"5	c #C9C9C9",
"6	c #4C4C4C",
"7	c #191919",
"8	c #060606",
"9	c #292929",
"0	c #8C8C8C",
"a	c #FDFDFD",
"..........",
"..........",
"..........",
".+@@@@@#..",
".+@$......",
".+@$......",
".+@$......",
".+@%&*=-..",
".;>,')!~..",
"......{]^.",
"....../@(.",
"......_@(.",
"......:]<.",
".[}|1234..",
".567890a..",
"..........",
"..........",
"..........",
"..........",
".........."};
