/* XPM */
static const char * DOIS_xpm[] = {
"10 20 45 1",
" 	c None",
".	c #FFFFFF",
"+	c #E0E0E0",
"@	c #6C6C6C",
"#	c #252525",
"$	c #0A0A0A",
"%	c #2B2B2B",
"&	c #919191",
"*	c #FCFCFC",
"=	c #474747",
"-	c #313131",
";	c #C2C2C2",
">	c #F4F4F4",
",	c #B3B3B3",
"'	c #0B0B0B",
")	c #676767",
"!	c #8B8B8B",
"~	c #F6F6F6",
"{	c #6F6F6F",
"]	c #020202",
"^	c #ECECEC",
"/	c #000000",
"(	c #D2D2D2",
"_	c #4D4D4D",
":	c #070707",
"<	c #F3F3F3",
"[	c #010101",
"}	c #6B6B6B",
"|	c #EBEBEB",
"1	c #1F1F1F",
"2	c #F2F2F2",
"3	c #F9F9F9",
"4	c #3D3D3D",
"5	c #131313",
"6	c #D9D9D9",
"7	c #5C5C5C",
"8	c #090909",
"9	c #C6C6C6",
"0	c #7E7E7E",
"a	c #030303",
"b	c #B2B2B2",
"c	c #9F9F9F",
"d	c #9E9E9E",
"e	c #2F2F2F",
"f	c #B7B7B7",
"..........",
"..........",
"..........",
".+@#$%&*..",
".=-;>,')..",
".!~...{]^.",
"......!/(.",
"......_:<.",
".....;[}..",
"....|1#2..",
"...3456...",
"...789....",
"..0ab.....",
".c[d......",
".e//////f.",
"..........",
"..........",
"..........",
"..........",
".........."};
