/* XPM */
static const char * M_xpm[] = {
"10 20 2 1",
" 	c None",
".	c #000000",
"          ",
"          ",
"          ",
" ..    .. ",
" ..   ... ",
" ...  ... ",
" . .  ... ",
" . . .... ",
" . ... .. ",
" .  .. .. ",
" .  .. .. ",
" .     .. ",
" .     .. ",
" .     .. ",
" .     .. ",
"          ",
"          ",
"          ",
"          ",
"          "};
