/* XPM */
static const char * NOVE_xpm[] = {
"10 20 53 1",
" 	c None",
".	c #FFFFFF",
"+	c #9B9B9B",
"@	c #272727",
"#	c #050505",
"$	c #1B1B1B",
"%	c #787878",
"&	c #F9F9F9",
"*	c #AFAFAF",
"=	c #000000",
"-	c #929292",
";	c #F0F0F0",
">	c #BFBFBF",
",	c #141414",
"'	c #6B6B6B",
")	c #393939",
"!	c #383838",
"~	c #8B8B8B",
"{	c #040404",
"]	c #EBEBEB",
"^	c #111111",
"/	c #666666",
"(	c #C0C0C0",
"_	c #ACACAC",
":	c #676767",
"<	c #888888",
"[	c #797979",
"}	c #959595",
"|	c #F1F1F1",
"1	c #1C1C1C",
"2	c #070707",
"3	c #7B7B7B",
"4	c #969696",
"5	c #232323",
"6	c #292929",
"7	c #B3B3B3",
"8	c #0A0A0A",
"9	c #8F8F8F",
"0	c #E0E0E0",
"a	c #BDBDBD",
"b	c #838383",
"c	c #181818",
"d	c #FBFBFB",
"e	c #DADADA",
"f	c #777777",
"g	c #E2E2E2",
"h	c #F2F2F2",
"i	c #A8A8A8",
"j	c #FDFDFD",
"k	c #212121",
"l	c #090909",
"m	c #373737",
"n	c #B1B1B1",
"..........",
"..........",
"..........",
"..+@#$%&..",
".*=-;>,'..",
".)!...~{].",
".^/...(=_.",
".^:...(=<.",
".))...~=[.",
"._=}|(123.",
"..45#6789.",
"......0=a.",
"......bcd.",
".efgh+2i..",
".j9klmn...",
"..........",
"..........",
"..........",
"..........",
".........."};
