/* XPM */
static const char * OITO_xpm[] = {
"10 20 60 1",
" 	c None",
".	c #FFFFFF",
"+	c #ACACAC",
"@	c #343434",
"#	c #0C0C0C",
"$	c #181818",
"%	c #555555",
"&	c #DDDDDD",
"*	c #B7B7B7",
"=	c #010101",
"-	c #7C7C7C",
";	c #F1F1F1",
">	c #383838",
",	c #212121",
"'	c #F4F4F4",
")	c #606060",
"!	c #0D0D0D",
"~	c #FEFEFE",
"{	c #AFAFAF",
"]	c #000000",
"^	c #BDBDBD",
"/	c #656565",
"(	c #0E0E0E",
"_	c #B0B0B0",
":	c #C2C2C2",
"<	c #D4D4D4",
"[	c #111111",
"}	c #828282",
"|	c #F2F2F2",
"1	c #DEDEDE",
"2	c #3A3A3A",
"3	c #434343",
"4	c #131313",
"5	c #3F3F3F",
"6	c #EDEDED",
"7	c #B8B8B8",
"8	c #060606",
"9	c #8A8A8A",
"0	c #F0F0F0",
"a	c #DCDCDC",
"b	c #404040",
"c	c #2B2B2B",
"d	c #F3F3F3",
"e	c #363636",
"f	c #373737",
"g	c #D9D9D9",
"h	c #939393",
"i	c #5B5B5B",
"j	c #FDFDFD",
"k	c #6C6C6C",
"l	c #2F2F2F",
"m	c #DADADA",
"n	c #838383",
"o	c #9B9B9B",
"p	c #444444",
"q	c #E1E1E1",
"r	c #A0A0A0",
"s	c #313131",
"t	c #515151",
"u	c #D6D6D6",
"..........",
"..........",
"..........",
"..+@#$%&..",
".*=-;&>,'.",
".)!~..{]^.",
"./(~.._]:.",
".<[}|123~.",
"..^4]]56..",
".7890abcd.",
".ef...g]h.",
".[i...j=k.",
".le...m]n.",
".o]901p(q.",
"..rs#$tu..",
"..........",
"..........",
"..........",
"..........",
".........."};
