/* XPM */
static const char * P_xpm[] = {
"10 20 2 1",
" 	c None",
".	c #000000",
"          ",
"          ",
"          ",
"  .....   ",
"  .   ..  ",
"  .    .. ",
"  .    .. ",
"  .    .. ",
"  .   ..  ",
"  .....   ",
"  .       ",
"  .       ",
"  .       ",
"  .       ",
"  .       ",
"          ",
"          ",
"          ",
"          ",
"          "};
