/* XPM */
static const char * QUATRO_xpm[] = {
"10 20 27 1",
" 	c None",
".	c #FFFFFF",
"+	c #FBFBFB",
"@	c #2F2F2F",
"#	c #000000",
"$	c #AFAFAF",
"%	c #8A8A8A",
"&	c #111111",
"*	c #DFDFDF",
"=	c #0C0C0C",
"-	c #8D8D8D",
";	c #4A4A4A",
">	c #616161",
",	c #BFBFBF",
"'	c #A9A9A9",
")	c #E6E6E6",
"!	c #F0F0F0",
"~	c #191919",
"{	c #848484",
"]	c #686868",
"^	c #1E1E1E",
"/	c #F7F7F7",
"(	c #DCDCDC",
"_	c #020202",
":	c #A7A7A7",
"<	c #CBCBCB",
"[	c #1F1F1F",
"..........",
"..........",
"..........",
"....+@#$..",
"....%&#$..",
"...*=-#$..",
"...;>,#$..",
"..'=),#$..",
".!~{.,#$..",
".]^/.,#$..",
"(_:..,#$..",
"<#######[.",
".....,#$..",
".....,#$..",
".....,#$..",
"..........",
"..........",
"..........",
"..........",
".........."};
