/* XPM */
static const char * SEIS_xpm[] = {
"10 20 57 1",
" 	c None",
".	c #FFFFFF",
"+	c #F5F5F5",
"@	c #777777",
"#	c #1E1E1E",
"$	c #070707",
"%	c #3C3C3C",
"&	c #D0D0D0",
"*	c #FEFEFE",
"=	c #454545",
"-	c #333333",
";	c #CDCDCD",
">	c #F9F9F9",
",	c #C9C9C9",
"'	c #727272",
")	c #ABABAB",
"!	c #080808",
"~	c #E4E4E4",
"{	c #555555",
"]	c #4A4A4A",
"^	c #252525",
"/	c #6D6D6D",
"(	c #707070",
"_	c #121212",
":	c #0A0A0A",
"<	c #D5D5D5",
"[	c #0F0F0F",
"}	c #545454",
"|	c #E7E7E7",
"1	c #DFDFDF",
"2	c #3F3F3F",
"3	c #1D1D1D",
"4	c #F7F7F7",
"5	c #101010",
"6	c #090909",
"7	c #EEEEEE",
"8	c #000000",
"9	c #A1A1A1",
"0	c #1F1F1F",
"a	c #2D2D2D",
"b	c #FBFBFB",
"c	c #020202",
"d	c #797979",
"e	c #424242",
"f	c #7A7A7A",
"g	c #838383",
"h	c #A3A3A3",
"i	c #E9E9E9",
"j	c #131313",
"k	c #E1E1E1",
"l	c #414141",
"m	c #212121",
"n	c #F8F8F8",
"o	c #D1D1D1",
"p	c #444444",
"q	c #0B0B0B",
"r	c #DADADA",
"..........",
"..........",
"..........",
"..+@#$%&..",
".*=-;>,'..",
".)!~......",
".{].......",
".^/(_:=<..",
"._[}|1234.",
".567..&89.",
".0a...bcd.",
".ea...bcf.",
".g67..&8h.",
".ij}|klmn.",
"..opqq]r..",
"..........",
"..........",
"..........",
"..........",
".........."};
