/* XPM */
static const char * SETE_xpm[] = {
"10 20 31 1",
" 	c None",
".	c #FFFFFF",
"+	c #171717",
"@	c #000000",
"#	c #949494",
"$	c #7B7B7B",
"%	c #DCDCDC",
"&	c #FEFEFE",
"*	c #1F1F1F",
"=	c #3B3B3B",
"-	c #BEBEBE",
";	c #999999",
">	c #606060",
",	c #080808",
"'	c #EFEFEF",
")	c #F5F5F5",
"!	c #0C0C0C",
"~	c #565656",
"{	c #A3A3A3",
"]	c #B4B4B4",
"^	c #444444",
"/	c #FBFBFB",
"(	c #E4E4E4",
"_	c #020202",
":	c #717171",
"<	c #878787",
"[	c #D0D0D0",
"}	c #2A2A2A",
"|	c #2E2E2E",
"1	c #CACACA",
"2	c #8C8C8C",
"..........",
"..........",
"..........",
".+@@@@@@#.",
"......$@%.",
".....&*=..",
".....-@;..",
".....>,'..",
"....)!~...",
"....{@]...",
"....^+/...",
"...(_:....",
"...<@[....",
"...}|.....",
"..1@2.....",
"..........",
"..........",
"..........",
"..........",
".........."};
