/* XPM */
static const char * T_xpm[] = {
"10 20 2 1",
" 	c None",
".	c #000000",
"          ",
"          ",
"          ",
"......... ",
"    ..    ",
"    ..    ",
"    ..    ",
"    ..    ",
"    ..    ",
"    ..    ",
"    ..    ",
"    ..    ",
"    ..    ",
"    ..    ",
"    ..    ",
"          ",
"          ",
"          ",
"          ",
"          "};
