/* XPM */
static const char * TRES_xpm[] = {
"10 20 43 1",
" 	c None",
".	c #FFFFFF",
"+	c #EDEDED",
"@	c #858585",
"#	c #2D2D2D",
"$	c #0A0A0A",
"%	c #262626",
"&	c #808080",
"*	c #F5F5F5",
"=	c #D6D6D6",
"-	c #C0C0C0",
";	c #161616",
">	c #4F4F4F",
",	c #7F7F7F",
"'	c #000000",
")	c #EAEAEA",
"!	c #F7F7F7",
"~	c #BABABA",
"{	c #131313",
"]	c #5D5D5D",
"^	c #171717",
"/	c #5B5B5B",
"(	c #FBFBFB",
"_	c #B6B6B6",
":	c #191919",
"<	c #545454",
"[	c #A7A7A7",
"}	c #D4D4D4",
"|	c #979797",
"1	c #B3B3B3",
"2	c #484848",
"3	c #A9A9A9",
"4	c #E3E3E3",
"5	c #F3F3F3",
"6	c #1B1B1B",
"7	c #2E2E2E",
"8	c #FAFAFA",
"9	c #CECECE",
"0	c #5C5C5C",
"a	c #212121",
"b	c #090909",
"c	c #757575",
"d	c #EFEFEF",
"..........",
"..........",
"..........",
".+@#$%&*..",
".&@=*-;>..",
"......,').",
"......&').",
"....!~{]..",
"...^''/(..",
"....*_:<..",
"......['-.",
"......}'|.",
"......['1.",
".2345_678.",
".90ab%cd..",
"..........",
"..........",
"..........",
"..........",
".........."};
