/* XPM */
static const char * UM_xpm[] = {
"10 20 14 1",
" 	c None",
".	c #FFFFFF",
"+	c #C7C7C7",
"@	c #666666",
"#	c #0E0E0E",
"$	c #000000",
"%	c #DFDFDF",
"&	c #ECECEC",
"*	c #373737",
"=	c #989898",
"-	c #808080",
";	c #8F8F8F",
">	c #1B1B1B",
",	c #737373",
"..........",
"..........",
"..........",
"..+@#$%...",
".&*=-$%...",
"....;$%...",
"....;$%...",
"....;$%...",
"....;$%...",
"....;$%...",
"....;$%...",
"....;$%...",
"....;$%...",
"....;$%...",
"..>$$$$$,.",
"..........",
"..........",
"..........",
"..........",
".........."};
